<?xml version="1.0" encoding="UTF-8" standalone="no"?><svg xmlns="http://www.w3.org/2000/svg" xmlns:xlink="http://www.w3.org/1999/xlink" contentScriptType="application/ecmascript" contentStyleType="text/css" height="693px" preserveAspectRatio="none" style="width:185px;height:693px;" version="1.1" viewBox="0 0 185 693" width="185px" zoomAndPan="magnify"><defs><filter height="300%" id="f19s52532m8hx8" width="300%" x="-1" y="-1"><feGaussianBlur result="blurOut" stdDeviation="2.0"/><feColorMatrix in="blurOut" result="blurOut2" type="matrix" values="0 0 0 0 0 0 0 0 0 0 0 0 0 0 0 0 0 0 .4 0"/><feOffset dx="4.0" dy="4.0" in="blurOut2" result="blurOut3"/><feBlend in="SourceGraphic" in2="blurOut3" mode="normal"/></filter></defs><g><!--class Ticket--><rect fill="#FEFECE" filter="url(#f19s52532m8hx8)" height="117.1797" id="Ticket" style="stroke: #A80036; stroke-width: 1.5;" width="87" x="46.5" y="8"/><ellipse cx="71.85" cy="24" fill="#ADD1B2" rx="11" ry="11" style="stroke: #A80036; stroke-width: 1.0;"/><path d="M73.85,20.5 Q74.0531,20 74.2875,19.75 Q74.5219,19.5 74.7875,19.5 Q75.2563,19.5 75.5531,19.7813 Q75.85,20.0625 75.85,20.7188 L75.85,22.2813 Q75.85,22.9375 75.5688,23.2188 Q75.2875,23.5 74.85,23.5 Q74.4594,23.5 74.2094,23.3281 Q73.9594,23.1563 73.85,22.7031 Q73.8031,22.3906 73.6313,22.2188 Q73.3188,21.8906 72.7563,21.6953 Q72.1938,21.5 71.6313,21.5 Q70.9281,21.5 70.3422,21.7813 Q69.7563,22.0625 69.3031,22.6875 Q68.85,23.3125 68.85,24.1719 L68.85,25.0938 Q68.85,26.125 69.6938,26.8125 Q70.5375,27.5 72.0375,27.5 Q72.9281,27.5 73.5531,27.2969 Q73.9125,27.1875 74.3188,26.8281 Q74.5844,26.625 74.725,26.5625 Q74.8656,26.5 75.0375,26.5 Q75.3656,26.5 75.6078,26.7578 Q75.85,27.0156 75.85,27.375 Q75.85,27.7188 75.5063,28.125 Q75.0063,28.7188 74.2094,29.0469 Q73.1625,29.5 71.8813,29.5 Q70.3813,29.5 69.1781,28.9063 Q68.2094,28.4375 67.5297,27.4219 Q66.85,26.4063 66.85,25.2031 L66.85,24.1094 Q66.85,22.8594 67.4516,21.7656 Q68.0531,20.6719 69.1078,20.0859 Q70.1625,19.5 71.35,19.5 Q72.0688,19.5 72.6938,19.75 Q73.3188,20 73.85,20.5 Z "/><text fill="#000000" font-family="sans-serif" font-size="12" lengthAdjust="spacingAndGlyphs" textLength="32" x="88.15" y="28.9102">Ticket</text><line style="stroke: #A80036; stroke-width: 1.5;" x1="47.5" x2="132.5" y1="40" y2="40"/><text fill="#000000" font-family="sans-serif" font-size="11" lengthAdjust="spacingAndGlyphs" textLength="75" x="52.5" y="55.4189">-seatNo : String</text><text fill="#000000" font-family="sans-serif" font-size="11" lengthAdjust="spacingAndGlyphs" textLength="70" x="52.5" y="69.2549">-price : Integer</text><line style="stroke: #A80036; stroke-width: 1.5;" x1="47.5" x2="132.5" y1="75.6719" y2="75.6719"/><text fill="#000000" font-family="sans-serif" font-size="11" lengthAdjust="spacingAndGlyphs" textLength="64" x="52.5" y="91.0908">+getSeatNo()</text><text fill="#000000" font-family="sans-serif" font-size="11" lengthAdjust="spacingAndGlyphs" textLength="53" x="52.5" y="104.9268">+getPrice()</text><text fill="#000000" font-family="sans-serif" font-size="11" lengthAdjust="spacingAndGlyphs" textLength="75" x="52.5" y="118.7627">+getTicketInfo()</text><!--class TicketList--><rect fill="#FEFECE" filter="url(#f19s52532m8hx8)" height="131.0156" id="TicketList" style="stroke: #A80036; stroke-width: 1.5;" width="130" x="25" y="203"/><ellipse cx="60.7" cy="219" fill="#ADD1B2" rx="11" ry="11" style="stroke: #A80036; stroke-width: 1.0;"/><path d="M62.7,215.5 Q62.9031,215 63.1375,214.75 Q63.3719,214.5 63.6375,214.5 Q64.1063,214.5 64.4031,214.7813 Q64.7,215.0625 64.7,215.7188 L64.7,217.2813 Q64.7,217.9375 64.4188,218.2188 Q64.1375,218.5 63.7,218.5 Q63.3094,218.5 63.0594,218.3281 Q62.8094,218.1563 62.7,217.7031 Q62.6531,217.3906 62.4813,217.2188 Q62.1688,216.8906 61.6063,216.6953 Q61.0438,216.5 60.4813,216.5 Q59.7781,216.5 59.1922,216.7813 Q58.6063,217.0625 58.1531,217.6875 Q57.7,218.3125 57.7,219.1719 L57.7,220.0938 Q57.7,221.125 58.5438,221.8125 Q59.3875,222.5 60.8875,222.5 Q61.7781,222.5 62.4031,222.2969 Q62.7625,222.1875 63.1688,221.8281 Q63.4344,221.625 63.575,221.5625 Q63.7156,221.5 63.8875,221.5 Q64.2156,221.5 64.4578,221.7578 Q64.7,222.0156 64.7,222.375 Q64.7,222.7188 64.3563,223.125 Q63.8563,223.7188 63.0594,224.0469 Q62.0125,224.5 60.7313,224.5 Q59.2313,224.5 58.0281,223.9063 Q57.0594,223.4375 56.3797,222.4219 Q55.7,221.4063 55.7,220.2031 L55.7,219.1094 Q55.7,217.8594 56.3016,216.7656 Q56.9031,215.6719 57.9578,215.0859 Q59.0125,214.5 60.2,214.5 Q60.9188,214.5 61.5438,214.75 Q62.1688,215 62.7,215.5 Z "/><text fill="#000000" font-family="sans-serif" font-size="12" lengthAdjust="spacingAndGlyphs" textLength="52" x="79.3" y="223.9102">TicketList</text><line style="stroke: #A80036; stroke-width: 1.5;" x1="26" x2="154" y1="235" y2="235"/><text fill="#000000" font-family="sans-serif" font-size="11" lengthAdjust="spacingAndGlyphs" textLength="78" x="31" y="250.4189">-tickets : Ticket[]</text><text fill="#000000" font-family="sans-serif" font-size="11" lengthAdjust="spacingAndGlyphs" textLength="99" x="31" y="264.2549">-ticketCount : Integer</text><line style="stroke: #A80036; stroke-width: 1.5;" x1="26" x2="154" y1="270.6719" y2="270.6719"/><text fill="#000000" font-family="sans-serif" font-size="11" lengthAdjust="spacingAndGlyphs" textLength="118" x="31" y="286.0908">+setTicketCount(Integer)</text><text fill="#000000" font-family="sans-serif" font-size="11" lengthAdjust="spacingAndGlyphs" textLength="90" x="31" y="299.9268">+getTicket(Integer)</text><text fill="#000000" font-family="sans-serif" font-size="11" lengthAdjust="spacingAndGlyphs" textLength="88" x="31" y="313.7627">+addTicket(Ticket)</text><text fill="#000000" font-family="sans-serif" font-size="11" lengthAdjust="spacingAndGlyphs" textLength="106" x="31" y="327.5986">+removeTicket(Ticket)</text><!--class TicketListIterator--><rect fill="#FEFECE" filter="url(#f19s52532m8hx8)" height="117.1797" id="TicketListIterator" style="stroke: #A80036; stroke-width: 1.5;" width="122" x="29" y="412"/><ellipse cx="44" cy="428" fill="#ADD1B2" rx="11" ry="11" style="stroke: #A80036; stroke-width: 1.0;"/><path d="M46,424.5 Q46.2031,424 46.4375,423.75 Q46.6719,423.5 46.9375,423.5 Q47.4063,423.5 47.7031,423.7813 Q48,424.0625 48,424.7188 L48,426.2813 Q48,426.9375 47.7188,427.2188 Q47.4375,427.5 47,427.5 Q46.6094,427.5 46.3594,427.3281 Q46.1094,427.1563 46,426.7031 Q45.9531,426.3906 45.7813,426.2188 Q45.4688,425.8906 44.9063,425.6953 Q44.3438,425.5 43.7813,425.5 Q43.0781,425.5 42.4922,425.7813 Q41.9063,426.0625 41.4531,426.6875 Q41,427.3125 41,428.1719 L41,429.0938 Q41,430.125 41.8438,430.8125 Q42.6875,431.5 44.1875,431.5 Q45.0781,431.5 45.7031,431.2969 Q46.0625,431.1875 46.4688,430.8281 Q46.7344,430.625 46.875,430.5625 Q47.0156,430.5 47.1875,430.5 Q47.5156,430.5 47.7578,430.7578 Q48,431.0156 48,431.375 Q48,431.7188 47.6563,432.125 Q47.1563,432.7188 46.3594,433.0469 Q45.3125,433.5 44.0313,433.5 Q42.5313,433.5 41.3281,432.9063 Q40.3594,432.4375 39.6797,431.4219 Q39,430.4063 39,429.2031 L39,428.1094 Q39,426.8594 39.6016,425.7656 Q40.2031,424.6719 41.2578,424.0859 Q42.3125,423.5 43.5,423.5 Q44.2188,423.5 44.8438,423.75 Q45.4688,424 46,424.5 Z "/><text fill="#000000" font-family="sans-serif" font-size="12" lengthAdjust="spacingAndGlyphs" textLength="90" x="58" y="432.9102">TicketListIterator</text><line style="stroke: #A80036; stroke-width: 1.5;" x1="30" x2="150" y1="444" y2="444"/><text fill="#000000" font-family="sans-serif" font-size="11" lengthAdjust="spacingAndGlyphs" textLength="100" x="35" y="459.4189">-ticketList : TicketList</text><text fill="#000000" font-family="sans-serif" font-size="11" lengthAdjust="spacingAndGlyphs" textLength="109" x="35" y="473.2549">-currentTicket : Integer</text><line style="stroke: #A80036; stroke-width: 1.5;" x1="30" x2="150" y1="479.6719" y2="479.6719"/><text fill="#000000" font-family="sans-serif" font-size="11" lengthAdjust="spacingAndGlyphs" textLength="93" x="35" y="495.0908">+getCurrentTicket()</text><text fill="#000000" font-family="sans-serif" font-size="11" lengthAdjust="spacingAndGlyphs" textLength="79" x="35" y="508.9268">+getNextTicket()</text><text fill="#000000" font-family="sans-serif" font-size="11" lengthAdjust="spacingAndGlyphs" textLength="82" x="35" y="522.7627">+hasNextTicket()</text><!--class TicketListReverseIterator--><rect fill="#FEFECE" filter="url(#f19s52532m8hx8)" height="75.6719" id="TicketListReverseIterator" style="stroke: #A80036; stroke-width: 1.5;" width="168" x="6" y="607"/><ellipse cx="21" cy="623" fill="#ADD1B2" rx="11" ry="11" style="stroke: #A80036; stroke-width: 1.0;"/><path d="M23,619.5 Q23.2031,619 23.4375,618.75 Q23.6719,618.5 23.9375,618.5 Q24.4063,618.5 24.7031,618.7813 Q25,619.0625 25,619.7188 L25,621.2813 Q25,621.9375 24.7188,622.2188 Q24.4375,622.5 24,622.5 Q23.6094,622.5 23.3594,622.3281 Q23.1094,622.1563 23,621.7031 Q22.9531,621.3906 22.7813,621.2188 Q22.4688,620.8906 21.9063,620.6953 Q21.3438,620.5 20.7813,620.5 Q20.0781,620.5 19.4922,620.7813 Q18.9063,621.0625 18.4531,621.6875 Q18,622.3125 18,623.1719 L18,624.0938 Q18,625.125 18.8438,625.8125 Q19.6875,626.5 21.1875,626.5 Q22.0781,626.5 22.7031,626.2969 Q23.0625,626.1875 23.4688,625.8281 Q23.7344,625.625 23.875,625.5625 Q24.0156,625.5 24.1875,625.5 Q24.5156,625.5 24.7578,625.7578 Q25,626.0156 25,626.375 Q25,626.7188 24.6563,627.125 Q24.1563,627.7188 23.3594,628.0469 Q22.3125,628.5 21.0313,628.5 Q19.5313,628.5 18.3281,627.9063 Q17.3594,627.4375 16.6797,626.4219 Q16,625.4063 16,624.2031 L16,623.1094 Q16,621.8594 16.6016,620.7656 Q17.2031,619.6719 18.2578,619.0859 Q19.3125,618.5 20.5,618.5 Q21.2188,618.5 21.8438,618.75 Q22.4688,619 23,619.5 Z "/><text fill="#000000" font-family="sans-serif" font-size="12" lengthAdjust="spacingAndGlyphs" textLength="136" x="35" y="627.9102">TicketListReverseIterator</text><line style="stroke: #A80036; stroke-width: 1.5;" x1="7" x2="173" y1="639" y2="639"/><line style="stroke: #A80036; stroke-width: 1.5;" x1="7" x2="173" y1="647" y2="647"/><text fill="#000000" font-family="sans-serif" font-size="11" lengthAdjust="spacingAndGlyphs" textLength="79" x="12" y="662.4189">+getNextTicket()</text><text fill="#000000" font-family="sans-serif" font-size="11" lengthAdjust="spacingAndGlyphs" textLength="82" x="12" y="676.2549">+hasNextTicket()</text><!--link TicketListIterator to TicketListReverseIterator--><path d="M90,549.429 C90,569.4 90,589.9711 90,606.8065 " fill="none" id="TicketListIterator-TicketListReverseIterator" style="stroke: #A80036; stroke-width: 1.0;"/><polygon fill="none" points="83.0001,549.42,90,529.42,97.0001,549.42,83.0001,549.42" style="stroke: #A80036; stroke-width: 1.0;"/><text fill="#000000" font-family="sans-serif" font-size="13" lengthAdjust="spacingAndGlyphs" textLength="46" x="91" y="573.4951">extends</text><!--link Ticket to TicketList--><path d="M90,130.275 C90,153.415 90,179.659 90,202.954 " fill="none" id="Ticket-TicketList" style="stroke: #A80036; stroke-width: 1.0;"/><polygon fill="#A80036" points="90,125.08,86,134.08,90,130.08,94,134.08,90,125.08" style="stroke: #A80036; stroke-width: 1.0;"/><text fill="#000000" font-family="sans-serif" font-size="13" lengthAdjust="spacingAndGlyphs" textLength="28" x="91" y="169.4951">uses</text><!--link TicketList to TicketListIterator--><path d="M90,339.18 C90,362.902 90,389.139 90,411.816 " fill="none" id="TicketList-TicketListIterator" style="stroke: #A80036; stroke-width: 1.0;"/><polygon fill="#A80036" points="90,334.158,86,343.158,90,339.158,94,343.158,90,334.158" style="stroke: #A80036; stroke-width: 1.0;"/><text fill="#000000" font-family="sans-serif" font-size="13" lengthAdjust="spacingAndGlyphs" textLength="36" x="91" y="378.4951">iterats</text><!--
@startuml
skinparam classAttributeIconSize 0

class Ticket {
  {field} - seatNo : String
  {field} - price : Integer
  {method} + getSeatNo()
  {method} + getPrice()
  {method} + getTicketInfo()
}

class TicketList {
  {field} - tickets : Ticket[]
  {field} - ticketCount : Integer
  {method} + setTicketCount(Integer)
  {method} + getTicket(Integer)
  {method} + addTicket(Ticket)
  {method} + removeTicket(Ticket)
}

class TicketListIterator {
  {field} - ticketList : TicketList
  {field} - currentTicket : Integer
  {method} + getCurrentTicket()
  {method} + getNextTicket()
  {method} + hasNextTicket()
}

class TicketListReverseIterator {
  {method} + getNextTicket()
  {method} + hasNextTicket()
}

TicketListIterator <|- - TicketListReverseIterator : extends
Ticket <- - TicketList : uses
TicketList <- - TicketListIterator : iterats

@enduml

PlantUML version 1.2018.11(Sat Sep 22 19:43:53 EET 2018)
(GPL source distribution)
Java Runtime: OpenJDK Runtime Environment
JVM: OpenJDK 64-Bit Server VM
Java Version: 1.8.0_152-release-1024-b11
Operating System: Windows 10
OS Version: 10.0
Default Encoding: Cp1254
Language: tr
Country: TR
--></g></svg>