<?xml version="1.0" encoding="UTF-8" standalone="no"?><svg xmlns="http://www.w3.org/2000/svg" xmlns:xlink="http://www.w3.org/1999/xlink" contentScriptType="application/ecmascript" contentStyleType="text/css" height="485px" preserveAspectRatio="none" style="width:412px;height:485px;" version="1.1" viewBox="0 0 412 485" width="412px" zoomAndPan="magnify"><defs><filter height="300%" id="ff1lrgldgx9c5" width="300%" x="-1" y="-1"><feGaussianBlur result="blurOut" stdDeviation="2.0"/><feColorMatrix in="blurOut" result="blurOut2" type="matrix" values="0 0 0 0 0 0 0 0 0 0 0 0 0 0 0 0 0 0 .4 0"/><feOffset dx="4.0" dy="4.0" in="blurOut2" result="blurOut3"/><feBlend in="SourceGraphic" in2="blurOut3" mode="normal"/></filter></defs><g><!--class EventBuilder--><rect fill="#FEFECE" filter="url(#ff1lrgldgx9c5)" height="61.8359" id="EventBuilder" style="stroke: #A80036; stroke-width: 1.5;" width="205" x="187" y="203.5"/><ellipse cx="250.75" cy="219.5" fill="#ADD1B2" rx="11" ry="11" style="stroke: #A80036; stroke-width: 1.0;"/><path d="M252.75,216 Q252.9531,215.5 253.1875,215.25 Q253.4219,215 253.6875,215 Q254.1563,215 254.4531,215.2813 Q254.75,215.5625 254.75,216.2188 L254.75,217.7813 Q254.75,218.4375 254.4688,218.7188 Q254.1875,219 253.75,219 Q253.3594,219 253.1094,218.8281 Q252.8594,218.6563 252.75,218.2031 Q252.7031,217.8906 252.5313,217.7188 Q252.2188,217.3906 251.6563,217.1953 Q251.0938,217 250.5313,217 Q249.8281,217 249.2422,217.2813 Q248.6563,217.5625 248.2031,218.1875 Q247.75,218.8125 247.75,219.6719 L247.75,220.5938 Q247.75,221.625 248.5938,222.3125 Q249.4375,223 250.9375,223 Q251.8281,223 252.4531,222.7969 Q252.8125,222.6875 253.2188,222.3281 Q253.4844,222.125 253.625,222.0625 Q253.7656,222 253.9375,222 Q254.2656,222 254.5078,222.2578 Q254.75,222.5156 254.75,222.875 Q254.75,223.2188 254.4063,223.625 Q253.9063,224.2188 253.1094,224.5469 Q252.0625,225 250.7813,225 Q249.2813,225 248.0781,224.4063 Q247.1094,223.9375 246.4297,222.9219 Q245.75,221.9063 245.75,220.7031 L245.75,219.6094 Q245.75,218.3594 246.3516,217.2656 Q246.9531,216.1719 248.0078,215.5859 Q249.0625,215 250.25,215 Q250.9688,215 251.5938,215.25 Q252.2188,215.5 252.75,216 Z "/><text fill="#000000" font-family="sans-serif" font-size="12" lengthAdjust="spacingAndGlyphs" textLength="69" x="271.25" y="224.4102">EventBuilder</text><line style="stroke: #A80036; stroke-width: 1.5;" x1="188" x2="391" y1="235.5" y2="235.5"/><line style="stroke: #A80036; stroke-width: 1.5;" x1="188" x2="391" y1="243.5" y2="243.5"/><text fill="#000000" font-family="sans-serif" font-size="11" lengthAdjust="spacingAndGlyphs" textLength="193" x="193" y="258.9189">+makeEvent(String, String ,String,String)</text><!--class EventInterface--><rect fill="#FEFECE" filter="url(#ff1lrgldgx9c5)" height="61.8359" id="EventInterface" style="stroke: #A80036; stroke-width: 1.5;" width="111" x="6" y="8"/><ellipse cx="21" cy="24" fill="#B4A7E5" rx="11" ry="11" style="stroke: #A80036; stroke-width: 1.0;"/><path d="M22,21 L22,27 L24,27 L24.4844,27 L25,27.625 L25,28 L25,28.375 L24.4844,29 L24,29 L18,29 L17.5156,29 L17,28.375 L17,28 L17,27.625 L17.5156,27 L18,27 L20,27 L20,21 L18,21 L17.5156,21 L17,20.375 L17,20 L17,19.625 L17.5156,19 L18,19 L24,19 L24.4844,19 L25,19.625 L25,20 L25,20.375 L24.4844,21 L24,21 L22,21 Z "/><text fill="#000000" font-family="sans-serif" font-size="12" font-style="italic" lengthAdjust="spacingAndGlyphs" textLength="79" x="35" y="28.9102">EventInterface</text><line style="stroke: #A80036; stroke-width: 1.5;" x1="7" x2="116" y1="40" y2="40"/><line style="stroke: #A80036; stroke-width: 1.5;" x1="7" x2="116" y1="48" y2="48"/><text fill="#000000" font-family="sans-serif" font-size="11" lengthAdjust="spacingAndGlyphs" textLength="74" x="12" y="63.4189">+getEventInfo()</text><!--class Event--><rect fill="#FEFECE" filter="url(#ff1lrgldgx9c5)" height="172.5234" id="Event" style="stroke: #A80036; stroke-width: 1.5;" width="110" x="6.5" y="148"/><ellipse cx="43.1" cy="164" fill="#ADD1B2" rx="11" ry="11" style="stroke: #A80036; stroke-width: 1.0;"/><path d="M45.1,160.5 Q45.3031,160 45.5375,159.75 Q45.7719,159.5 46.0375,159.5 Q46.5063,159.5 46.8031,159.7813 Q47.1,160.0625 47.1,160.7188 L47.1,162.2813 Q47.1,162.9375 46.8188,163.2188 Q46.5375,163.5 46.1,163.5 Q45.7094,163.5 45.4594,163.3281 Q45.2094,163.1563 45.1,162.7031 Q45.0531,162.3906 44.8813,162.2188 Q44.5688,161.8906 44.0063,161.6953 Q43.4438,161.5 42.8813,161.5 Q42.1781,161.5 41.5922,161.7813 Q41.0063,162.0625 40.5531,162.6875 Q40.1,163.3125 40.1,164.1719 L40.1,165.0938 Q40.1,166.125 40.9438,166.8125 Q41.7875,167.5 43.2875,167.5 Q44.1781,167.5 44.8031,167.2969 Q45.1625,167.1875 45.5688,166.8281 Q45.8344,166.625 45.975,166.5625 Q46.1156,166.5 46.2875,166.5 Q46.6156,166.5 46.8578,166.7578 Q47.1,167.0156 47.1,167.375 Q47.1,167.7188 46.7563,168.125 Q46.2563,168.7188 45.4594,169.0469 Q44.4125,169.5 43.1313,169.5 Q41.6313,169.5 40.4281,168.9063 Q39.4594,168.4375 38.7797,167.4219 Q38.1,166.4063 38.1,165.2031 L38.1,164.1094 Q38.1,162.8594 38.7016,161.7656 Q39.3031,160.6719 40.3578,160.0859 Q41.4125,159.5 42.6,159.5 Q43.3188,159.5 43.9438,159.75 Q44.5688,160 45.1,160.5 Z "/><text fill="#000000" font-family="sans-serif" font-size="12" lengthAdjust="spacingAndGlyphs" textLength="30" x="61.9" y="168.9102">Event</text><line style="stroke: #A80036; stroke-width: 1.5;" x1="7.5" x2="115.5" y1="180" y2="180"/><text fill="#000000" font-family="sans-serif" font-size="11" lengthAdjust="spacingAndGlyphs" textLength="83" x="12.5" y="195.4189">-manager : String</text><text fill="#000000" font-family="sans-serif" font-size="11" lengthAdjust="spacingAndGlyphs" textLength="78" x="12.5" y="209.2549">-location : String</text><text fill="#000000" font-family="sans-serif" font-size="11" lengthAdjust="spacingAndGlyphs" textLength="87" x="12.5" y="223.0908">-date_time : String</text><text fill="#000000" font-family="sans-serif" font-size="11" lengthAdjust="spacingAndGlyphs" textLength="94" x="12.5" y="236.9268">-description : String</text><line style="stroke: #A80036; stroke-width: 1.5;" x1="7.5" x2="115.5" y1="243.3438" y2="243.3438"/><text fill="#000000" font-family="sans-serif" font-size="11" lengthAdjust="spacingAndGlyphs" textLength="98" x="12.5" y="258.7627">+getEventManager()</text><text fill="#000000" font-family="sans-serif" font-size="11" lengthAdjust="spacingAndGlyphs" textLength="70" x="12.5" y="272.5986">+getLocation()</text><text fill="#000000" font-family="sans-serif" font-size="11" lengthAdjust="spacingAndGlyphs" textLength="73" x="12.5" y="286.4346">+getDateTime()</text><text fill="#000000" font-family="sans-serif" font-size="11" lengthAdjust="spacingAndGlyphs" textLength="83" x="12.5" y="300.2705">+getDescription()</text><text fill="#000000" font-family="sans-serif" font-size="11" lengthAdjust="spacingAndGlyphs" textLength="74" x="12.5" y="314.1064">+getEventInfo()</text><!--class EventManager--><rect fill="#FEFECE" filter="url(#ff1lrgldgx9c5)" height="75.6719" id="EventManager" style="stroke: #A80036; stroke-width: 1.5;" width="110" x="166.5" y="399"/><ellipse cx="181.5" cy="415" fill="#ADD1B2" rx="11" ry="11" style="stroke: #A80036; stroke-width: 1.0;"/><path d="M183.5,411.5 Q183.7031,411 183.9375,410.75 Q184.1719,410.5 184.4375,410.5 Q184.9063,410.5 185.2031,410.7813 Q185.5,411.0625 185.5,411.7188 L185.5,413.2813 Q185.5,413.9375 185.2188,414.2188 Q184.9375,414.5 184.5,414.5 Q184.1094,414.5 183.8594,414.3281 Q183.6094,414.1563 183.5,413.7031 Q183.4531,413.3906 183.2813,413.2188 Q182.9688,412.8906 182.4063,412.6953 Q181.8438,412.5 181.2813,412.5 Q180.5781,412.5 179.9922,412.7813 Q179.4063,413.0625 178.9531,413.6875 Q178.5,414.3125 178.5,415.1719 L178.5,416.0938 Q178.5,417.125 179.3438,417.8125 Q180.1875,418.5 181.6875,418.5 Q182.5781,418.5 183.2031,418.2969 Q183.5625,418.1875 183.9688,417.8281 Q184.2344,417.625 184.375,417.5625 Q184.5156,417.5 184.6875,417.5 Q185.0156,417.5 185.2578,417.7578 Q185.5,418.0156 185.5,418.375 Q185.5,418.7188 185.1563,419.125 Q184.6563,419.7188 183.8594,420.0469 Q182.8125,420.5 181.5313,420.5 Q180.0313,420.5 178.8281,419.9063 Q177.8594,419.4375 177.1797,418.4219 Q176.5,417.4063 176.5,416.2031 L176.5,415.1094 Q176.5,413.8594 177.1016,412.7656 Q177.7031,411.6719 178.7578,411.0859 Q179.8125,410.5 181,410.5 Q181.7188,410.5 182.3438,410.75 Q182.9688,411 183.5,411.5 Z "/><text fill="#000000" font-family="sans-serif" font-size="12" lengthAdjust="spacingAndGlyphs" textLength="78" x="195.5" y="419.9102">EventManager</text><line style="stroke: #A80036; stroke-width: 1.5;" x1="167.5" x2="275.5" y1="431" y2="431"/><text fill="#000000" font-family="sans-serif" font-size="11" lengthAdjust="spacingAndGlyphs" textLength="83" x="172.5" y="446.4189">-manager : String</text><line style="stroke: #A80036; stroke-width: 1.5;" x1="167.5" x2="275.5" y1="452.8359" y2="452.8359"/><text fill="#000000" font-family="sans-serif" font-size="11" lengthAdjust="spacingAndGlyphs" textLength="98" x="172.5" y="468.2549">+getEventManager()</text><!--class Location--><rect fill="#FEFECE" filter="url(#ff1lrgldgx9c5)" height="75.6719" id="Location" style="stroke: #A80036; stroke-width: 1.5;" width="90" x="311.5" y="399"/><ellipse cx="331.45" cy="415" fill="#ADD1B2" rx="11" ry="11" style="stroke: #A80036; stroke-width: 1.0;"/><path d="M333.45,411.5 Q333.6531,411 333.8875,410.75 Q334.1219,410.5 334.3875,410.5 Q334.8563,410.5 335.1531,410.7813 Q335.45,411.0625 335.45,411.7188 L335.45,413.2813 Q335.45,413.9375 335.1688,414.2188 Q334.8875,414.5 334.45,414.5 Q334.0594,414.5 333.8094,414.3281 Q333.5594,414.1563 333.45,413.7031 Q333.4031,413.3906 333.2313,413.2188 Q332.9188,412.8906 332.3563,412.6953 Q331.7938,412.5 331.2313,412.5 Q330.5281,412.5 329.9422,412.7813 Q329.3563,413.0625 328.9031,413.6875 Q328.45,414.3125 328.45,415.1719 L328.45,416.0938 Q328.45,417.125 329.2938,417.8125 Q330.1375,418.5 331.6375,418.5 Q332.5281,418.5 333.1531,418.2969 Q333.5125,418.1875 333.9188,417.8281 Q334.1844,417.625 334.325,417.5625 Q334.4656,417.5 334.6375,417.5 Q334.9656,417.5 335.2078,417.7578 Q335.45,418.0156 335.45,418.375 Q335.45,418.7188 335.1063,419.125 Q334.6063,419.7188 333.8094,420.0469 Q332.7625,420.5 331.4813,420.5 Q329.9813,420.5 328.7781,419.9063 Q327.8094,419.4375 327.1297,418.4219 Q326.45,417.4063 326.45,416.2031 L326.45,415.1094 Q326.45,413.8594 327.0516,412.7656 Q327.6531,411.6719 328.7078,411.0859 Q329.7625,410.5 330.95,410.5 Q331.6688,410.5 332.2938,410.75 Q332.9188,411 333.45,411.5 Z "/><text fill="#000000" font-family="sans-serif" font-size="12" lengthAdjust="spacingAndGlyphs" textLength="47" x="346.55" y="419.9102">Location</text><line style="stroke: #A80036; stroke-width: 1.5;" x1="312.5" x2="400.5" y1="431" y2="431"/><text fill="#000000" font-family="sans-serif" font-size="11" lengthAdjust="spacingAndGlyphs" textLength="78" x="317.5" y="446.4189">-location : String</text><line style="stroke: #A80036; stroke-width: 1.5;" x1="312.5" x2="400.5" y1="452.8359" y2="452.8359"/><text fill="#000000" font-family="sans-serif" font-size="11" lengthAdjust="spacingAndGlyphs" textLength="70" x="317.5" y="468.2549">+getLocation()</text><!--link Event to EventBuilder--><path d="M121.7,234.5 C141.647,234.5 164.446,234.5 186.673,234.5 " fill="none" id="Event-EventBuilder" style="stroke: #A80036; stroke-width: 1.0;"/><polygon fill="#A80036" points="116.692,234.5,125.692,238.5,121.692,234.5,125.692,230.5,116.692,234.5" style="stroke: #A80036; stroke-width: 1.0;"/><text fill="#000000" font-family="sans-serif" font-size="13" lengthAdjust="spacingAndGlyphs" textLength="34" x="134.75" y="227.9951">builds</text><!--link EventBuilder to EventManager--><path d="M279.32,265.517 C267.76,299.6 248.819,355.449 235.784,393.8817 " fill="none" id="EventBuilder-EventManager" style="stroke: #A80036; stroke-width: 1.0;"/><polygon fill="#A80036" points="234.066,398.9495,240.7445,391.7109,235.6718,394.2144,233.1683,389.1416,234.066,398.9495" style="stroke: #A80036; stroke-width: 1.0;"/><text fill="#000000" font-family="sans-serif" font-size="13" lengthAdjust="spacingAndGlyphs" textLength="28" x="249.5" y="365.4951">uses</text><!--link EventBuilder to Location--><path d="M299.531,265.517 C310.92,299.6 329.583,355.449 342.426,393.8817 " fill="none" id="EventBuilder-Location" style="stroke: #A80036; stroke-width: 1.0;"/><polygon fill="#A80036" points="344.119,398.9495,345.0598,389.1457,342.534,394.2074,337.4724,391.6816,344.119,398.9495" style="stroke: #A80036; stroke-width: 1.0;"/><text fill="#000000" font-family="sans-serif" font-size="13" lengthAdjust="spacingAndGlyphs" textLength="28" x="333.5" y="365.4951">uses</text><!--link EventInterface to Event--><path d="M61.5,75.285 C61.5,95.697 61.5,122.339 61.5,147.924 " fill="none" id="EventInterface-Event" style="stroke: #A80036; stroke-width: 1.0;"/><polygon fill="#A80036" points="61.5,70.234,57.5,79.234,61.5,75.234,65.5,79.234,61.5,70.234" style="stroke: #A80036; stroke-width: 1.0;"/><text fill="#000000" font-family="sans-serif" font-size="13" lengthAdjust="spacingAndGlyphs" textLength="67" x="62.5" y="114.4951">implements</text><!--
@startuml

skinparam classAttributeIconSize 0
class EventBuilder {
  {method} + makeEvent(String, String ,String,String)
}

Interface EventInterface {
  {method} + getEventInfo()
}

class Event {
  {field} - manager : String
  {field} - location : String
  {field} - date_time : String
  {field} - description : String
  {method} + getEventManager()
  {method} + getLocation()
  {method} + getDateTime()
  {method} + getDescription()
  {method} + getEventInfo()
}

class EventManager {
  {field} - manager : String
  {method} + getEventManager()
}

class Location {
  {field} - location : String
  {method} + getLocation()
}

Event <- EventBuilder : builds
EventBuilder - -> EventManager : uses
EventBuilder - -> Location : uses
EventInterface <- - Event : implements


@enduml

PlantUML version 1.2018.11(Sat Sep 22 19:43:53 EET 2018)
(GPL source distribution)
Java Runtime: OpenJDK Runtime Environment
JVM: OpenJDK 64-Bit Server VM
Java Version: 1.8.0_152-release-1024-b11
Operating System: Windows 10
OS Version: 10.0
Default Encoding: Cp1254
Language: tr
Country: TR
--></g></svg>