<?xml version="1.0" encoding="UTF-8" standalone="no"?><svg xmlns="http://www.w3.org/2000/svg" xmlns:xlink="http://www.w3.org/1999/xlink" contentScriptType="application/ecmascript" contentStyleType="text/css" height="558.6px" preserveAspectRatio="none" style="width:463px;height:558px;" version="1.1" viewBox="0 0 463 558" width="463.2px" zoomAndPan="magnify"><defs><filter height="300%" id="fyxkyxeoj0qiy" width="300%" x="-1" y="-1"><feGaussianBlur result="blurOut" stdDeviation="1.2000000476837158"/><feColorMatrix in="blurOut" result="blurOut2" type="matrix" values="0 0 0 0 0 0 0 0 0 0 0 0 0 0 0 0 0 0 .4 0"/><feOffset dx="2.4000000953674316" dy="2.4000000953674316" in="blurOut2" result="blurOut3"/><feBlend in="SourceGraphic" in2="blurOut3" mode="normal"/></filter></defs><g><!--class Demo_index--><rect fill="#FEFECE" filter="url(#fyxkyxeoj0qiy)" height="28.8" id="Demo_index" style="stroke: #A80036; stroke-width: 0.9000000357627869;" width="61.2" x="395.4" y="38.1"/><ellipse cx="404.4" cy="47.7" fill="#ADD1B2" rx="6.6" ry="6.6" style="stroke: #A80036; stroke-width: 0.6000000238418579;"/><path d="M405.6,45.6 Q405.7219,45.3 405.8625,45.15 Q406.0031,45 406.1625,45 Q406.4438,45 406.6219,45.1688 Q406.8,45.3375 406.8,45.7313 L406.8,46.6688 Q406.8,47.0625 406.6313,47.2313 Q406.4625,47.4 406.2,47.4 Q405.9656,47.4 405.8156,47.2969 Q405.6656,47.1938 405.6,46.9219 Q405.5719,46.7344 405.4688,46.6313 Q405.2813,46.4344 404.9438,46.3172 Q404.6063,46.2 404.2688,46.2 Q403.8469,46.2 403.4953,46.3688 Q403.1438,46.5375 402.8719,46.9125 Q402.6,47.2875 402.6,47.8031 L402.6,48.3563 Q402.6,48.975 403.1063,49.3875 Q403.6125,49.8 404.5125,49.8 Q405.0469,49.8 405.4219,49.6781 Q405.6375,49.6125 405.8813,49.3969 Q406.0406,49.275 406.125,49.2375 Q406.2094,49.2 406.3125,49.2 Q406.5094,49.2 406.6547,49.3547 Q406.8,49.5094 406.8,49.725 Q406.8,49.9313 406.5938,50.175 Q406.2938,50.5313 405.8156,50.7281 Q405.1875,51 404.4188,51 Q403.5188,51 402.7969,50.6438 Q402.2156,50.3625 401.8078,49.7531 Q401.4,49.1438 401.4,48.4219 L401.4,47.7656 Q401.4,47.0156 401.761,46.3594 Q402.1219,45.7031 402.7547,45.3516 Q403.3875,45 404.1,45 Q404.5313,45 404.9063,45.15 Q405.2813,45.3 405.6,45.6 Z "/><text fill="#000000" font-family="sans-serif" font-size="7.2" lengthAdjust="spacingAndGlyphs" textLength="42" x="412.8" y="50.6461">Demo_index</text><line style="stroke: #A80036; stroke-width: 0.9000000357627869;" x1="396" x2="456" y1="57.3" y2="57.3"/><line style="stroke: #A80036; stroke-width: 0.9000000357627869;" x1="396" x2="456" y1="62.1" y2="62.1"/><!--class EventController--><rect fill="#FEFECE" filter="url(#fyxkyxeoj0qiy)" height="95.2125" id="EventController" style="stroke: #A80036; stroke-width: 0.9000000357627869;" width="100.2" x="256.5" y="4.8"/><ellipse cx="279.27" cy="14.4" fill="#ADD1B2" rx="6.6" ry="6.6" style="stroke: #A80036; stroke-width: 0.6000000238418579;"/><path d="M280.47,12.3 Q280.5919,12 280.7325,11.85 Q280.8731,11.7 281.0325,11.7 Q281.3138,11.7 281.4919,11.8688 Q281.67,12.0375 281.67,12.4313 L281.67,13.3688 Q281.67,13.7625 281.5013,13.9313 Q281.3325,14.1 281.07,14.1 Q280.8356,14.1 280.6856,13.9969 Q280.5356,13.8938 280.47,13.6219 Q280.4419,13.4344 280.3388,13.3313 Q280.1513,13.1344 279.8138,13.0172 Q279.4763,12.9 279.1388,12.9 Q278.7169,12.9 278.3653,13.0688 Q278.0138,13.2375 277.7419,13.6125 Q277.47,13.9875 277.47,14.5031 L277.47,15.0563 Q277.47,15.675 277.9763,16.0875 Q278.4825,16.5 279.3825,16.5 Q279.9169,16.5 280.2919,16.3781 Q280.5075,16.3125 280.7513,16.0969 Q280.9106,15.975 280.995,15.9375 Q281.0794,15.9 281.1825,15.9 Q281.3794,15.9 281.5247,16.0547 Q281.67,16.2094 281.67,16.425 Q281.67,16.6313 281.4638,16.875 Q281.1638,17.2313 280.6856,17.4281 Q280.0575,17.7 279.2888,17.7 Q278.3888,17.7 277.6669,17.3438 Q277.0856,17.0625 276.6778,16.4531 Q276.27,15.8438 276.27,15.1219 L276.27,14.4656 Q276.27,13.7156 276.6309,13.0594 Q276.9919,12.4031 277.6247,12.0516 Q278.2575,11.7 278.97,11.7 Q279.4013,11.7 279.7763,11.85 Q280.1513,12 280.47,12.3 Z "/><text fill="#000000" font-family="sans-serif" font-size="7.2" lengthAdjust="spacingAndGlyphs" textLength="50.4" x="290.73" y="17.3461">EventController</text><line style="stroke: #A80036; stroke-width: 0.9000000357627869;" x1="257.1" x2="356.1" y1="24" y2="24"/><text fill="#000000" font-family="sans-serif" font-size="6.6" lengthAdjust="spacingAndGlyphs" textLength="93" x="260.1" y="33.2514">-Factory :EventFactoryProducer</text><text fill="#000000" font-family="sans-serif" font-size="6.6" lengthAdjust="spacingAndGlyphs" textLength="55.2" x="260.1" y="41.5529">-View : EventView</text><text fill="#000000" font-family="sans-serif" font-size="6.6" lengthAdjust="spacingAndGlyphs" textLength="40.2" x="260.1" y="49.8545">-event : Event</text><line style="stroke: #A80036; stroke-width: 0.9000000357627869;" x1="257.1" x2="356.1" y1="53.7047" y2="53.7047"/><text fill="#000000" font-family="sans-serif" font-size="6.6" lengthAdjust="spacingAndGlyphs" textLength="34.2" x="260.1" y="62.9561">+setModel()</text><text fill="#000000" font-family="sans-serif" font-size="6.6" lengthAdjust="spacingAndGlyphs" textLength="33" x="260.1" y="71.2576">+setView()</text><text fill="#000000" font-family="sans-serif" font-size="6.6" lengthAdjust="spacingAndGlyphs" textLength="21.6" x="260.1" y="79.5592">+login()</text><text fill="#000000" font-family="sans-serif" font-size="6.6" lengthAdjust="spacingAndGlyphs" textLength="30.6" x="260.1" y="87.8607">+register()</text><text fill="#000000" font-family="sans-serif" font-size="6.6" lengthAdjust="spacingAndGlyphs" textLength="39.6" x="260.1" y="96.1623">+makeEvent()</text><!--class EventView--><rect fill="#FEFECE" filter="url(#fyxkyxeoj0qiy)" height="37.1016" id="EventView" style="stroke: #A80036; stroke-width: 0.9000000357627869;" width="52.8" x="154.2" y="33.9"/><ellipse cx="163.2" cy="43.5" fill="#ADD1B2" rx="6.6" ry="6.6" style="stroke: #A80036; stroke-width: 0.6000000238418579;"/><path d="M164.4,41.4 Q164.5219,41.1 164.6625,40.95 Q164.8031,40.8 164.9625,40.8 Q165.2438,40.8 165.4219,40.9688 Q165.6,41.1375 165.6,41.5313 L165.6,42.4688 Q165.6,42.8625 165.4313,43.0313 Q165.2625,43.2 165,43.2 Q164.7656,43.2 164.6156,43.0969 Q164.4656,42.9938 164.4,42.7219 Q164.3719,42.5344 164.2688,42.4313 Q164.0813,42.2344 163.7438,42.1172 Q163.4063,42 163.0688,42 Q162.6469,42 162.2953,42.1688 Q161.9438,42.3375 161.6719,42.7125 Q161.4,43.0875 161.4,43.6031 L161.4,44.1563 Q161.4,44.775 161.9063,45.1875 Q162.4125,45.6 163.3125,45.6 Q163.8469,45.6 164.2219,45.4781 Q164.4375,45.4125 164.6813,45.1969 Q164.8406,45.075 164.925,45.0375 Q165.0094,45 165.1125,45 Q165.3094,45 165.4547,45.1547 Q165.6,45.3094 165.6,45.525 Q165.6,45.7313 165.3938,45.975 Q165.0938,46.3313 164.6156,46.5281 Q163.9875,46.8 163.2188,46.8 Q162.3188,46.8 161.5969,46.4438 Q161.0156,46.1625 160.6078,45.5531 Q160.2,44.9438 160.2,44.2219 L160.2,43.5656 Q160.2,42.8156 160.5609,42.1594 Q160.9219,41.5031 161.5547,41.1516 Q162.1875,40.8 162.9,40.8 Q163.3313,40.8 163.7063,40.95 Q164.0813,41.1 164.4,41.4 Z "/><text fill="#000000" font-family="sans-serif" font-size="7.2" lengthAdjust="spacingAndGlyphs" textLength="33.6" x="171.6" y="46.4461">EventView</text><line style="stroke: #A80036; stroke-width: 0.9000000357627869;" x1="154.8" x2="206.4" y1="53.1" y2="53.1"/><line style="stroke: #A80036; stroke-width: 0.9000000357627869;" x1="154.8" x2="206.4" y1="57.9" y2="57.9"/><text fill="#000000" font-family="sans-serif" font-size="6.6" lengthAdjust="spacingAndGlyphs" textLength="37.2" x="157.8" y="67.1514">+printEvent()</text><!--class EventFactoryProducer--><rect fill="#FEFECE" filter="url(#fyxkyxeoj0qiy)" height="37.1016" id="EventFactoryProducer" style="stroke: #A80036; stroke-width: 0.9000000357627869;" width="90.6" x="261.3" y="147"/><ellipse cx="270.3" cy="156.6" fill="#ADD1B2" rx="6.6" ry="6.6" style="stroke: #A80036; stroke-width: 0.6000000238418579;"/><path d="M271.5,154.5 Q271.6219,154.2 271.7625,154.05 Q271.9031,153.9 272.0625,153.9 Q272.3438,153.9 272.5219,154.0688 Q272.7,154.2375 272.7,154.6313 L272.7,155.5688 Q272.7,155.9625 272.5313,156.1313 Q272.3625,156.3 272.1,156.3 Q271.8656,156.3 271.7156,156.1969 Q271.5656,156.0938 271.5,155.8219 Q271.4719,155.6344 271.3688,155.5313 Q271.1813,155.3344 270.8438,155.2172 Q270.5063,155.1 270.1688,155.1 Q269.7469,155.1 269.3953,155.2688 Q269.0438,155.4375 268.7719,155.8125 Q268.5,156.1875 268.5,156.7031 L268.5,157.2563 Q268.5,157.875 269.0063,158.2875 Q269.5125,158.7 270.4125,158.7 Q270.9469,158.7 271.3219,158.5781 Q271.5375,158.5125 271.7813,158.2969 Q271.9406,158.175 272.025,158.1375 Q272.1094,158.1 272.2125,158.1 Q272.4094,158.1 272.5547,158.2547 Q272.7,158.4094 272.7,158.625 Q272.7,158.8313 272.4938,159.075 Q272.1938,159.4313 271.7156,159.6281 Q271.0875,159.9 270.3188,159.9 Q269.4188,159.9 268.6969,159.5438 Q268.1156,159.2625 267.7078,158.6531 Q267.3,158.0438 267.3,157.3219 L267.3,156.6656 Q267.3,155.9156 267.6609,155.2594 Q268.0219,154.6031 268.6547,154.2516 Q269.2875,153.9 270,153.9 Q270.4313,153.9 270.8063,154.05 Q271.1813,154.2 271.5,154.5 Z "/><text fill="#000000" font-family="sans-serif" font-size="7.2" lengthAdjust="spacingAndGlyphs" textLength="71.4" x="278.7" y="159.5461">EventFactoryProducer</text><line style="stroke: #A80036; stroke-width: 0.9000000357627869;" x1="261.9" x2="351.3" y1="166.2" y2="166.2"/><line style="stroke: #A80036; stroke-width: 0.9000000357627869;" x1="261.9" x2="351.3" y1="171" y2="171"/><text fill="#000000" font-family="sans-serif" font-size="6.6" lengthAdjust="spacingAndGlyphs" textLength="39.6" x="264.9" y="180.2514">+getFactory()</text><!--class AbstractEventFactory--><rect fill="#FEFECE" filter="url(#fyxkyxeoj0qiy)" height="37.1016" id="AbstractEventFactory" style="stroke: #A80036; stroke-width: 0.9000000357627869;" width="88.8" x="133.8" y="147"/><ellipse cx="142.8" cy="156.6" fill="#A9DCDF" rx="6.6" ry="6.6" style="stroke: #A80036; stroke-width: 0.6000000238418579;"/><path d="M143.85,157.5 L141.8719,157.5 L141.6094,158.1 L141.6094,158.1 L141.8906,158.1 L142.2,158.475 L142.2,158.7 L142.2,158.925 L141.8906,159.3 L141.6094,159.3 L140.475,159.3 L140.1094,159.3 L139.8,158.925 L139.8,158.7 L139.8,158.475 L140.1094,158.1 L140.475,158.1 L141.8625,154.5 L141.3375,154.5 L140.7094,154.5 L140.4,154.125 L140.4,153.9 L140.4,153.675 L140.7094,153.3 L141.3375,153.3 L143.5406,153.3 L145.1531,158.1 L145.4906,158.1 L145.4906,158.1 L145.8,158.475 L145.8,158.7 L145.8,158.925 L145.4906,159.3 L145.1531,159.3 L144.0188,159.3 L143.7094,159.3 L143.4,158.925 L143.4,158.7 L143.4,158.475 L143.7094,158.1 L144.0188,158.1 L144.0188,158.1 L143.85,157.5 Z M143.5219,156.3 L142.8,154.1531 L142.1813,156.3 L143.5219,156.3 Z "/><text fill="#000000" font-family="sans-serif" font-size="7.2" font-style="italic" lengthAdjust="spacingAndGlyphs" textLength="69.6" x="151.2" y="159.5461">AbstractEventFactory</text><line style="stroke: #A80036; stroke-width: 0.9000000357627869;" x1="134.4" x2="222" y1="166.2" y2="166.2"/><line style="stroke: #A80036; stroke-width: 0.9000000357627869;" x1="134.4" x2="222" y1="171" y2="171"/><text fill="#000000" font-family="sans-serif" font-size="6.6" lengthAdjust="spacingAndGlyphs" textLength="39.6" x="137.4" y="180.2514">+makeEvent()</text><!--class GraduatedFactory--><rect fill="#FEFECE" filter="url(#fyxkyxeoj0qiy)" height="37.1016" id="GraduatedFactory" style="stroke: #A80036; stroke-width: 0.9000000357627869;" width="77.4" x="92.7" y="231"/><ellipse cx="101.7" cy="240.6" fill="#ADD1B2" rx="6.6" ry="6.6" style="stroke: #A80036; stroke-width: 0.6000000238418579;"/><path d="M102.9,238.5 Q103.0219,238.2 103.1625,238.05 Q103.3031,237.9 103.4625,237.9 Q103.7438,237.9 103.9219,238.0688 Q104.1,238.2375 104.1,238.6313 L104.1,239.5688 Q104.1,239.9625 103.9313,240.1313 Q103.7625,240.3 103.5,240.3 Q103.2656,240.3 103.1156,240.1969 Q102.9656,240.0938 102.9,239.8219 Q102.8719,239.6344 102.7688,239.5313 Q102.5813,239.3344 102.2438,239.2172 Q101.9063,239.1 101.5688,239.1 Q101.1469,239.1 100.7953,239.2688 Q100.4438,239.4375 100.1719,239.8125 Q99.9,240.1875 99.9,240.7031 L99.9,241.2563 Q99.9,241.875 100.4063,242.2875 Q100.9125,242.7 101.8125,242.7 Q102.3469,242.7 102.7219,242.5781 Q102.9375,242.5125 103.1813,242.2969 Q103.3406,242.175 103.425,242.1375 Q103.5094,242.1 103.6125,242.1 Q103.8094,242.1 103.9547,242.2547 Q104.1,242.4094 104.1,242.625 Q104.1,242.8313 103.8938,243.075 Q103.5938,243.4313 103.1156,243.6281 Q102.4875,243.9 101.7188,243.9 Q100.8188,243.9 100.0969,243.5438 Q99.5156,243.2625 99.1078,242.6531 Q98.7,242.0438 98.7,241.3219 L98.7,240.6656 Q98.7,239.9156 99.0609,239.2594 Q99.4219,238.6031 100.0547,238.2516 Q100.6875,237.9 101.4,237.9 Q101.8313,237.9 102.2063,238.05 Q102.5813,238.2 102.9,238.5 Z "/><text fill="#000000" font-family="sans-serif" font-size="7.2" lengthAdjust="spacingAndGlyphs" textLength="58.2" x="110.1" y="243.5461">GraduatedFactory</text><line style="stroke: #A80036; stroke-width: 0.9000000357627869;" x1="93.3" x2="169.5" y1="250.2" y2="250.2"/><line style="stroke: #A80036; stroke-width: 0.9000000357627869;" x1="93.3" x2="169.5" y1="255" y2="255"/><text fill="#000000" font-family="sans-serif" font-size="6.6" lengthAdjust="spacingAndGlyphs" textLength="39.6" x="96.3" y="264.2514">+makeEvent()</text><!--class GeneralFactory--><rect fill="#FEFECE" filter="url(#fyxkyxeoj0qiy)" height="37.1016" id="GeneralFactory" style="stroke: #A80036; stroke-width: 0.9000000357627869;" width="69" x="191.1" y="231"/><ellipse cx="200.1" cy="240.6" fill="#ADD1B2" rx="6.6" ry="6.6" style="stroke: #A80036; stroke-width: 0.6000000238418579;"/><path d="M201.3,238.5 Q201.4219,238.2 201.5625,238.05 Q201.7031,237.9 201.8625,237.9 Q202.1438,237.9 202.3219,238.0688 Q202.5,238.2375 202.5,238.6313 L202.5,239.5688 Q202.5,239.9625 202.3313,240.1313 Q202.1625,240.3 201.9,240.3 Q201.6656,240.3 201.5156,240.1969 Q201.3656,240.0938 201.3,239.8219 Q201.2719,239.6344 201.1688,239.5313 Q200.9813,239.3344 200.6438,239.2172 Q200.3063,239.1 199.9688,239.1 Q199.5469,239.1 199.1953,239.2688 Q198.8438,239.4375 198.5719,239.8125 Q198.3,240.1875 198.3,240.7031 L198.3,241.2563 Q198.3,241.875 198.8063,242.2875 Q199.3125,242.7 200.2125,242.7 Q200.7469,242.7 201.1219,242.5781 Q201.3375,242.5125 201.5813,242.2969 Q201.7406,242.175 201.825,242.1375 Q201.9094,242.1 202.0125,242.1 Q202.2094,242.1 202.3547,242.2547 Q202.5,242.4094 202.5,242.625 Q202.5,242.8313 202.2938,243.075 Q201.9938,243.4313 201.5156,243.6281 Q200.8875,243.9 200.1188,243.9 Q199.2188,243.9 198.4969,243.5438 Q197.9156,243.2625 197.5078,242.6531 Q197.1,242.0438 197.1,241.3219 L197.1,240.6656 Q197.1,239.9156 197.4609,239.2594 Q197.8219,238.6031 198.4547,238.2516 Q199.0875,237.9 199.8,237.9 Q200.2313,237.9 200.6063,238.05 Q200.9813,238.2 201.3,238.5 Z "/><text fill="#000000" font-family="sans-serif" font-size="7.2" lengthAdjust="spacingAndGlyphs" textLength="49.8" x="208.5" y="243.5461">GeneralFactory</text><line style="stroke: #A80036; stroke-width: 0.9000000357627869;" x1="191.7" x2="259.5" y1="250.2" y2="250.2"/><line style="stroke: #A80036; stroke-width: 0.9000000357627869;" x1="191.7" x2="259.5" y1="255" y2="255"/><text fill="#000000" font-family="sans-serif" font-size="6.6" lengthAdjust="spacingAndGlyphs" textLength="39.6" x="194.7" y="264.2514">+makeEvent()</text><!--class Event--><rect fill="#FEFECE" filter="url(#fyxkyxeoj0qiy)" height="37.1016" id="Event" style="stroke: #A80036; stroke-width: 0.9000000357627869;" width="51.6" x="157.8" y="315"/><ellipse cx="173.01" cy="324.6" fill="#B4A7E5" rx="6.6" ry="6.6" style="stroke: #A80036; stroke-width: 0.6000000238418579;"/><path d="M173.61,322.8 L173.61,326.4 L174.81,326.4 L175.1006,326.4 L175.41,326.775 L175.41,327 L175.41,327.225 L175.1006,327.6 L174.81,327.6 L171.21,327.6 L170.9194,327.6 L170.61,327.225 L170.61,327 L170.61,326.775 L170.9194,326.4 L171.21,326.4 L172.41,326.4 L172.41,322.8 L171.21,322.8 L170.9194,322.8 L170.61,322.425 L170.61,322.2 L170.61,321.975 L170.9194,321.6 L171.21,321.6 L174.81,321.6 L175.1006,321.6 L175.41,321.975 L175.41,322.2 L175.41,322.425 L175.1006,322.8 L174.81,322.8 L173.61,322.8 Z "/><text fill="#000000" font-family="sans-serif" font-size="7.2" font-style="italic" lengthAdjust="spacingAndGlyphs" textLength="18.6" x="182.79" y="327.5461">Event</text><line style="stroke: #A80036; stroke-width: 0.9000000357627869;" x1="158.4" x2="208.8" y1="334.2" y2="334.2"/><line style="stroke: #A80036; stroke-width: 0.9000000357627869;" x1="158.4" x2="208.8" y1="339" y2="339"/><text fill="#000000" font-family="sans-serif" font-size="6.6" lengthAdjust="spacingAndGlyphs" textLength="44.4" x="161.4" y="348.2514">+getEventInfo()</text><!--class GraduatedEvent--><rect fill="#FEFECE" filter="url(#fyxkyxeoj0qiy)" height="153.3234" id="GraduatedEvent" style="stroke: #A80036; stroke-width: 0.9000000357627869;" width="72" x="3.6" y="399"/><ellipse cx="12.6" cy="408.6" fill="#ADD1B2" rx="6.6" ry="6.6" style="stroke: #A80036; stroke-width: 0.6000000238418579;"/><path d="M13.8,406.5 Q13.9219,406.2 14.0625,406.05 Q14.2031,405.9 14.3625,405.9 Q14.6438,405.9 14.8219,406.0688 Q15,406.2375 15,406.6313 L15,407.5688 Q15,407.9625 14.8313,408.1313 Q14.6625,408.3 14.4,408.3 Q14.1656,408.3 14.0156,408.1969 Q13.8656,408.0938 13.8,407.8219 Q13.7719,407.6344 13.6688,407.5313 Q13.4813,407.3344 13.1438,407.2172 Q12.8063,407.1 12.4688,407.1 Q12.0469,407.1 11.6953,407.2688 Q11.3438,407.4375 11.0719,407.8125 Q10.8,408.1875 10.8,408.7031 L10.8,409.2563 Q10.8,409.875 11.3063,410.2875 Q11.8125,410.7 12.7125,410.7 Q13.2469,410.7 13.6219,410.5781 Q13.8375,410.5125 14.0813,410.2969 Q14.2406,410.175 14.325,410.1375 Q14.4094,410.1 14.5125,410.1 Q14.7094,410.1 14.8547,410.2547 Q15,410.4094 15,410.625 Q15,410.8313 14.7938,411.075 Q14.4938,411.4313 14.0156,411.6281 Q13.3875,411.9 12.6188,411.9 Q11.7188,411.9 10.9969,411.5438 Q10.4156,411.2625 10.0078,410.6531 Q9.6,410.0438 9.6,409.3219 L9.6,408.6656 Q9.6,407.9156 9.9609,407.2594 Q10.3219,406.6031 10.9547,406.2516 Q11.5875,405.9 12.3,405.9 Q12.7313,405.9 13.1063,406.05 Q13.4813,406.2 13.8,406.5 Z "/><text fill="#000000" font-family="sans-serif" font-size="7.2" lengthAdjust="spacingAndGlyphs" textLength="52.8" x="21" y="411.5461">GraduatedEvent</text><line style="stroke: #A80036; stroke-width: 0.9000000357627869;" x1="4.2" x2="75" y1="418.2" y2="418.2"/><text fill="#000000" font-family="sans-serif" font-size="6.6" lengthAdjust="spacingAndGlyphs" textLength="49.8" x="7.2" y="427.4514">-manager : String</text><text fill="#000000" font-family="sans-serif" font-size="6.6" lengthAdjust="spacingAndGlyphs" textLength="46.8" x="7.2" y="435.7529">-location : String</text><text fill="#000000" font-family="sans-serif" font-size="6.6" lengthAdjust="spacingAndGlyphs" textLength="52.2" x="7.2" y="444.0545">-date_time : String</text><text fill="#000000" font-family="sans-serif" font-size="6.6" lengthAdjust="spacingAndGlyphs" textLength="56.4" x="7.2" y="452.3561">-description : String</text><text fill="#000000" font-family="sans-serif" font-size="6.6" lengthAdjust="spacingAndGlyphs" textLength="51.6" x="7.2" y="460.6576">-observers : User</text><line style="stroke: #A80036; stroke-width: 0.9000000357627869;" x1="4.2" x2="75" y1="464.5078" y2="464.5078"/><text fill="#000000" font-family="sans-serif" font-size="6.6" lengthAdjust="spacingAndGlyphs" textLength="43.2" x="7.2" y="473.7592">+__construct()</text><text fill="#000000" font-family="sans-serif" font-size="6.6" lengthAdjust="spacingAndGlyphs" textLength="26.4" x="7.2" y="482.0608">+attach()</text><text fill="#000000" font-family="sans-serif" font-size="6.6" lengthAdjust="spacingAndGlyphs" textLength="28.2" x="7.2" y="490.3623">+detach()</text><text fill="#000000" font-family="sans-serif" font-size="6.6" lengthAdjust="spacingAndGlyphs" textLength="27" x="7.2" y="498.6639">+trigger()</text><text fill="#000000" font-family="sans-serif" font-size="6.6" lengthAdjust="spacingAndGlyphs" textLength="24.6" x="7.2" y="506.9654">+notify()</text><text fill="#000000" font-family="sans-serif" font-size="6.6" lengthAdjust="spacingAndGlyphs" textLength="58.8" x="7.2" y="515.267">+getEventManager()</text><text fill="#000000" font-family="sans-serif" font-size="6.6" lengthAdjust="spacingAndGlyphs" textLength="42" x="7.2" y="523.5686">+getLocation()</text><text fill="#000000" font-family="sans-serif" font-size="6.6" lengthAdjust="spacingAndGlyphs" textLength="43.8" x="7.2" y="531.8701">+getDateTime()</text><text fill="#000000" font-family="sans-serif" font-size="6.6" lengthAdjust="spacingAndGlyphs" textLength="49.8" x="7.2" y="540.1717">+getDescription()</text><text fill="#000000" font-family="sans-serif" font-size="6.6" lengthAdjust="spacingAndGlyphs" textLength="44.4" x="7.2" y="548.4733">+getEventInfo()</text><!--class GraduatedMeeting--><rect fill="#FEFECE" filter="url(#fyxkyxeoj0qiy)" height="153.3234" id="GraduatedMeeting" style="stroke: #A80036; stroke-width: 0.9000000357627869;" width="79.8" x="96.9" y="399"/><ellipse cx="105.9" cy="408.6" fill="#ADD1B2" rx="6.6" ry="6.6" style="stroke: #A80036; stroke-width: 0.6000000238418579;"/><path d="M107.1,406.5 Q107.2219,406.2 107.3625,406.05 Q107.5031,405.9 107.6625,405.9 Q107.9438,405.9 108.1219,406.0688 Q108.3,406.2375 108.3,406.6313 L108.3,407.5688 Q108.3,407.9625 108.1313,408.1313 Q107.9625,408.3 107.7,408.3 Q107.4656,408.3 107.3156,408.1969 Q107.1656,408.0938 107.1,407.8219 Q107.0719,407.6344 106.9688,407.5313 Q106.7813,407.3344 106.4438,407.2172 Q106.1063,407.1 105.7688,407.1 Q105.3469,407.1 104.9953,407.2688 Q104.6438,407.4375 104.3719,407.8125 Q104.1,408.1875 104.1,408.7031 L104.1,409.2563 Q104.1,409.875 104.6063,410.2875 Q105.1125,410.7 106.0125,410.7 Q106.5469,410.7 106.9219,410.5781 Q107.1375,410.5125 107.3813,410.2969 Q107.5406,410.175 107.625,410.1375 Q107.7094,410.1 107.8125,410.1 Q108.0094,410.1 108.1547,410.2547 Q108.3,410.4094 108.3,410.625 Q108.3,410.8313 108.0938,411.075 Q107.7938,411.4313 107.3156,411.6281 Q106.6875,411.9 105.9188,411.9 Q105.0188,411.9 104.2969,411.5438 Q103.7156,411.2625 103.3078,410.6531 Q102.9,410.0438 102.9,409.3219 L102.9,408.6656 Q102.9,407.9156 103.2609,407.2594 Q103.6219,406.6031 104.2547,406.2516 Q104.8875,405.9 105.6,405.9 Q106.0313,405.9 106.4063,406.05 Q106.7813,406.2 107.1,406.5 Z "/><text fill="#000000" font-family="sans-serif" font-size="7.2" lengthAdjust="spacingAndGlyphs" textLength="60.6" x="114.3" y="411.5461">GraduatedMeeting</text><line style="stroke: #A80036; stroke-width: 0.9000000357627869;" x1="97.5" x2="176.1" y1="418.2" y2="418.2"/><text fill="#000000" font-family="sans-serif" font-size="6.6" lengthAdjust="spacingAndGlyphs" textLength="49.8" x="100.5" y="427.4514">-manager : String</text><text fill="#000000" font-family="sans-serif" font-size="6.6" lengthAdjust="spacingAndGlyphs" textLength="46.8" x="100.5" y="435.7529">-location : String</text><text fill="#000000" font-family="sans-serif" font-size="6.6" lengthAdjust="spacingAndGlyphs" textLength="52.2" x="100.5" y="444.0545">-date_time : String</text><text fill="#000000" font-family="sans-serif" font-size="6.6" lengthAdjust="spacingAndGlyphs" textLength="56.4" x="100.5" y="452.3561">-description : String</text><text fill="#000000" font-family="sans-serif" font-size="6.6" lengthAdjust="spacingAndGlyphs" textLength="51.6" x="100.5" y="460.6576">-observers : User</text><line style="stroke: #A80036; stroke-width: 0.9000000357627869;" x1="97.5" x2="176.1" y1="464.5078" y2="464.5078"/><text fill="#000000" font-family="sans-serif" font-size="6.6" lengthAdjust="spacingAndGlyphs" textLength="43.2" x="100.5" y="473.7592">+__construct()</text><text fill="#000000" font-family="sans-serif" font-size="6.6" lengthAdjust="spacingAndGlyphs" textLength="26.4" x="100.5" y="482.0608">+attach()</text><text fill="#000000" font-family="sans-serif" font-size="6.6" lengthAdjust="spacingAndGlyphs" textLength="28.2" x="100.5" y="490.3623">+detach()</text><text fill="#000000" font-family="sans-serif" font-size="6.6" lengthAdjust="spacingAndGlyphs" textLength="27" x="100.5" y="498.6639">+trigger()</text><text fill="#000000" font-family="sans-serif" font-size="6.6" lengthAdjust="spacingAndGlyphs" textLength="24.6" x="100.5" y="506.9654">+notify()</text><text fill="#000000" font-family="sans-serif" font-size="6.6" lengthAdjust="spacingAndGlyphs" textLength="58.8" x="100.5" y="515.267">+getEventManager()</text><text fill="#000000" font-family="sans-serif" font-size="6.6" lengthAdjust="spacingAndGlyphs" textLength="42" x="100.5" y="523.5686">+getLocation()</text><text fill="#000000" font-family="sans-serif" font-size="6.6" lengthAdjust="spacingAndGlyphs" textLength="43.8" x="100.5" y="531.8701">+getDateTime()</text><text fill="#000000" font-family="sans-serif" font-size="6.6" lengthAdjust="spacingAndGlyphs" textLength="49.8" x="100.5" y="540.1717">+getDescription()</text><text fill="#000000" font-family="sans-serif" font-size="6.6" lengthAdjust="spacingAndGlyphs" textLength="44.4" x="100.5" y="548.4733">+getEventInfo()</text><!--class GeneralEvent--><rect fill="#FEFECE" filter="url(#fyxkyxeoj0qiy)" height="153.3234" id="GeneralEvent" style="stroke: #A80036; stroke-width: 0.9000000357627869;" width="66" x="198" y="399"/><ellipse cx="208.08" cy="408.6" fill="#ADD1B2" rx="6.6" ry="6.6" style="stroke: #A80036; stroke-width: 0.6000000238418579;"/><path d="M209.28,406.5 Q209.4019,406.2 209.5425,406.05 Q209.6831,405.9 209.8425,405.9 Q210.1238,405.9 210.3019,406.0688 Q210.48,406.2375 210.48,406.6313 L210.48,407.5688 Q210.48,407.9625 210.3113,408.1313 Q210.1425,408.3 209.88,408.3 Q209.6456,408.3 209.4956,408.1969 Q209.3456,408.0938 209.28,407.8219 Q209.2519,407.6344 209.1488,407.5313 Q208.9613,407.3344 208.6238,407.2172 Q208.2863,407.1 207.9488,407.1 Q207.5269,407.1 207.1753,407.2688 Q206.8238,407.4375 206.5519,407.8125 Q206.28,408.1875 206.28,408.7031 L206.28,409.2563 Q206.28,409.875 206.7863,410.2875 Q207.2925,410.7 208.1925,410.7 Q208.7269,410.7 209.1019,410.5781 Q209.3175,410.5125 209.5613,410.2969 Q209.7206,410.175 209.805,410.1375 Q209.8894,410.1 209.9925,410.1 Q210.1894,410.1 210.3347,410.2547 Q210.48,410.4094 210.48,410.625 Q210.48,410.8313 210.2738,411.075 Q209.9738,411.4313 209.4956,411.6281 Q208.8675,411.9 208.0988,411.9 Q207.1988,411.9 206.4769,411.5438 Q205.8956,411.2625 205.4878,410.6531 Q205.08,410.0438 205.08,409.3219 L205.08,408.6656 Q205.08,407.9156 205.4409,407.2594 Q205.8019,406.6031 206.4347,406.2516 Q207.0675,405.9 207.78,405.9 Q208.2113,405.9 208.5863,406.05 Q208.9613,406.2 209.28,406.5 Z "/><text fill="#000000" font-family="sans-serif" font-size="7.2" lengthAdjust="spacingAndGlyphs" textLength="44.4" x="216.72" y="411.5461">GeneralEvent</text><line style="stroke: #A80036; stroke-width: 0.9000000357627869;" x1="198.6" x2="263.4" y1="418.2" y2="418.2"/><text fill="#000000" font-family="sans-serif" font-size="6.6" lengthAdjust="spacingAndGlyphs" textLength="49.8" x="201.6" y="427.4514">-manager : String</text><text fill="#000000" font-family="sans-serif" font-size="6.6" lengthAdjust="spacingAndGlyphs" textLength="46.8" x="201.6" y="435.7529">-location : String</text><text fill="#000000" font-family="sans-serif" font-size="6.6" lengthAdjust="spacingAndGlyphs" textLength="52.2" x="201.6" y="444.0545">-date_time : String</text><text fill="#000000" font-family="sans-serif" font-size="6.6" lengthAdjust="spacingAndGlyphs" textLength="56.4" x="201.6" y="452.3561">-description : String</text><text fill="#000000" font-family="sans-serif" font-size="6.6" lengthAdjust="spacingAndGlyphs" textLength="51.6" x="201.6" y="460.6576">-observers : User</text><line style="stroke: #A80036; stroke-width: 0.9000000357627869;" x1="198.6" x2="263.4" y1="464.5078" y2="464.5078"/><text fill="#000000" font-family="sans-serif" font-size="6.6" lengthAdjust="spacingAndGlyphs" textLength="43.2" x="201.6" y="473.7592">+__construct()</text><text fill="#000000" font-family="sans-serif" font-size="6.6" lengthAdjust="spacingAndGlyphs" textLength="26.4" x="201.6" y="482.0608">+attach()</text><text fill="#000000" font-family="sans-serif" font-size="6.6" lengthAdjust="spacingAndGlyphs" textLength="28.2" x="201.6" y="490.3623">+detach()</text><text fill="#000000" font-family="sans-serif" font-size="6.6" lengthAdjust="spacingAndGlyphs" textLength="27" x="201.6" y="498.6639">+trigger()</text><text fill="#000000" font-family="sans-serif" font-size="6.6" lengthAdjust="spacingAndGlyphs" textLength="24.6" x="201.6" y="506.9654">+notify()</text><text fill="#000000" font-family="sans-serif" font-size="6.6" lengthAdjust="spacingAndGlyphs" textLength="58.8" x="201.6" y="515.267">+getEventManager()</text><text fill="#000000" font-family="sans-serif" font-size="6.6" lengthAdjust="spacingAndGlyphs" textLength="42" x="201.6" y="523.5686">+getLocation()</text><text fill="#000000" font-family="sans-serif" font-size="6.6" lengthAdjust="spacingAndGlyphs" textLength="43.8" x="201.6" y="531.8701">+getDateTime()</text><text fill="#000000" font-family="sans-serif" font-size="6.6" lengthAdjust="spacingAndGlyphs" textLength="49.8" x="201.6" y="540.1717">+getDescription()</text><text fill="#000000" font-family="sans-serif" font-size="6.6" lengthAdjust="spacingAndGlyphs" textLength="44.4" x="201.6" y="548.4733">+getEventInfo()</text><!--class GeneralMeeting--><rect fill="#FEFECE" filter="url(#fyxkyxeoj0qiy)" height="153.3234" id="GeneralMeeting" style="stroke: #A80036; stroke-width: 0.9000000357627869;" width="71.4" x="285.3" y="399"/><ellipse cx="294.3" cy="408.6" fill="#ADD1B2" rx="6.6" ry="6.6" style="stroke: #A80036; stroke-width: 0.6000000238418579;"/><path d="M295.5,406.5 Q295.6219,406.2 295.7625,406.05 Q295.9031,405.9 296.0625,405.9 Q296.3438,405.9 296.5219,406.0688 Q296.7,406.2375 296.7,406.6313 L296.7,407.5688 Q296.7,407.9625 296.5313,408.1313 Q296.3625,408.3 296.1,408.3 Q295.8656,408.3 295.7156,408.1969 Q295.5656,408.0938 295.5,407.8219 Q295.4719,407.6344 295.3688,407.5313 Q295.1813,407.3344 294.8438,407.2172 Q294.5063,407.1 294.1688,407.1 Q293.7469,407.1 293.3953,407.2688 Q293.0438,407.4375 292.7719,407.8125 Q292.5,408.1875 292.5,408.7031 L292.5,409.2563 Q292.5,409.875 293.0063,410.2875 Q293.5125,410.7 294.4125,410.7 Q294.9469,410.7 295.3219,410.5781 Q295.5375,410.5125 295.7813,410.2969 Q295.9406,410.175 296.025,410.1375 Q296.1094,410.1 296.2125,410.1 Q296.4094,410.1 296.5547,410.2547 Q296.7,410.4094 296.7,410.625 Q296.7,410.8313 296.4938,411.075 Q296.1938,411.4313 295.7156,411.6281 Q295.0875,411.9 294.3188,411.9 Q293.4188,411.9 292.6969,411.5438 Q292.1156,411.2625 291.7078,410.6531 Q291.3,410.0438 291.3,409.3219 L291.3,408.6656 Q291.3,407.9156 291.6609,407.2594 Q292.0219,406.6031 292.6547,406.2516 Q293.2875,405.9 294,405.9 Q294.4313,405.9 294.8063,406.05 Q295.1813,406.2 295.5,406.5 Z "/><text fill="#000000" font-family="sans-serif" font-size="7.2" lengthAdjust="spacingAndGlyphs" textLength="52.2" x="302.7" y="411.5461">GeneralMeeting</text><line style="stroke: #A80036; stroke-width: 0.9000000357627869;" x1="285.9" x2="356.1" y1="418.2" y2="418.2"/><text fill="#000000" font-family="sans-serif" font-size="6.6" lengthAdjust="spacingAndGlyphs" textLength="49.8" x="288.9" y="427.4514">-manager : String</text><text fill="#000000" font-family="sans-serif" font-size="6.6" lengthAdjust="spacingAndGlyphs" textLength="46.8" x="288.9" y="435.7529">-location : String</text><text fill="#000000" font-family="sans-serif" font-size="6.6" lengthAdjust="spacingAndGlyphs" textLength="52.2" x="288.9" y="444.0545">-date_time : String</text><text fill="#000000" font-family="sans-serif" font-size="6.6" lengthAdjust="spacingAndGlyphs" textLength="56.4" x="288.9" y="452.3561">-description : String</text><text fill="#000000" font-family="sans-serif" font-size="6.6" lengthAdjust="spacingAndGlyphs" textLength="51.6" x="288.9" y="460.6576">-observers : User</text><line style="stroke: #A80036; stroke-width: 0.9000000357627869;" x1="285.9" x2="356.1" y1="464.5078" y2="464.5078"/><text fill="#000000" font-family="sans-serif" font-size="6.6" lengthAdjust="spacingAndGlyphs" textLength="43.2" x="288.9" y="473.7592">+__construct()</text><text fill="#000000" font-family="sans-serif" font-size="6.6" lengthAdjust="spacingAndGlyphs" textLength="26.4" x="288.9" y="482.0608">+attach()</text><text fill="#000000" font-family="sans-serif" font-size="6.6" lengthAdjust="spacingAndGlyphs" textLength="28.2" x="288.9" y="490.3623">+detach()</text><text fill="#000000" font-family="sans-serif" font-size="6.6" lengthAdjust="spacingAndGlyphs" textLength="27" x="288.9" y="498.6639">+trigger()</text><text fill="#000000" font-family="sans-serif" font-size="6.6" lengthAdjust="spacingAndGlyphs" textLength="24.6" x="288.9" y="506.9654">+notify()</text><text fill="#000000" font-family="sans-serif" font-size="6.6" lengthAdjust="spacingAndGlyphs" textLength="58.8" x="288.9" y="515.267">+getEventManager()</text><text fill="#000000" font-family="sans-serif" font-size="6.6" lengthAdjust="spacingAndGlyphs" textLength="42" x="288.9" y="523.5686">+getLocation()</text><text fill="#000000" font-family="sans-serif" font-size="6.6" lengthAdjust="spacingAndGlyphs" textLength="43.8" x="288.9" y="531.8701">+getDateTime()</text><text fill="#000000" font-family="sans-serif" font-size="6.6" lengthAdjust="spacingAndGlyphs" textLength="49.8" x="288.9" y="540.1717">+getDescription()</text><text fill="#000000" font-family="sans-serif" font-size="6.6" lengthAdjust="spacingAndGlyphs" textLength="44.4" x="288.9" y="548.4733">+getEventInfo()</text><!--link EventController to Demo_index--><path d="M359.7942,52.5 C371.931,52.5 384.4308,52.5 395.2548,52.5 " fill="none" id="EventController-Demo_index" style="stroke: #A80036; stroke-width: 0.6000000238418579;"/><polygon fill="#A80036" points="356.7174,52.5,362.1174,54.9,359.7174,52.5,362.1174,50.1,356.7174,52.5" style="stroke: #A80036; stroke-width: 0.6000000238418579;"/><text fill="#000000" font-family="sans-serif" font-size="7.8" lengthAdjust="spacingAndGlyphs" textLength="16.8" x="367.65" y="48.5971">uses</text><!--link EventView to EventController--><path d="M210.0828,52.5 C223.845,52.5 240.618,52.5 256.2966,52.5 " fill="none" id="EventView-EventController" style="stroke: #A80036; stroke-width: 0.6000000238418579;"/><polygon fill="#A80036" points="207.0138,52.5,212.4138,54.9,210.0138,52.5,212.4138,50.1,207.0138,52.5" style="stroke: #A80036; stroke-width: 0.6000000238418579;"/><text fill="#000000" font-family="sans-serif" font-size="7.8" lengthAdjust="spacingAndGlyphs" textLength="27.6" x="217.95" y="48.5971">updates</text><!--link EventController to EventFactoryProducer--><path d="M306.6,100.2312 C306.6,115.4286 306.6,131.5164 306.6,143.8566 " fill="none" id="EventController-EventFactoryProducer" style="stroke: #A80036; stroke-width: 0.6000000238418579;"/><polygon fill="#A80036" points="306.6,146.9106,309,141.5106,306.6,143.9106,304.2,141.5106,306.6,146.9106" style="stroke: #A80036; stroke-width: 0.6000000238418579;"/><text fill="#000000" font-family="sans-serif" font-size="7.8" lengthAdjust="spacingAndGlyphs" textLength="16.8" x="307.2" y="126.8971">uses</text><!--link AbstractEventFactory to EventFactoryProducer--><path d="M225.9822,165.6 C237.5274,165.6 249.8316,165.6 261.2604,165.6 " fill="none" id="AbstractEventFactory-EventFactoryProducer" style="stroke: #A80036; stroke-width: 0.6000000238418579;"/><polygon fill="#A80036" points="222.7476,165.6,228.1476,168,225.7476,165.6,228.1476,163.2,222.7476,165.6" style="stroke: #A80036; stroke-width: 0.6000000238418579;"/><text fill="#000000" font-family="sans-serif" font-size="7.8" lengthAdjust="spacingAndGlyphs" textLength="16.8" x="233.55" y="161.6971">uses</text><!--link AbstractEventFactory to GraduatedFactory--><path d="M161.9388,194.9694 C155.1996,206.8938 147.5856,220.3638 141.6468,230.8716 " fill="none" id="AbstractEventFactory-GraduatedFactory" style="stroke: #A80036; stroke-width: 0.6000000238418579;"/><polygon fill="none" points="158.3682,192.7512,167.9298,184.371,165.681,196.884,158.3682,192.7512" style="stroke: #A80036; stroke-width: 0.6000000238418579;"/><text fill="#000000" font-family="sans-serif" font-size="7.8" lengthAdjust="spacingAndGlyphs" textLength="27.6" x="158.4" y="210.8971">extends</text><!--link GraduatedFactory to Event--><path d="M142.8558,268.371 C151.0152,281.3136 161.9976,298.734 170.5044,312.2274 " fill="none" id="GraduatedFactory-Event" style="stroke: #A80036; stroke-width: 0.6000000238418579;"/><polygon fill="#A80036" points="172.1712,314.8716,171.3212,309.0237,170.5711,312.3339,167.2609,311.5839,172.1712,314.8716" style="stroke: #A80036; stroke-width: 0.6000000238418579;"/><text fill="#000000" font-family="sans-serif" font-size="7.8" lengthAdjust="spacingAndGlyphs" textLength="25.8" x="161.4" y="294.8971">creates</text><!--link AbstractEventFactory to GeneralFactory--><path d="M194.5644,194.7858 C201.4164,206.7552 209.1762,220.3098 215.2224,230.8716 " fill="none" id="AbstractEventFactory-GeneralFactory" style="stroke: #A80036; stroke-width: 0.6000000238418579;"/><polygon fill="none" points="190.9188,196.872,188.6022,184.371,198.2088,192.6984,190.9188,196.872" style="stroke: #A80036; stroke-width: 0.6000000238418579;"/><text fill="#000000" font-family="sans-serif" font-size="7.8" lengthAdjust="spacingAndGlyphs" textLength="27.6" x="205.2" y="210.8971">extends</text><!--link GeneralFactory to Event--><path d="M216.3828,268.371 C209.8452,281.2596 201.0546,298.5888 194.2224,312.0588 " fill="none" id="GeneralFactory-Event" style="stroke: #A80036; stroke-width: 0.6000000238418579;"/><polygon fill="#A80036" points="192.7956,314.8716,197.3782,311.1407,194.1523,312.1959,193.0971,308.97,192.7956,314.8716" style="stroke: #A80036; stroke-width: 0.6000000238418579;"/><text fill="#000000" font-family="sans-serif" font-size="7.8" lengthAdjust="spacingAndGlyphs" textLength="25.8" x="207.6" y="294.8971">creates</text><!--link Event to GraduatedEvent--><path d="M155.0034,346.6092 C142.1016,352.8258 127.0092,360.9918 114.6,370.2 C99.6684,381.2802 86.5356,396.213 75.6036,411.3354 " fill="none" id="Event-GraduatedEvent" style="stroke: #A80036; stroke-width: 0.6000000238418579;"/><polygon fill="#A80036" points="157.7214,345.3126,151.8142,345.4715,155.0137,346.6043,153.8809,349.8038,157.7214,345.3126" style="stroke: #A80036; stroke-width: 0.6000000238418579;"/><text fill="#000000" font-family="sans-serif" font-size="7.8" lengthAdjust="spacingAndGlyphs" textLength="40.2" x="115.2" y="378.8971">implements</text><!--link Event to GraduatedMeeting--><path d="M171.0414,354.9408 C168.4062,359.8326 165.8178,365.1084 163.8,370.2 C160.1946,379.299 156.9396,389.034 154.0416,398.7714 " fill="none" id="Event-GraduatedMeeting" style="stroke: #A80036; stroke-width: 0.6000000238418579;"/><polygon fill="#A80036" points="172.5072,352.2666,167.8073,355.8486,171.0654,354.8974,172.0165,358.1555,172.5072,352.2666" style="stroke: #A80036; stroke-width: 0.6000000238418579;"/><text fill="#000000" font-family="sans-serif" font-size="7.8" lengthAdjust="spacingAndGlyphs" textLength="40.2" x="164.4" y="378.8971">implements</text><!--link Event to GeneralEvent--><path d="M199.2972,354.9528 C202.4034,359.7708 205.3848,365.0124 207.6,370.2 C211.4514,379.2174 214.707,388.9518 217.4496,398.7306 " fill="none" id="Event-GeneralEvent" style="stroke: #A80036; stroke-width: 0.6000000238418579;"/><polygon fill="#A80036" points="197.5626,352.323,198.532,358.1523,199.2142,354.8274,202.5391,355.5097,197.5626,352.323" style="stroke: #A80036; stroke-width: 0.6000000238418579;"/><text fill="#000000" font-family="sans-serif" font-size="7.8" lengthAdjust="spacingAndGlyphs" textLength="40.2" x="211.2" y="378.8971">implements</text><!--link Event to GeneralMeeting--><path d="M212.2776,343.9632 C226.7886,349.9176 243.9918,358.6302 256.8,370.2 C267.5028,379.8678 277.0248,391.737 285.2448,403.9746 " fill="none" id="Event-GeneralMeeting" style="stroke: #A80036; stroke-width: 0.6000000238418579;"/><polygon fill="#A80036" points="209.4132,342.8094,213.5248,347.0538,212.1958,343.9307,215.3189,342.6016,209.4132,342.8094" style="stroke: #A80036; stroke-width: 0.6000000238418579;"/><text fill="#000000" font-family="sans-serif" font-size="7.8" lengthAdjust="spacingAndGlyphs" textLength="40.2" x="266.4" y="378.8971">implements</text><!--
@startuml

skinparam classAttributeIconSize 0

class Demo_index{

}

class EventController{
{field} - Factory :EventFactoryProducer
{field} - View : EventView
{field} - event : Event

{method} + setModel()
{method} + setView()
{method} + login()
{method} + register()
{method} + makeEvent()

}


class EventView{
{method} + printEvent()
}

class EventFactoryProducer {
  {method} + getFactory()
}

Abstract class AbstractEventFactory {
  {method} + makeEvent()
}

class GraduatedFactory {
  {method} + makeEvent()
}

class GeneralFactory {
  {method} + makeEvent()
}

Interface Event {
  {method} + getEventInfo()
}

class GraduatedEvent {
  {field} - manager : String
  {field} - location : String
  {field} - date_time : String
  {field} - description : String
  {field} - observers : User
  {method} + __construct()
  {method} + attach()
  {method} + detach()
  {method} + trigger()
  {method} + notify()
  {method} + getEventManager()
  {method} + getLocation()
  {method} + getDateTime()
  {method} + getDescription()
  {method} + getEventInfo()
}

class GraduatedMeeting {
  {field} - manager : String
  {field} - location : String
  {field} - date_time : String
  {field} - description : String
  {field} - observers : User
  {method} + __construct()
  {method} + attach()
  {method} + detach()
  {method} + trigger()
  {method} + notify()
  {method} + getEventManager()
  {method} + getLocation()
  {method} + getDateTime()
  {method} + getDescription()
  {method} + getEventInfo()
}

class GeneralEvent {
  {field} - manager : String
  {field} - location : String
  {field} - date_time : String
  {field} - description : String
  {field} - observers : User
  {method} + __construct()
  {method} + attach()
  {method} + detach()
  {method} + trigger()
  {method} + notify()
  {method} + getEventManager()
  {method} + getLocation()
  {method} + getDateTime()
  {method} + getDescription()
  {method} + getEventInfo()
}

class GeneralMeeting {
  {field} - manager : String
  {field} - location : String
  {field} - date_time : String
  {field} - description : String
  {field} - observers : User
  {method} + __construct()
  {method} + attach()
  {method} + detach()
  {method} + trigger()
  {method} + notify()
  {method} + getEventManager()
  {method} + getLocation()
  {method} + getDateTime()
  {method} + getDescription()
  {method} + getEventInfo()
}


EventController <- Demo_index : uses
EventView <- EventController : updates
EventController - -> EventFactoryProducer : uses

AbstractEventFactory <- EventFactoryProducer : uses
AbstractEventFactory <|- - GraduatedFactory : extends
GraduatedFactory - -> Event : creates
AbstractEventFactory <|- - GeneralFactory : extends
GeneralFactory - -> Event : creates

Event <- - GraduatedEvent : implements
Event <- - GraduatedMeeting : implements
Event <- - GeneralEvent : implements
Event <- - GeneralMeeting : implements






@enduml

PlantUML version 1.2018.11(Sat Sep 22 19:43:53 EET 2018)
(GPL source distribution)
Java Runtime: OpenJDK Runtime Environment
JVM: OpenJDK 64-Bit Server VM
Java Version: 1.8.0_152-release-1024-b11
Operating System: Windows 10
OS Version: 10.0
Default Encoding: Cp1254
Language: tr
Country: TR
--></g></svg>