<?xml version="1.0" encoding="UTF-8" standalone="no"?><svg xmlns="http://www.w3.org/2000/svg" xmlns:xlink="http://www.w3.org/1999/xlink" contentScriptType="application/ecmascript" contentStyleType="text/css" height="307.2px" preserveAspectRatio="none" style="width:339px;height:307px;" version="1.1" viewBox="0 0 339 307" width="339px" zoomAndPan="magnify"><defs><filter height="300%" id="f17ucy28sl7kjw" width="300%" x="-1" y="-1"><feGaussianBlur result="blurOut" stdDeviation="1.2000000476837158"/><feColorMatrix in="blurOut" result="blurOut2" type="matrix" values="0 0 0 0 0 0 0 0 0 0 0 0 0 0 0 0 0 0 .4 0"/><feOffset dx="2.4000000953674316" dy="2.4000000953674316" in="blurOut2" result="blurOut3"/><feBlend in="SourceGraphic" in2="blurOut3" mode="normal"/></filter></defs><g><!--class Demo_index--><rect fill="#FEFECE" filter="url(#f17ucy28sl7kjw)" height="28.8" id="Demo_index" style="stroke: #A80036; stroke-width: 0.9000000357627869;" width="61.2" x="255.6" y="42.3"/><ellipse cx="264.6" cy="51.9" fill="#ADD1B2" rx="6.6" ry="6.6" style="stroke: #A80036; stroke-width: 0.6000000238418579;"/><path d="M265.8,49.8 Q265.9219,49.5 266.0625,49.35 Q266.2031,49.2 266.3625,49.2 Q266.6438,49.2 266.8219,49.3688 Q267,49.5375 267,49.9313 L267,50.8688 Q267,51.2625 266.8313,51.4313 Q266.6625,51.6 266.4,51.6 Q266.1656,51.6 266.0156,51.4969 Q265.8656,51.3938 265.8,51.1219 Q265.7719,50.9344 265.6688,50.8313 Q265.4813,50.6344 265.1438,50.5172 Q264.8063,50.4 264.4688,50.4 Q264.0469,50.4 263.6953,50.5688 Q263.3438,50.7375 263.0719,51.1125 Q262.8,51.4875 262.8,52.0031 L262.8,52.5563 Q262.8,53.175 263.3063,53.5875 Q263.8125,54 264.7125,54 Q265.2469,54 265.6219,53.8781 Q265.8375,53.8125 266.0813,53.5969 Q266.2406,53.475 266.325,53.4375 Q266.4094,53.4 266.5125,53.4 Q266.7094,53.4 266.8547,53.5547 Q267,53.7094 267,53.925 Q267,54.1313 266.7938,54.375 Q266.4938,54.7313 266.0156,54.9281 Q265.3875,55.2 264.6188,55.2 Q263.7188,55.2 262.9969,54.8438 Q262.4156,54.5625 262.0078,53.9531 Q261.6,53.3438 261.6,52.6219 L261.6,51.9656 Q261.6,51.2156 261.9609,50.5594 Q262.3219,49.9031 262.9547,49.5516 Q263.5875,49.2 264.3,49.2 Q264.7313,49.2 265.1063,49.35 Q265.4813,49.5 265.8,49.8 Z "/><text fill="#000000" font-family="sans-serif" font-size="7.2" lengthAdjust="spacingAndGlyphs" textLength="42" x="273" y="54.8461">Demo_index</text><line style="stroke: #A80036; stroke-width: 0.9000000357627869;" x1="256.2" x2="316.2" y1="61.5" y2="61.5"/><line style="stroke: #A80036; stroke-width: 0.9000000357627869;" x1="256.2" x2="316.2" y1="66.3" y2="66.3"/><!--class PreparationController--><rect fill="#FEFECE" filter="url(#f17ucy28sl7kjw)" height="103.5141" id="PreparationController" style="stroke: #A80036; stroke-width: 0.9000000357627869;" width="90" x="126.6" y="4.8"/><ellipse cx="135.6" cy="14.4" fill="#ADD1B2" rx="6.6" ry="6.6" style="stroke: #A80036; stroke-width: 0.6000000238418579;"/><path d="M136.8,12.3 Q136.9219,12 137.0625,11.85 Q137.2031,11.7 137.3625,11.7 Q137.6438,11.7 137.8219,11.8688 Q138,12.0375 138,12.4313 L138,13.3688 Q138,13.7625 137.8313,13.9313 Q137.6625,14.1 137.4,14.1 Q137.1656,14.1 137.0156,13.9969 Q136.8656,13.8938 136.8,13.6219 Q136.7719,13.4344 136.6688,13.3313 Q136.4813,13.1344 136.1438,13.0172 Q135.8063,12.9 135.4688,12.9 Q135.0469,12.9 134.6953,13.0688 Q134.3438,13.2375 134.0719,13.6125 Q133.8,13.9875 133.8,14.5031 L133.8,15.0563 Q133.8,15.675 134.3063,16.0875 Q134.8125,16.5 135.7125,16.5 Q136.2469,16.5 136.6219,16.3781 Q136.8375,16.3125 137.0813,16.0969 Q137.2406,15.975 137.325,15.9375 Q137.4094,15.9 137.5125,15.9 Q137.7094,15.9 137.8547,16.0547 Q138,16.2094 138,16.425 Q138,16.6313 137.7938,16.875 Q137.4938,17.2313 137.0156,17.4281 Q136.3875,17.7 135.6188,17.7 Q134.7188,17.7 133.9969,17.3438 Q133.4156,17.0625 133.0078,16.4531 Q132.6,15.8438 132.6,15.1219 L132.6,14.4656 Q132.6,13.7156 132.9609,13.0594 Q133.3219,12.4031 133.9547,12.0516 Q134.5875,11.7 135.3,11.7 Q135.7313,11.7 136.1063,11.85 Q136.4813,12 136.8,12.3 Z "/><text fill="#000000" font-family="sans-serif" font-size="7.2" lengthAdjust="spacingAndGlyphs" textLength="70.8" x="144" y="17.3461">PreparationController</text><line style="stroke: #A80036; stroke-width: 0.9000000357627869;" x1="127.2" x2="216" y1="24" y2="24"/><text fill="#000000" font-family="sans-serif" font-size="6.6" lengthAdjust="spacingAndGlyphs" textLength="73.8" x="130.2" y="33.2514">-preparation : Preparation</text><text fill="#000000" font-family="sans-serif" font-size="6.6" lengthAdjust="spacingAndGlyphs" textLength="70.8" x="130.2" y="41.5529">-view : PreparationView</text><line style="stroke: #A80036; stroke-width: 0.9000000357627869;" x1="127.2" x2="216" y1="45.4031" y2="45.4031"/><text fill="#000000" font-family="sans-serif" font-size="6.6" lengthAdjust="spacingAndGlyphs" textLength="34.2" x="130.2" y="54.6545">+setModel()</text><text fill="#000000" font-family="sans-serif" font-size="6.6" lengthAdjust="spacingAndGlyphs" textLength="33" x="130.2" y="62.9561">+setView()</text><text fill="#000000" font-family="sans-serif" font-size="6.6" lengthAdjust="spacingAndGlyphs" textLength="21.6" x="130.2" y="71.2576">+build()</text><text fill="#000000" font-family="sans-serif" font-size="6.6" lengthAdjust="spacingAndGlyphs" textLength="45" x="130.2" y="79.5592">+addprojector()</text><text fill="#000000" font-family="sans-serif" font-size="6.6" lengthAdjust="spacingAndGlyphs" textLength="59.4" x="130.2" y="87.8607">+addSoundSystem()</text><text fill="#000000" font-family="sans-serif" font-size="6.6" lengthAdjust="spacingAndGlyphs" textLength="37.8" x="130.2" y="96.1623">+addChairs()</text><text fill="#000000" font-family="sans-serif" font-size="6.6" lengthAdjust="spacingAndGlyphs" textLength="40.8" x="130.2" y="104.4639">+addSnacks()</text><!--class PreparationView--><rect fill="#FEFECE" filter="url(#f17ucy28sl7kjw)" height="37.1016" id="PreparationView" style="stroke: #A80036; stroke-width: 0.9000000357627869;" width="73.2" x="3.6" y="38.1"/><ellipse cx="12.6" cy="47.7" fill="#ADD1B2" rx="6.6" ry="6.6" style="stroke: #A80036; stroke-width: 0.6000000238418579;"/><path d="M13.8,45.6 Q13.9219,45.3 14.0625,45.15 Q14.2031,45 14.3625,45 Q14.6438,45 14.8219,45.1688 Q15,45.3375 15,45.7313 L15,46.6688 Q15,47.0625 14.8313,47.2313 Q14.6625,47.4 14.4,47.4 Q14.1656,47.4 14.0156,47.2969 Q13.8656,47.1938 13.8,46.9219 Q13.7719,46.7344 13.6688,46.6313 Q13.4813,46.4344 13.1438,46.3172 Q12.8063,46.2 12.4688,46.2 Q12.0469,46.2 11.6953,46.3688 Q11.3438,46.5375 11.0719,46.9125 Q10.8,47.2875 10.8,47.8031 L10.8,48.3563 Q10.8,48.975 11.3063,49.3875 Q11.8125,49.8 12.7125,49.8 Q13.2469,49.8 13.6219,49.6781 Q13.8375,49.6125 14.0813,49.3969 Q14.2406,49.275 14.325,49.2375 Q14.4094,49.2 14.5125,49.2 Q14.7094,49.2 14.8547,49.3547 Q15,49.5094 15,49.725 Q15,49.9313 14.7938,50.175 Q14.4938,50.5313 14.0156,50.7281 Q13.3875,51 12.6188,51 Q11.7188,51 10.9969,50.6438 Q10.4156,50.3625 10.0078,49.7531 Q9.6,49.1438 9.6,48.4219 L9.6,47.7656 Q9.6,47.0156 9.9609,46.3594 Q10.3219,45.7031 10.9547,45.3516 Q11.5875,45 12.3,45 Q12.7313,45 13.1063,45.15 Q13.4813,45.3 13.8,45.6 Z "/><text fill="#000000" font-family="sans-serif" font-size="7.2" lengthAdjust="spacingAndGlyphs" textLength="54" x="21" y="50.6461">PreparationView</text><line style="stroke: #A80036; stroke-width: 0.9000000357627869;" x1="4.2" x2="76.2" y1="57.3" y2="57.3"/><line style="stroke: #A80036; stroke-width: 0.9000000357627869;" x1="4.2" x2="76.2" y1="62.1" y2="62.1"/><text fill="#000000" font-family="sans-serif" font-size="6.6" lengthAdjust="spacingAndGlyphs" textLength="21" x="7.2" y="71.3514">+print()</text><!--class PreparationBuilderInterface--><rect fill="#FEFECE" filter="url(#f17ucy28sl7kjw)" height="62.0063" id="PreparationBuilderInterface" style="stroke: #A80036; stroke-width: 0.9000000357627869;" width="109.8" x="116.7" y="155.4"/><ellipse cx="125.7" cy="165" fill="#B4A7E5" rx="6.6" ry="6.6" style="stroke: #A80036; stroke-width: 0.6000000238418579;"/><path d="M126.3,163.2 L126.3,166.8 L127.5,166.8 L127.7906,166.8 L128.1,167.175 L128.1,167.4 L128.1,167.625 L127.7906,168 L127.5,168 L123.9,168 L123.6094,168 L123.3,167.625 L123.3,167.4 L123.3,167.175 L123.6094,166.8 L123.9,166.8 L125.1,166.8 L125.1,163.2 L123.9,163.2 L123.6094,163.2 L123.3,162.825 L123.3,162.6 L123.3,162.375 L123.6094,162 L123.9,162 L127.5,162 L127.7906,162 L128.1,162.375 L128.1,162.6 L128.1,162.825 L127.7906,163.2 L127.5,163.2 L126.3,163.2 Z "/><text fill="#000000" font-family="sans-serif" font-size="7.2" font-style="italic" lengthAdjust="spacingAndGlyphs" textLength="90.6" x="134.1" y="167.9461">PreparationBuilderInterface</text><line style="stroke: #A80036; stroke-width: 0.9000000357627869;" x1="117.3" x2="225.9" y1="174.6" y2="174.6"/><line style="stroke: #A80036; stroke-width: 0.9000000357627869;" x1="117.3" x2="225.9" y1="179.4" y2="179.4"/><text fill="#000000" font-family="sans-serif" font-size="6.6" lengthAdjust="spacingAndGlyphs" textLength="45" x="120.3" y="188.6514">+addprojector()</text><text fill="#000000" font-family="sans-serif" font-size="6.6" lengthAdjust="spacingAndGlyphs" textLength="37.8" x="120.3" y="196.9529">+addChairs()</text><text fill="#000000" font-family="sans-serif" font-size="6.6" lengthAdjust="spacingAndGlyphs" textLength="59.4" x="120.3" y="205.2545">+addSoundSystem()</text><text fill="#000000" font-family="sans-serif" font-size="6.6" lengthAdjust="spacingAndGlyphs" textLength="40.8" x="120.3" y="213.5561">+addSnacks()</text><!--class Chair--><rect fill="#FEFECE" filter="url(#f17ucy28sl7kjw)" height="37.1016" id="Chair" style="stroke: #A80036; stroke-width: 0.9000000357627869;" width="63.6" x="13.2" y="264"/><ellipse cx="34.08" cy="273.6" fill="#ADD1B2" rx="6.6" ry="6.6" style="stroke: #A80036; stroke-width: 0.6000000238418579;"/><path d="M35.28,271.5 Q35.4019,271.2 35.5425,271.05 Q35.6831,270.9 35.8425,270.9 Q36.1238,270.9 36.3019,271.0688 Q36.48,271.2375 36.48,271.6313 L36.48,272.5688 Q36.48,272.9625 36.3113,273.1313 Q36.1425,273.3 35.88,273.3 Q35.6456,273.3 35.4956,273.1969 Q35.3456,273.0938 35.28,272.8219 Q35.2519,272.6344 35.1488,272.5313 Q34.9613,272.3344 34.6238,272.2172 Q34.2863,272.1 33.9488,272.1 Q33.5269,272.1 33.1753,272.2688 Q32.8238,272.4375 32.5519,272.8125 Q32.28,273.1875 32.28,273.7031 L32.28,274.2563 Q32.28,274.875 32.7863,275.2875 Q33.2925,275.7 34.1925,275.7 Q34.7269,275.7 35.1019,275.5781 Q35.3175,275.5125 35.5613,275.2969 Q35.7206,275.175 35.805,275.1375 Q35.8894,275.1 35.9925,275.1 Q36.1894,275.1 36.3347,275.2547 Q36.48,275.4094 36.48,275.625 Q36.48,275.8313 36.2738,276.075 Q35.9738,276.4313 35.4956,276.6281 Q34.8675,276.9 34.0988,276.9 Q33.1988,276.9 32.4769,276.5438 Q31.8956,276.2625 31.4878,275.6531 Q31.08,275.0438 31.08,274.3219 L31.08,273.6656 Q31.08,272.9156 31.4409,272.2594 Q31.8019,271.6031 32.4347,271.2516 Q33.0675,270.9 33.78,270.9 Q34.2113,270.9 34.5863,271.05 Q34.9613,271.2 35.28,271.5 Z "/><text fill="#000000" font-family="sans-serif" font-size="7.2" lengthAdjust="spacingAndGlyphs" textLength="18" x="45.12" y="276.5461">Chair</text><line style="stroke: #A80036; stroke-width: 0.9000000357627869;" x1="13.8" x2="76.2" y1="283.2" y2="283.2"/><text fill="#000000" font-family="sans-serif" font-size="6.6" lengthAdjust="spacingAndGlyphs" textLength="56.4" x="16.8" y="292.4514">-description : String</text><line style="stroke: #A80036; stroke-width: 0.9000000357627869;" x1="13.8" x2="76.2" y1="296.3016" y2="296.3016"/><!--class Projector--><rect fill="#FEFECE" filter="url(#f17ucy28sl7kjw)" height="37.1016" id="Projector" style="stroke: #A80036; stroke-width: 0.9000000357627869;" width="63.6" x="97.8" y="264"/><ellipse cx="113.55" cy="273.6" fill="#ADD1B2" rx="6.6" ry="6.6" style="stroke: #A80036; stroke-width: 0.6000000238418579;"/><path d="M114.75,271.5 Q114.8719,271.2 115.0125,271.05 Q115.1531,270.9 115.3125,270.9 Q115.5938,270.9 115.7719,271.0688 Q115.95,271.2375 115.95,271.6313 L115.95,272.5688 Q115.95,272.9625 115.7813,273.1313 Q115.6125,273.3 115.35,273.3 Q115.1156,273.3 114.9656,273.1969 Q114.8156,273.0938 114.75,272.8219 Q114.7219,272.6344 114.6188,272.5313 Q114.4313,272.3344 114.0938,272.2172 Q113.7563,272.1 113.4188,272.1 Q112.9969,272.1 112.6453,272.2688 Q112.2938,272.4375 112.0219,272.8125 Q111.75,273.1875 111.75,273.7031 L111.75,274.2563 Q111.75,274.875 112.2563,275.2875 Q112.7625,275.7 113.6625,275.7 Q114.1969,275.7 114.5719,275.5781 Q114.7875,275.5125 115.0313,275.2969 Q115.1906,275.175 115.275,275.1375 Q115.3594,275.1 115.4625,275.1 Q115.6594,275.1 115.8047,275.2547 Q115.95,275.4094 115.95,275.625 Q115.95,275.8313 115.7438,276.075 Q115.4438,276.4313 114.9656,276.6281 Q114.3375,276.9 113.5688,276.9 Q112.6688,276.9 111.9469,276.5438 Q111.3656,276.2625 110.9578,275.6531 Q110.55,275.0438 110.55,274.3219 L110.55,273.6656 Q110.55,272.9156 110.9109,272.2594 Q111.2719,271.6031 111.9047,271.2516 Q112.5375,270.9 113.25,270.9 Q113.6813,270.9 114.0563,271.05 Q114.4313,271.2 114.75,271.5 Z "/><text fill="#000000" font-family="sans-serif" font-size="7.2" lengthAdjust="spacingAndGlyphs" textLength="29.4" x="123.45" y="276.5461">Projector</text><line style="stroke: #A80036; stroke-width: 0.9000000357627869;" x1="98.4" x2="160.8" y1="283.2" y2="283.2"/><text fill="#000000" font-family="sans-serif" font-size="6.6" lengthAdjust="spacingAndGlyphs" textLength="56.4" x="101.4" y="292.4514">-description : String</text><line style="stroke: #A80036; stroke-width: 0.9000000357627869;" x1="98.4" x2="160.8" y1="296.3016" y2="296.3016"/><!--class Snack--><rect fill="#FEFECE" filter="url(#f17ucy28sl7kjw)" height="37.1016" id="Snack" style="stroke: #A80036; stroke-width: 0.9000000357627869;" width="63.6" x="182.4" y="264"/><ellipse cx="202.2" cy="273.6" fill="#ADD1B2" rx="6.6" ry="6.6" style="stroke: #A80036; stroke-width: 0.6000000238418579;"/><path d="M203.4,271.5 Q203.5219,271.2 203.6625,271.05 Q203.8031,270.9 203.9625,270.9 Q204.2438,270.9 204.4219,271.0688 Q204.6,271.2375 204.6,271.6313 L204.6,272.5688 Q204.6,272.9625 204.4313,273.1313 Q204.2625,273.3 204,273.3 Q203.7656,273.3 203.6156,273.1969 Q203.4656,273.0938 203.4,272.8219 Q203.3719,272.6344 203.2688,272.5313 Q203.0813,272.3344 202.7438,272.2172 Q202.4063,272.1 202.0688,272.1 Q201.6469,272.1 201.2953,272.2688 Q200.9438,272.4375 200.6719,272.8125 Q200.4,273.1875 200.4,273.7031 L200.4,274.2563 Q200.4,274.875 200.9063,275.2875 Q201.4125,275.7 202.3125,275.7 Q202.8469,275.7 203.2219,275.5781 Q203.4375,275.5125 203.6813,275.2969 Q203.8406,275.175 203.925,275.1375 Q204.0094,275.1 204.1125,275.1 Q204.3094,275.1 204.4547,275.2547 Q204.6,275.4094 204.6,275.625 Q204.6,275.8313 204.3938,276.075 Q204.0938,276.4313 203.6156,276.6281 Q202.9875,276.9 202.2188,276.9 Q201.3188,276.9 200.5969,276.5438 Q200.0156,276.2625 199.6078,275.6531 Q199.2,275.0438 199.2,274.3219 L199.2,273.6656 Q199.2,272.9156 199.5609,272.2594 Q199.9219,271.6031 200.5547,271.2516 Q201.1875,270.9 201.9,270.9 Q202.3313,270.9 202.7063,271.05 Q203.0813,271.2 203.4,271.5 Z "/><text fill="#000000" font-family="sans-serif" font-size="7.2" lengthAdjust="spacingAndGlyphs" textLength="20.4" x="213" y="276.5461">Snack</text><line style="stroke: #A80036; stroke-width: 0.9000000357627869;" x1="183" x2="245.4" y1="283.2" y2="283.2"/><text fill="#000000" font-family="sans-serif" font-size="6.6" lengthAdjust="spacingAndGlyphs" textLength="56.4" x="186" y="292.4514">-description : String</text><line style="stroke: #A80036; stroke-width: 0.9000000357627869;" x1="183" x2="245.4" y1="296.3016" y2="296.3016"/><!--class SoundSystem--><rect fill="#FEFECE" filter="url(#f17ucy28sl7kjw)" height="37.1016" id="SoundSystem" style="stroke: #A80036; stroke-width: 0.9000000357627869;" width="65.4" x="267.3" y="264"/><ellipse cx="276.3" cy="273.6" fill="#ADD1B2" rx="6.6" ry="6.6" style="stroke: #A80036; stroke-width: 0.6000000238418579;"/><path d="M277.5,271.5 Q277.6219,271.2 277.7625,271.05 Q277.9031,270.9 278.0625,270.9 Q278.3438,270.9 278.5219,271.0688 Q278.7,271.2375 278.7,271.6313 L278.7,272.5688 Q278.7,272.9625 278.5313,273.1313 Q278.3625,273.3 278.1,273.3 Q277.8656,273.3 277.7156,273.1969 Q277.5656,273.0938 277.5,272.8219 Q277.4719,272.6344 277.3688,272.5313 Q277.1813,272.3344 276.8438,272.2172 Q276.5063,272.1 276.1688,272.1 Q275.7469,272.1 275.3953,272.2688 Q275.0438,272.4375 274.7719,272.8125 Q274.5,273.1875 274.5,273.7031 L274.5,274.2563 Q274.5,274.875 275.0063,275.2875 Q275.5125,275.7 276.4125,275.7 Q276.9469,275.7 277.3219,275.5781 Q277.5375,275.5125 277.7813,275.2969 Q277.9406,275.175 278.025,275.1375 Q278.1094,275.1 278.2125,275.1 Q278.4094,275.1 278.5547,275.2547 Q278.7,275.4094 278.7,275.625 Q278.7,275.8313 278.4938,276.075 Q278.1938,276.4313 277.7156,276.6281 Q277.0875,276.9 276.3188,276.9 Q275.4188,276.9 274.6969,276.5438 Q274.1156,276.2625 273.7078,275.6531 Q273.3,275.0438 273.3,274.3219 L273.3,273.6656 Q273.3,272.9156 273.6609,272.2594 Q274.0219,271.6031 274.6547,271.2516 Q275.2875,270.9 276,270.9 Q276.4313,270.9 276.8063,271.05 Q277.1813,271.2 277.5,271.5 Z "/><text fill="#000000" font-family="sans-serif" font-size="7.2" lengthAdjust="spacingAndGlyphs" textLength="46.2" x="284.7" y="276.5461">SoundSystem</text><line style="stroke: #A80036; stroke-width: 0.9000000357627869;" x1="267.9" x2="332.1" y1="283.2" y2="283.2"/><text fill="#000000" font-family="sans-serif" font-size="6.6" lengthAdjust="spacingAndGlyphs" textLength="56.4" x="270.9" y="292.4514">-description : String</text><line style="stroke: #A80036; stroke-width: 0.9000000357627869;" x1="267.9" x2="332.1" y1="296.3016" y2="296.3016"/><!--link PreparationController to Demo_index--><path d="M219.7968,56.7 C231.918,56.7 244.5966,56.7 255.588,56.7 " fill="none" id="PreparationController-Demo_index" style="stroke: #A80036; stroke-width: 0.6000000238418579;"/><polygon fill="#A80036" points="216.7284,56.7,222.1284,59.1,219.7284,56.7,222.1284,54.3,216.7284,56.7" style="stroke: #A80036; stroke-width: 0.6000000238418579;"/><text fill="#000000" font-family="sans-serif" font-size="7.8" lengthAdjust="spacingAndGlyphs" textLength="16.8" x="227.7" y="52.7971">uses</text><!--link PreparationView to PreparationController--><path d="M79.9074,56.7 C94.6122,56.7 111.3888,56.7 126.5364,56.7 " fill="none" id="PreparationView-PreparationController" style="stroke: #A80036; stroke-width: 0.6000000238418579;"/><polygon fill="#A80036" points="76.8024,56.7,82.2024,59.1,79.8024,56.7,82.2024,54.3,76.8024,56.7" style="stroke: #A80036; stroke-width: 0.6000000238418579;"/><text fill="#000000" font-family="sans-serif" font-size="7.8" lengthAdjust="spacingAndGlyphs" textLength="27.6" x="87.9" y="52.7971">updates</text><!--link PreparationController to PreparationBuilderInterface--><path d="M171.6,108.6006 C171.6,123.2802 171.6,138.8982 171.6,152.2116 " fill="none" id="PreparationController-PreparationBuilderInterface" style="stroke: #A80036; stroke-width: 0.6000000238418579;"/><polygon fill="#A80036" points="171.6,155.367,174,149.967,171.6,152.367,169.2,149.967,171.6,155.367" style="stroke: #A80036; stroke-width: 0.6000000238418579;"/><text fill="#000000" font-family="sans-serif" font-size="7.8" lengthAdjust="spacingAndGlyphs" textLength="20.4" x="172.2" y="135.2971">builds</text><!--link PreparationBuilderInterface to Chair--><path d="M131.1948,217.2516 C111.6756,231.9144 88.8,249.098 71.5218,262.0772 " fill="none" id="PreparationBuilderInterface-Chair" style="stroke: #A80036; stroke-width: 0.6000000238418579;"/><polygon fill="#A80036" points="69.0144,263.9608,74.7734,262.6366,71.4131,262.1591,71.8906,258.7987,69.0144,263.9608" style="stroke: #A80036; stroke-width: 0.6000000238418579;"/><text fill="#000000" font-family="sans-serif" font-size="7.8" lengthAdjust="spacingAndGlyphs" textLength="16.8" x="105" y="243.8971">uses</text><!--link PreparationBuilderInterface to Projector--><path d="M158.1954,217.2516 C151.9014,231.5028 144.5556,248.1364 138.885,260.9757 " fill="none" id="PreparationBuilderInterface-Projector" style="stroke: #A80036; stroke-width: 0.6000000238418579;"/><polygon fill="#A80036" points="137.6286,263.8211,142.0056,259.8509,138.8406,261.0768,137.6147,257.9118,137.6286,263.8211" style="stroke: #A80036; stroke-width: 0.6000000238418579;"/><text fill="#000000" font-family="sans-serif" font-size="7.8" lengthAdjust="spacingAndGlyphs" textLength="16.8" x="149.4" y="243.8971">uses</text><!--link PreparationBuilderInterface to Snack--><path d="M185.196,217.2516 C191.58,231.5028 199.0308,248.1364 204.7824,260.9757 " fill="none" id="PreparationBuilderInterface-Snack" style="stroke: #A80036; stroke-width: 0.6000000238418579;"/><polygon fill="#A80036" points="206.0568,263.8211,206.0393,257.9118,204.8303,261.0833,201.6588,259.8742,206.0568,263.8211" style="stroke: #A80036; stroke-width: 0.6000000238418579;"/><text fill="#000000" font-family="sans-serif" font-size="7.8" lengthAdjust="spacingAndGlyphs" textLength="16.8" x="198" y="243.8971">uses</text><!--link PreparationBuilderInterface to SoundSystem--><path d="M212.5794,217.2516 C232.3764,231.9144 255.5772,249.098 273.1008,262.0772 " fill="none" id="PreparationBuilderInterface-SoundSystem" style="stroke: #A80036; stroke-width: 0.6000000238418579;"/><polygon fill="#A80036" points="275.6442,263.9608,272.7331,258.8183,273.2334,262.1754,269.8763,262.6757,275.6442,263.9608" style="stroke: #A80036; stroke-width: 0.6000000238418579;"/><text fill="#000000" font-family="sans-serif" font-size="7.8" lengthAdjust="spacingAndGlyphs" textLength="16.8" x="251.4" y="243.8971">uses</text><!--
@startuml

skinparam classAttributeIconSize 0

class Demo_index{

}

class PreparationController{
{field} - preparation : Preparation
{field} - view : PreparationView

{method} + setModel()
{method} + setView()
{method} + build()
{method} + addprojector()
{method} + addSoundSystem()
{method} + addChairs()
{method} + addSnacks()

}


class PreparationView{
{method} + print()
}

interface PreparationBuilderInterface{
{method} + addprojector()
{method} + addChairs()
{method} + addSoundSystem()
{method} + addSnacks()
}

class Chair{
{field} - description : String
}

class Projector{
{field} - description : String
}

class Snack{
{field} - description : String
}

class SoundSystem{
{field} - description : String
}




PreparationController <- Demo_index : uses
PreparationView <- PreparationController : updates
PreparationController - -> PreparationBuilderInterface : builds

PreparationBuilderInterface - -> Chair : uses
PreparationBuilderInterface - -> Projector : uses
PreparationBuilderInterface - -> Snack : uses
PreparationBuilderInterface - -> SoundSystem : uses


@enduml

PlantUML version 1.2018.11(Sat Sep 22 19:43:53 EET 2018)
(GPL source distribution)
Java Runtime: OpenJDK Runtime Environment
JVM: OpenJDK 64-Bit Server VM
Java Version: 1.8.0_152-release-1024-b11
Operating System: Windows 10
OS Version: 10.0
Default Encoding: Cp1254
Language: tr
Country: TR
--></g></svg>