<?xml version="1.0" encoding="UTF-8" standalone="no"?><svg xmlns="http://www.w3.org/2000/svg" xmlns:xlink="http://www.w3.org/1999/xlink" contentScriptType="application/ecmascript" contentStyleType="text/css" height="298.8px" preserveAspectRatio="none" style="width:351px;height:298px;" version="1.1" viewBox="0 0 351 298" width="351.6px" zoomAndPan="magnify"><defs><filter height="300%" id="f1rrrp15xi1bnf" width="300%" x="-1" y="-1"><feGaussianBlur result="blurOut" stdDeviation="1.2000000476837158"/><feColorMatrix in="blurOut" result="blurOut2" type="matrix" values="0 0 0 0 0 0 0 0 0 0 0 0 0 0 0 0 0 0 .4 0"/><feOffset dx="2.4000000953674316" dy="2.4000000953674316" in="blurOut2" result="blurOut3"/><feBlend in="SourceGraphic" in2="blurOut3" mode="normal"/></filter></defs><g><!--class Demo_index--><rect fill="#FEFECE" filter="url(#f1rrrp15xi1bnf)" height="28.8" id="Demo_index" style="stroke: #A80036; stroke-width: 0.9000000357627869;" width="61.2" x="234.9" y="29.7"/><ellipse cx="243.9" cy="39.3" fill="#ADD1B2" rx="6.6" ry="6.6" style="stroke: #A80036; stroke-width: 0.6000000238418579;"/><path d="M245.1,37.2 Q245.2219,36.9 245.3625,36.75 Q245.5031,36.6 245.6625,36.6 Q245.9438,36.6 246.1219,36.7688 Q246.3,36.9375 246.3,37.3313 L246.3,38.2688 Q246.3,38.6625 246.1313,38.8313 Q245.9625,39 245.7,39 Q245.4656,39 245.3156,38.8969 Q245.1656,38.7938 245.1,38.5219 Q245.0719,38.3344 244.9688,38.2313 Q244.7813,38.0344 244.4438,37.9172 Q244.1063,37.8 243.7688,37.8 Q243.3469,37.8 242.9953,37.9688 Q242.6438,38.1375 242.3719,38.5125 Q242.1,38.8875 242.1,39.4031 L242.1,39.9563 Q242.1,40.575 242.6063,40.9875 Q243.1125,41.4 244.0125,41.4 Q244.5469,41.4 244.9219,41.2781 Q245.1375,41.2125 245.3813,40.9969 Q245.5406,40.875 245.625,40.8375 Q245.7094,40.8 245.8125,40.8 Q246.0094,40.8 246.1547,40.9547 Q246.3,41.1094 246.3,41.325 Q246.3,41.5313 246.0938,41.775 Q245.7938,42.1313 245.3156,42.3281 Q244.6875,42.6 243.9188,42.6 Q243.0188,42.6 242.2969,42.2438 Q241.7156,41.9625 241.3078,41.3531 Q240.9,40.7438 240.9,40.0219 L240.9,39.3656 Q240.9,38.6156 241.2609,37.9594 Q241.6219,37.3031 242.2547,36.9516 Q242.8875,36.6 243.6,36.6 Q244.0313,36.6 244.4063,36.75 Q244.7813,36.9 245.1,37.2 Z "/><text fill="#000000" font-family="sans-serif" font-size="7.2" lengthAdjust="spacingAndGlyphs" textLength="42" x="252.3" y="42.2461">Demo_index</text><line style="stroke: #A80036; stroke-width: 0.9000000357627869;" x1="235.5" x2="295.5" y1="48.9" y2="48.9"/><line style="stroke: #A80036; stroke-width: 0.9000000357627869;" x1="235.5" x2="295.5" y1="53.7" y2="53.7"/><!--class LocationController--><rect fill="#FEFECE" filter="url(#f1rrrp15xi1bnf)" height="78.6094" id="LocationController" style="stroke: #A80036; stroke-width: 0.9000000357627869;" width="79.8" x="116.4" y="4.8"/><ellipse cx="125.4" cy="14.4" fill="#ADD1B2" rx="6.6" ry="6.6" style="stroke: #A80036; stroke-width: 0.6000000238418579;"/><path d="M126.6,12.3 Q126.7219,12 126.8625,11.85 Q127.0031,11.7 127.1625,11.7 Q127.4438,11.7 127.6219,11.8688 Q127.8,12.0375 127.8,12.4313 L127.8,13.3688 Q127.8,13.7625 127.6313,13.9313 Q127.4625,14.1 127.2,14.1 Q126.9656,14.1 126.8156,13.9969 Q126.6656,13.8938 126.6,13.6219 Q126.5719,13.4344 126.4688,13.3313 Q126.2813,13.1344 125.9438,13.0172 Q125.6063,12.9 125.2688,12.9 Q124.8469,12.9 124.4953,13.0688 Q124.1438,13.2375 123.8719,13.6125 Q123.6,13.9875 123.6,14.5031 L123.6,15.0563 Q123.6,15.675 124.1063,16.0875 Q124.6125,16.5 125.5125,16.5 Q126.0469,16.5 126.4219,16.3781 Q126.6375,16.3125 126.8813,16.0969 Q127.0406,15.975 127.125,15.9375 Q127.2094,15.9 127.3125,15.9 Q127.5094,15.9 127.6547,16.0547 Q127.8,16.2094 127.8,16.425 Q127.8,16.6313 127.5938,16.875 Q127.2938,17.2313 126.8156,17.4281 Q126.1875,17.7 125.4188,17.7 Q124.5188,17.7 123.7969,17.3438 Q123.2156,17.0625 122.8078,16.4531 Q122.4,15.8438 122.4,15.1219 L122.4,14.4656 Q122.4,13.7156 122.7609,13.0594 Q123.1219,12.4031 123.7547,12.0516 Q124.3875,11.7 125.1,11.7 Q125.5313,11.7 125.9063,11.85 Q126.2813,12 126.6,12.3 Z "/><text fill="#000000" font-family="sans-serif" font-size="7.2" lengthAdjust="spacingAndGlyphs" textLength="60.6" x="133.8" y="17.3461">LocationController</text><line style="stroke: #A80036; stroke-width: 0.9000000357627869;" x1="117" x2="195.6" y1="24" y2="24"/><text fill="#000000" font-family="sans-serif" font-size="6.6" lengthAdjust="spacingAndGlyphs" textLength="54.6" x="120" y="33.2514">-location : Location</text><text fill="#000000" font-family="sans-serif" font-size="6.6" lengthAdjust="spacingAndGlyphs" textLength="62.4" x="120" y="41.5529">-view : LocationView</text><line style="stroke: #A80036; stroke-width: 0.9000000357627869;" x1="117" x2="195.6" y1="45.4031" y2="45.4031"/><text fill="#000000" font-family="sans-serif" font-size="6.6" lengthAdjust="spacingAndGlyphs" textLength="34.2" x="120" y="54.6545">+setModel()</text><text fill="#000000" font-family="sans-serif" font-size="6.6" lengthAdjust="spacingAndGlyphs" textLength="33" x="120" y="62.9561">+setView()</text><text fill="#000000" font-family="sans-serif" font-size="6.6" lengthAdjust="spacingAndGlyphs" textLength="42" x="120" y="71.2576">+getLocation()</text><text fill="#000000" font-family="sans-serif" font-size="6.6" lengthAdjust="spacingAndGlyphs" textLength="43.8" x="120" y="79.5592">+useLocation()</text><!--class LocationView--><rect fill="#FEFECE" filter="url(#f1rrrp15xi1bnf)" height="37.1016" id="LocationView" style="stroke: #A80036; stroke-width: 0.9000000357627869;" width="63" x="3.6" y="25.5"/><ellipse cx="12.6" cy="35.1" fill="#ADD1B2" rx="6.6" ry="6.6" style="stroke: #A80036; stroke-width: 0.6000000238418579;"/><path d="M13.8,33 Q13.9219,32.7 14.0625,32.55 Q14.2031,32.4 14.3625,32.4 Q14.6438,32.4 14.8219,32.5688 Q15,32.7375 15,33.1313 L15,34.0688 Q15,34.4625 14.8313,34.6313 Q14.6625,34.8 14.4,34.8 Q14.1656,34.8 14.0156,34.6969 Q13.8656,34.5938 13.8,34.3219 Q13.7719,34.1344 13.6688,34.0313 Q13.4813,33.8344 13.1438,33.7172 Q12.8063,33.6 12.4688,33.6 Q12.0469,33.6 11.6953,33.7688 Q11.3438,33.9375 11.0719,34.3125 Q10.8,34.6875 10.8,35.2031 L10.8,35.7563 Q10.8,36.375 11.3063,36.7875 Q11.8125,37.2 12.7125,37.2 Q13.2469,37.2 13.6219,37.0781 Q13.8375,37.0125 14.0813,36.7969 Q14.2406,36.675 14.325,36.6375 Q14.4094,36.6 14.5125,36.6 Q14.7094,36.6 14.8547,36.7547 Q15,36.9094 15,37.125 Q15,37.3313 14.7938,37.575 Q14.4938,37.9313 14.0156,38.1281 Q13.3875,38.4 12.6188,38.4 Q11.7188,38.4 10.9969,38.0438 Q10.4156,37.7625 10.0078,37.1531 Q9.6,36.5438 9.6,35.8219 L9.6,35.1656 Q9.6,34.4156 9.9609,33.7594 Q10.3219,33.1031 10.9547,32.7516 Q11.5875,32.4 12.3,32.4 Q12.7313,32.4 13.1063,32.55 Q13.4813,32.7 13.8,33 Z "/><text fill="#000000" font-family="sans-serif" font-size="7.2" lengthAdjust="spacingAndGlyphs" textLength="43.8" x="21" y="38.0461">LocationView</text><line style="stroke: #A80036; stroke-width: 0.9000000357627869;" x1="4.2" x2="66" y1="44.7" y2="44.7"/><line style="stroke: #A80036; stroke-width: 0.9000000357627869;" x1="4.2" x2="66" y1="49.5" y2="49.5"/><text fill="#000000" font-family="sans-serif" font-size="6.6" lengthAdjust="spacingAndGlyphs" textLength="45.6" x="7.2" y="58.7514">+printLocation()</text><!--class Location--><rect fill="#FEFECE" filter="url(#f1rrrp15xi1bnf)" height="62.0063" id="Location" style="stroke: #A80036; stroke-width: 0.9000000357627869;" width="96" x="108.3" y="130.2"/><ellipse cx="139.65" cy="139.8" fill="#ADD1B2" rx="6.6" ry="6.6" style="stroke: #A80036; stroke-width: 0.6000000238418579;"/><path d="M140.85,137.7 Q140.9719,137.4 141.1125,137.25 Q141.2531,137.1 141.4125,137.1 Q141.6938,137.1 141.8719,137.2688 Q142.05,137.4375 142.05,137.8313 L142.05,138.7688 Q142.05,139.1625 141.8813,139.3313 Q141.7125,139.5 141.45,139.5 Q141.2156,139.5 141.0656,139.3969 Q140.9156,139.2938 140.85,139.0219 Q140.8219,138.8344 140.7188,138.7313 Q140.5313,138.5344 140.1938,138.4172 Q139.8563,138.3 139.5188,138.3 Q139.0969,138.3 138.7453,138.4688 Q138.3938,138.6375 138.1219,139.0125 Q137.85,139.3875 137.85,139.9031 L137.85,140.4563 Q137.85,141.075 138.3563,141.4875 Q138.8625,141.9 139.7625,141.9 Q140.2969,141.9 140.6719,141.7781 Q140.8875,141.7125 141.1313,141.4969 Q141.2906,141.375 141.375,141.3375 Q141.4594,141.3 141.5625,141.3 Q141.7594,141.3 141.9047,141.4547 Q142.05,141.6094 142.05,141.825 Q142.05,142.0313 141.8438,142.275 Q141.5438,142.6313 141.0656,142.8281 Q140.4375,143.1 139.6688,143.1 Q138.7688,143.1 138.0469,142.7438 Q137.4656,142.4625 137.0578,141.8531 Q136.65,141.2438 136.65,140.5219 L136.65,139.8656 Q136.65,139.1156 137.0109,138.4594 Q137.3719,137.8031 138.0047,137.4516 Q138.6375,137.1 139.35,137.1 Q139.7813,137.1 140.1563,137.25 Q140.5313,137.4 140.85,137.7 Z "/><text fill="#000000" font-family="sans-serif" font-size="7.2" lengthAdjust="spacingAndGlyphs" textLength="28.2" x="151.95" y="142.7461">Location</text><line style="stroke: #A80036; stroke-width: 0.9000000357627869;" x1="108.9" x2="203.7" y1="149.4" y2="149.4"/><text fill="#000000" font-family="sans-serif" font-size="6.6" lengthAdjust="spacingAndGlyphs" textLength="37.2" x="111.9" y="158.6514">-type : String</text><text fill="#000000" font-family="sans-serif" font-size="6.6" lengthAdjust="spacingAndGlyphs" textLength="42" x="111.9" y="166.9529">-action : String</text><text fill="#000000" font-family="sans-serif" font-size="6.6" lengthAdjust="spacingAndGlyphs" textLength="88.8" x="111.9" y="175.2545">-location : MeetingHallSingleton</text><line style="stroke: #A80036; stroke-width: 0.9000000357627869;" x1="108.9" x2="203.7" y1="179.1047" y2="179.1047"/><text fill="#000000" font-family="sans-serif" font-size="6.6" lengthAdjust="spacingAndGlyphs" textLength="42" x="111.9" y="188.3561">+getLocation()</text><!--class ReserveLocationCommand--><rect fill="#FEFECE" filter="url(#f1rrrp15xi1bnf)" height="37.1016" id="ReserveLocationCommand" style="stroke: #A80036; stroke-width: 0.9000000357627869;" width="110.4" x="234.9" y="247.2"/><ellipse cx="243.9" cy="256.8" fill="#B4A7E5" rx="6.6" ry="6.6" style="stroke: #A80036; stroke-width: 0.6000000238418579;"/><path d="M244.5,255 L244.5,258.6 L245.7,258.6 L245.9906,258.6 L246.3,258.975 L246.3,259.2 L246.3,259.425 L245.9906,259.8 L245.7,259.8 L242.1,259.8 L241.8094,259.8 L241.5,259.425 L241.5,259.2 L241.5,258.975 L241.8094,258.6 L242.1,258.6 L243.3,258.6 L243.3,255 L242.1,255 L241.8094,255 L241.5,254.625 L241.5,254.4 L241.5,254.175 L241.8094,253.8 L242.1,253.8 L245.7,253.8 L245.9906,253.8 L246.3,254.175 L246.3,254.4 L246.3,254.625 L245.9906,255 L245.7,255 L244.5,255 Z "/><text fill="#000000" font-family="sans-serif" font-size="7.2" font-style="italic" lengthAdjust="spacingAndGlyphs" textLength="91.2" x="252.3" y="259.7461">ReserveLocationCommand</text><line style="stroke: #A80036; stroke-width: 0.9000000357627869;" x1="235.5" x2="344.7" y1="266.4" y2="266.4"/><line style="stroke: #A80036; stroke-width: 0.9000000357627869;" x1="235.5" x2="344.7" y1="271.2" y2="271.2"/><text fill="#000000" font-family="sans-serif" font-size="6.6" lengthAdjust="spacingAndGlyphs" textLength="31.8" x="238.5" y="280.4514">+execute()</text><!--class ReserveLocation--><rect fill="#FEFECE" filter="url(#f1rrrp15xi1bnf)" height="53.7047" id="ReserveLocation" style="stroke: #A80036; stroke-width: 0.9000000357627869;" width="91.2" x="81.3" y="238.8"/><ellipse cx="97.59" cy="248.4" fill="#ADD1B2" rx="6.6" ry="6.6" style="stroke: #A80036; stroke-width: 0.6000000238418579;"/><path d="M98.79,246.3 Q98.9119,246 99.0525,245.85 Q99.1931,245.7 99.3525,245.7 Q99.6338,245.7 99.8119,245.8688 Q99.99,246.0375 99.99,246.4313 L99.99,247.3688 Q99.99,247.7625 99.8213,247.9313 Q99.6525,248.1 99.39,248.1 Q99.1556,248.1 99.0056,247.9969 Q98.8556,247.8938 98.79,247.6219 Q98.7619,247.4344 98.6588,247.3313 Q98.4713,247.1344 98.1338,247.0172 Q97.7963,246.9 97.4588,246.9 Q97.0369,246.9 96.6853,247.0688 Q96.3338,247.2375 96.0619,247.6125 Q95.79,247.9875 95.79,248.5031 L95.79,249.0563 Q95.79,249.675 96.2963,250.0875 Q96.8025,250.5 97.7025,250.5 Q98.2369,250.5 98.6119,250.3781 Q98.8275,250.3125 99.0713,250.0969 Q99.2306,249.975 99.315,249.9375 Q99.3994,249.9 99.5025,249.9 Q99.6994,249.9 99.8447,250.0547 Q99.99,250.2094 99.99,250.425 Q99.99,250.6313 99.7838,250.875 Q99.4838,251.2313 99.0056,251.4281 Q98.3775,251.7 97.6088,251.7 Q96.7088,251.7 95.9869,251.3438 Q95.4056,251.0625 94.9978,250.4531 Q94.59,249.8438 94.59,249.1219 L94.59,248.4656 Q94.59,247.7156 94.9509,247.0594 Q95.3119,246.4031 95.9447,246.0516 Q96.5775,245.7 97.29,245.7 Q97.7213,245.7 98.0963,245.85 Q98.4713,246 98.79,246.3 Z "/><text fill="#000000" font-family="sans-serif" font-size="7.2" lengthAdjust="spacingAndGlyphs" textLength="55.8" x="107.61" y="251.3461">ReserveLocation</text><line style="stroke: #A80036; stroke-width: 0.9000000357627869;" x1="81.9" x2="171.9" y1="258" y2="258"/><text fill="#000000" font-family="sans-serif" font-size="6.6" lengthAdjust="spacingAndGlyphs" textLength="44.4" x="84.9" y="267.2514">-event_location</text><line style="stroke: #A80036; stroke-width: 0.9000000357627869;" x1="81.9" x2="171.9" y1="271.1016" y2="271.1016"/><text fill="#000000" font-family="sans-serif" font-size="6.6" lengthAdjust="spacingAndGlyphs" textLength="84" x="84.9" y="280.3529">+__construct(EventLocation)</text><text fill="#000000" font-family="sans-serif" font-size="6.6" lengthAdjust="spacingAndGlyphs" textLength="31.8" x="84.9" y="288.6545">+execute()</text><!--class Invoker--><rect fill="#FEFECE" filter="url(#f1rrrp15xi1bnf)" height="53.7047" id="Invoker" style="stroke: #A80036; stroke-width: 0.9000000357627869;" width="93.6" x="243.3" y="134.1"/><ellipse cx="275.85" cy="143.7" fill="#ADD1B2" rx="6.6" ry="6.6" style="stroke: #A80036; stroke-width: 0.6000000238418579;"/><path d="M277.05,141.6 Q277.1719,141.3 277.3125,141.15 Q277.4531,141 277.6125,141 Q277.8938,141 278.0719,141.1688 Q278.25,141.3375 278.25,141.7313 L278.25,142.6688 Q278.25,143.0625 278.0813,143.2313 Q277.9125,143.4 277.65,143.4 Q277.4156,143.4 277.2656,143.2969 Q277.1156,143.1938 277.05,142.9219 Q277.0219,142.7344 276.9188,142.6313 Q276.7313,142.4344 276.3938,142.3172 Q276.0563,142.2 275.7188,142.2 Q275.2969,142.2 274.9453,142.3688 Q274.5938,142.5375 274.3219,142.9125 Q274.05,143.2875 274.05,143.8031 L274.05,144.3563 Q274.05,144.975 274.5563,145.3875 Q275.0625,145.8 275.9625,145.8 Q276.4969,145.8 276.8719,145.6781 Q277.0875,145.6125 277.3313,145.3969 Q277.4906,145.275 277.575,145.2375 Q277.6594,145.2 277.7625,145.2 Q277.9594,145.2 278.1047,145.3547 Q278.25,145.5094 278.25,145.725 Q278.25,145.9313 278.0438,146.175 Q277.7438,146.5313 277.2656,146.7281 Q276.6375,147 275.8688,147 Q274.9688,147 274.2469,146.6438 Q273.6656,146.3625 273.2578,145.7531 Q272.85,145.1438 272.85,144.4219 L272.85,143.7656 Q272.85,143.0156 273.2109,142.3594 Q273.5719,141.7031 274.2047,141.3516 Q274.8375,141 275.55,141 Q275.9813,141 276.3563,141.15 Q276.7313,141.3 277.05,141.6 Z "/><text fill="#000000" font-family="sans-serif" font-size="7.2" lengthAdjust="spacingAndGlyphs" textLength="23.4" x="288.15" y="146.6461">Invoker</text><line style="stroke: #A80036; stroke-width: 0.9000000357627869;" x1="243.9" x2="336.3" y1="153.3" y2="153.3"/><text fill="#000000" font-family="sans-serif" font-size="6.6" lengthAdjust="spacingAndGlyphs" textLength="79.8" x="246.9" y="162.5514">-command : EventCommand</text><line style="stroke: #A80036; stroke-width: 0.9000000357627869;" x1="243.9" x2="336.3" y1="166.4016" y2="166.4016"/><text fill="#000000" font-family="sans-serif" font-size="6.6" lengthAdjust="spacingAndGlyphs" textLength="86.4" x="246.9" y="175.6529">+setCommand(EventLocation)</text><text fill="#000000" font-family="sans-serif" font-size="6.6" lengthAdjust="spacingAndGlyphs" textLength="18" x="246.9" y="183.9545">+run()</text><!--link LocationController to Demo_index--><path d="M199.3428,44.1 C211.218,44.1 223.857,44.1 234.8718,44.1 " fill="none" id="LocationController-Demo_index" style="stroke: #A80036; stroke-width: 0.6000000238418579;"/><polygon fill="#A80036" points="196.3422,44.1,201.7422,46.5,199.3422,44.1,201.7422,41.7,196.3422,44.1" style="stroke: #A80036; stroke-width: 0.6000000238418579;"/><text fill="#000000" font-family="sans-serif" font-size="7.8" lengthAdjust="spacingAndGlyphs" textLength="16.8" x="207.15" y="40.1971">uses</text><!--link LocationView to LocationController--><path d="M69.6858,44.1 C84.2016,44.1 101.1756,44.1 116.2314,44.1 " fill="none" id="LocationView-LocationController" style="stroke: #A80036; stroke-width: 0.6000000238418579;"/><polygon fill="#A80036" points="66.6276,44.1,72.0276,46.5,69.6276,44.1,72.0276,41.7,66.6276,44.1" style="stroke: #A80036; stroke-width: 0.6000000238418579;"/><text fill="#000000" font-family="sans-serif" font-size="7.8" lengthAdjust="spacingAndGlyphs" textLength="27.6" x="77.7" y="40.1971">updates</text><!--link LocationController to Location--><path d="M156.3,83.421 C156.3,97.5408 156.3,113.3772 156.3,127.005 " fill="none" id="LocationController-Location" style="stroke: #A80036; stroke-width: 0.6000000238418579;"/><polygon fill="#A80036" points="156.3,130.0572,158.7,124.6572,156.3,127.0572,153.9,124.6572,156.3,130.0572" style="stroke: #A80036; stroke-width: 0.6000000238418579;"/><text fill="#000000" font-family="sans-serif" font-size="7.8" lengthAdjust="spacingAndGlyphs" textLength="16.8" x="156.9" y="110.0971">uses</text><!--link Invoker to ReserveLocationCommand--><path d="M290.1,188.3538 C290.1,205.6488 290.1,227.8776 290.1,243.9745 " fill="none" id="Invoker-ReserveLocationCommand" style="stroke: #A80036; stroke-width: 0.6000000238418579;"/><polygon fill="#A80036" points="290.1,247.1088,292.5,241.7088,290.1,244.1088,287.7,241.7088,290.1,247.1088" style="stroke: #A80036; stroke-width: 0.6000000238418579;"/><text fill="#000000" font-family="sans-serif" font-size="7.8" lengthAdjust="spacingAndGlyphs" textLength="16.8" x="290.7" y="218.6971">uses</text><!--link Location to Invoker--><path d="M204.4158,161.1 C215.9208,161.1 228.2322,161.1 239.8314,161.1 " fill="none" id="Location-Invoker" style="stroke: #A80036; stroke-width: 0.6000000238418579;"/><polygon fill="#A80036" points="243.0828,161.1,237.6828,158.7,240.0828,161.1,237.6828,163.5,243.0828,161.1" style="stroke: #A80036; stroke-width: 0.6000000238418579;"/><text fill="#000000" font-family="sans-serif" font-size="7.8" lengthAdjust="spacingAndGlyphs" textLength="16.8" x="215.4" y="157.1971">uses</text><!--link ReserveLocation to ReserveLocationCommand--><path d="M172.5774,265.8 C190.9266,265.8 212.304,265.8 231.7566,265.8 " fill="none" id="ReserveLocation-ReserveLocationCommand" style="stroke: #A80036; stroke-width: 0.6000000238418579;"/><polygon fill="#A80036" points="234.8616,265.8,229.4616,263.4,231.8616,265.8,229.4616,268.2,234.8616,265.8" style="stroke: #A80036; stroke-width: 0.6000000238418579;"/><text fill="#000000" font-family="sans-serif" font-size="7.8" lengthAdjust="spacingAndGlyphs" textLength="40.2" x="183.6" y="261.8971">implements</text><!--
@startuml

skinparam classAttributeIconSize 0

class Demo_index{

}

class LocationController{
{field} - location : Location
{field} - view : LocationView

{method} + setModel()
{method} + setView()
{method} + getLocation()
{method} + useLocation()

}


class LocationView{
{method} + printLocation()
}

class Location{
{field} - type : String
{field} - action : String
{field} - location : MeetingHallSingleton

{method} + getLocation()
}

interface ReserveLocationCommand{
  {method} + execute()
}

class ReserveLocation {
  {field} - event_location
  {method} + __construct(EventLocation)
  {method} + execute()
}


class Invoker {
  {field} - command : EventCommand
  {method} + setCommand(EventLocation)
  {method} + run()
}



LocationController <- Demo_index : uses
LocationView <- LocationController : updates
LocationController - -> Location : uses

Invoker - -> ReserveLocationCommand : uses
Location -> Invoker : uses
ReserveLocation -> ReserveLocationCommand : implements


@enduml

PlantUML version 1.2018.11(Sat Sep 22 19:43:53 EET 2018)
(GPL source distribution)
Java Runtime: OpenJDK Runtime Environment
JVM: OpenJDK 64-Bit Server VM
Java Version: 1.8.0_152-release-1024-b11
Operating System: Windows 10
OS Version: 10.0
Default Encoding: Cp1254
Language: tr
Country: TR
--></g></svg>