<?xml version="1.0" encoding="UTF-8" standalone="no"?><svg xmlns="http://www.w3.org/2000/svg" xmlns:xlink="http://www.w3.org/1999/xlink" contentScriptType="application/ecmascript" contentStyleType="text/css" height="403.8px" preserveAspectRatio="none" style="width:285px;height:403px;" version="1.1" viewBox="0 0 285 403" width="285px" zoomAndPan="magnify"><defs><filter height="300%" id="fza0ry74eults" width="300%" x="-1" y="-1"><feGaussianBlur result="blurOut" stdDeviation="1.2000000476837158"/><feColorMatrix in="blurOut" result="blurOut2" type="matrix" values="0 0 0 0 0 0 0 0 0 0 0 0 0 0 0 0 0 0 .4 0"/><feOffset dx="2.4000000953674316" dy="2.4000000953674316" in="blurOut2" result="blurOut3"/><feBlend in="SourceGraphic" in2="blurOut3" mode="normal"/></filter></defs><g><!--class Demo_index--><rect fill="#FEFECE" filter="url(#fza0ry74eults)" height="28.8" id="Demo_index" style="stroke: #A80036; stroke-width: 0.9000000357627869;" width="61.2" x="217.2" y="50.4"/><ellipse cx="226.2" cy="60" fill="#ADD1B2" rx="6.6" ry="6.6" style="stroke: #A80036; stroke-width: 0.6000000238418579;"/><path d="M227.4,57.9 Q227.5219,57.6 227.6625,57.45 Q227.8031,57.3 227.9625,57.3 Q228.2438,57.3 228.4219,57.4688 Q228.6,57.6375 228.6,58.0313 L228.6,58.9688 Q228.6,59.3625 228.4313,59.5313 Q228.2625,59.7 228,59.7 Q227.7656,59.7 227.6156,59.5969 Q227.4656,59.4938 227.4,59.2219 Q227.3719,59.0344 227.2688,58.9313 Q227.0813,58.7344 226.7438,58.6172 Q226.4063,58.5 226.0688,58.5 Q225.6469,58.5 225.2953,58.6688 Q224.9438,58.8375 224.6719,59.2125 Q224.4,59.5875 224.4,60.1031 L224.4,60.6563 Q224.4,61.275 224.9063,61.6875 Q225.4125,62.1 226.3125,62.1 Q226.8469,62.1 227.2219,61.9781 Q227.4375,61.9125 227.6813,61.6969 Q227.8406,61.575 227.925,61.5375 Q228.0094,61.5 228.1125,61.5 Q228.3094,61.5 228.4547,61.6547 Q228.6,61.8094 228.6,62.025 Q228.6,62.2313 228.3938,62.475 Q228.0938,62.8313 227.6156,63.0281 Q226.9875,63.3 226.2188,63.3 Q225.3188,63.3 224.5969,62.9438 Q224.0156,62.6625 223.6078,62.0531 Q223.2,61.4438 223.2,60.7219 L223.2,60.0656 Q223.2,59.3156 223.5609,58.6594 Q223.9219,58.0031 224.5547,57.6516 Q225.1875,57.3 225.9,57.3 Q226.3313,57.3 226.7063,57.45 Q227.0813,57.6 227.4,57.9 Z "/><text fill="#000000" font-family="sans-serif" font-size="7.2" lengthAdjust="spacingAndGlyphs" textLength="42" x="234.6" y="62.9461">Demo_index</text><line style="stroke: #A80036; stroke-width: 0.9000000357627869;" x1="217.8" x2="277.8" y1="69.6" y2="69.6"/><line style="stroke: #A80036; stroke-width: 0.9000000357627869;" x1="217.8" x2="277.8" y1="74.4" y2="74.4"/><!--class TicketController--><rect fill="#FEFECE" filter="url(#fza0ry74eults)" height="120.1172" id="TicketController" style="stroke: #A80036; stroke-width: 0.9000000357627869;" width="70.8" x="107.4" y="4.8"/><ellipse cx="116.4" cy="14.4" fill="#ADD1B2" rx="6.6" ry="6.6" style="stroke: #A80036; stroke-width: 0.6000000238418579;"/><path d="M117.6,12.3 Q117.7219,12 117.8625,11.85 Q118.0031,11.7 118.1625,11.7 Q118.4438,11.7 118.6219,11.8688 Q118.8,12.0375 118.8,12.4313 L118.8,13.3688 Q118.8,13.7625 118.6313,13.9313 Q118.4625,14.1 118.2,14.1 Q117.9656,14.1 117.8156,13.9969 Q117.6656,13.8938 117.6,13.6219 Q117.5719,13.4344 117.4688,13.3313 Q117.2813,13.1344 116.9438,13.0172 Q116.6063,12.9 116.2688,12.9 Q115.8469,12.9 115.4953,13.0688 Q115.1438,13.2375 114.8719,13.6125 Q114.6,13.9875 114.6,14.5031 L114.6,15.0563 Q114.6,15.675 115.1063,16.0875 Q115.6125,16.5 116.5125,16.5 Q117.0469,16.5 117.4219,16.3781 Q117.6375,16.3125 117.8813,16.0969 Q118.0406,15.975 118.125,15.9375 Q118.2094,15.9 118.3125,15.9 Q118.5094,15.9 118.6547,16.0547 Q118.8,16.2094 118.8,16.425 Q118.8,16.6313 118.5938,16.875 Q118.2938,17.2313 117.8156,17.4281 Q117.1875,17.7 116.4188,17.7 Q115.5188,17.7 114.7969,17.3438 Q114.2156,17.0625 113.8078,16.4531 Q113.4,15.8438 113.4,15.1219 L113.4,14.4656 Q113.4,13.7156 113.7609,13.0594 Q114.1219,12.4031 114.7547,12.0516 Q115.3875,11.7 116.1,11.7 Q116.5313,11.7 116.9063,11.85 Q117.2813,12 117.6,12.3 Z "/><text fill="#000000" font-family="sans-serif" font-size="7.2" lengthAdjust="spacingAndGlyphs" textLength="51.6" x="124.8" y="17.3461">TicketController</text><line style="stroke: #A80036; stroke-width: 0.9000000357627869;" x1="108" x2="177.6" y1="24" y2="24"/><text fill="#000000" font-family="sans-serif" font-size="6.6" lengthAdjust="spacingAndGlyphs" textLength="42" x="111" y="33.2514">-STATE_OPEN</text><text fill="#000000" font-family="sans-serif" font-size="6.6" lengthAdjust="spacingAndGlyphs" textLength="46.2" x="111" y="41.5529">-STATE_CLOSE</text><text fill="#000000" font-family="sans-serif" font-size="6.6" lengthAdjust="spacingAndGlyphs" textLength="53.4" x="111" y="49.8545">-tickets : TicketList</text><text fill="#000000" font-family="sans-serif" font-size="6.6" lengthAdjust="spacingAndGlyphs" textLength="55.2" x="111" y="58.1561">-sold_ticket : Ticket</text><text fill="#000000" font-family="sans-serif" font-size="6.6" lengthAdjust="spacingAndGlyphs" textLength="54.6" x="111" y="66.4576">-view : TicketView</text><line style="stroke: #A80036; stroke-width: 0.9000000357627869;" x1="108" x2="177.6" y1="70.3078" y2="70.3078"/><text fill="#000000" font-family="sans-serif" font-size="6.6" lengthAdjust="spacingAndGlyphs" textLength="34.2" x="111" y="79.5592">+setModel()</text><text fill="#000000" font-family="sans-serif" font-size="6.6" lengthAdjust="spacingAndGlyphs" textLength="33" x="111" y="87.8607">+setView()</text><text fill="#000000" font-family="sans-serif" font-size="6.6" lengthAdjust="spacingAndGlyphs" textLength="36" x="111" y="96.1623">+buyTicket()</text><text fill="#000000" font-family="sans-serif" font-size="6.6" lengthAdjust="spacingAndGlyphs" textLength="46.8" x="111" y="104.4639">+getSoldTicket()</text><text fill="#000000" font-family="sans-serif" font-size="6.6" lengthAdjust="spacingAndGlyphs" textLength="36" x="111" y="112.7654">+SoldState()</text><text fill="#000000" font-family="sans-serif" font-size="6.6" lengthAdjust="spacingAndGlyphs" textLength="23.4" x="111" y="121.067">+extra()</text><!--class TicketView--><rect fill="#FEFECE" filter="url(#fza0ry74eults)" height="45.4031" id="TicketView" style="stroke: #A80036; stroke-width: 0.9000000357627869;" width="54" x="3.6" y="42"/><ellipse cx="12.6" cy="51.6" fill="#ADD1B2" rx="6.6" ry="6.6" style="stroke: #A80036; stroke-width: 0.6000000238418579;"/><path d="M13.8,49.5 Q13.9219,49.2 14.0625,49.05 Q14.2031,48.9 14.3625,48.9 Q14.6438,48.9 14.8219,49.0688 Q15,49.2375 15,49.6313 L15,50.5688 Q15,50.9625 14.8313,51.1313 Q14.6625,51.3 14.4,51.3 Q14.1656,51.3 14.0156,51.1969 Q13.8656,51.0938 13.8,50.8219 Q13.7719,50.6344 13.6688,50.5313 Q13.4813,50.3344 13.1438,50.2172 Q12.8063,50.1 12.4688,50.1 Q12.0469,50.1 11.6953,50.2688 Q11.3438,50.4375 11.0719,50.8125 Q10.8,51.1875 10.8,51.7031 L10.8,52.2563 Q10.8,52.875 11.3063,53.2875 Q11.8125,53.7 12.7125,53.7 Q13.2469,53.7 13.6219,53.5781 Q13.8375,53.5125 14.0813,53.2969 Q14.2406,53.175 14.325,53.1375 Q14.4094,53.1 14.5125,53.1 Q14.7094,53.1 14.8547,53.2547 Q15,53.4094 15,53.625 Q15,53.8313 14.7938,54.075 Q14.4938,54.4313 14.0156,54.6281 Q13.3875,54.9 12.6188,54.9 Q11.7188,54.9 10.9969,54.5438 Q10.4156,54.2625 10.0078,53.6531 Q9.6,53.0438 9.6,52.3219 L9.6,51.6656 Q9.6,50.9156 9.9609,50.2594 Q10.3219,49.6031 10.9547,49.2516 Q11.5875,48.9 12.3,48.9 Q12.7313,48.9 13.1063,49.05 Q13.4813,49.2 13.8,49.5 Z "/><text fill="#000000" font-family="sans-serif" font-size="7.2" lengthAdjust="spacingAndGlyphs" textLength="34.8" x="21" y="54.5461">TicketView</text><line style="stroke: #A80036; stroke-width: 0.9000000357627869;" x1="4.2" x2="57" y1="61.2" y2="61.2"/><line style="stroke: #A80036; stroke-width: 0.9000000357627869;" x1="4.2" x2="57" y1="66" y2="66"/><text fill="#000000" font-family="sans-serif" font-size="6.6" lengthAdjust="spacingAndGlyphs" textLength="21" x="7.2" y="75.2514">+print()</text><text fill="#000000" font-family="sans-serif" font-size="6.6" lengthAdjust="spacingAndGlyphs" textLength="30.6" x="7.2" y="83.5529">+printline()</text><!--class Ticket--><rect fill="#FEFECE" filter="url(#fza0ry74eults)" height="70.3078" id="Ticket" style="stroke: #A80036; stroke-width: 0.9000000357627869;" width="52.2" x="87.9" y="245.4"/><ellipse cx="103.11" cy="255" fill="#ADD1B2" rx="6.6" ry="6.6" style="stroke: #A80036; stroke-width: 0.6000000238418579;"/><path d="M104.31,252.9 Q104.4319,252.6 104.5725,252.45 Q104.7131,252.3 104.8725,252.3 Q105.1538,252.3 105.3319,252.4688 Q105.51,252.6375 105.51,253.0313 L105.51,253.9688 Q105.51,254.3625 105.3413,254.5313 Q105.1725,254.7 104.91,254.7 Q104.6756,254.7 104.5256,254.5969 Q104.3756,254.4938 104.31,254.2219 Q104.2819,254.0344 104.1788,253.9313 Q103.9913,253.7344 103.6538,253.6172 Q103.3163,253.5 102.9788,253.5 Q102.5569,253.5 102.2053,253.6688 Q101.8538,253.8375 101.5819,254.2125 Q101.31,254.5875 101.31,255.1031 L101.31,255.6563 Q101.31,256.275 101.8163,256.6875 Q102.3225,257.1 103.2225,257.1 Q103.7569,257.1 104.1319,256.9781 Q104.3475,256.9125 104.5913,256.6969 Q104.7506,256.575 104.835,256.5375 Q104.9194,256.5 105.0225,256.5 Q105.2194,256.5 105.3647,256.6547 Q105.51,256.8094 105.51,257.025 Q105.51,257.2313 105.3038,257.475 Q105.0038,257.8313 104.5256,258.0281 Q103.8975,258.3 103.1288,258.3 Q102.2288,258.3 101.5069,257.9438 Q100.9256,257.6625 100.5178,257.0531 Q100.11,256.4438 100.11,255.7219 L100.11,255.0656 Q100.11,254.3156 100.4709,253.6594 Q100.8319,253.0031 101.4647,252.6516 Q102.0975,252.3 102.81,252.3 Q103.2413,252.3 103.6163,252.45 Q103.9913,252.6 104.31,252.9 Z "/><text fill="#000000" font-family="sans-serif" font-size="7.2" lengthAdjust="spacingAndGlyphs" textLength="19.2" x="112.89" y="257.9461">Ticket</text><line style="stroke: #A80036; stroke-width: 0.9000000357627869;" x1="88.5" x2="139.5" y1="264.6" y2="264.6"/><text fill="#000000" font-family="sans-serif" font-size="6.6" lengthAdjust="spacingAndGlyphs" textLength="45" x="91.5" y="273.8514">-seatNo : String</text><text fill="#000000" font-family="sans-serif" font-size="6.6" lengthAdjust="spacingAndGlyphs" textLength="42" x="91.5" y="282.1529">-price : Integer</text><line style="stroke: #A80036; stroke-width: 0.9000000357627869;" x1="88.5" x2="139.5" y1="286.0031" y2="286.0031"/><text fill="#000000" font-family="sans-serif" font-size="6.6" lengthAdjust="spacingAndGlyphs" textLength="38.4" x="91.5" y="295.2545">+getSeatNo()</text><text fill="#000000" font-family="sans-serif" font-size="6.6" lengthAdjust="spacingAndGlyphs" textLength="31.8" x="91.5" y="303.5561">+getPrice()</text><text fill="#000000" font-family="sans-serif" font-size="6.6" lengthAdjust="spacingAndGlyphs" textLength="45" x="91.5" y="311.8576">+getTicketInfo()</text><!--class EventTicket--><rect fill="#FEFECE" filter="url(#fza0ry74eults)" height="37.1016" id="EventTicket" style="stroke: #A80036; stroke-width: 0.9000000357627869;" width="57.6" x="114" y="171.6"/><ellipse cx="123" cy="181.2" fill="#B4A7E5" rx="6.6" ry="6.6" style="stroke: #A80036; stroke-width: 0.6000000238418579;"/><path d="M123.6,179.4 L123.6,183 L124.8,183 L125.0906,183 L125.4,183.375 L125.4,183.6 L125.4,183.825 L125.0906,184.2 L124.8,184.2 L121.2,184.2 L120.9094,184.2 L120.6,183.825 L120.6,183.6 L120.6,183.375 L120.9094,183 L121.2,183 L122.4,183 L122.4,179.4 L121.2,179.4 L120.9094,179.4 L120.6,179.025 L120.6,178.8 L120.6,178.575 L120.9094,178.2 L121.2,178.2 L124.8,178.2 L125.0906,178.2 L125.4,178.575 L125.4,178.8 L125.4,179.025 L125.0906,179.4 L124.8,179.4 L123.6,179.4 Z "/><text fill="#000000" font-family="sans-serif" font-size="7.2" font-style="italic" lengthAdjust="spacingAndGlyphs" textLength="38.4" x="131.4" y="184.1461">EventTicket</text><line style="stroke: #A80036; stroke-width: 0.9000000357627869;" x1="114.6" x2="171" y1="190.8" y2="190.8"/><line style="stroke: #A80036; stroke-width: 0.9000000357627869;" x1="114.6" x2="171" y1="195.6" y2="195.6"/><text fill="#000000" font-family="sans-serif" font-size="6.6" lengthAdjust="spacingAndGlyphs" textLength="48.6" x="117.6" y="204.8514">+calculatePrice()</text><!--class EventTicketDecorator--><rect fill="#FEFECE" filter="url(#fza0ry74eults)" height="45.4031" id="EventTicketDecorator" style="stroke: #A80036; stroke-width: 0.9000000357627869;" width="88.8" x="161.4" y="257.7"/><ellipse cx="170.4" cy="267.3" fill="#ADD1B2" rx="6.6" ry="6.6" style="stroke: #A80036; stroke-width: 0.6000000238418579;"/><path d="M171.6,265.2 Q171.7219,264.9 171.8625,264.75 Q172.0031,264.6 172.1625,264.6 Q172.4438,264.6 172.6219,264.7688 Q172.8,264.9375 172.8,265.3313 L172.8,266.2688 Q172.8,266.6625 172.6313,266.8313 Q172.4625,267 172.2,267 Q171.9656,267 171.8156,266.8969 Q171.6656,266.7938 171.6,266.5219 Q171.5719,266.3344 171.4688,266.2313 Q171.2813,266.0344 170.9438,265.9172 Q170.6063,265.8 170.2688,265.8 Q169.8469,265.8 169.4953,265.9688 Q169.1438,266.1375 168.8719,266.5125 Q168.6,266.8875 168.6,267.4031 L168.6,267.9563 Q168.6,268.575 169.1063,268.9875 Q169.6125,269.4 170.5125,269.4 Q171.0469,269.4 171.4219,269.2781 Q171.6375,269.2125 171.8813,268.9969 Q172.0406,268.875 172.125,268.8375 Q172.2094,268.8 172.3125,268.8 Q172.5094,268.8 172.6547,268.9547 Q172.8,269.1094 172.8,269.325 Q172.8,269.5313 172.5938,269.775 Q172.2938,270.1313 171.8156,270.3281 Q171.1875,270.6 170.4188,270.6 Q169.5188,270.6 168.7969,270.2438 Q168.2156,269.9625 167.8078,269.3531 Q167.4,268.7438 167.4,268.0219 L167.4,267.3656 Q167.4,266.6156 167.7609,265.9594 Q168.1219,265.3031 168.7547,264.9516 Q169.3875,264.6 170.1,264.6 Q170.5313,264.6 170.9063,264.75 Q171.2813,264.9 171.6,265.2 Z "/><text fill="#000000" font-family="sans-serif" font-size="7.2" lengthAdjust="spacingAndGlyphs" textLength="69.6" x="178.8" y="270.2461">EventTicketDecorator</text><line style="stroke: #A80036; stroke-width: 0.9000000357627869;" x1="162" x2="249.6" y1="276.9" y2="276.9"/><text fill="#000000" font-family="sans-serif" font-size="6.6" lengthAdjust="spacingAndGlyphs" textLength="75.6" x="165" y="286.1514">-event_ticket : EventTicket</text><line style="stroke: #A80036; stroke-width: 0.9000000357627869;" x1="162" x2="249.6" y1="290.0016" y2="290.0016"/><text fill="#000000" font-family="sans-serif" font-size="6.6" lengthAdjust="spacingAndGlyphs" textLength="76.2" x="165" y="299.2529">+__construct(EventTicket)</text><!--class Transportation--><rect fill="#FEFECE" filter="url(#fza0ry74eults)" height="45.4031" id="Transportation" style="stroke: #A80036; stroke-width: 0.9000000357627869;" width="67.2" x="130.8" y="352.2"/><ellipse cx="139.8" cy="361.8" fill="#ADD1B2" rx="6.6" ry="6.6" style="stroke: #A80036; stroke-width: 0.6000000238418579;"/><path d="M141,359.7 Q141.1219,359.4 141.2625,359.25 Q141.4031,359.1 141.5625,359.1 Q141.8438,359.1 142.0219,359.2688 Q142.2,359.4375 142.2,359.8313 L142.2,360.7688 Q142.2,361.1625 142.0313,361.3313 Q141.8625,361.5 141.6,361.5 Q141.3656,361.5 141.2156,361.3969 Q141.0656,361.2938 141,361.0219 Q140.9719,360.8344 140.8688,360.7313 Q140.6813,360.5344 140.3438,360.4172 Q140.0063,360.3 139.6688,360.3 Q139.2469,360.3 138.8953,360.4688 Q138.5438,360.6375 138.2719,361.0125 Q138,361.3875 138,361.9031 L138,362.4563 Q138,363.075 138.5063,363.4875 Q139.0125,363.9 139.9125,363.9 Q140.4469,363.9 140.8219,363.7781 Q141.0375,363.7125 141.2813,363.4969 Q141.4406,363.375 141.525,363.3375 Q141.6094,363.3 141.7125,363.3 Q141.9094,363.3 142.0547,363.4547 Q142.2,363.6094 142.2,363.825 Q142.2,364.0313 141.9938,364.275 Q141.6938,364.6313 141.2156,364.8281 Q140.5875,365.1 139.8188,365.1 Q138.9188,365.1 138.1969,364.7438 Q137.6156,364.4625 137.2078,363.8531 Q136.8,363.2438 136.8,362.5219 L136.8,361.8656 Q136.8,361.1156 137.1609,360.4594 Q137.5219,359.8031 138.1547,359.4516 Q138.7875,359.1 139.5,359.1 Q139.9313,359.1 140.3063,359.25 Q140.6813,359.4 141,359.7 Z "/><text fill="#000000" font-family="sans-serif" font-size="7.2" lengthAdjust="spacingAndGlyphs" textLength="48" x="148.2" y="364.7461">Transportation</text><line style="stroke: #A80036; stroke-width: 0.9000000357627869;" x1="131.4" x2="197.4" y1="371.4" y2="371.4"/><text fill="#000000" font-family="sans-serif" font-size="6.6" lengthAdjust="spacingAndGlyphs" textLength="19.2" x="134.4" y="380.6514">-PRICE</text><line style="stroke: #A80036; stroke-width: 0.9000000357627869;" x1="131.4" x2="197.4" y1="384.5016" y2="384.5016"/><text fill="#000000" font-family="sans-serif" font-size="6.6" lengthAdjust="spacingAndGlyphs" textLength="48.6" x="134.4" y="393.7529">+calculatePrice()</text><!--class OpenBuffet--><rect fill="#FEFECE" filter="url(#fza0ry74eults)" height="45.4031" id="OpenBuffet" style="stroke: #A80036; stroke-width: 0.9000000357627869;" width="55.8" x="219.3" y="352.2"/><ellipse cx="228.3" cy="361.8" fill="#ADD1B2" rx="6.6" ry="6.6" style="stroke: #A80036; stroke-width: 0.6000000238418579;"/><path d="M229.5,359.7 Q229.6219,359.4 229.7625,359.25 Q229.9031,359.1 230.0625,359.1 Q230.3438,359.1 230.5219,359.2688 Q230.7,359.4375 230.7,359.8313 L230.7,360.7688 Q230.7,361.1625 230.5313,361.3313 Q230.3625,361.5 230.1,361.5 Q229.8656,361.5 229.7156,361.3969 Q229.5656,361.2938 229.5,361.0219 Q229.4719,360.8344 229.3688,360.7313 Q229.1813,360.5344 228.8438,360.4172 Q228.5063,360.3 228.1688,360.3 Q227.7469,360.3 227.3953,360.4688 Q227.0438,360.6375 226.7719,361.0125 Q226.5,361.3875 226.5,361.9031 L226.5,362.4563 Q226.5,363.075 227.0063,363.4875 Q227.5125,363.9 228.4125,363.9 Q228.9469,363.9 229.3219,363.7781 Q229.5375,363.7125 229.7813,363.4969 Q229.9406,363.375 230.025,363.3375 Q230.1094,363.3 230.2125,363.3 Q230.4094,363.3 230.5547,363.4547 Q230.7,363.6094 230.7,363.825 Q230.7,364.0313 230.4938,364.275 Q230.1938,364.6313 229.7156,364.8281 Q229.0875,365.1 228.3188,365.1 Q227.4188,365.1 226.6969,364.7438 Q226.1156,364.4625 225.7078,363.8531 Q225.3,363.2438 225.3,362.5219 L225.3,361.8656 Q225.3,361.1156 225.6609,360.4594 Q226.0219,359.8031 226.6547,359.4516 Q227.2875,359.1 228,359.1 Q228.4313,359.1 228.8063,359.25 Q229.1813,359.4 229.5,359.7 Z "/><text fill="#000000" font-family="sans-serif" font-size="7.2" lengthAdjust="spacingAndGlyphs" textLength="36.6" x="236.7" y="364.7461">OpenBuffet</text><line style="stroke: #A80036; stroke-width: 0.9000000357627869;" x1="219.9" x2="274.5" y1="371.4" y2="371.4"/><text fill="#000000" font-family="sans-serif" font-size="6.6" lengthAdjust="spacingAndGlyphs" textLength="19.2" x="222.9" y="380.6514">-PRICE</text><line style="stroke: #A80036; stroke-width: 0.9000000357627869;" x1="219.9" x2="274.5" y1="384.5016" y2="384.5016"/><text fill="#000000" font-family="sans-serif" font-size="6.6" lengthAdjust="spacingAndGlyphs" textLength="48.6" x="222.9" y="393.7529">+calculatePrice()</text><!--link TicketController to Demo_index--><path d="M181.6146,64.8 C193.2942,64.8 205.9452,64.8 217.0284,64.8 " fill="none" id="TicketController-Demo_index" style="stroke: #A80036; stroke-width: 0.6000000238418579;"/><polygon fill="#A80036" points="178.3482,64.8,183.7482,67.2,181.3482,64.8,183.7482,62.4,178.3482,64.8" style="stroke: #A80036; stroke-width: 0.6000000238418579;"/><text fill="#000000" font-family="sans-serif" font-size="7.8" lengthAdjust="spacingAndGlyphs" textLength="16.8" x="189.3" y="60.8971">uses</text><!--link TicketView to TicketController--><path d="M60.7667,64.8 C75.0684,64.8 92.253,64.8 107.1906,64.8 " fill="none" id="TicketView-TicketController" style="stroke: #A80036; stroke-width: 0.6000000238418579;"/><polygon fill="#A80036" points="57.7605,64.8,63.1605,67.2,60.7605,64.8,63.1605,62.4,57.7605,64.8" style="stroke: #A80036; stroke-width: 0.6000000238418579;"/><text fill="#000000" font-family="sans-serif" font-size="7.8" lengthAdjust="spacingAndGlyphs" textLength="27.6" x="68.7" y="60.8971">updates</text><!--link EventTicket to EventTicketDecorator--><path d="M157.3386,211.362 C167.1252,225.2028 180.024,243.4452 190.0536,257.6298 " fill="none" id="EventTicket-EventTicketDecorator" style="stroke: #A80036; stroke-width: 0.6000000238418579; stroke-dasharray: 7.0,7.0;"/><polygon fill="#A80036" points="155.5488,208.8306,156.707,214.6253,157.2809,211.2801,160.6262,211.8539,155.5488,208.8306" style="stroke: #A80036; stroke-width: 0.6000000238418579;"/><!--link EventTicket to Ticket--><path d="M135.9948,211.8546 C132.768,221.8368 128.8284,234.024 125.1798,245.3124 " fill="none" id="EventTicket-Ticket" style="stroke: #A80036; stroke-width: 0.6000000238418579; stroke-dasharray: 7.0,7.0;"/><polygon fill="#A80036" points="136.9716,208.8306,133.0279,213.2314,136.0494,211.6854,137.5955,214.7069,136.9716,208.8306" style="stroke: #A80036; stroke-width: 0.6000000238418579;"/><!--link EventTicketDecorator to Transportation--><path d="M194.637,306.2574 C188.2962,320.547 180.4278,338.2795 174.3072,352.0732 " fill="none" id="EventTicketDecorator-Transportation" style="stroke: #A80036; stroke-width: 0.6000000238418579;"/><polygon fill="#A80036" points="195.8838,303.4476,191.5004,307.4106,194.6674,306.1899,195.8881,309.3569,195.8838,303.4476" style="stroke: #A80036; stroke-width: 0.6000000238418579;"/><!--link EventTicketDecorator to OpenBuffet--><path d="M216.963,306.2574 C223.3038,320.547 231.1722,338.2795 237.2928,352.0732 " fill="none" id="EventTicketDecorator-OpenBuffet" style="stroke: #A80036; stroke-width: 0.6000000238418579;"/><polygon fill="#A80036" points="215.7162,303.4476,215.7119,309.3569,216.9326,306.1899,220.0996,307.4106,215.7162,303.4476" style="stroke: #A80036; stroke-width: 0.6000000238418579;"/><!--link TicketController to EventTicket--><path d="M142.8,124.9536 C142.8,140.4984 142.8,156.2556 142.8,168.3222 " fill="none" id="TicketController-EventTicket" style="stroke: #A80036; stroke-width: 0.6000000238418579;"/><polygon fill="#A80036" points="142.8,171.4656,145.2,166.0656,142.8,168.4656,140.4,166.0656,142.8,171.4656" style="stroke: #A80036; stroke-width: 0.6000000238418579;"/><text fill="#000000" font-family="sans-serif" font-size="7.8" lengthAdjust="spacingAndGlyphs" textLength="16.8" x="143.4" y="151.4971">uses</text><!--
@startuml

skinparam classAttributeIconSize 0

class Demo_index{

}

class TicketController{
{field} - STATE_OPEN
{field} - STATE_CLOSE
{field} - tickets : TicketList
{field} - sold_ticket : Ticket
{field} - view : TicketView

{method} + setModel()
{method} + setView()
{method} + buyTicket()
{method} + getSoldTicket()
{method} + SoldState()
{method} + extra()

}

class TicketView{
{method} + print()
{method} + printline()
}


class Ticket {
  {field} - seatNo : String
  {field} - price : Integer
  {method} + getSeatNo()
  {method} + getPrice()
  {method} + getTicketInfo()
}

interface EventTicket{
  {method} + calculatePrice()
}

class EventTicketDecorator {
  {field} - event_ticket : EventTicket
  {method} + __construct(EventTicket)
}

class Transportation {
  {field} - PRICE
  {method} + calculatePrice()
}

class OpenBuffet {
  {field} - PRICE
  {method} + calculatePrice()
}



TicketController <- Demo_index : uses
TicketView <- TicketController : updates

EventTicket <.. EventTicketDecorator
EventTicket <.. Ticket
EventTicketDecorator <- - Transportation
EventTicketDecorator <- - OpenBuffet

TicketController - -> EventTicket : uses
@enduml

PlantUML version 1.2018.11(Sat Sep 22 19:43:53 EET 2018)
(GPL source distribution)
Java Runtime: OpenJDK Runtime Environment
JVM: OpenJDK 64-Bit Server VM
Java Version: 1.8.0_152-release-1024-b11
Operating System: Windows 10
OS Version: 10.0
Default Encoding: Cp1254
Language: tr
Country: TR
--></g></svg>