<?xml version="1.0" encoding="UTF-8" standalone="no"?><svg xmlns="http://www.w3.org/2000/svg" xmlns:xlink="http://www.w3.org/1999/xlink" contentScriptType="application/ecmascript" contentStyleType="text/css" height="540.6px" preserveAspectRatio="none" style="width:285px;height:540px;" version="1.1" viewBox="0 0 285 540" width="285px" zoomAndPan="magnify"><defs><filter height="300%" id="f48tensqb0bif" width="300%" x="-1" y="-1"><feGaussianBlur result="blurOut" stdDeviation="1.2000000476837158"/><feColorMatrix in="blurOut" result="blurOut2" type="matrix" values="0 0 0 0 0 0 0 0 0 0 0 0 0 0 0 0 0 0 .4 0"/><feOffset dx="2.4000000953674316" dy="2.4000000953674316" in="blurOut2" result="blurOut3"/><feBlend in="SourceGraphic" in2="blurOut3" mode="normal"/></filter></defs><g><!--class Demo_index--><rect fill="#FEFECE" filter="url(#f48tensqb0bif)" height="28.8" id="Demo_index" style="stroke: #A80036; stroke-width: 0.9000000357627869;" width="61.2" x="217.2" y="50.4"/><ellipse cx="226.2" cy="60" fill="#ADD1B2" rx="6.6" ry="6.6" style="stroke: #A80036; stroke-width: 0.6000000238418579;"/><path d="M227.4,57.9 Q227.5219,57.6 227.6625,57.45 Q227.8031,57.3 227.9625,57.3 Q228.2438,57.3 228.4219,57.4688 Q228.6,57.6375 228.6,58.0313 L228.6,58.9688 Q228.6,59.3625 228.4313,59.5313 Q228.2625,59.7 228,59.7 Q227.7656,59.7 227.6156,59.5969 Q227.4656,59.4938 227.4,59.2219 Q227.3719,59.0344 227.2688,58.9313 Q227.0813,58.7344 226.7438,58.6172 Q226.4063,58.5 226.0688,58.5 Q225.6469,58.5 225.2953,58.6688 Q224.9438,58.8375 224.6719,59.2125 Q224.4,59.5875 224.4,60.1031 L224.4,60.6563 Q224.4,61.275 224.9063,61.6875 Q225.4125,62.1 226.3125,62.1 Q226.8469,62.1 227.2219,61.9781 Q227.4375,61.9125 227.6813,61.6969 Q227.8406,61.575 227.925,61.5375 Q228.0094,61.5 228.1125,61.5 Q228.3094,61.5 228.4547,61.6547 Q228.6,61.8094 228.6,62.025 Q228.6,62.2313 228.3938,62.475 Q228.0938,62.8313 227.6156,63.0281 Q226.9875,63.3 226.2188,63.3 Q225.3188,63.3 224.5969,62.9438 Q224.0156,62.6625 223.6078,62.0531 Q223.2,61.4438 223.2,60.7219 L223.2,60.0656 Q223.2,59.3156 223.5609,58.6594 Q223.9219,58.0031 224.5547,57.6516 Q225.1875,57.3 225.9,57.3 Q226.3313,57.3 226.7063,57.45 Q227.0813,57.6 227.4,57.9 Z "/><text fill="#000000" font-family="sans-serif" font-size="7.2" lengthAdjust="spacingAndGlyphs" textLength="42" x="234.6" y="62.9461">Demo_index</text><line style="stroke: #A80036; stroke-width: 0.9000000357627869;" x1="217.8" x2="277.8" y1="69.6" y2="69.6"/><line style="stroke: #A80036; stroke-width: 0.9000000357627869;" x1="217.8" x2="277.8" y1="74.4" y2="74.4"/><!--class TicketController--><rect fill="#FEFECE" filter="url(#f48tensqb0bif)" height="120.1172" id="TicketController" style="stroke: #A80036; stroke-width: 0.9000000357627869;" width="70.8" x="107.4" y="4.8"/><ellipse cx="116.4" cy="14.4" fill="#ADD1B2" rx="6.6" ry="6.6" style="stroke: #A80036; stroke-width: 0.6000000238418579;"/><path d="M117.6,12.3 Q117.7219,12 117.8625,11.85 Q118.0031,11.7 118.1625,11.7 Q118.4438,11.7 118.6219,11.8688 Q118.8,12.0375 118.8,12.4313 L118.8,13.3688 Q118.8,13.7625 118.6313,13.9313 Q118.4625,14.1 118.2,14.1 Q117.9656,14.1 117.8156,13.9969 Q117.6656,13.8938 117.6,13.6219 Q117.5719,13.4344 117.4688,13.3313 Q117.2813,13.1344 116.9438,13.0172 Q116.6063,12.9 116.2688,12.9 Q115.8469,12.9 115.4953,13.0688 Q115.1438,13.2375 114.8719,13.6125 Q114.6,13.9875 114.6,14.5031 L114.6,15.0563 Q114.6,15.675 115.1063,16.0875 Q115.6125,16.5 116.5125,16.5 Q117.0469,16.5 117.4219,16.3781 Q117.6375,16.3125 117.8813,16.0969 Q118.0406,15.975 118.125,15.9375 Q118.2094,15.9 118.3125,15.9 Q118.5094,15.9 118.6547,16.0547 Q118.8,16.2094 118.8,16.425 Q118.8,16.6313 118.5938,16.875 Q118.2938,17.2313 117.8156,17.4281 Q117.1875,17.7 116.4188,17.7 Q115.5188,17.7 114.7969,17.3438 Q114.2156,17.0625 113.8078,16.4531 Q113.4,15.8438 113.4,15.1219 L113.4,14.4656 Q113.4,13.7156 113.7609,13.0594 Q114.1219,12.4031 114.7547,12.0516 Q115.3875,11.7 116.1,11.7 Q116.5313,11.7 116.9063,11.85 Q117.2813,12 117.6,12.3 Z "/><text fill="#000000" font-family="sans-serif" font-size="7.2" lengthAdjust="spacingAndGlyphs" textLength="51.6" x="124.8" y="17.3461">TicketController</text><line style="stroke: #A80036; stroke-width: 0.9000000357627869;" x1="108" x2="177.6" y1="24" y2="24"/><text fill="#000000" font-family="sans-serif" font-size="6.6" lengthAdjust="spacingAndGlyphs" textLength="42" x="111" y="33.2514">-STATE_OPEN</text><text fill="#000000" font-family="sans-serif" font-size="6.6" lengthAdjust="spacingAndGlyphs" textLength="46.2" x="111" y="41.5529">-STATE_CLOSE</text><text fill="#000000" font-family="sans-serif" font-size="6.6" lengthAdjust="spacingAndGlyphs" textLength="53.4" x="111" y="49.8545">-tickets : TicketList</text><text fill="#000000" font-family="sans-serif" font-size="6.6" lengthAdjust="spacingAndGlyphs" textLength="55.2" x="111" y="58.1561">-sold_ticket : Ticket</text><text fill="#000000" font-family="sans-serif" font-size="6.6" lengthAdjust="spacingAndGlyphs" textLength="54.6" x="111" y="66.4576">-view : TicketView</text><line style="stroke: #A80036; stroke-width: 0.9000000357627869;" x1="108" x2="177.6" y1="70.3078" y2="70.3078"/><text fill="#000000" font-family="sans-serif" font-size="6.6" lengthAdjust="spacingAndGlyphs" textLength="34.2" x="111" y="79.5592">+setModel()</text><text fill="#000000" font-family="sans-serif" font-size="6.6" lengthAdjust="spacingAndGlyphs" textLength="33" x="111" y="87.8607">+setView()</text><text fill="#000000" font-family="sans-serif" font-size="6.6" lengthAdjust="spacingAndGlyphs" textLength="36" x="111" y="96.1623">+buyTicket()</text><text fill="#000000" font-family="sans-serif" font-size="6.6" lengthAdjust="spacingAndGlyphs" textLength="46.8" x="111" y="104.4639">+getSoldTicket()</text><text fill="#000000" font-family="sans-serif" font-size="6.6" lengthAdjust="spacingAndGlyphs" textLength="36" x="111" y="112.7654">+SoldState()</text><text fill="#000000" font-family="sans-serif" font-size="6.6" lengthAdjust="spacingAndGlyphs" textLength="23.4" x="111" y="121.067">+extra()</text><!--class TicketView--><rect fill="#FEFECE" filter="url(#f48tensqb0bif)" height="45.4031" id="TicketView" style="stroke: #A80036; stroke-width: 0.9000000357627869;" width="54" x="3.6" y="42"/><ellipse cx="12.6" cy="51.6" fill="#ADD1B2" rx="6.6" ry="6.6" style="stroke: #A80036; stroke-width: 0.6000000238418579;"/><path d="M13.8,49.5 Q13.9219,49.2 14.0625,49.05 Q14.2031,48.9 14.3625,48.9 Q14.6438,48.9 14.8219,49.0688 Q15,49.2375 15,49.6313 L15,50.5688 Q15,50.9625 14.8313,51.1313 Q14.6625,51.3 14.4,51.3 Q14.1656,51.3 14.0156,51.1969 Q13.8656,51.0938 13.8,50.8219 Q13.7719,50.6344 13.6688,50.5313 Q13.4813,50.3344 13.1438,50.2172 Q12.8063,50.1 12.4688,50.1 Q12.0469,50.1 11.6953,50.2688 Q11.3438,50.4375 11.0719,50.8125 Q10.8,51.1875 10.8,51.7031 L10.8,52.2563 Q10.8,52.875 11.3063,53.2875 Q11.8125,53.7 12.7125,53.7 Q13.2469,53.7 13.6219,53.5781 Q13.8375,53.5125 14.0813,53.2969 Q14.2406,53.175 14.325,53.1375 Q14.4094,53.1 14.5125,53.1 Q14.7094,53.1 14.8547,53.2547 Q15,53.4094 15,53.625 Q15,53.8313 14.7938,54.075 Q14.4938,54.4313 14.0156,54.6281 Q13.3875,54.9 12.6188,54.9 Q11.7188,54.9 10.9969,54.5438 Q10.4156,54.2625 10.0078,53.6531 Q9.6,53.0438 9.6,52.3219 L9.6,51.6656 Q9.6,50.9156 9.9609,50.2594 Q10.3219,49.6031 10.9547,49.2516 Q11.5875,48.9 12.3,48.9 Q12.7313,48.9 13.1063,49.05 Q13.4813,49.2 13.8,49.5 Z "/><text fill="#000000" font-family="sans-serif" font-size="7.2" lengthAdjust="spacingAndGlyphs" textLength="34.8" x="21" y="54.5461">TicketView</text><line style="stroke: #A80036; stroke-width: 0.9000000357627869;" x1="4.2" x2="57" y1="61.2" y2="61.2"/><line style="stroke: #A80036; stroke-width: 0.9000000357627869;" x1="4.2" x2="57" y1="66" y2="66"/><text fill="#000000" font-family="sans-serif" font-size="6.6" lengthAdjust="spacingAndGlyphs" textLength="21" x="7.2" y="75.2514">+print()</text><text fill="#000000" font-family="sans-serif" font-size="6.6" lengthAdjust="spacingAndGlyphs" textLength="30.6" x="7.2" y="83.5529">+printline()</text><!--class TicketListIterator--><rect fill="#FEFECE" filter="url(#f48tensqb0bif)" height="120.1172" id="TicketListIterator" style="stroke: #A80036; stroke-width: 0.9000000357627869;" width="73.2" x="37.8" y="171.6"/><ellipse cx="46.8" cy="181.2" fill="#ADD1B2" rx="6.6" ry="6.6" style="stroke: #A80036; stroke-width: 0.6000000238418579;"/><path d="M48,179.1 Q48.1219,178.8 48.2625,178.65 Q48.4031,178.5 48.5625,178.5 Q48.8438,178.5 49.0219,178.6688 Q49.2,178.8375 49.2,179.2313 L49.2,180.1688 Q49.2,180.5625 49.0313,180.7313 Q48.8625,180.9 48.6,180.9 Q48.3656,180.9 48.2156,180.7969 Q48.0656,180.6938 48,180.4219 Q47.9719,180.2344 47.8688,180.1313 Q47.6813,179.9344 47.3438,179.8172 Q47.0063,179.7 46.6688,179.7 Q46.2469,179.7 45.8953,179.8688 Q45.5438,180.0375 45.2719,180.4125 Q45,180.7875 45,181.3031 L45,181.8563 Q45,182.475 45.5063,182.8875 Q46.0125,183.3 46.9125,183.3 Q47.4469,183.3 47.8219,183.1781 Q48.0375,183.1125 48.2813,182.8969 Q48.4406,182.775 48.525,182.7375 Q48.6094,182.7 48.7125,182.7 Q48.9094,182.7 49.0547,182.8547 Q49.2,183.0094 49.2,183.225 Q49.2,183.4313 48.9938,183.675 Q48.6938,184.0313 48.2156,184.2281 Q47.5875,184.5 46.8188,184.5 Q45.9188,184.5 45.1969,184.1438 Q44.6156,183.8625 44.2078,183.2531 Q43.8,182.6438 43.8,181.9219 L43.8,181.2656 Q43.8,180.5156 44.1609,179.8594 Q44.5219,179.2031 45.1547,178.8516 Q45.7875,178.5 46.5,178.5 Q46.9313,178.5 47.3063,178.65 Q47.6813,178.8 48,179.1 Z "/><text fill="#000000" font-family="sans-serif" font-size="7.2" lengthAdjust="spacingAndGlyphs" textLength="54" x="55.2" y="184.1461">TicketListIterator</text><line style="stroke: #A80036; stroke-width: 0.9000000357627869;" x1="38.4" x2="110.4" y1="190.8" y2="190.8"/><text fill="#000000" font-family="sans-serif" font-size="6.6" lengthAdjust="spacingAndGlyphs" textLength="60" x="41.4" y="200.0514">-ticketList : TicketList</text><text fill="#000000" font-family="sans-serif" font-size="6.6" lengthAdjust="spacingAndGlyphs" textLength="65.4" x="41.4" y="208.3529">-currentTicket : Integer</text><text fill="#000000" font-family="sans-serif" font-size="6.6" lengthAdjust="spacingAndGlyphs" textLength="60" x="41.4" y="216.6545">-ticketList : TicketList</text><text fill="#000000" font-family="sans-serif" font-size="6.6" lengthAdjust="spacingAndGlyphs" textLength="65.4" x="41.4" y="224.9561">-currentTicket : Integer</text><line style="stroke: #A80036; stroke-width: 0.9000000357627869;" x1="38.4" x2="110.4" y1="228.8063" y2="228.8063"/><text fill="#000000" font-family="sans-serif" font-size="6.6" lengthAdjust="spacingAndGlyphs" textLength="43.2" x="41.4" y="238.0576">+__construct()</text><text fill="#000000" font-family="sans-serif" font-size="6.6" lengthAdjust="spacingAndGlyphs" textLength="55.8" x="41.4" y="246.3592">+getCurrentTicket()</text><text fill="#000000" font-family="sans-serif" font-size="6.6" lengthAdjust="spacingAndGlyphs" textLength="47.4" x="41.4" y="254.6608">+getNextTicket()</text><text fill="#000000" font-family="sans-serif" font-size="6.6" lengthAdjust="spacingAndGlyphs" textLength="49.2" x="41.4" y="262.9623">+hasNextTicket()</text><text fill="#000000" font-family="sans-serif" font-size="6.6" lengthAdjust="spacingAndGlyphs" textLength="55.8" x="41.4" y="271.2639">+getCurrentTicket()</text><text fill="#000000" font-family="sans-serif" font-size="6.6" lengthAdjust="spacingAndGlyphs" textLength="47.4" x="41.4" y="279.5654">+getNextTicket()</text><text fill="#000000" font-family="sans-serif" font-size="6.6" lengthAdjust="spacingAndGlyphs" textLength="49.2" x="41.4" y="287.867">+hasNextTicket()</text><!--class TicketListReverseIterator--><rect fill="#FEFECE" filter="url(#f48tensqb0bif)" height="62.0063" id="TicketListReverseIterator" style="stroke: #A80036; stroke-width: 0.9000000357627869;" width="100.8" x="160.8" y="200.7"/><ellipse cx="169.8" cy="210.3" fill="#ADD1B2" rx="6.6" ry="6.6" style="stroke: #A80036; stroke-width: 0.6000000238418579;"/><path d="M171,208.2 Q171.1219,207.9 171.2625,207.75 Q171.4031,207.6 171.5625,207.6 Q171.8438,207.6 172.0219,207.7688 Q172.2,207.9375 172.2,208.3313 L172.2,209.2688 Q172.2,209.6625 172.0313,209.8313 Q171.8625,210 171.6,210 Q171.3656,210 171.2156,209.8969 Q171.0656,209.7938 171,209.5219 Q170.9719,209.3344 170.8688,209.2313 Q170.6813,209.0344 170.3438,208.9172 Q170.0063,208.8 169.6688,208.8 Q169.2469,208.8 168.8953,208.9688 Q168.5438,209.1375 168.2719,209.5125 Q168,209.8875 168,210.4031 L168,210.9563 Q168,211.575 168.5063,211.9875 Q169.0125,212.4 169.9125,212.4 Q170.4469,212.4 170.8219,212.2781 Q171.0375,212.2125 171.2813,211.9969 Q171.4406,211.875 171.525,211.8375 Q171.6094,211.8 171.7125,211.8 Q171.9094,211.8 172.0547,211.9547 Q172.2,212.1094 172.2,212.325 Q172.2,212.5313 171.9938,212.775 Q171.6938,213.1313 171.2156,213.3281 Q170.5875,213.6 169.8188,213.6 Q168.9188,213.6 168.1969,213.2438 Q167.6156,212.9625 167.2078,212.3531 Q166.8,211.7438 166.8,211.0219 L166.8,210.3656 Q166.8,209.6156 167.1609,208.9594 Q167.5219,208.3031 168.1547,207.9516 Q168.7875,207.6 169.5,207.6 Q169.9313,207.6 170.3063,207.75 Q170.6813,207.9 171,208.2 Z "/><text fill="#000000" font-family="sans-serif" font-size="7.2" lengthAdjust="spacingAndGlyphs" textLength="81.6" x="178.2" y="213.2461">TicketListReverseIterator</text><line style="stroke: #A80036; stroke-width: 0.9000000357627869;" x1="161.4" x2="261" y1="219.9" y2="219.9"/><line style="stroke: #A80036; stroke-width: 0.9000000357627869;" x1="161.4" x2="261" y1="224.7" y2="224.7"/><text fill="#000000" font-family="sans-serif" font-size="6.6" lengthAdjust="spacingAndGlyphs" textLength="47.4" x="164.4" y="233.9514">+getNextTicket()</text><text fill="#000000" font-family="sans-serif" font-size="6.6" lengthAdjust="spacingAndGlyphs" textLength="49.2" x="164.4" y="242.2529">+hasNextTicket()</text><text fill="#000000" font-family="sans-serif" font-size="6.6" lengthAdjust="spacingAndGlyphs" textLength="47.4" x="164.4" y="250.5545">+getNextTicket()</text><text fill="#000000" font-family="sans-serif" font-size="6.6" lengthAdjust="spacingAndGlyphs" textLength="49.2" x="164.4" y="258.8561">+hasNextTicket()</text><!--class Ticket--><rect fill="#FEFECE" filter="url(#f48tensqb0bif)" height="70.3078" id="Ticket" style="stroke: #A80036; stroke-width: 0.9000000357627869;" width="52.2" x="48.3" y="463.8"/><ellipse cx="63.51" cy="473.4" fill="#ADD1B2" rx="6.6" ry="6.6" style="stroke: #A80036; stroke-width: 0.6000000238418579;"/><path d="M64.71,471.3 Q64.8319,471 64.9725,470.85 Q65.1131,470.7 65.2725,470.7 Q65.5538,470.7 65.7319,470.8688 Q65.91,471.0375 65.91,471.4313 L65.91,472.3688 Q65.91,472.7625 65.7413,472.9313 Q65.5725,473.1 65.31,473.1 Q65.0756,473.1 64.9256,472.9969 Q64.7756,472.8938 64.71,472.6219 Q64.6819,472.4344 64.5788,472.3313 Q64.3913,472.1344 64.0538,472.0172 Q63.7163,471.9 63.3788,471.9 Q62.9569,471.9 62.6053,472.0688 Q62.2538,472.2375 61.9819,472.6125 Q61.71,472.9875 61.71,473.5031 L61.71,474.0563 Q61.71,474.675 62.2163,475.0875 Q62.7225,475.5 63.6225,475.5 Q64.1569,475.5 64.5319,475.3781 Q64.7475,475.3125 64.9913,475.0969 Q65.1506,474.975 65.235,474.9375 Q65.3194,474.9 65.4225,474.9 Q65.6194,474.9 65.7647,475.0547 Q65.91,475.2094 65.91,475.425 Q65.91,475.6313 65.7038,475.875 Q65.4038,476.2313 64.9256,476.4281 Q64.2975,476.7 63.5288,476.7 Q62.6288,476.7 61.9069,476.3438 Q61.3256,476.0625 60.9178,475.4531 Q60.51,474.8438 60.51,474.1219 L60.51,473.4656 Q60.51,472.7156 60.8709,472.0594 Q61.2319,471.4031 61.8647,471.0516 Q62.4975,470.7 63.21,470.7 Q63.6413,470.7 64.0163,470.85 Q64.3913,471 64.71,471.3 Z "/><text fill="#000000" font-family="sans-serif" font-size="7.2" lengthAdjust="spacingAndGlyphs" textLength="19.2" x="73.29" y="476.3461">Ticket</text><line style="stroke: #A80036; stroke-width: 0.9000000357627869;" x1="48.9" x2="99.9" y1="483" y2="483"/><text fill="#000000" font-family="sans-serif" font-size="6.6" lengthAdjust="spacingAndGlyphs" textLength="45" x="51.9" y="492.2514">-seatNo : String</text><text fill="#000000" font-family="sans-serif" font-size="6.6" lengthAdjust="spacingAndGlyphs" textLength="42" x="51.9" y="500.5529">-price : Integer</text><line style="stroke: #A80036; stroke-width: 0.9000000357627869;" x1="48.9" x2="99.9" y1="504.4031" y2="504.4031"/><text fill="#000000" font-family="sans-serif" font-size="6.6" lengthAdjust="spacingAndGlyphs" textLength="38.4" x="51.9" y="513.6545">+getSeatNo()</text><text fill="#000000" font-family="sans-serif" font-size="6.6" lengthAdjust="spacingAndGlyphs" textLength="31.8" x="51.9" y="521.9561">+getPrice()</text><text fill="#000000" font-family="sans-serif" font-size="6.6" lengthAdjust="spacingAndGlyphs" textLength="45" x="51.9" y="530.2576">+getTicketInfo()</text><!--class TicketList--><rect fill="#FEFECE" filter="url(#f48tensqb0bif)" height="78.6094" id="TicketList" style="stroke: #A80036; stroke-width: 0.9000000357627869;" width="78" x="35.4" y="338.4"/><ellipse cx="56.82" cy="348" fill="#ADD1B2" rx="6.6" ry="6.6" style="stroke: #A80036; stroke-width: 0.6000000238418579;"/><path d="M58.02,345.9 Q58.1419,345.6 58.2825,345.45 Q58.4231,345.3 58.5825,345.3 Q58.8638,345.3 59.0419,345.4688 Q59.22,345.6375 59.22,346.0313 L59.22,346.9688 Q59.22,347.3625 59.0513,347.5313 Q58.8825,347.7 58.62,347.7 Q58.3856,347.7 58.2356,347.5969 Q58.0856,347.4938 58.02,347.2219 Q57.9919,347.0344 57.8888,346.9313 Q57.7013,346.7344 57.3638,346.6172 Q57.0263,346.5 56.6888,346.5 Q56.2669,346.5 55.9153,346.6688 Q55.5638,346.8375 55.2919,347.2125 Q55.02,347.5875 55.02,348.1031 L55.02,348.6563 Q55.02,349.275 55.5263,349.6875 Q56.0325,350.1 56.9325,350.1 Q57.4669,350.1 57.8419,349.9781 Q58.0575,349.9125 58.3013,349.6969 Q58.4606,349.575 58.545,349.5375 Q58.6294,349.5 58.7325,349.5 Q58.9294,349.5 59.0747,349.6547 Q59.22,349.8094 59.22,350.025 Q59.22,350.2313 59.0138,350.475 Q58.7138,350.8313 58.2356,351.0281 Q57.6075,351.3 56.8388,351.3 Q55.9388,351.3 55.2169,350.9438 Q54.6356,350.6625 54.2278,350.0531 Q53.82,349.4438 53.82,348.7219 L53.82,348.0656 Q53.82,347.3156 54.1809,346.6594 Q54.5419,346.0031 55.1747,345.6516 Q55.8075,345.3 56.52,345.3 Q56.9513,345.3 57.3263,345.45 Q57.7013,345.6 58.02,345.9 Z "/><text fill="#000000" font-family="sans-serif" font-size="7.2" lengthAdjust="spacingAndGlyphs" textLength="31.2" x="67.98" y="350.9461">TicketList</text><line style="stroke: #A80036; stroke-width: 0.9000000357627869;" x1="36" x2="112.8" y1="357.6" y2="357.6"/><text fill="#000000" font-family="sans-serif" font-size="6.6" lengthAdjust="spacingAndGlyphs" textLength="46.8" x="39" y="366.8514">-tickets : Ticket[]</text><text fill="#000000" font-family="sans-serif" font-size="6.6" lengthAdjust="spacingAndGlyphs" textLength="59.4" x="39" y="375.1529">-ticketCount : Integer</text><line style="stroke: #A80036; stroke-width: 0.9000000357627869;" x1="36" x2="112.8" y1="379.0031" y2="379.0031"/><text fill="#000000" font-family="sans-serif" font-size="6.6" lengthAdjust="spacingAndGlyphs" textLength="70.8" x="39" y="388.2545">+setTicketCount(Integer)</text><text fill="#000000" font-family="sans-serif" font-size="6.6" lengthAdjust="spacingAndGlyphs" textLength="54" x="39" y="396.5561">+getTicket(Integer)</text><text fill="#000000" font-family="sans-serif" font-size="6.6" lengthAdjust="spacingAndGlyphs" textLength="52.8" x="39" y="404.8576">+addTicket(Ticket)</text><text fill="#000000" font-family="sans-serif" font-size="6.6" lengthAdjust="spacingAndGlyphs" textLength="63.6" x="39" y="413.1592">+removeTicket(Ticket)</text><!--link TicketController to Demo_index--><path d="M181.6146,64.8 C193.2942,64.8 205.9452,64.8 217.0284,64.8 " fill="none" id="TicketController-Demo_index" style="stroke: #A80036; stroke-width: 0.6000000238418579;"/><polygon fill="#A80036" points="178.3482,64.8,183.7482,67.2,181.3482,64.8,183.7482,62.4,178.3482,64.8" style="stroke: #A80036; stroke-width: 0.6000000238418579;"/><text fill="#000000" font-family="sans-serif" font-size="7.8" lengthAdjust="spacingAndGlyphs" textLength="16.8" x="189.3" y="60.8971">uses</text><!--link TicketView to TicketController--><path d="M60.7667,64.8 C75.0684,64.8 92.253,64.8 107.1906,64.8 " fill="none" id="TicketView-TicketController" style="stroke: #A80036; stroke-width: 0.6000000238418579;"/><polygon fill="#A80036" points="57.7605,64.8,63.1605,67.2,60.7605,64.8,63.1605,62.4,57.7605,64.8" style="stroke: #A80036; stroke-width: 0.6000000238418579;"/><text fill="#000000" font-family="sans-serif" font-size="7.8" lengthAdjust="spacingAndGlyphs" textLength="27.6" x="68.7" y="60.8971">updates</text><!--link TicketController to TicketListIterator--><path d="M118.2024,124.9512 C112.35,139.1214 106.089,154.2792 100.185,168.5736 " fill="none" id="TicketController-TicketListIterator" style="stroke: #A80036; stroke-width: 0.6000000238418579;"/><polygon fill="#A80036" points="99.009,171.4206,103.2885,167.3456,100.1541,168.6478,98.852,165.5134,99.009,171.4206" style="stroke: #A80036; stroke-width: 0.6000000238418579;"/><text fill="#000000" font-family="sans-serif" font-size="7.8" lengthAdjust="spacingAndGlyphs" textLength="24.6" x="111" y="151.4971">applies</text><!--link TicketController to TicketListReverseIterator--><path d="M167.3976,124.9512 C177.4728,149.3442 188.7576,176.6664 197.3502,197.4684 " fill="none" id="TicketController-TicketListReverseIterator" style="stroke: #A80036; stroke-width: 0.6000000238418579;"/><polygon fill="#A80036" points="198.5976,200.4894,198.7531,194.5821,197.4517,197.7169,194.317,196.4155,198.5976,200.4894" style="stroke: #A80036; stroke-width: 0.6000000238418579;"/><text fill="#000000" font-family="sans-serif" font-size="7.8" lengthAdjust="spacingAndGlyphs" textLength="24.6" x="179.4" y="151.4971">applies</text><!--link TicketListIterator to TicketListReverseIterator--><path d="M123.0864,231.6 C135.2412,231.6 148.305,231.6 160.5522,231.6 " fill="none" id="TicketListIterator-TicketListReverseIterator" style="stroke: #A80036; stroke-width: 0.6000000238418579;"/><polygon fill="none" points="123.06,235.8,111.06,231.6,123.06,227.4,123.06,235.8" style="stroke: #A80036; stroke-width: 0.6000000238418579;"/><text fill="#000000" font-family="sans-serif" font-size="7.8" lengthAdjust="spacingAndGlyphs" textLength="27.6" x="122.1" y="227.6971">extends</text><!--link TicketList to Ticket--><path d="M74.4,417.0948 C74.4,431.0364 74.4,446.7318 74.4,460.5804 " fill="none" id="TicketList-Ticket" style="stroke: #A80036; stroke-width: 0.6000000238418579;"/><polygon fill="#A80036" points="74.4,463.6896,76.8,458.2896,74.4,460.6896,72,458.2896,74.4,463.6896" style="stroke: #A80036; stroke-width: 0.6000000238418579;"/><text fill="#000000" font-family="sans-serif" font-size="7.8" lengthAdjust="spacingAndGlyphs" textLength="16.8" x="75" y="443.6971">uses</text><!--link TicketListIterator to TicketList--><path d="M74.4,291.7638 C74.4,306.3498 74.4,321.6564 74.4,335.2146 " fill="none" id="TicketListIterator-TicketList" style="stroke: #A80036; stroke-width: 0.6000000238418579;"/><polygon fill="#A80036" points="74.4,338.2596,76.8,332.8596,74.4,335.2596,72,332.8596,74.4,338.2596" style="stroke: #A80036; stroke-width: 0.6000000238418579;"/><text fill="#000000" font-family="sans-serif" font-size="7.8" lengthAdjust="spacingAndGlyphs" textLength="21.6" x="75" y="318.2971">iterats</text><!--
@startuml

skinparam classAttributeIconSize 0

class Demo_index{

}

class TicketController{
{field} - STATE_OPEN
{field} - STATE_CLOSE
{field} - tickets : TicketList
{field} - sold_ticket : Ticket
{field} - view : TicketView

{method} + setModel()
{method} + setView()
{method} + buyTicket()
{method} + getSoldTicket()
{method} + SoldState()
{method} + extra()

}

class TicketView{
{method} + print()
{method} + printline()
}

class TicketListIterator{
  {field} - ticketList : TicketList
  {field} - currentTicket : Integer
  {method} + __construct()
  {method} + getCurrentTicket()
  {method} + getNextTicket()
  {method} + hasNextTicket()
}

class TicketListReverseIterator {
  {method} + getNextTicket()
  {method} + hasNextTicket()
}

class Ticket {
  {field} - seatNo : String
  {field} - price : Integer
  {method} + getSeatNo()
  {method} + getPrice()
  {method} + getTicketInfo()
}

class TicketList {
  {field} - tickets : Ticket[]
  {field} - ticketCount : Integer
  {method} + setTicketCount(Integer)
  {method} + getTicket(Integer)
  {method} + addTicket(Ticket)
  {method} + removeTicket(Ticket)
}

class TicketListIterator {
  {field} - ticketList : TicketList
  {field} - currentTicket : Integer
  {method} + getCurrentTicket()
  {method} + getNextTicket()
  {method} + hasNextTicket()
}

class TicketListReverseIterator {
  {method} + getNextTicket()
  {method} + hasNextTicket()
}


TicketController <- Demo_index : uses
TicketView <- TicketController : updates

TicketController - -> TicketListIterator : applies
TicketController - -> TicketListReverseIterator : applies
TicketListIterator <|- TicketListReverseIterator : extends
TicketList - -> Ticket : uses
TicketListIterator - ->TicketList : iterats
@enduml

PlantUML version 1.2018.11(Sat Sep 22 19:43:53 EET 2018)
(GPL source distribution)
Java Runtime: OpenJDK Runtime Environment
JVM: OpenJDK 64-Bit Server VM
Java Version: 1.8.0_152-release-1024-b11
Operating System: Windows 10
OS Version: 10.0
Default Encoding: Cp1254
Language: tr
Country: TR
--></g></svg>