<?xml version="1.0" encoding="UTF-8" standalone="no"?><svg xmlns="http://www.w3.org/2000/svg" xmlns:xlink="http://www.w3.org/1999/xlink" contentScriptType="application/ecmascript" contentStyleType="text/css" height="315.6px" preserveAspectRatio="none" style="width:387px;height:315px;" version="1.1" viewBox="0 0 387 315" width="387px" zoomAndPan="magnify"><defs><filter height="300%" id="fnz63j659rm7c" width="300%" x="-1" y="-1"><feGaussianBlur result="blurOut" stdDeviation="1.2000000476837158"/><feColorMatrix in="blurOut" result="blurOut2" type="matrix" values="0 0 0 0 0 0 0 0 0 0 0 0 0 0 0 0 0 0 .4 0"/><feOffset dx="2.4000000953674316" dy="2.4000000953674316" in="blurOut2" result="blurOut3"/><feBlend in="SourceGraphic" in2="blurOut3" mode="normal"/></filter></defs><g><!--class Demo_index--><rect fill="#FEFECE" filter="url(#fnz63j659rm7c)" height="28.8" id="Demo_index" style="stroke: #A80036; stroke-width: 0.9000000357627869;" width="61.2" x="264.3" y="42.3"/><ellipse cx="273.3" cy="51.9" fill="#ADD1B2" rx="6.6" ry="6.6" style="stroke: #A80036; stroke-width: 0.6000000238418579;"/><path d="M274.5,49.8 Q274.6219,49.5 274.7625,49.35 Q274.9031,49.2 275.0625,49.2 Q275.3438,49.2 275.5219,49.3688 Q275.7,49.5375 275.7,49.9313 L275.7,50.8688 Q275.7,51.2625 275.5313,51.4313 Q275.3625,51.6 275.1,51.6 Q274.8656,51.6 274.7156,51.4969 Q274.5656,51.3938 274.5,51.1219 Q274.4719,50.9344 274.3688,50.8313 Q274.1813,50.6344 273.8438,50.5172 Q273.5063,50.4 273.1688,50.4 Q272.7469,50.4 272.3953,50.5688 Q272.0438,50.7375 271.7719,51.1125 Q271.5,51.4875 271.5,52.0031 L271.5,52.5563 Q271.5,53.175 272.0063,53.5875 Q272.5125,54 273.4125,54 Q273.9469,54 274.3219,53.8781 Q274.5375,53.8125 274.7813,53.5969 Q274.9406,53.475 275.025,53.4375 Q275.1094,53.4 275.2125,53.4 Q275.4094,53.4 275.5547,53.5547 Q275.7,53.7094 275.7,53.925 Q275.7,54.1313 275.4938,54.375 Q275.1938,54.7313 274.7156,54.9281 Q274.0875,55.2 273.3188,55.2 Q272.4188,55.2 271.6969,54.8438 Q271.1156,54.5625 270.7078,53.9531 Q270.3,53.3438 270.3,52.6219 L270.3,51.9656 Q270.3,51.2156 270.6609,50.5594 Q271.0219,49.9031 271.6547,49.5516 Q272.2875,49.2 273,49.2 Q273.4313,49.2 273.8063,49.35 Q274.1813,49.5 274.5,49.8 Z "/><text fill="#000000" font-family="sans-serif" font-size="7.2" lengthAdjust="spacingAndGlyphs" textLength="42" x="281.7" y="54.8461">Demo_index</text><line style="stroke: #A80036; stroke-width: 0.9000000357627869;" x1="264.9" x2="324.9" y1="61.5" y2="61.5"/><line style="stroke: #A80036; stroke-width: 0.9000000357627869;" x1="264.9" x2="324.9" y1="66.3" y2="66.3"/><!--class PreparationController--><rect fill="#FEFECE" filter="url(#fnz63j659rm7c)" height="103.5141" id="PreparationController" style="stroke: #A80036; stroke-width: 0.9000000357627869;" width="90" x="135.3" y="4.8"/><ellipse cx="144.3" cy="14.4" fill="#ADD1B2" rx="6.6" ry="6.6" style="stroke: #A80036; stroke-width: 0.6000000238418579;"/><path d="M145.5,12.3 Q145.6219,12 145.7625,11.85 Q145.9031,11.7 146.0625,11.7 Q146.3438,11.7 146.5219,11.8688 Q146.7,12.0375 146.7,12.4313 L146.7,13.3688 Q146.7,13.7625 146.5313,13.9313 Q146.3625,14.1 146.1,14.1 Q145.8656,14.1 145.7156,13.9969 Q145.5656,13.8938 145.5,13.6219 Q145.4719,13.4344 145.3688,13.3313 Q145.1813,13.1344 144.8438,13.0172 Q144.5063,12.9 144.1688,12.9 Q143.7469,12.9 143.3953,13.0688 Q143.0438,13.2375 142.7719,13.6125 Q142.5,13.9875 142.5,14.5031 L142.5,15.0563 Q142.5,15.675 143.0063,16.0875 Q143.5125,16.5 144.4125,16.5 Q144.9469,16.5 145.3219,16.3781 Q145.5375,16.3125 145.7813,16.0969 Q145.9406,15.975 146.025,15.9375 Q146.1094,15.9 146.2125,15.9 Q146.4094,15.9 146.5547,16.0547 Q146.7,16.2094 146.7,16.425 Q146.7,16.6313 146.4938,16.875 Q146.1938,17.2313 145.7156,17.4281 Q145.0875,17.7 144.3188,17.7 Q143.4188,17.7 142.6969,17.3438 Q142.1156,17.0625 141.7078,16.4531 Q141.3,15.8438 141.3,15.1219 L141.3,14.4656 Q141.3,13.7156 141.6609,13.0594 Q142.0219,12.4031 142.6547,12.0516 Q143.2875,11.7 144,11.7 Q144.4313,11.7 144.8063,11.85 Q145.1813,12 145.5,12.3 Z "/><text fill="#000000" font-family="sans-serif" font-size="7.2" lengthAdjust="spacingAndGlyphs" textLength="70.8" x="152.7" y="17.3461">PreparationController</text><line style="stroke: #A80036; stroke-width: 0.9000000357627869;" x1="135.9" x2="224.7" y1="24" y2="24"/><text fill="#000000" font-family="sans-serif" font-size="6.6" lengthAdjust="spacingAndGlyphs" textLength="73.8" x="138.9" y="33.2514">-preparation : Preparation</text><text fill="#000000" font-family="sans-serif" font-size="6.6" lengthAdjust="spacingAndGlyphs" textLength="70.8" x="138.9" y="41.5529">-view : PreparationView</text><line style="stroke: #A80036; stroke-width: 0.9000000357627869;" x1="135.9" x2="224.7" y1="45.4031" y2="45.4031"/><text fill="#000000" font-family="sans-serif" font-size="6.6" lengthAdjust="spacingAndGlyphs" textLength="34.2" x="138.9" y="54.6545">+setModel()</text><text fill="#000000" font-family="sans-serif" font-size="6.6" lengthAdjust="spacingAndGlyphs" textLength="33" x="138.9" y="62.9561">+setView()</text><text fill="#000000" font-family="sans-serif" font-size="6.6" lengthAdjust="spacingAndGlyphs" textLength="21.6" x="138.9" y="71.2576">+build()</text><text fill="#000000" font-family="sans-serif" font-size="6.6" lengthAdjust="spacingAndGlyphs" textLength="45" x="138.9" y="79.5592">+addprojector()</text><text fill="#000000" font-family="sans-serif" font-size="6.6" lengthAdjust="spacingAndGlyphs" textLength="59.4" x="138.9" y="87.8607">+addSoundSystem()</text><text fill="#000000" font-family="sans-serif" font-size="6.6" lengthAdjust="spacingAndGlyphs" textLength="37.8" x="138.9" y="96.1623">+addChairs()</text><text fill="#000000" font-family="sans-serif" font-size="6.6" lengthAdjust="spacingAndGlyphs" textLength="40.8" x="138.9" y="104.4639">+addSnacks()</text><!--class PreparationView--><rect fill="#FEFECE" filter="url(#fnz63j659rm7c)" height="37.1016" id="PreparationView" style="stroke: #A80036; stroke-width: 0.9000000357627869;" width="73.2" x="12.3" y="38.1"/><ellipse cx="21.3" cy="47.7" fill="#ADD1B2" rx="6.6" ry="6.6" style="stroke: #A80036; stroke-width: 0.6000000238418579;"/><path d="M22.5,45.6 Q22.6219,45.3 22.7625,45.15 Q22.9031,45 23.0625,45 Q23.3438,45 23.5219,45.1688 Q23.7,45.3375 23.7,45.7313 L23.7,46.6688 Q23.7,47.0625 23.5313,47.2313 Q23.3625,47.4 23.1,47.4 Q22.8656,47.4 22.7156,47.2969 Q22.5656,47.1938 22.5,46.9219 Q22.4719,46.7344 22.3688,46.6313 Q22.1813,46.4344 21.8438,46.3172 Q21.5063,46.2 21.1688,46.2 Q20.7469,46.2 20.3953,46.3688 Q20.0438,46.5375 19.7719,46.9125 Q19.5,47.2875 19.5,47.8031 L19.5,48.3563 Q19.5,48.975 20.0063,49.3875 Q20.5125,49.8 21.4125,49.8 Q21.9469,49.8 22.3219,49.6781 Q22.5375,49.6125 22.7813,49.3969 Q22.9406,49.275 23.025,49.2375 Q23.1094,49.2 23.2125,49.2 Q23.4094,49.2 23.5547,49.3547 Q23.7,49.5094 23.7,49.725 Q23.7,49.9313 23.4938,50.175 Q23.1938,50.5313 22.7156,50.7281 Q22.0875,51 21.3188,51 Q20.4188,51 19.6969,50.6438 Q19.1156,50.3625 18.7078,49.7531 Q18.3,49.1438 18.3,48.4219 L18.3,47.7656 Q18.3,47.0156 18.6609,46.3594 Q19.0219,45.7031 19.6547,45.3516 Q20.2875,45 21,45 Q21.4313,45 21.8063,45.15 Q22.1813,45.3 22.5,45.6 Z "/><text fill="#000000" font-family="sans-serif" font-size="7.2" lengthAdjust="spacingAndGlyphs" textLength="54" x="29.7" y="50.6461">PreparationView</text><line style="stroke: #A80036; stroke-width: 0.9000000357627869;" x1="12.9" x2="84.9" y1="57.3" y2="57.3"/><line style="stroke: #A80036; stroke-width: 0.9000000357627869;" x1="12.9" x2="84.9" y1="62.1" y2="62.1"/><text fill="#000000" font-family="sans-serif" font-size="6.6" lengthAdjust="spacingAndGlyphs" textLength="21" x="15.9" y="71.3514">+print()</text><!--class PreparationBuilderInterface--><rect fill="#FEFECE" filter="url(#fnz63j659rm7c)" height="62.0063" id="PreparationBuilderInterface" style="stroke: #A80036; stroke-width: 0.9000000357627869;" width="109.8" x="125.4" y="155.4"/><ellipse cx="134.4" cy="165" fill="#B4A7E5" rx="6.6" ry="6.6" style="stroke: #A80036; stroke-width: 0.6000000238418579;"/><path d="M135,163.2 L135,166.8 L136.2,166.8 L136.4906,166.8 L136.8,167.175 L136.8,167.4 L136.8,167.625 L136.4906,168 L136.2,168 L132.6,168 L132.3094,168 L132,167.625 L132,167.4 L132,167.175 L132.3094,166.8 L132.6,166.8 L133.8,166.8 L133.8,163.2 L132.6,163.2 L132.3094,163.2 L132,162.825 L132,162.6 L132,162.375 L132.3094,162 L132.6,162 L136.2,162 L136.4906,162 L136.8,162.375 L136.8,162.6 L136.8,162.825 L136.4906,163.2 L136.2,163.2 L135,163.2 Z "/><text fill="#000000" font-family="sans-serif" font-size="7.2" font-style="italic" lengthAdjust="spacingAndGlyphs" textLength="90.6" x="142.8" y="167.9461">PreparationBuilderInterface</text><line style="stroke: #A80036; stroke-width: 0.9000000357627869;" x1="126" x2="234.6" y1="174.6" y2="174.6"/><line style="stroke: #A80036; stroke-width: 0.9000000357627869;" x1="126" x2="234.6" y1="179.4" y2="179.4"/><text fill="#000000" font-family="sans-serif" font-size="6.6" lengthAdjust="spacingAndGlyphs" textLength="45" x="129" y="188.6514">+addprojector()</text><text fill="#000000" font-family="sans-serif" font-size="6.6" lengthAdjust="spacingAndGlyphs" textLength="37.8" x="129" y="196.9529">+addChairs()</text><text fill="#000000" font-family="sans-serif" font-size="6.6" lengthAdjust="spacingAndGlyphs" textLength="59.4" x="129" y="205.2545">+addSoundSystem()</text><text fill="#000000" font-family="sans-serif" font-size="6.6" lengthAdjust="spacingAndGlyphs" textLength="40.8" x="129" y="213.5561">+addSnacks()</text><!--class ChairPrototype--><rect fill="#FEFECE" filter="url(#fnz63j659rm7c)" height="45.4031" id="ChairPrototype" style="stroke: #A80036; stroke-width: 0.9000000357627869;" width="67.8" x="3.6" y="264"/><ellipse cx="12.6" cy="273.6" fill="#ADD1B2" rx="6.6" ry="6.6" style="stroke: #A80036; stroke-width: 0.6000000238418579;"/><path d="M13.8,271.5 Q13.9219,271.2 14.0625,271.05 Q14.2031,270.9 14.3625,270.9 Q14.6438,270.9 14.8219,271.0688 Q15,271.2375 15,271.6313 L15,272.5688 Q15,272.9625 14.8313,273.1313 Q14.6625,273.3 14.4,273.3 Q14.1656,273.3 14.0156,273.1969 Q13.8656,273.0938 13.8,272.8219 Q13.7719,272.6344 13.6688,272.5313 Q13.4813,272.3344 13.1438,272.2172 Q12.8063,272.1 12.4688,272.1 Q12.0469,272.1 11.6953,272.2688 Q11.3438,272.4375 11.0719,272.8125 Q10.8,273.1875 10.8,273.7031 L10.8,274.2563 Q10.8,274.875 11.3063,275.2875 Q11.8125,275.7 12.7125,275.7 Q13.2469,275.7 13.6219,275.5781 Q13.8375,275.5125 14.0813,275.2969 Q14.2406,275.175 14.325,275.1375 Q14.4094,275.1 14.5125,275.1 Q14.7094,275.1 14.8547,275.2547 Q15,275.4094 15,275.625 Q15,275.8313 14.7938,276.075 Q14.4938,276.4313 14.0156,276.6281 Q13.3875,276.9 12.6188,276.9 Q11.7188,276.9 10.9969,276.5438 Q10.4156,276.2625 10.0078,275.6531 Q9.6,275.0438 9.6,274.3219 L9.6,273.6656 Q9.6,272.9156 9.9609,272.2594 Q10.3219,271.6031 10.9547,271.2516 Q11.5875,270.9 12.3,270.9 Q12.7313,270.9 13.1063,271.05 Q13.4813,271.2 13.8,271.5 Z "/><text fill="#000000" font-family="sans-serif" font-size="7.2" lengthAdjust="spacingAndGlyphs" textLength="48.6" x="21" y="276.5461">ChairPrototype</text><line style="stroke: #A80036; stroke-width: 0.9000000357627869;" x1="4.2" x2="70.8" y1="283.2" y2="283.2"/><text fill="#000000" font-family="sans-serif" font-size="6.6" lengthAdjust="spacingAndGlyphs" textLength="56.4" x="7.2" y="292.4514">-description : String</text><line style="stroke: #A80036; stroke-width: 0.9000000357627869;" x1="4.2" x2="70.8" y1="296.3016" y2="296.3016"/><text fill="#000000" font-family="sans-serif" font-size="6.6" lengthAdjust="spacingAndGlyphs" textLength="31.2" x="7.2" y="305.5529">+__clone()</text><!--class ProjectorPrototype--><rect fill="#FEFECE" filter="url(#fnz63j659rm7c)" height="45.4031" id="ProjectorPrototype" style="stroke: #A80036; stroke-width: 0.9000000357627869;" width="79.2" x="92.7" y="264"/><ellipse cx="101.7" cy="273.6" fill="#ADD1B2" rx="6.6" ry="6.6" style="stroke: #A80036; stroke-width: 0.6000000238418579;"/><path d="M102.9,271.5 Q103.0219,271.2 103.1625,271.05 Q103.3031,270.9 103.4625,270.9 Q103.7438,270.9 103.9219,271.0688 Q104.1,271.2375 104.1,271.6313 L104.1,272.5688 Q104.1,272.9625 103.9313,273.1313 Q103.7625,273.3 103.5,273.3 Q103.2656,273.3 103.1156,273.1969 Q102.9656,273.0938 102.9,272.8219 Q102.8719,272.6344 102.7688,272.5313 Q102.5813,272.3344 102.2438,272.2172 Q101.9063,272.1 101.5688,272.1 Q101.1469,272.1 100.7953,272.2688 Q100.4438,272.4375 100.1719,272.8125 Q99.9,273.1875 99.9,273.7031 L99.9,274.2563 Q99.9,274.875 100.4063,275.2875 Q100.9125,275.7 101.8125,275.7 Q102.3469,275.7 102.7219,275.5781 Q102.9375,275.5125 103.1813,275.2969 Q103.3406,275.175 103.425,275.1375 Q103.5094,275.1 103.6125,275.1 Q103.8094,275.1 103.9547,275.2547 Q104.1,275.4094 104.1,275.625 Q104.1,275.8313 103.8938,276.075 Q103.5938,276.4313 103.1156,276.6281 Q102.4875,276.9 101.7188,276.9 Q100.8188,276.9 100.0969,276.5438 Q99.5156,276.2625 99.1078,275.6531 Q98.7,275.0438 98.7,274.3219 L98.7,273.6656 Q98.7,272.9156 99.0609,272.2594 Q99.4219,271.6031 100.0547,271.2516 Q100.6875,270.9 101.4,270.9 Q101.8313,270.9 102.2063,271.05 Q102.5813,271.2 102.9,271.5 Z "/><text fill="#000000" font-family="sans-serif" font-size="7.2" lengthAdjust="spacingAndGlyphs" textLength="60" x="110.1" y="276.5461">ProjectorPrototype</text><line style="stroke: #A80036; stroke-width: 0.9000000357627869;" x1="93.3" x2="171.3" y1="283.2" y2="283.2"/><text fill="#000000" font-family="sans-serif" font-size="6.6" lengthAdjust="spacingAndGlyphs" textLength="56.4" x="96.3" y="292.4514">-description : String</text><line style="stroke: #A80036; stroke-width: 0.9000000357627869;" x1="93.3" x2="171.3" y1="296.3016" y2="296.3016"/><text fill="#000000" font-family="sans-serif" font-size="6.6" lengthAdjust="spacingAndGlyphs" textLength="31.2" x="96.3" y="305.5529">+__clone()</text><!--class SnackPrototype--><rect fill="#FEFECE" filter="url(#fnz63j659rm7c)" height="45.4031" id="SnackPrototype" style="stroke: #A80036; stroke-width: 0.9000000357627869;" width="70.2" x="193.2" y="264"/><ellipse cx="202.2" cy="273.6" fill="#ADD1B2" rx="6.6" ry="6.6" style="stroke: #A80036; stroke-width: 0.6000000238418579;"/><path d="M203.4,271.5 Q203.5219,271.2 203.6625,271.05 Q203.8031,270.9 203.9625,270.9 Q204.2438,270.9 204.4219,271.0688 Q204.6,271.2375 204.6,271.6313 L204.6,272.5688 Q204.6,272.9625 204.4313,273.1313 Q204.2625,273.3 204,273.3 Q203.7656,273.3 203.6156,273.1969 Q203.4656,273.0938 203.4,272.8219 Q203.3719,272.6344 203.2688,272.5313 Q203.0813,272.3344 202.7438,272.2172 Q202.4063,272.1 202.0688,272.1 Q201.6469,272.1 201.2953,272.2688 Q200.9438,272.4375 200.6719,272.8125 Q200.4,273.1875 200.4,273.7031 L200.4,274.2563 Q200.4,274.875 200.9063,275.2875 Q201.4125,275.7 202.3125,275.7 Q202.8469,275.7 203.2219,275.5781 Q203.4375,275.5125 203.6813,275.2969 Q203.8406,275.175 203.925,275.1375 Q204.0094,275.1 204.1125,275.1 Q204.3094,275.1 204.4547,275.2547 Q204.6,275.4094 204.6,275.625 Q204.6,275.8313 204.3938,276.075 Q204.0938,276.4313 203.6156,276.6281 Q202.9875,276.9 202.2188,276.9 Q201.3188,276.9 200.5969,276.5438 Q200.0156,276.2625 199.6078,275.6531 Q199.2,275.0438 199.2,274.3219 L199.2,273.6656 Q199.2,272.9156 199.5609,272.2594 Q199.9219,271.6031 200.5547,271.2516 Q201.1875,270.9 201.9,270.9 Q202.3313,270.9 202.7063,271.05 Q203.0813,271.2 203.4,271.5 Z "/><text fill="#000000" font-family="sans-serif" font-size="7.2" lengthAdjust="spacingAndGlyphs" textLength="51" x="210.6" y="276.5461">SnackPrototype</text><line style="stroke: #A80036; stroke-width: 0.9000000357627869;" x1="193.8" x2="262.8" y1="283.2" y2="283.2"/><text fill="#000000" font-family="sans-serif" font-size="6.6" lengthAdjust="spacingAndGlyphs" textLength="56.4" x="196.8" y="292.4514">-description : String</text><line style="stroke: #A80036; stroke-width: 0.9000000357627869;" x1="193.8" x2="262.8" y1="296.3016" y2="296.3016"/><text fill="#000000" font-family="sans-serif" font-size="6.6" lengthAdjust="spacingAndGlyphs" textLength="31.2" x="196.8" y="305.5529">+__clone()</text><!--class SoundSystemPrototype--><rect fill="#FEFECE" filter="url(#fnz63j659rm7c)" height="45.4031" id="SoundSystemPrototype" style="stroke: #A80036; stroke-width: 0.9000000357627869;" width="96" x="284.7" y="264"/><ellipse cx="293.7" cy="273.6" fill="#ADD1B2" rx="6.6" ry="6.6" style="stroke: #A80036; stroke-width: 0.6000000238418579;"/><path d="M294.9,271.5 Q295.0219,271.2 295.1625,271.05 Q295.3031,270.9 295.4625,270.9 Q295.7438,270.9 295.9219,271.0688 Q296.1,271.2375 296.1,271.6313 L296.1,272.5688 Q296.1,272.9625 295.9313,273.1313 Q295.7625,273.3 295.5,273.3 Q295.2656,273.3 295.1156,273.1969 Q294.9656,273.0938 294.9,272.8219 Q294.8719,272.6344 294.7688,272.5313 Q294.5813,272.3344 294.2438,272.2172 Q293.9063,272.1 293.5688,272.1 Q293.1469,272.1 292.7953,272.2688 Q292.4438,272.4375 292.1719,272.8125 Q291.9,273.1875 291.9,273.7031 L291.9,274.2563 Q291.9,274.875 292.4063,275.2875 Q292.9125,275.7 293.8125,275.7 Q294.3469,275.7 294.7219,275.5781 Q294.9375,275.5125 295.1813,275.2969 Q295.3406,275.175 295.425,275.1375 Q295.5094,275.1 295.6125,275.1 Q295.8094,275.1 295.9547,275.2547 Q296.1,275.4094 296.1,275.625 Q296.1,275.8313 295.8938,276.075 Q295.5938,276.4313 295.1156,276.6281 Q294.4875,276.9 293.7188,276.9 Q292.8188,276.9 292.0969,276.5438 Q291.5156,276.2625 291.1078,275.6531 Q290.7,275.0438 290.7,274.3219 L290.7,273.6656 Q290.7,272.9156 291.0609,272.2594 Q291.4219,271.6031 292.0547,271.2516 Q292.6875,270.9 293.4,270.9 Q293.8313,270.9 294.2063,271.05 Q294.5813,271.2 294.9,271.5 Z "/><text fill="#000000" font-family="sans-serif" font-size="7.2" lengthAdjust="spacingAndGlyphs" textLength="76.8" x="302.1" y="276.5461">SoundSystemPrototype</text><line style="stroke: #A80036; stroke-width: 0.9000000357627869;" x1="285.3" x2="380.1" y1="283.2" y2="283.2"/><text fill="#000000" font-family="sans-serif" font-size="6.6" lengthAdjust="spacingAndGlyphs" textLength="56.4" x="288.3" y="292.4514">-description : String</text><line style="stroke: #A80036; stroke-width: 0.9000000357627869;" x1="285.3" x2="380.1" y1="296.3016" y2="296.3016"/><text fill="#000000" font-family="sans-serif" font-size="6.6" lengthAdjust="spacingAndGlyphs" textLength="31.2" x="288.3" y="305.5529">+__clone()</text><!--link PreparationController to Demo_index--><path d="M228.4968,56.7 C240.618,56.7 253.2966,56.7 264.288,56.7 " fill="none" id="PreparationController-Demo_index" style="stroke: #A80036; stroke-width: 0.6000000238418579;"/><polygon fill="#A80036" points="225.4284,56.7,230.8284,59.1,228.4284,56.7,230.8284,54.3,225.4284,56.7" style="stroke: #A80036; stroke-width: 0.6000000238418579;"/><text fill="#000000" font-family="sans-serif" font-size="7.8" lengthAdjust="spacingAndGlyphs" textLength="16.8" x="236.4" y="52.7971">uses</text><!--link PreparationView to PreparationController--><path d="M88.6074,56.7 C103.3122,56.7 120.0888,56.7 135.2364,56.7 " fill="none" id="PreparationView-PreparationController" style="stroke: #A80036; stroke-width: 0.6000000238418579;"/><polygon fill="#A80036" points="85.5024,56.7,90.9024,59.1,88.5024,56.7,90.9024,54.3,85.5024,56.7" style="stroke: #A80036; stroke-width: 0.6000000238418579;"/><text fill="#000000" font-family="sans-serif" font-size="7.8" lengthAdjust="spacingAndGlyphs" textLength="27.6" x="96.6" y="52.7971">updates</text><!--link PreparationController to PreparationBuilderInterface--><path d="M180.3,108.6006 C180.3,123.2802 180.3,138.8982 180.3,152.2116 " fill="none" id="PreparationController-PreparationBuilderInterface" style="stroke: #A80036; stroke-width: 0.6000000238418579;"/><polygon fill="#A80036" points="180.3,155.367,182.7,149.967,180.3,152.367,177.9,149.967,180.3,155.367" style="stroke: #A80036; stroke-width: 0.6000000238418579;"/><text fill="#000000" font-family="sans-serif" font-size="7.8" lengthAdjust="spacingAndGlyphs" textLength="20.4" x="180.9" y="135.2971">builds</text><!--link PreparationBuilderInterface to ChairPrototype--><path d="M136.6794,217.233 C115.956,231.6432 91.5342,248.6256 72.1104,262.1329 " fill="none" id="PreparationBuilderInterface-ChairPrototype" style="stroke: #A80036; stroke-width: 0.6000000238418579;"/><polygon fill="#A80036" points="69.525,263.9306,75.3287,262.8183,71.9881,262.2179,72.5885,258.8774,69.525,263.9306" style="stroke: #A80036; stroke-width: 0.6000000238418579;"/><text fill="#000000" font-family="sans-serif" font-size="7.8" lengthAdjust="spacingAndGlyphs" textLength="16.8" x="109.5" y="243.8971">uses</text><!--link PreparationBuilderInterface to ProjectorPrototype--><path d="M165.6378,217.233 C158.8422,231.2904 150.864,247.7958 144.4164,261.1344 " fill="none" id="PreparationBuilderInterface-ProjectorPrototype" style="stroke: #A80036; stroke-width: 0.6000000238418579;"/><polygon fill="#A80036" points="143.0646,263.9306,147.5757,260.1135,144.3703,261.2296,143.2542,258.0243,143.0646,263.9306" style="stroke: #A80036; stroke-width: 0.6000000238418579;"/><text fill="#000000" font-family="sans-serif" font-size="7.8" lengthAdjust="spacingAndGlyphs" textLength="16.8" x="156.9" y="243.8971">uses</text><!--link PreparationBuilderInterface to SnackPrototype--><path d="M194.9622,217.233 C201.7578,231.2904 209.736,247.7958 216.1836,261.1344 " fill="none" id="PreparationBuilderInterface-SnackPrototype" style="stroke: #A80036; stroke-width: 0.6000000238418579;"/><polygon fill="#A80036" points="217.5354,263.9306,217.3459,258.0243,216.2297,261.2296,213.0243,260.1135,217.5354,263.9306" style="stroke: #A80036; stroke-width: 0.6000000238418579;"/><text fill="#000000" font-family="sans-serif" font-size="7.8" lengthAdjust="spacingAndGlyphs" textLength="16.8" x="209.1" y="243.8971">uses</text><!--link PreparationBuilderInterface to SoundSystemPrototype--><path d="M226.8534,217.233 C248.9694,231.6432 275.0334,248.6256 295.7634,262.1329 " fill="none" id="PreparationBuilderInterface-SoundSystemPrototype" style="stroke: #A80036; stroke-width: 0.6000000238418579;"/><polygon fill="#A80036" points="298.5222,263.9306,295.3085,258.9716,296.0088,262.2926,292.6877,262.993,298.5222,263.9306" style="stroke: #A80036; stroke-width: 0.6000000238418579;"/><text fill="#000000" font-family="sans-serif" font-size="7.8" lengthAdjust="spacingAndGlyphs" textLength="16.8" x="270.3" y="243.8971">uses</text><!--
@startuml

skinparam classAttributeIconSize 0

class Demo_index{

}

class PreparationController{
{field} - preparation : Preparation
{field} - view : PreparationView

{method} + setModel()
{method} + setView()
{method} + build()
{method} + addprojector()
{method} + addSoundSystem()
{method} + addChairs()
{method} + addSnacks()

}


class PreparationView{
{method} + print()
}

interface PreparationBuilderInterface{
{method} + addprojector()
{method} + addChairs()
{method} + addSoundSystem()
{method} + addSnacks()
}

class ChairPrototype{
{field} - description : String
{method} + __clone()
}

class ProjectorPrototype{
{field} - description : String
{method} + __clone()
}

class SnackPrototype{
{field} - description : String
{method} + __clone()
}

class SoundSystemPrototype{
{field} - description : String
{method} + __clone()
}




PreparationController <- Demo_index : uses
PreparationView <- PreparationController : updates
PreparationController - -> PreparationBuilderInterface : builds

PreparationBuilderInterface - -> ChairPrototype : uses
PreparationBuilderInterface - -> ProjectorPrototype : uses
PreparationBuilderInterface - -> SnackPrototype : uses
PreparationBuilderInterface - -> SoundSystemPrototype : uses


@enduml

PlantUML version 1.2018.11(Sat Sep 22 19:43:53 EET 2018)
(GPL source distribution)
Java Runtime: OpenJDK Runtime Environment
JVM: OpenJDK 64-Bit Server VM
Java Version: 1.8.0_152-release-1024-b11
Operating System: Windows 10
OS Version: 10.0
Default Encoding: Cp1254
Language: tr
Country: TR
--></g></svg>