<?xml version="1.0" encoding="UTF-8" standalone="no"?><svg xmlns="http://www.w3.org/2000/svg" xmlns:xlink="http://www.w3.org/1999/xlink" contentScriptType="application/ecmascript" contentStyleType="text/css" height="365.4px" preserveAspectRatio="none" style="width:302px;height:365px;" version="1.1" viewBox="0 0 302 365" width="302.4px" zoomAndPan="magnify"><defs><filter height="300%" id="f1bnyfccvt4lp3" width="300%" x="-1" y="-1"><feGaussianBlur result="blurOut" stdDeviation="1.2000000476837158"/><feColorMatrix in="blurOut" result="blurOut2" type="matrix" values="0 0 0 0 0 0 0 0 0 0 0 0 0 0 0 0 0 0 .4 0"/><feOffset dx="2.4000000953674316" dy="2.4000000953674316" in="blurOut2" result="blurOut3"/><feBlend in="SourceGraphic" in2="blurOut3" mode="normal"/></filter></defs><g><!--class Demo_index--><rect fill="#FEFECE" filter="url(#f1bnyfccvt4lp3)" height="28.8" id="Demo_index" style="stroke: #A80036; stroke-width: 0.9000000357627869;" width="61.2" x="234.9" y="29.7"/><ellipse cx="243.9" cy="39.3" fill="#ADD1B2" rx="6.6" ry="6.6" style="stroke: #A80036; stroke-width: 0.6000000238418579;"/><path d="M245.1,37.2 Q245.2219,36.9 245.3625,36.75 Q245.5031,36.6 245.6625,36.6 Q245.9438,36.6 246.1219,36.7688 Q246.3,36.9375 246.3,37.3313 L246.3,38.2688 Q246.3,38.6625 246.1313,38.8313 Q245.9625,39 245.7,39 Q245.4656,39 245.3156,38.8969 Q245.1656,38.7938 245.1,38.5219 Q245.0719,38.3344 244.9688,38.2313 Q244.7813,38.0344 244.4438,37.9172 Q244.1063,37.8 243.7688,37.8 Q243.3469,37.8 242.9953,37.9688 Q242.6438,38.1375 242.3719,38.5125 Q242.1,38.8875 242.1,39.4031 L242.1,39.9563 Q242.1,40.575 242.6063,40.9875 Q243.1125,41.4 244.0125,41.4 Q244.5469,41.4 244.9219,41.2781 Q245.1375,41.2125 245.3813,40.9969 Q245.5406,40.875 245.625,40.8375 Q245.7094,40.8 245.8125,40.8 Q246.0094,40.8 246.1547,40.9547 Q246.3,41.1094 246.3,41.325 Q246.3,41.5313 246.0938,41.775 Q245.7938,42.1313 245.3156,42.3281 Q244.6875,42.6 243.9188,42.6 Q243.0188,42.6 242.2969,42.2438 Q241.7156,41.9625 241.3078,41.3531 Q240.9,40.7438 240.9,40.0219 L240.9,39.3656 Q240.9,38.6156 241.2609,37.9594 Q241.6219,37.3031 242.2547,36.9516 Q242.8875,36.6 243.6,36.6 Q244.0313,36.6 244.4063,36.75 Q244.7813,36.9 245.1,37.2 Z "/><text fill="#000000" font-family="sans-serif" font-size="7.2" lengthAdjust="spacingAndGlyphs" textLength="42" x="252.3" y="42.2461">Demo_index</text><line style="stroke: #A80036; stroke-width: 0.9000000357627869;" x1="235.5" x2="295.5" y1="48.9" y2="48.9"/><line style="stroke: #A80036; stroke-width: 0.9000000357627869;" x1="235.5" x2="295.5" y1="53.7" y2="53.7"/><!--class LocationController--><rect fill="#FEFECE" filter="url(#f1bnyfccvt4lp3)" height="78.6094" id="LocationController" style="stroke: #A80036; stroke-width: 0.9000000357627869;" width="79.8" x="116.4" y="4.8"/><ellipse cx="125.4" cy="14.4" fill="#ADD1B2" rx="6.6" ry="6.6" style="stroke: #A80036; stroke-width: 0.6000000238418579;"/><path d="M126.6,12.3 Q126.7219,12 126.8625,11.85 Q127.0031,11.7 127.1625,11.7 Q127.4438,11.7 127.6219,11.8688 Q127.8,12.0375 127.8,12.4313 L127.8,13.3688 Q127.8,13.7625 127.6313,13.9313 Q127.4625,14.1 127.2,14.1 Q126.9656,14.1 126.8156,13.9969 Q126.6656,13.8938 126.6,13.6219 Q126.5719,13.4344 126.4688,13.3313 Q126.2813,13.1344 125.9438,13.0172 Q125.6063,12.9 125.2688,12.9 Q124.8469,12.9 124.4953,13.0688 Q124.1438,13.2375 123.8719,13.6125 Q123.6,13.9875 123.6,14.5031 L123.6,15.0563 Q123.6,15.675 124.1063,16.0875 Q124.6125,16.5 125.5125,16.5 Q126.0469,16.5 126.4219,16.3781 Q126.6375,16.3125 126.8813,16.0969 Q127.0406,15.975 127.125,15.9375 Q127.2094,15.9 127.3125,15.9 Q127.5094,15.9 127.6547,16.0547 Q127.8,16.2094 127.8,16.425 Q127.8,16.6313 127.5938,16.875 Q127.2938,17.2313 126.8156,17.4281 Q126.1875,17.7 125.4188,17.7 Q124.5188,17.7 123.7969,17.3438 Q123.2156,17.0625 122.8078,16.4531 Q122.4,15.8438 122.4,15.1219 L122.4,14.4656 Q122.4,13.7156 122.7609,13.0594 Q123.1219,12.4031 123.7547,12.0516 Q124.3875,11.7 125.1,11.7 Q125.5313,11.7 125.9063,11.85 Q126.2813,12 126.6,12.3 Z "/><text fill="#000000" font-family="sans-serif" font-size="7.2" lengthAdjust="spacingAndGlyphs" textLength="60.6" x="133.8" y="17.3461">LocationController</text><line style="stroke: #A80036; stroke-width: 0.9000000357627869;" x1="117" x2="195.6" y1="24" y2="24"/><text fill="#000000" font-family="sans-serif" font-size="6.6" lengthAdjust="spacingAndGlyphs" textLength="54.6" x="120" y="33.2514">-location : Location</text><text fill="#000000" font-family="sans-serif" font-size="6.6" lengthAdjust="spacingAndGlyphs" textLength="62.4" x="120" y="41.5529">-view : LocationView</text><line style="stroke: #A80036; stroke-width: 0.9000000357627869;" x1="117" x2="195.6" y1="45.4031" y2="45.4031"/><text fill="#000000" font-family="sans-serif" font-size="6.6" lengthAdjust="spacingAndGlyphs" textLength="34.2" x="120" y="54.6545">+setModel()</text><text fill="#000000" font-family="sans-serif" font-size="6.6" lengthAdjust="spacingAndGlyphs" textLength="33" x="120" y="62.9561">+setView()</text><text fill="#000000" font-family="sans-serif" font-size="6.6" lengthAdjust="spacingAndGlyphs" textLength="42" x="120" y="71.2576">+getLocation()</text><text fill="#000000" font-family="sans-serif" font-size="6.6" lengthAdjust="spacingAndGlyphs" textLength="43.8" x="120" y="79.5592">+useLocation()</text><!--class LocationView--><rect fill="#FEFECE" filter="url(#f1bnyfccvt4lp3)" height="37.1016" id="LocationView" style="stroke: #A80036; stroke-width: 0.9000000357627869;" width="63" x="3.6" y="25.5"/><ellipse cx="12.6" cy="35.1" fill="#ADD1B2" rx="6.6" ry="6.6" style="stroke: #A80036; stroke-width: 0.6000000238418579;"/><path d="M13.8,33 Q13.9219,32.7 14.0625,32.55 Q14.2031,32.4 14.3625,32.4 Q14.6438,32.4 14.8219,32.5688 Q15,32.7375 15,33.1313 L15,34.0688 Q15,34.4625 14.8313,34.6313 Q14.6625,34.8 14.4,34.8 Q14.1656,34.8 14.0156,34.6969 Q13.8656,34.5938 13.8,34.3219 Q13.7719,34.1344 13.6688,34.0313 Q13.4813,33.8344 13.1438,33.7172 Q12.8063,33.6 12.4688,33.6 Q12.0469,33.6 11.6953,33.7688 Q11.3438,33.9375 11.0719,34.3125 Q10.8,34.6875 10.8,35.2031 L10.8,35.7563 Q10.8,36.375 11.3063,36.7875 Q11.8125,37.2 12.7125,37.2 Q13.2469,37.2 13.6219,37.0781 Q13.8375,37.0125 14.0813,36.7969 Q14.2406,36.675 14.325,36.6375 Q14.4094,36.6 14.5125,36.6 Q14.7094,36.6 14.8547,36.7547 Q15,36.9094 15,37.125 Q15,37.3313 14.7938,37.575 Q14.4938,37.9313 14.0156,38.1281 Q13.3875,38.4 12.6188,38.4 Q11.7188,38.4 10.9969,38.0438 Q10.4156,37.7625 10.0078,37.1531 Q9.6,36.5438 9.6,35.8219 L9.6,35.1656 Q9.6,34.4156 9.9609,33.7594 Q10.3219,33.1031 10.9547,32.7516 Q11.5875,32.4 12.3,32.4 Q12.7313,32.4 13.1063,32.55 Q13.4813,32.7 13.8,33 Z "/><text fill="#000000" font-family="sans-serif" font-size="7.2" lengthAdjust="spacingAndGlyphs" textLength="43.8" x="21" y="38.0461">LocationView</text><line style="stroke: #A80036; stroke-width: 0.9000000357627869;" x1="4.2" x2="66" y1="44.7" y2="44.7"/><line style="stroke: #A80036; stroke-width: 0.9000000357627869;" x1="4.2" x2="66" y1="49.5" y2="49.5"/><text fill="#000000" font-family="sans-serif" font-size="6.6" lengthAdjust="spacingAndGlyphs" textLength="45.6" x="7.2" y="58.7514">+printLocation()</text><!--class Location--><rect fill="#FEFECE" filter="url(#f1bnyfccvt4lp3)" height="62.0063" id="Location" style="stroke: #A80036; stroke-width: 0.9000000357627869;" width="96" x="108.3" y="130.2"/><ellipse cx="139.65" cy="139.8" fill="#ADD1B2" rx="6.6" ry="6.6" style="stroke: #A80036; stroke-width: 0.6000000238418579;"/><path d="M140.85,137.7 Q140.9719,137.4 141.1125,137.25 Q141.2531,137.1 141.4125,137.1 Q141.6938,137.1 141.8719,137.2688 Q142.05,137.4375 142.05,137.8313 L142.05,138.7688 Q142.05,139.1625 141.8813,139.3313 Q141.7125,139.5 141.45,139.5 Q141.2156,139.5 141.0656,139.3969 Q140.9156,139.2938 140.85,139.0219 Q140.8219,138.8344 140.7188,138.7313 Q140.5313,138.5344 140.1938,138.4172 Q139.8563,138.3 139.5188,138.3 Q139.0969,138.3 138.7453,138.4688 Q138.3938,138.6375 138.1219,139.0125 Q137.85,139.3875 137.85,139.9031 L137.85,140.4563 Q137.85,141.075 138.3563,141.4875 Q138.8625,141.9 139.7625,141.9 Q140.2969,141.9 140.6719,141.7781 Q140.8875,141.7125 141.1313,141.4969 Q141.2906,141.375 141.375,141.3375 Q141.4594,141.3 141.5625,141.3 Q141.7594,141.3 141.9047,141.4547 Q142.05,141.6094 142.05,141.825 Q142.05,142.0313 141.8438,142.275 Q141.5438,142.6313 141.0656,142.8281 Q140.4375,143.1 139.6688,143.1 Q138.7688,143.1 138.0469,142.7438 Q137.4656,142.4625 137.0578,141.8531 Q136.65,141.2438 136.65,140.5219 L136.65,139.8656 Q136.65,139.1156 137.0109,138.4594 Q137.3719,137.8031 138.0047,137.4516 Q138.6375,137.1 139.35,137.1 Q139.7813,137.1 140.1563,137.25 Q140.5313,137.4 140.85,137.7 Z "/><text fill="#000000" font-family="sans-serif" font-size="7.2" lengthAdjust="spacingAndGlyphs" textLength="28.2" x="151.95" y="142.7461">Location</text><line style="stroke: #A80036; stroke-width: 0.9000000357627869;" x1="108.9" x2="203.7" y1="149.4" y2="149.4"/><text fill="#000000" font-family="sans-serif" font-size="6.6" lengthAdjust="spacingAndGlyphs" textLength="37.2" x="111.9" y="158.6514">-type : String</text><text fill="#000000" font-family="sans-serif" font-size="6.6" lengthAdjust="spacingAndGlyphs" textLength="42" x="111.9" y="166.9529">-action : String</text><text fill="#000000" font-family="sans-serif" font-size="6.6" lengthAdjust="spacingAndGlyphs" textLength="88.8" x="111.9" y="175.2545">-location : MeetingHallSingleton</text><line style="stroke: #A80036; stroke-width: 0.9000000357627869;" x1="108.9" x2="203.7" y1="179.1047" y2="179.1047"/><text fill="#000000" font-family="sans-serif" font-size="6.6" lengthAdjust="spacingAndGlyphs" textLength="42" x="111.9" y="188.3561">+getLocation()</text><!--class MeetingHallSingleton--><rect fill="#FEFECE" filter="url(#f1bnyfccvt4lp3)" height="120.1172" id="MeetingHallSingleton" style="stroke: #A80036; stroke-width: 0.9000000357627869;" width="89.4" x="111.6" y="238.8"/><ellipse cx="120.6" cy="248.4" fill="#ADD1B2" rx="6.6" ry="6.6" style="stroke: #A80036; stroke-width: 0.6000000238418579;"/><path d="M121.8,246.3 Q121.9219,246 122.0625,245.85 Q122.2031,245.7 122.3625,245.7 Q122.6438,245.7 122.8219,245.8688 Q123,246.0375 123,246.4313 L123,247.3688 Q123,247.7625 122.8313,247.9313 Q122.6625,248.1 122.4,248.1 Q122.1656,248.1 122.0156,247.9969 Q121.8656,247.8938 121.8,247.6219 Q121.7719,247.4344 121.6688,247.3313 Q121.4813,247.1344 121.1438,247.0172 Q120.8063,246.9 120.4688,246.9 Q120.0469,246.9 119.6953,247.0688 Q119.3438,247.2375 119.0719,247.6125 Q118.8,247.9875 118.8,248.5031 L118.8,249.0563 Q118.8,249.675 119.3063,250.0875 Q119.8125,250.5 120.7125,250.5 Q121.2469,250.5 121.6219,250.3781 Q121.8375,250.3125 122.0813,250.0969 Q122.2406,249.975 122.325,249.9375 Q122.4094,249.9 122.5125,249.9 Q122.7094,249.9 122.8547,250.0547 Q123,250.2094 123,250.425 Q123,250.6313 122.7938,250.875 Q122.4938,251.2313 122.0156,251.4281 Q121.3875,251.7 120.6188,251.7 Q119.7188,251.7 118.9969,251.3438 Q118.4156,251.0625 118.0078,250.4531 Q117.6,249.8438 117.6,249.1219 L117.6,248.4656 Q117.6,247.7156 117.9609,247.0594 Q118.3219,246.4031 118.9547,246.0516 Q119.5875,245.7 120.3,245.7 Q120.7313,245.7 121.1063,245.85 Q121.4813,246 121.8,246.3 Z "/><text fill="#000000" font-family="sans-serif" font-size="7.2" lengthAdjust="spacingAndGlyphs" textLength="70.2" x="129" y="251.3461">MeetingHallSingleton</text><line style="stroke: #A80036; stroke-width: 0.9000000357627869;" x1="112.2" x2="200.4" y1="258" y2="258"/><text fill="#000000" font-family="sans-serif" font-size="6.6" lengthAdjust="spacingAndGlyphs" textLength="34.2" x="115.2" y="267.2514">-title : String</text><text fill="#000000" font-family="sans-serif" font-size="6.6" lengthAdjust="spacingAndGlyphs" textLength="37.8" x="115.2" y="275.5529">-limit : Integer</text><text fill="#000000" font-family="sans-serif" font-size="6.6" lengthAdjust="spacingAndGlyphs" textLength="37.2" x="115.2" y="283.8545">-type : String</text><text fill="#000000" font-family="sans-serif" font-size="6.6" lengthAdjust="spacingAndGlyphs" text-decoration="underline" textLength="37.2" x="115.2" y="292.1561">-is_occupied</text><line style="stroke: #000000; stroke-width: 1.0;" x1="115.2" x2="152.4" y1="293.3561" y2="293.3561"/><text fill="#000000" font-family="sans-serif" font-size="6.6" lengthAdjust="spacingAndGlyphs" text-decoration="underline" textLength="12" x="115.2" y="300.4576">-hall</text><line style="stroke: #000000; stroke-width: 1.0;" x1="115.2" x2="127.2" y1="301.6576" y2="301.6576"/><line style="stroke: #A80036; stroke-width: 0.9000000357627869;" x1="112.2" x2="200.4" y1="304.3078" y2="304.3078"/><text fill="#000000" font-family="sans-serif" font-size="6.6" lengthAdjust="spacingAndGlyphs" text-decoration="underline" textLength="31.2" x="115.2" y="313.5592">+reserve()</text><line style="stroke: #000000; stroke-width: 1.0;" x1="115.2" x2="146.4" y1="314.7592" y2="314.7592"/><text fill="#000000" font-family="sans-serif" font-size="6.6" lengthAdjust="spacingAndGlyphs" textLength="36" x="115.2" y="321.8608">+checkOut()</text><text fill="#000000" font-family="sans-serif" font-size="6.6" lengthAdjust="spacingAndGlyphs" textLength="28.8" x="115.2" y="330.1623">+getTitle()</text><text fill="#000000" font-family="sans-serif" font-size="6.6" lengthAdjust="spacingAndGlyphs" textLength="42" x="115.2" y="338.4639">-__construct()</text><text fill="#000000" font-family="sans-serif" font-size="6.6" lengthAdjust="spacingAndGlyphs" textLength="30" x="115.2" y="346.7654">-__clone()</text><text fill="#000000" font-family="sans-serif" font-size="6.6" lengthAdjust="spacingAndGlyphs" textLength="37.8" x="115.2" y="355.067">-__wakeup()</text><!--link LocationController to Demo_index--><path d="M199.3428,44.1 C211.218,44.1 223.857,44.1 234.8718,44.1 " fill="none" id="LocationController-Demo_index" style="stroke: #A80036; stroke-width: 0.6000000238418579;"/><polygon fill="#A80036" points="196.3422,44.1,201.7422,46.5,199.3422,44.1,201.7422,41.7,196.3422,44.1" style="stroke: #A80036; stroke-width: 0.6000000238418579;"/><text fill="#000000" font-family="sans-serif" font-size="7.8" lengthAdjust="spacingAndGlyphs" textLength="16.8" x="207.15" y="40.1971">uses</text><!--link LocationView to LocationController--><path d="M69.6858,44.1 C84.2016,44.1 101.1756,44.1 116.2314,44.1 " fill="none" id="LocationView-LocationController" style="stroke: #A80036; stroke-width: 0.6000000238418579;"/><polygon fill="#A80036" points="66.6276,44.1,72.0276,46.5,69.6276,44.1,72.0276,41.7,66.6276,44.1" style="stroke: #A80036; stroke-width: 0.6000000238418579;"/><text fill="#000000" font-family="sans-serif" font-size="7.8" lengthAdjust="spacingAndGlyphs" textLength="27.6" x="77.7" y="40.1971">updates</text><!--link LocationController to Location--><path d="M156.3,83.421 C156.3,97.5408 156.3,113.3772 156.3,127.005 " fill="none" id="LocationController-Location" style="stroke: #A80036; stroke-width: 0.6000000238418579;"/><polygon fill="#A80036" points="156.3,130.0572,158.7,124.6572,156.3,127.0572,153.9,124.6572,156.3,130.0572" style="stroke: #A80036; stroke-width: 0.6000000238418579;"/><text fill="#000000" font-family="sans-serif" font-size="7.8" lengthAdjust="spacingAndGlyphs" textLength="16.8" x="156.9" y="110.0971">uses</text><!--link Location to MeetingHallSingleton--><path d="M156.3,192.1632 C156.3,205.0542 156.3,220.5714 156.3,235.7082 " fill="none" id="Location-MeetingHallSingleton" style="stroke: #A80036; stroke-width: 0.6000000238418579;"/><polygon fill="#A80036" points="156.3,238.7298,158.7,233.3298,156.3,235.7298,153.9,233.3298,156.3,238.7298" style="stroke: #A80036; stroke-width: 0.6000000238418579;"/><text fill="#000000" font-family="sans-serif" font-size="7.8" lengthAdjust="spacingAndGlyphs" textLength="16.8" x="156.9" y="218.6971">asks</text><!--
@startuml

skinparam classAttributeIconSize 0

class Demo_index{

}

class LocationController{
{field} - location : Location
{field} - view : LocationView

{method} + setModel()
{method} + setView()
{method} + getLocation()
{method} + useLocation()

}


class LocationView{
{method} + printLocation()
}

class Location{
{field} - type : String
{field} - action : String
{field} - location : MeetingHallSingleton

{method} + getLocation()
}

class MeetingHallSingleton{
{field} - title : String
{field} - limit : Integer
{field} - type : String
{static} - is_occupied
{static} - hall

{static} + reserve()
{method} + checkOut()
{method} + getTitle()
{method} - __construct()
{method} - __clone()
{method} - __wakeup()

}


LocationController <- Demo_index : uses
LocationView <- LocationController : updates
LocationController - -> Location : uses
Location - -> MeetingHallSingleton : asks


@enduml

PlantUML version 1.2018.11(Sat Sep 22 19:43:53 EET 2018)
(GPL source distribution)
Java Runtime: OpenJDK Runtime Environment
JVM: OpenJDK 64-Bit Server VM
Java Version: 1.8.0_152-release-1024-b11
Operating System: Windows 10
OS Version: 10.0
Default Encoding: Cp1254
Language: tr
Country: TR
--></g></svg>