<?xml version="1.0" encoding="UTF-8" standalone="no"?><svg xmlns="http://www.w3.org/2000/svg" xmlns:xlink="http://www.w3.org/1999/xlink" contentScriptType="application/ecmascript" contentStyleType="text/css" height="380px" preserveAspectRatio="none" style="width:346px;height:380px;" version="1.1" viewBox="0 0 346 380" width="346px" zoomAndPan="magnify"><defs><filter height="300%" id="f171z5m14nnale" width="300%" x="-1" y="-1"><feGaussianBlur result="blurOut" stdDeviation="2.0"/><feColorMatrix in="blurOut" result="blurOut2" type="matrix" values="0 0 0 0 0 0 0 0 0 0 0 0 0 0 0 0 0 0 .4 0"/><feOffset dx="4.0" dy="4.0" in="blurOut2" result="blurOut3"/><feBlend in="SourceGraphic" in2="blurOut3" mode="normal"/></filter></defs><g><!--class EventTicket--><rect fill="#FEFECE" filter="url(#f171z5m14nnale)" height="75.6719" id="EventTicket" style="stroke: #A80036; stroke-width: 1.5;" width="96" x="161" y="8"/><ellipse cx="176" cy="24" fill="#B4A7E5" rx="11" ry="11" style="stroke: #A80036; stroke-width: 1.0;"/><path d="M177,21 L177,27 L179,27 L179.4844,27 L180,27.625 L180,28 L180,28.375 L179.4844,29 L179,29 L173,29 L172.5156,29 L172,28.375 L172,28 L172,27.625 L172.5156,27 L173,27 L175,27 L175,21 L173,21 L172.5156,21 L172,20.375 L172,20 L172,19.625 L172.5156,19 L173,19 L179,19 L179.4844,19 L180,19.625 L180,20 L180,20.375 L179.4844,21 L179,21 L177,21 Z "/><text fill="#000000" font-family="sans-serif" font-size="12" font-style="italic" lengthAdjust="spacingAndGlyphs" textLength="64" x="190" y="28.9102">EventTicket</text><line style="stroke: #A80036; stroke-width: 1.5;" x1="162" x2="256" y1="40" y2="40"/><line style="stroke: #A80036; stroke-width: 1.5;" x1="162" x2="256" y1="48" y2="48"/><text fill="#000000" font-family="sans-serif" font-size="11" lengthAdjust="spacingAndGlyphs" textLength="81" x="167" y="63.4189">+calculatePrice()</text><text fill="#000000" font-family="sans-serif" font-size="11" lengthAdjust="spacingAndGlyphs" textLength="83" x="167" y="77.2549">+getDescription()</text><!--class EventTicketDecorator--><rect fill="#FEFECE" filter="url(#f171z5m14nnale)" height="75.6719" id="EventTicketDecorator" style="stroke: #A80036; stroke-width: 1.5;" width="148" x="57" y="144"/><ellipse cx="72" cy="160" fill="#ADD1B2" rx="11" ry="11" style="stroke: #A80036; stroke-width: 1.0;"/><path d="M74,156.5 Q74.2031,156 74.4375,155.75 Q74.6719,155.5 74.9375,155.5 Q75.4063,155.5 75.7031,155.7813 Q76,156.0625 76,156.7188 L76,158.2813 Q76,158.9375 75.7188,159.2188 Q75.4375,159.5 75,159.5 Q74.6094,159.5 74.3594,159.3281 Q74.1094,159.1563 74,158.7031 Q73.9531,158.3906 73.7813,158.2188 Q73.4688,157.8906 72.9063,157.6953 Q72.3438,157.5 71.7813,157.5 Q71.0781,157.5 70.4922,157.7813 Q69.9063,158.0625 69.4531,158.6875 Q69,159.3125 69,160.1719 L69,161.0938 Q69,162.125 69.8438,162.8125 Q70.6875,163.5 72.1875,163.5 Q73.0781,163.5 73.7031,163.2969 Q74.0625,163.1875 74.4688,162.8281 Q74.7344,162.625 74.875,162.5625 Q75.0156,162.5 75.1875,162.5 Q75.5156,162.5 75.7578,162.7578 Q76,163.0156 76,163.375 Q76,163.7188 75.6563,164.125 Q75.1563,164.7188 74.3594,165.0469 Q73.3125,165.5 72.0313,165.5 Q70.5313,165.5 69.3281,164.9063 Q68.3594,164.4375 67.6797,163.4219 Q67,162.4063 67,161.2031 L67,160.1094 Q67,158.8594 67.6016,157.7656 Q68.2031,156.6719 69.2578,156.0859 Q70.3125,155.5 71.5,155.5 Q72.2188,155.5 72.8438,155.75 Q73.4688,156 74,156.5 Z "/><text fill="#000000" font-family="sans-serif" font-size="12" lengthAdjust="spacingAndGlyphs" textLength="116" x="86" y="164.9102">EventTicketDecorator</text><line style="stroke: #A80036; stroke-width: 1.5;" x1="58" x2="204" y1="176" y2="176"/><text fill="#000000" font-family="sans-serif" font-size="11" lengthAdjust="spacingAndGlyphs" textLength="126" x="63" y="191.4189">-event_ticket : EventTicket</text><line style="stroke: #A80036; stroke-width: 1.5;" x1="58" x2="204" y1="197.8359" y2="197.8359"/><text fill="#000000" font-family="sans-serif" font-size="11" lengthAdjust="spacingAndGlyphs" textLength="127" x="63" y="213.2549">+__construct(EventTicket)</text><!--class Ticket--><rect fill="#FEFECE" filter="url(#f171z5m14nnale)" height="75.6719" id="Ticket" style="stroke: #A80036; stroke-width: 1.5;" width="95" x="240.5" y="144"/><ellipse cx="269.45" cy="160" fill="#ADD1B2" rx="11" ry="11" style="stroke: #A80036; stroke-width: 1.0;"/><path d="M271.45,156.5 Q271.6531,156 271.8875,155.75 Q272.1219,155.5 272.3875,155.5 Q272.8563,155.5 273.1531,155.7813 Q273.45,156.0625 273.45,156.7188 L273.45,158.2813 Q273.45,158.9375 273.1688,159.2188 Q272.8875,159.5 272.45,159.5 Q272.0594,159.5 271.8094,159.3281 Q271.5594,159.1563 271.45,158.7031 Q271.4031,158.3906 271.2313,158.2188 Q270.9188,157.8906 270.3563,157.6953 Q269.7938,157.5 269.2313,157.5 Q268.5281,157.5 267.9422,157.7813 Q267.3563,158.0625 266.9031,158.6875 Q266.45,159.3125 266.45,160.1719 L266.45,161.0938 Q266.45,162.125 267.2938,162.8125 Q268.1375,163.5 269.6375,163.5 Q270.5281,163.5 271.1531,163.2969 Q271.5125,163.1875 271.9188,162.8281 Q272.1844,162.625 272.325,162.5625 Q272.4656,162.5 272.6375,162.5 Q272.9656,162.5 273.2078,162.7578 Q273.45,163.0156 273.45,163.375 Q273.45,163.7188 273.1063,164.125 Q272.6063,164.7188 271.8094,165.0469 Q270.7625,165.5 269.4813,165.5 Q267.9813,165.5 266.7781,164.9063 Q265.8094,164.4375 265.1297,163.4219 Q264.45,162.4063 264.45,161.2031 L264.45,160.1094 Q264.45,158.8594 265.0516,157.7656 Q265.6531,156.6719 266.7078,156.0859 Q267.7625,155.5 268.95,155.5 Q269.6688,155.5 270.2938,155.75 Q270.9188,156 271.45,156.5 Z "/><text fill="#000000" font-family="sans-serif" font-size="12" lengthAdjust="spacingAndGlyphs" textLength="32" x="286.55" y="164.9102">Ticket</text><line style="stroke: #A80036; stroke-width: 1.5;" x1="241.5" x2="334.5" y1="176" y2="176"/><line style="stroke: #A80036; stroke-width: 1.5;" x1="241.5" x2="334.5" y1="184" y2="184"/><text fill="#000000" font-family="sans-serif" font-size="11" lengthAdjust="spacingAndGlyphs" textLength="81" x="246.5" y="199.4189">+calculatePrice()</text><text fill="#000000" font-family="sans-serif" font-size="11" lengthAdjust="spacingAndGlyphs" textLength="83" x="246.5" y="213.2549">+getDescription()</text><!--class Transportation--><rect fill="#FEFECE" filter="url(#f171z5m14nnale)" height="89.5078" id="Transportation" style="stroke: #A80036; stroke-width: 1.5;" width="112" x="6" y="280"/><ellipse cx="21" cy="296" fill="#ADD1B2" rx="11" ry="11" style="stroke: #A80036; stroke-width: 1.0;"/><path d="M23,292.5 Q23.2031,292 23.4375,291.75 Q23.6719,291.5 23.9375,291.5 Q24.4063,291.5 24.7031,291.7813 Q25,292.0625 25,292.7188 L25,294.2813 Q25,294.9375 24.7188,295.2188 Q24.4375,295.5 24,295.5 Q23.6094,295.5 23.3594,295.3281 Q23.1094,295.1563 23,294.7031 Q22.9531,294.3906 22.7813,294.2188 Q22.4688,293.8906 21.9063,293.6953 Q21.3438,293.5 20.7813,293.5 Q20.0781,293.5 19.4922,293.7813 Q18.9063,294.0625 18.4531,294.6875 Q18,295.3125 18,296.1719 L18,297.0938 Q18,298.125 18.8438,298.8125 Q19.6875,299.5 21.1875,299.5 Q22.0781,299.5 22.7031,299.2969 Q23.0625,299.1875 23.4688,298.8281 Q23.7344,298.625 23.875,298.5625 Q24.0156,298.5 24.1875,298.5 Q24.5156,298.5 24.7578,298.7578 Q25,299.0156 25,299.375 Q25,299.7188 24.6563,300.125 Q24.1563,300.7188 23.3594,301.0469 Q22.3125,301.5 21.0313,301.5 Q19.5313,301.5 18.3281,300.9063 Q17.3594,300.4375 16.6797,299.4219 Q16,298.4063 16,297.2031 L16,296.1094 Q16,294.8594 16.6016,293.7656 Q17.2031,292.6719 18.2578,292.0859 Q19.3125,291.5 20.5,291.5 Q21.2188,291.5 21.8438,291.75 Q22.4688,292 23,292.5 Z "/><text fill="#000000" font-family="sans-serif" font-size="12" lengthAdjust="spacingAndGlyphs" textLength="80" x="35" y="300.9102">Transportation</text><line style="stroke: #A80036; stroke-width: 1.5;" x1="7" x2="117" y1="312" y2="312"/><text fill="#000000" font-family="sans-serif" font-size="11" lengthAdjust="spacingAndGlyphs" textLength="32" x="12" y="327.4189">-PRICE</text><line style="stroke: #A80036; stroke-width: 1.5;" x1="7" x2="117" y1="333.8359" y2="333.8359"/><text fill="#000000" font-family="sans-serif" font-size="11" lengthAdjust="spacingAndGlyphs" textLength="81" x="12" y="349.2549">+calculatePrice()</text><text fill="#000000" font-family="sans-serif" font-size="11" lengthAdjust="spacingAndGlyphs" textLength="83" x="12" y="363.0908">+getDescription()</text><!--class OpenBuffet--><rect fill="#FEFECE" filter="url(#f171z5m14nnale)" height="89.5078" id="OpenBuffet" style="stroke: #A80036; stroke-width: 1.5;" width="95" x="153.5" y="280"/><ellipse cx="169.4" cy="296" fill="#ADD1B2" rx="11" ry="11" style="stroke: #A80036; stroke-width: 1.0;"/><path d="M171.4,292.5 Q171.6031,292 171.8375,291.75 Q172.0719,291.5 172.3375,291.5 Q172.8063,291.5 173.1031,291.7813 Q173.4,292.0625 173.4,292.7188 L173.4,294.2813 Q173.4,294.9375 173.1188,295.2188 Q172.8375,295.5 172.4,295.5 Q172.0094,295.5 171.7594,295.3281 Q171.5094,295.1563 171.4,294.7031 Q171.3531,294.3906 171.1813,294.2188 Q170.8688,293.8906 170.3063,293.6953 Q169.7438,293.5 169.1813,293.5 Q168.4781,293.5 167.8922,293.7813 Q167.3063,294.0625 166.8531,294.6875 Q166.4,295.3125 166.4,296.1719 L166.4,297.0938 Q166.4,298.125 167.2438,298.8125 Q168.0875,299.5 169.5875,299.5 Q170.4781,299.5 171.1031,299.2969 Q171.4625,299.1875 171.8688,298.8281 Q172.1344,298.625 172.275,298.5625 Q172.4156,298.5 172.5875,298.5 Q172.9156,298.5 173.1578,298.7578 Q173.4,299.0156 173.4,299.375 Q173.4,299.7188 173.0563,300.125 Q172.5563,300.7188 171.7594,301.0469 Q170.7125,301.5 169.4313,301.5 Q167.9313,301.5 166.7281,300.9063 Q165.7594,300.4375 165.0797,299.4219 Q164.4,298.4063 164.4,297.2031 L164.4,296.1094 Q164.4,294.8594 165.0016,293.7656 Q165.6031,292.6719 166.6578,292.0859 Q167.7125,291.5 168.9,291.5 Q169.6188,291.5 170.2438,291.75 Q170.8688,292 171.4,292.5 Z "/><text fill="#000000" font-family="sans-serif" font-size="12" lengthAdjust="spacingAndGlyphs" textLength="61" x="183.6" y="300.9102">OpenBuffet</text><line style="stroke: #A80036; stroke-width: 1.5;" x1="154.5" x2="247.5" y1="312" y2="312"/><text fill="#000000" font-family="sans-serif" font-size="11" lengthAdjust="spacingAndGlyphs" textLength="32" x="159.5" y="327.4189">-PRICE</text><line style="stroke: #A80036; stroke-width: 1.5;" x1="154.5" x2="247.5" y1="333.8359" y2="333.8359"/><text fill="#000000" font-family="sans-serif" font-size="11" lengthAdjust="spacingAndGlyphs" textLength="81" x="159.5" y="349.2549">+calculatePrice()</text><text fill="#000000" font-family="sans-serif" font-size="11" lengthAdjust="spacingAndGlyphs" textLength="83" x="159.5" y="363.0908">+getDescription()</text><!--link EventTicket to EventTicketDecorator--><path d="M184.698,88.749 C174.43,106.389 162.569,126.765 152.611,143.874 " fill="none" id="EventTicket-EventTicketDecorator" style="stroke: #A80036; stroke-width: 1.0; stroke-dasharray: 7.0,7.0;"/><polygon fill="#A80036" points="187.273,84.326,179.2881,90.0916,184.7575,88.6471,186.2019,94.1164,187.273,84.326" style="stroke: #A80036; stroke-width: 1.0;"/><!--link EventTicket to Ticket--><path d="M233.613,88.749 C244.013,106.389 256.026,126.765 266.112,143.874 " fill="none" id="EventTicket-Ticket" style="stroke: #A80036; stroke-width: 1.0; stroke-dasharray: 7.0,7.0;"/><polygon fill="#A80036" points="231.006,84.326,232.1298,94.1105,233.5448,88.6335,239.0218,90.0485,231.006,84.326" style="stroke: #A80036; stroke-width: 1.0;"/><!--link EventTicketDecorator to Transportation--><path d="M110.514,224.862 C102.0227,242.215 92.1663,262.356 83.5644,279.9335 " fill="none" id="EventTicketDecorator-Transportation" style="stroke: #A80036; stroke-width: 1.0;"/><polygon fill="#A80036" points="112.871,220.046,105.3231,226.3728,110.6739,224.5374,112.5093,229.8882,112.871,220.046" style="stroke: #A80036; stroke-width: 1.0;"/><!--link EventTicketDecorator to OpenBuffet--><path d="M151.783,224.862 C160.397,242.215 170.397,262.356 179.123,279.9335 " fill="none" id="EventTicketDecorator-OpenBuffet" style="stroke: #A80036; stroke-width: 1.0;"/><polygon fill="#A80036" points="149.392,220.046,149.8128,229.8859,151.6161,224.5241,156.9778,226.3274,149.392,220.046" style="stroke: #A80036; stroke-width: 1.0;"/><!--
@startuml
skinparam classAttributeIconSize 0

interface EventTicket{
  {method} + calculatePrice()
  {method} + getDescription()
}

class EventTicketDecorator {
  {field} - event_ticket : EventTicket
  {method} + __construct(EventTicket)
}

class Ticket {
  {method} + calculatePrice()
  {method} + getDescription()
}

class Transportation {
  {field} - PRICE
  {method} + calculatePrice()
  {method} + getDescription()
}

class OpenBuffet {
  {field} - PRICE
  {method} + calculatePrice()
  {method} + getDescription()
}

EventTicket <.. EventTicketDecorator
EventTicket <.. Ticket

EventTicketDecorator <- - Transportation
EventTicketDecorator <- - OpenBuffet

@enduml

PlantUML version 1.2018.11(Sat Sep 22 19:43:53 EET 2018)
(GPL source distribution)
Java Runtime: OpenJDK Runtime Environment
JVM: OpenJDK 64-Bit Server VM
Java Version: 1.8.0_152-release-1024-b11
Operating System: Windows 10
OS Version: 10.0
Default Encoding: Cp1254
Language: tr
Country: TR
--></g></svg>