<?xml version="1.0" encoding="UTF-8" standalone="no"?><svg xmlns="http://www.w3.org/2000/svg" xmlns:xlink="http://www.w3.org/1999/xlink" contentScriptType="application/ecmascript" contentStyleType="text/css" height="670.2px" preserveAspectRatio="none" style="width:711px;height:670px;" version="1.1" viewBox="0 0 711 670" width="711px" zoomAndPan="magnify"><defs><filter height="300%" id="f1xg8svxkyt72e" width="300%" x="-1" y="-1"><feGaussianBlur result="blurOut" stdDeviation="1.2000000476837158"/><feColorMatrix in="blurOut" result="blurOut2" type="matrix" values="0 0 0 0 0 0 0 0 0 0 0 0 0 0 0 0 0 0 .4 0"/><feOffset dx="2.4000000953674316" dy="2.4000000953674316" in="blurOut2" result="blurOut3"/><feBlend in="SourceGraphic" in2="blurOut3" mode="normal"/></filter></defs><g><!--cluster rec--><rect fill="#FFFFFF" filter="url(#f1xg8svxkyt72e)" height="519.9" style="stroke: #000000; stroke-width: 0.9000000357627869;" width="447" x="257.4" y="143.7"/><text fill="#000000" font-family="sans-serif" font-size="8.4" font-weight="bold" lengthAdjust="spacingAndGlyphs" textLength="19.8" x="471" y="153.6199">User</text><!--class UserInterface--><rect fill="#FEFECE" filter="url(#f1xg8svxkyt72e)" height="37.1016" id="UserInterface" style="stroke: #A80036; stroke-width: 0.9000000357627869;" width="63.6" x="432.6" y="170.1"/><ellipse cx="441.6" cy="179.7" fill="#B4A7E5" rx="6.6" ry="6.6" style="stroke: #A80036; stroke-width: 0.6000000238418579;"/><path d="M442.2,177.9 L442.2,181.5 L443.4,181.5 L443.6906,181.5 L444,181.875 L444,182.1 L444,182.325 L443.6906,182.7 L443.4,182.7 L439.8,182.7 L439.5094,182.7 L439.2,182.325 L439.2,182.1 L439.2,181.875 L439.5094,181.5 L439.8,181.5 L441,181.5 L441,177.9 L439.8,177.9 L439.5094,177.9 L439.2,177.525 L439.2,177.3 L439.2,177.075 L439.5094,176.7 L439.8,176.7 L443.4,176.7 L443.6906,176.7 L444,177.075 L444,177.3 L444,177.525 L443.6906,177.9 L443.4,177.9 L442.2,177.9 Z "/><text fill="#000000" font-family="sans-serif" font-size="7.2" font-style="italic" lengthAdjust="spacingAndGlyphs" textLength="44.4" x="450" y="182.6461">UserInterface</text><line style="stroke: #A80036; stroke-width: 0.9000000357627869;" x1="433.2" x2="495.6" y1="189.3" y2="189.3"/><line style="stroke: #A80036; stroke-width: 0.9000000357627869;" x1="433.2" x2="495.6" y1="194.1" y2="194.1"/><text fill="#000000" font-family="sans-serif" font-size="6.6" lengthAdjust="spacingAndGlyphs" textLength="35.4" x="436.2" y="203.3514">+getProfile()</text><!--class Student--><rect fill="#FEFECE" filter="url(#f1xg8svxkyt72e)" height="103.5141" id="Student" style="stroke: #A80036; stroke-width: 0.9000000357627869;" width="98.4" x="276.6" y="270.6"/><ellipse cx="310.65" cy="280.2" fill="#ADD1B2" rx="6.6" ry="6.6" style="stroke: #A80036; stroke-width: 0.6000000238418579;"/><path d="M311.85,278.1 Q311.9719,277.8 312.1125,277.65 Q312.2531,277.5 312.4125,277.5 Q312.6938,277.5 312.8719,277.6688 Q313.05,277.8375 313.05,278.2313 L313.05,279.1688 Q313.05,279.5625 312.8813,279.7313 Q312.7125,279.9 312.45,279.9 Q312.2156,279.9 312.0656,279.7969 Q311.9156,279.6938 311.85,279.4219 Q311.8219,279.2344 311.7188,279.1313 Q311.5313,278.9344 311.1938,278.8172 Q310.8563,278.7 310.5188,278.7 Q310.0969,278.7 309.7453,278.8688 Q309.3938,279.0375 309.1219,279.4125 Q308.85,279.7875 308.85,280.3031 L308.85,280.8563 Q308.85,281.475 309.3563,281.8875 Q309.8625,282.3 310.7625,282.3 Q311.2969,282.3 311.6719,282.1781 Q311.8875,282.1125 312.1313,281.8969 Q312.2906,281.775 312.375,281.7375 Q312.4594,281.7 312.5625,281.7 Q312.7594,281.7 312.9047,281.8547 Q313.05,282.0094 313.05,282.225 Q313.05,282.4313 312.8438,282.675 Q312.5438,283.0313 312.0656,283.2281 Q311.4375,283.5 310.6688,283.5 Q309.7688,283.5 309.0469,283.1438 Q308.4656,282.8625 308.0578,282.2531 Q307.65,281.6438 307.65,280.9219 L307.65,280.2656 Q307.65,279.5156 308.0109,278.8594 Q308.3719,278.2031 309.0047,277.8516 Q309.6375,277.5 310.35,277.5 Q310.7813,277.5 311.1563,277.65 Q311.5313,277.8 311.85,278.1 Z "/><text fill="#000000" font-family="sans-serif" font-size="7.2" lengthAdjust="spacingAndGlyphs" textLength="25.2" x="322.95" y="283.1461">Student</text><line style="stroke: #A80036; stroke-width: 0.9000000357627869;" x1="277.2" x2="374.4" y1="289.8" y2="289.8"/><text fill="#000000" font-family="sans-serif" font-size="6.6" lengthAdjust="spacingAndGlyphs" textLength="91.2" x="280.2" y="299.0514">-student_profile : StudentProfile</text><text fill="#000000" font-family="sans-serif" font-size="6.6" lengthAdjust="spacingAndGlyphs" textLength="54" x="280.2" y="307.3529">-attending : Event[]</text><text fill="#000000" font-family="sans-serif" font-size="6.6" lengthAdjust="spacingAndGlyphs" textLength="75" x="280.2" y="315.6545">-preview_events : Event[]</text><line style="stroke: #A80036; stroke-width: 0.9000000357627869;" x1="277.2" x2="374.4" y1="319.5047" y2="319.5047"/><text fill="#000000" font-family="sans-serif" font-size="6.6" lengthAdjust="spacingAndGlyphs" textLength="58.8" x="280.2" y="328.7561">+update(SplSubject)</text><text fill="#000000" font-family="sans-serif" font-size="6.6" lengthAdjust="spacingAndGlyphs" textLength="60" x="280.2" y="337.0576">+getCreatedEvents()</text><text fill="#000000" font-family="sans-serif" font-size="6.6" lengthAdjust="spacingAndGlyphs" textLength="75.6" x="280.2" y="345.3592">+setProfile(StudentProfile)</text><text fill="#000000" font-family="sans-serif" font-size="6.6" lengthAdjust="spacingAndGlyphs" textLength="61.2" x="280.2" y="353.6608">+setAttending(Event)</text><text fill="#000000" font-family="sans-serif" font-size="6.6" lengthAdjust="spacingAndGlyphs" textLength="35.4" x="280.2" y="361.9623">+getProfile()</text><text fill="#000000" font-family="sans-serif" font-size="6.6" lengthAdjust="spacingAndGlyphs" textLength="45" x="280.2" y="370.2639">+getAttending()</text><!--class EventManager--><rect fill="#FEFECE" filter="url(#f1xg8svxkyt72e)" height="103.5141" id="EventManager" style="stroke: #A80036; stroke-width: 0.9000000357627869;" width="136.2" x="396.3" y="270.6"/><ellipse cx="438.45" cy="280.2" fill="#ADD1B2" rx="6.6" ry="6.6" style="stroke: #A80036; stroke-width: 0.6000000238418579;"/><path d="M439.65,278.1 Q439.7719,277.8 439.9125,277.65 Q440.0531,277.5 440.2125,277.5 Q440.4938,277.5 440.6719,277.6688 Q440.85,277.8375 440.85,278.2313 L440.85,279.1688 Q440.85,279.5625 440.6813,279.7313 Q440.5125,279.9 440.25,279.9 Q440.0156,279.9 439.8656,279.7969 Q439.7156,279.6938 439.65,279.4219 Q439.6219,279.2344 439.5188,279.1313 Q439.3313,278.9344 438.9938,278.8172 Q438.6563,278.7 438.3188,278.7 Q437.8969,278.7 437.5453,278.8688 Q437.1938,279.0375 436.9219,279.4125 Q436.65,279.7875 436.65,280.3031 L436.65,280.8563 Q436.65,281.475 437.1563,281.8875 Q437.6625,282.3 438.5625,282.3 Q439.0969,282.3 439.4719,282.1781 Q439.6875,282.1125 439.9313,281.8969 Q440.0906,281.775 440.175,281.7375 Q440.2594,281.7 440.3625,281.7 Q440.5594,281.7 440.7047,281.8547 Q440.85,282.0094 440.85,282.225 Q440.85,282.4313 440.6438,282.675 Q440.3438,283.0313 439.8656,283.2281 Q439.2375,283.5 438.4688,283.5 Q437.5688,283.5 436.8469,283.1438 Q436.2656,282.8625 435.8578,282.2531 Q435.45,281.6438 435.45,280.9219 L435.45,280.2656 Q435.45,279.5156 435.811,278.8594 Q436.1719,278.2031 436.8047,277.8516 Q437.4375,277.5 438.15,277.5 Q438.5813,277.5 438.9563,277.65 Q439.3313,277.8 439.65,278.1 Z "/><text fill="#000000" font-family="sans-serif" font-size="7.2" lengthAdjust="spacingAndGlyphs" textLength="46.8" x="450.75" y="283.1461">EventManager</text><line style="stroke: #A80036; stroke-width: 0.9000000357627869;" x1="396.9" x2="531.9" y1="289.8" y2="289.8"/><text fill="#000000" font-family="sans-serif" font-size="6.6" lengthAdjust="spacingAndGlyphs" textLength="129" x="399.9" y="299.0514">-event_manager_profile : ManagementProfile</text><text fill="#000000" font-family="sans-serif" font-size="6.6" lengthAdjust="spacingAndGlyphs" textLength="70.8" x="399.9" y="307.3529">-related_events : Event[]</text><text fill="#000000" font-family="sans-serif" font-size="6.6" lengthAdjust="spacingAndGlyphs" textLength="75" x="399.9" y="315.6545">-preview_events : Event[]</text><line style="stroke: #A80036; stroke-width: 0.9000000357627869;" x1="396.9" x2="531.9" y1="319.5047" y2="319.5047"/><text fill="#000000" font-family="sans-serif" font-size="6.6" lengthAdjust="spacingAndGlyphs" textLength="58.8" x="399.9" y="328.7561">+update(SplSubject)</text><text fill="#000000" font-family="sans-serif" font-size="6.6" lengthAdjust="spacingAndGlyphs" textLength="60" x="399.9" y="337.0576">+getCreatedEvents()</text><text fill="#000000" font-family="sans-serif" font-size="6.6" lengthAdjust="spacingAndGlyphs" textLength="90" x="399.9" y="345.3592">+setProfile(ManagementProfile)</text><text fill="#000000" font-family="sans-serif" font-size="6.6" lengthAdjust="spacingAndGlyphs" textLength="75" x="399.9" y="353.6608">+setRelatedEvents(Event)</text><text fill="#000000" font-family="sans-serif" font-size="6.6" lengthAdjust="spacingAndGlyphs" textLength="35.4" x="399.9" y="361.9623">+getProfile()</text><text fill="#000000" font-family="sans-serif" font-size="6.6" lengthAdjust="spacingAndGlyphs" textLength="58.8" x="399.9" y="370.2639">+getRelatedEvents()</text><!--class Admin--><rect fill="#FEFECE" filter="url(#f1xg8svxkyt72e)" height="78.6094" id="Admin" style="stroke: #A80036; stroke-width: 0.9000000357627869;" width="136.2" x="553.5" y="283.2"/><ellipse cx="608.55" cy="292.8" fill="#ADD1B2" rx="6.6" ry="6.6" style="stroke: #A80036; stroke-width: 0.6000000238418579;"/><path d="M609.75,290.7 Q609.8719,290.4 610.0125,290.25 Q610.1531,290.1 610.3125,290.1 Q610.5938,290.1 610.7719,290.2688 Q610.95,290.4375 610.95,290.8313 L610.95,291.7688 Q610.95,292.1625 610.7813,292.3313 Q610.6125,292.5 610.35,292.5 Q610.1156,292.5 609.9656,292.3969 Q609.8156,292.2938 609.75,292.0219 Q609.7219,291.8344 609.6188,291.7313 Q609.4313,291.5344 609.0938,291.4172 Q608.7563,291.3 608.4188,291.3 Q607.9969,291.3 607.6453,291.4688 Q607.2938,291.6375 607.0219,292.0125 Q606.75,292.3875 606.75,292.9031 L606.75,293.4563 Q606.75,294.075 607.2563,294.4875 Q607.7625,294.9 608.6625,294.9 Q609.1969,294.9 609.5719,294.7781 Q609.7875,294.7125 610.0313,294.4969 Q610.1906,294.375 610.275,294.3375 Q610.3594,294.3 610.4625,294.3 Q610.6594,294.3 610.8047,294.4547 Q610.95,294.6094 610.95,294.825 Q610.95,295.0313 610.7438,295.275 Q610.4438,295.6313 609.9656,295.8281 Q609.3375,296.1 608.5688,296.1 Q607.6688,296.1 606.9469,295.7438 Q606.3656,295.4625 605.9578,294.8531 Q605.55,294.2438 605.55,293.5219 L605.55,292.8656 Q605.55,292.1156 605.911,291.4594 Q606.2719,290.8031 606.9047,290.4516 Q607.5375,290.1 608.25,290.1 Q608.6813,290.1 609.0563,290.25 Q609.4313,290.4 609.75,290.7 Z "/><text fill="#000000" font-family="sans-serif" font-size="7.2" lengthAdjust="spacingAndGlyphs" textLength="21" x="620.85" y="295.7461">Admin</text><line style="stroke: #A80036; stroke-width: 0.9000000357627869;" x1="554.1" x2="689.1" y1="302.4" y2="302.4"/><text fill="#000000" font-family="sans-serif" font-size="6.6" lengthAdjust="spacingAndGlyphs" textLength="129" x="557.1" y="311.6514">-event_manager_profile : ManagementProfile</text><text fill="#000000" font-family="sans-serif" font-size="6.6" lengthAdjust="spacingAndGlyphs" textLength="75" x="557.1" y="319.9529">-preview_events : Event[]</text><line style="stroke: #A80036; stroke-width: 0.9000000357627869;" x1="554.1" x2="689.1" y1="323.8031" y2="323.8031"/><text fill="#000000" font-family="sans-serif" font-size="6.6" lengthAdjust="spacingAndGlyphs" textLength="58.8" x="557.1" y="333.0545">+update(SplSubject)</text><text fill="#000000" font-family="sans-serif" font-size="6.6" lengthAdjust="spacingAndGlyphs" textLength="60" x="557.1" y="341.3561">+getCreatedEvents()</text><text fill="#000000" font-family="sans-serif" font-size="6.6" lengthAdjust="spacingAndGlyphs" textLength="90" x="557.1" y="349.6576">+setProfile(ManagementProfile)</text><text fill="#000000" font-family="sans-serif" font-size="6.6" lengthAdjust="spacingAndGlyphs" textLength="35.4" x="557.1" y="357.9592">+getProfile()</text><!--class User--><rect fill="#FEFECE" filter="url(#f1xg8svxkyt72e)" height="228.0375" id="User" style="stroke: #A80036; stroke-width: 0.9000000357627869;" width="82.2" x="423.3" y="421.2"/><ellipse cx="453.75" cy="430.8" fill="#ADD1B2" rx="6.6" ry="6.6" style="stroke: #A80036; stroke-width: 0.6000000238418579;"/><path d="M454.95,428.7 Q455.0719,428.4 455.2125,428.25 Q455.3531,428.1 455.5125,428.1 Q455.7938,428.1 455.9719,428.2688 Q456.15,428.4375 456.15,428.8313 L456.15,429.7688 Q456.15,430.1625 455.9813,430.3313 Q455.8125,430.5 455.55,430.5 Q455.3156,430.5 455.1656,430.3969 Q455.0156,430.2938 454.95,430.0219 Q454.9219,429.8344 454.8188,429.7313 Q454.6313,429.5344 454.2938,429.4172 Q453.9563,429.3 453.6188,429.3 Q453.1969,429.3 452.8453,429.4688 Q452.4938,429.6375 452.2219,430.0125 Q451.95,430.3875 451.95,430.9031 L451.95,431.4563 Q451.95,432.075 452.4563,432.4875 Q452.9625,432.9 453.8625,432.9 Q454.3969,432.9 454.7719,432.7781 Q454.9875,432.7125 455.2313,432.4969 Q455.3906,432.375 455.475,432.3375 Q455.5594,432.3 455.6625,432.3 Q455.8594,432.3 456.0047,432.4547 Q456.15,432.6094 456.15,432.825 Q456.15,433.0313 455.9438,433.275 Q455.6438,433.6313 455.1656,433.8281 Q454.5375,434.1 453.7688,434.1 Q452.8688,434.1 452.1469,433.7438 Q451.5656,433.4625 451.1578,432.8531 Q450.75,432.2438 450.75,431.5219 L450.75,430.8656 Q450.75,430.1156 451.111,429.4594 Q451.4719,428.8031 452.1047,428.4516 Q452.7375,428.1 453.45,428.1 Q453.8813,428.1 454.2563,428.25 Q454.6313,428.4 454.95,428.7 Z "/><text fill="#000000" font-family="sans-serif" font-size="7.2" lengthAdjust="spacingAndGlyphs" textLength="16.2" x="466.05" y="433.7461">User</text><line style="stroke: #A80036; stroke-width: 0.9000000357627869;" x1="423.9" x2="504.9" y1="440.4" y2="440.4"/><text fill="#000000" font-family="sans-serif" font-size="6.6" lengthAdjust="spacingAndGlyphs" textLength="32.4" x="426.9" y="449.6514">-id : Integer</text><text fill="#000000" font-family="sans-serif" font-size="6.6" lengthAdjust="spacingAndGlyphs" textLength="57" x="426.9" y="457.9529">-login_name : String</text><text fill="#000000" font-family="sans-serif" font-size="6.6" lengthAdjust="spacingAndGlyphs" textLength="54.6" x="426.9" y="466.2545">-password : String</text><text fill="#000000" font-family="sans-serif" font-size="6.6" lengthAdjust="spacingAndGlyphs" textLength="55.2" x="426.9" y="474.5561">-first_name : String</text><text fill="#000000" font-family="sans-serif" font-size="6.6" lengthAdjust="spacingAndGlyphs" textLength="54" x="426.9" y="482.8576">-last_name : String</text><text fill="#000000" font-family="sans-serif" font-size="6.6" lengthAdjust="spacingAndGlyphs" textLength="39" x="426.9" y="491.1592">-email : String</text><text fill="#000000" font-family="sans-serif" font-size="6.6" lengthAdjust="spacingAndGlyphs" textLength="37.2" x="426.9" y="499.4608">-type : String</text><text fill="#000000" font-family="sans-serif" font-size="6.6" lengthAdjust="spacingAndGlyphs" textLength="59.4" x="426.9" y="507.7623">-login_status : String</text><line style="stroke: #A80036; stroke-width: 0.9000000357627869;" x1="423.9" x2="504.9" y1="511.6125" y2="511.6125"/><text fill="#000000" font-family="sans-serif" font-size="6.6" lengthAdjust="spacingAndGlyphs" textLength="42" x="426.9" y="520.8639">+setId(Integer)</text><text fill="#000000" font-family="sans-serif" font-size="6.6" lengthAdjust="spacingAndGlyphs" textLength="66" x="426.9" y="529.1655">+setLoginName(String)</text><text fill="#000000" font-family="sans-serif" font-size="6.6" lengthAdjust="spacingAndGlyphs" textLength="64.2" x="426.9" y="537.467">+setPassword(String)</text><text fill="#000000" font-family="sans-serif" font-size="6.6" lengthAdjust="spacingAndGlyphs" textLength="63" x="426.9" y="545.7686">+setFirstName(String)</text><text fill="#000000" font-family="sans-serif" font-size="6.6" lengthAdjust="spacingAndGlyphs" textLength="63" x="426.9" y="554.0701">+setLastName(String)</text><text fill="#000000" font-family="sans-serif" font-size="6.6" lengthAdjust="spacingAndGlyphs" textLength="48.6" x="426.9" y="562.3717">+setEmail(String)</text><text fill="#000000" font-family="sans-serif" font-size="6.6" lengthAdjust="spacingAndGlyphs" textLength="48.6" x="426.9" y="570.6733">+setType(String)</text><text fill="#000000" font-family="sans-serif" font-size="6.6" lengthAdjust="spacingAndGlyphs" textLength="75" x="426.9" y="578.9748">+setLoginStatus(Boolean)</text><text fill="#000000" font-family="sans-serif" font-size="6.6" lengthAdjust="spacingAndGlyphs" textLength="22.2" x="426.9" y="587.2764">+getId()</text><text fill="#000000" font-family="sans-serif" font-size="6.6" lengthAdjust="spacingAndGlyphs" textLength="49.2" x="426.9" y="595.578">+getLoginName()</text><text fill="#000000" font-family="sans-serif" font-size="6.6" lengthAdjust="spacingAndGlyphs" textLength="47.4" x="426.9" y="603.8795">+getPassword()</text><text fill="#000000" font-family="sans-serif" font-size="6.6" lengthAdjust="spacingAndGlyphs" textLength="46.2" x="426.9" y="612.1811">+getFirstName()</text><text fill="#000000" font-family="sans-serif" font-size="6.6" lengthAdjust="spacingAndGlyphs" textLength="46.2" x="426.9" y="620.4826">+getLastName()</text><text fill="#000000" font-family="sans-serif" font-size="6.6" lengthAdjust="spacingAndGlyphs" textLength="31.8" x="426.9" y="628.7842">+getEmail()</text><text fill="#000000" font-family="sans-serif" font-size="6.6" lengthAdjust="spacingAndGlyphs" textLength="31.8" x="426.9" y="637.0858">+getType()</text><text fill="#000000" font-family="sans-serif" font-size="6.6" lengthAdjust="spacingAndGlyphs" textLength="51.6" x="426.9" y="645.3873">+getLoginStatus()</text><!--class StudentProfile--><rect fill="#FEFECE" filter="url(#f1xg8svxkyt72e)" height="120.1172" id="StudentProfile" style="stroke: #A80036; stroke-width: 0.9000000357627869;" width="81.6" x="285" y="475.2"/><ellipse cx="301.29" cy="484.8" fill="#ADD1B2" rx="6.6" ry="6.6" style="stroke: #A80036; stroke-width: 0.6000000238418579;"/><path d="M302.49,482.7 Q302.6119,482.4 302.7525,482.25 Q302.8931,482.1 303.0525,482.1 Q303.3338,482.1 303.5119,482.2688 Q303.69,482.4375 303.69,482.8313 L303.69,483.7688 Q303.69,484.1625 303.5213,484.3313 Q303.3525,484.5 303.09,484.5 Q302.8556,484.5 302.7056,484.3969 Q302.5556,484.2938 302.49,484.0219 Q302.4619,483.8344 302.3588,483.7313 Q302.1713,483.5344 301.8338,483.4172 Q301.4963,483.3 301.1588,483.3 Q300.7369,483.3 300.3853,483.4688 Q300.0338,483.6375 299.7619,484.0125 Q299.49,484.3875 299.49,484.9031 L299.49,485.4563 Q299.49,486.075 299.9963,486.4875 Q300.5025,486.9 301.4025,486.9 Q301.9369,486.9 302.3119,486.7781 Q302.5275,486.7125 302.7713,486.4969 Q302.9306,486.375 303.015,486.3375 Q303.0994,486.3 303.2025,486.3 Q303.3994,486.3 303.5447,486.4547 Q303.69,486.6094 303.69,486.825 Q303.69,487.0313 303.4838,487.275 Q303.1838,487.6313 302.7056,487.8281 Q302.0775,488.1 301.3088,488.1 Q300.4088,488.1 299.6869,487.7438 Q299.1056,487.4625 298.6978,486.8531 Q298.29,486.2438 298.29,485.5219 L298.29,484.8656 Q298.29,484.1156 298.6509,483.4594 Q299.0119,482.8031 299.6447,482.4516 Q300.2775,482.1 300.99,482.1 Q301.4213,482.1 301.7963,482.25 Q302.1713,482.4 302.49,482.7 Z "/><text fill="#000000" font-family="sans-serif" font-size="7.2" lengthAdjust="spacingAndGlyphs" textLength="46.2" x="311.31" y="487.7461">StudentProfile</text><line style="stroke: #A80036; stroke-width: 0.9000000357627869;" x1="285.6" x2="366" y1="494.4" y2="494.4"/><text fill="#000000" font-family="sans-serif" font-size="6.6" lengthAdjust="spacingAndGlyphs" textLength="57.6" x="288.6" y="503.6514">-student_id : Integer</text><text fill="#000000" font-family="sans-serif" font-size="6.6" lengthAdjust="spacingAndGlyphs" textLength="57" x="288.6" y="511.953">-department : String</text><text fill="#000000" font-family="sans-serif" font-size="6.6" lengthAdjust="spacingAndGlyphs" textLength="42.6" x="288.6" y="520.2545">-status : String</text><text fill="#000000" font-family="sans-serif" font-size="6.6" lengthAdjust="spacingAndGlyphs" textLength="48.6" x="288.6" y="528.5561">-address : String</text><text fill="#000000" font-family="sans-serif" font-size="6.6" lengthAdjust="spacingAndGlyphs" textLength="67.8" x="288.6" y="536.8576">-phone_number : String</text><line style="stroke: #A80036; stroke-width: 0.9000000357627869;" x1="285.6" x2="366" y1="540.7078" y2="540.7078"/><text fill="#000000" font-family="sans-serif" font-size="6.6" lengthAdjust="spacingAndGlyphs" textLength="64.2" x="288.6" y="549.9592">+setStudentId(Integer)</text><text fill="#000000" font-family="sans-serif" font-size="6.6" lengthAdjust="spacingAndGlyphs" textLength="67.2" x="288.6" y="558.2608">+setDepartment(String)</text><text fill="#000000" font-family="sans-serif" font-size="6.6" lengthAdjust="spacingAndGlyphs" textLength="52.8" x="288.6" y="566.5623">+setStatus(String)</text><text fill="#000000" font-family="sans-serif" font-size="6.6" lengthAdjust="spacingAndGlyphs" textLength="59.4" x="288.6" y="574.8639">+setAddress(String)</text><text fill="#000000" font-family="sans-serif" font-size="6.6" lengthAdjust="spacingAndGlyphs" textLength="74.4" x="288.6" y="583.1655">+setPhoneNumber(String)</text><text fill="#000000" font-family="sans-serif" font-size="6.6" lengthAdjust="spacingAndGlyphs" textLength="32.4" x="288.6" y="591.467">+preview()</text><!--class ManagementProfile--><rect fill="#FEFECE" filter="url(#f1xg8svxkyt72e)" height="86.9109" id="ManagementProfile" style="stroke: #A80036; stroke-width: 0.9000000357627869;" width="83.4" x="552.3" y="491.7"/><ellipse cx="561.3" cy="501.3" fill="#ADD1B2" rx="6.6" ry="6.6" style="stroke: #A80036; stroke-width: 0.6000000238418579;"/><path d="M562.5,499.2 Q562.6219,498.9 562.7625,498.75 Q562.9031,498.6 563.0625,498.6 Q563.3438,498.6 563.5219,498.7688 Q563.7,498.9375 563.7,499.3313 L563.7,500.2688 Q563.7,500.6625 563.5313,500.8313 Q563.3625,501 563.1,501 Q562.8656,501 562.7156,500.8969 Q562.5656,500.7938 562.5,500.5219 Q562.4719,500.3344 562.3688,500.2313 Q562.1813,500.0344 561.8438,499.9172 Q561.5063,499.8 561.1688,499.8 Q560.7469,499.8 560.3953,499.9688 Q560.0438,500.1375 559.7719,500.5125 Q559.5,500.8875 559.5,501.4031 L559.5,501.9563 Q559.5,502.575 560.0063,502.9875 Q560.5125,503.4 561.4125,503.4 Q561.9469,503.4 562.3219,503.2781 Q562.5375,503.2125 562.7813,502.9969 Q562.9406,502.875 563.025,502.8375 Q563.1094,502.8 563.2125,502.8 Q563.4094,502.8 563.5547,502.9547 Q563.7,503.1094 563.7,503.325 Q563.7,503.5313 563.4938,503.775 Q563.1938,504.1313 562.7156,504.3281 Q562.0875,504.6 561.3188,504.6 Q560.4188,504.6 559.6969,504.2438 Q559.1156,503.9625 558.7078,503.3531 Q558.3,502.7438 558.3,502.0219 L558.3,501.3656 Q558.3,500.6156 558.661,499.9594 Q559.0219,499.3031 559.6547,498.9516 Q560.2875,498.6 561,498.6 Q561.4313,498.6 561.8063,498.75 Q562.1813,498.9 562.5,499.2 Z "/><text fill="#000000" font-family="sans-serif" font-size="7.2" lengthAdjust="spacingAndGlyphs" textLength="64.2" x="569.7" y="504.2461">ManagementProfile</text><line style="stroke: #A80036; stroke-width: 0.9000000357627869;" x1="552.9" x2="635.1" y1="510.9" y2="510.9"/><text fill="#000000" font-family="sans-serif" font-size="6.6" lengthAdjust="spacingAndGlyphs" textLength="46.8" x="555.9" y="520.1514">-position : String</text><text fill="#000000" font-family="sans-serif" font-size="6.6" lengthAdjust="spacingAndGlyphs" textLength="48.6" x="555.9" y="528.453">-address : String</text><text fill="#000000" font-family="sans-serif" font-size="6.6" lengthAdjust="spacingAndGlyphs" textLength="67.8" x="555.9" y="536.7545">-phone_number : String</text><line style="stroke: #A80036; stroke-width: 0.9000000357627869;" x1="552.9" x2="635.1" y1="540.6047" y2="540.6047"/><text fill="#000000" font-family="sans-serif" font-size="6.6" lengthAdjust="spacingAndGlyphs" textLength="56.4" x="555.9" y="549.8561">+setPosition(String)</text><text fill="#000000" font-family="sans-serif" font-size="6.6" lengthAdjust="spacingAndGlyphs" textLength="59.4" x="555.9" y="558.1576">+setAddress(String)</text><text fill="#000000" font-family="sans-serif" font-size="6.6" lengthAdjust="spacingAndGlyphs" textLength="74.4" x="555.9" y="566.4592">+setPhoneNumber(String)</text><text fill="#000000" font-family="sans-serif" font-size="6.6" lengthAdjust="spacingAndGlyphs" textLength="32.4" x="555.9" y="574.7608">+preview()</text><!--class Demo_index--><rect fill="#FEFECE" filter="url(#f1xg8svxkyt72e)" height="28.8" id="Demo_index" style="stroke: #A80036; stroke-width: 0.9000000357627869;" width="61.2" x="258" y="38.4"/><ellipse cx="267" cy="48" fill="#ADD1B2" rx="6.6" ry="6.6" style="stroke: #A80036; stroke-width: 0.6000000238418579;"/><path d="M268.2,45.9 Q268.3219,45.6 268.4625,45.45 Q268.6031,45.3 268.7625,45.3 Q269.0438,45.3 269.2219,45.4688 Q269.4,45.6375 269.4,46.0313 L269.4,46.9688 Q269.4,47.3625 269.2313,47.5313 Q269.0625,47.7 268.8,47.7 Q268.5656,47.7 268.4156,47.5969 Q268.2656,47.4938 268.2,47.2219 Q268.1719,47.0344 268.0688,46.9313 Q267.8813,46.7344 267.5438,46.6172 Q267.2063,46.5 266.8688,46.5 Q266.4469,46.5 266.0953,46.6688 Q265.7438,46.8375 265.4719,47.2125 Q265.2,47.5875 265.2,48.1031 L265.2,48.6563 Q265.2,49.275 265.7063,49.6875 Q266.2125,50.1 267.1125,50.1 Q267.6469,50.1 268.0219,49.9781 Q268.2375,49.9125 268.4813,49.6969 Q268.6406,49.575 268.725,49.5375 Q268.8094,49.5 268.9125,49.5 Q269.1094,49.5 269.2547,49.6547 Q269.4,49.8094 269.4,50.025 Q269.4,50.2313 269.1938,50.475 Q268.8938,50.8313 268.4156,51.0281 Q267.7875,51.3 267.0188,51.3 Q266.1188,51.3 265.3969,50.9438 Q264.8156,50.6625 264.4078,50.0531 Q264,49.4438 264,48.7219 L264,48.0656 Q264,47.3156 264.3609,46.6594 Q264.7219,46.0031 265.3547,45.6516 Q265.9875,45.3 266.7,45.3 Q267.1313,45.3 267.5063,45.45 Q267.8813,45.6 268.2,45.9 Z "/><text fill="#000000" font-family="sans-serif" font-size="7.2" lengthAdjust="spacingAndGlyphs" textLength="42" x="275.4" y="50.9461">Demo_index</text><line style="stroke: #A80036; stroke-width: 0.9000000357627869;" x1="258.6" x2="318.6" y1="57.6" y2="57.6"/><line style="stroke: #A80036; stroke-width: 0.9000000357627869;" x1="258.6" x2="318.6" y1="62.4" y2="62.4"/><!--class StudentController--><rect fill="#FEFECE" filter="url(#f1xg8svxkyt72e)" height="95.2125" id="StudentController" style="stroke: #A80036; stroke-width: 0.9000000357627869;" width="76.8" x="142.2" y="5.1"/><ellipse cx="151.2" cy="14.7" fill="#ADD1B2" rx="6.6" ry="6.6" style="stroke: #A80036; stroke-width: 0.6000000238418579;"/><path d="M152.4,12.6 Q152.5219,12.3 152.6625,12.15 Q152.8031,12 152.9625,12 Q153.2438,12 153.4219,12.1688 Q153.6,12.3375 153.6,12.7313 L153.6,13.6688 Q153.6,14.0625 153.4313,14.2313 Q153.2625,14.4 153,14.4 Q152.7656,14.4 152.6156,14.2969 Q152.4656,14.1938 152.4,13.9219 Q152.3719,13.7344 152.2688,13.6313 Q152.0813,13.4344 151.7438,13.3172 Q151.4063,13.2 151.0688,13.2 Q150.6469,13.2 150.2953,13.3688 Q149.9438,13.5375 149.6719,13.9125 Q149.4,14.2875 149.4,14.8031 L149.4,15.3563 Q149.4,15.975 149.9063,16.3875 Q150.4125,16.8 151.3125,16.8 Q151.8469,16.8 152.2219,16.6781 Q152.4375,16.6125 152.6813,16.3969 Q152.8406,16.275 152.925,16.2375 Q153.0094,16.2 153.1125,16.2 Q153.3094,16.2 153.4547,16.3547 Q153.6,16.5094 153.6,16.725 Q153.6,16.9313 153.3938,17.175 Q153.0938,17.5313 152.6156,17.7281 Q151.9875,18 151.2188,18 Q150.3188,18 149.5969,17.6438 Q149.0156,17.3625 148.6078,16.7531 Q148.2,16.1438 148.2,15.4219 L148.2,14.7656 Q148.2,14.0156 148.5609,13.3594 Q148.9219,12.7031 149.5547,12.3516 Q150.1875,12 150.9,12 Q151.3313,12 151.7063,12.15 Q152.0813,12.3 152.4,12.6 Z "/><text fill="#000000" font-family="sans-serif" font-size="7.2" lengthAdjust="spacingAndGlyphs" textLength="57.6" x="159.6" y="17.6461">StudentController</text><line style="stroke: #A80036; stroke-width: 0.9000000357627869;" x1="142.8" x2="218.4" y1="24.3" y2="24.3"/><text fill="#000000" font-family="sans-serif" font-size="6.6" lengthAdjust="spacingAndGlyphs" textLength="35.4" x="145.8" y="33.5514">-User : User</text><text fill="#000000" font-family="sans-serif" font-size="6.6" lengthAdjust="spacingAndGlyphs" textLength="66.6" x="145.8" y="41.8529">-UserView : UserView</text><line style="stroke: #A80036; stroke-width: 0.9000000357627869;" x1="142.8" x2="218.4" y1="45.7031" y2="45.7031"/><text fill="#000000" font-family="sans-serif" font-size="6.6" lengthAdjust="spacingAndGlyphs" textLength="48" x="145.8" y="54.9545">+setUserModel()</text><text fill="#000000" font-family="sans-serif" font-size="6.6" lengthAdjust="spacingAndGlyphs" textLength="46.8" x="145.8" y="63.2561">+setUserView()</text><text fill="#000000" font-family="sans-serif" font-size="6.6" lengthAdjust="spacingAndGlyphs" textLength="21.6" x="145.8" y="71.5576">+login()</text><text fill="#000000" font-family="sans-serif" font-size="6.6" lengthAdjust="spacingAndGlyphs" textLength="30.6" x="145.8" y="79.8592">+register()</text><text fill="#000000" font-family="sans-serif" font-size="6.6" lengthAdjust="spacingAndGlyphs" textLength="53.4" x="145.8" y="88.1607">+resetPassword()</text><text fill="#000000" font-family="sans-serif" font-size="6.6" lengthAdjust="spacingAndGlyphs" textLength="46.2" x="145.8" y="96.4623">+updateProfile()</text><!--class StudentView--><rect fill="#FEFECE" filter="url(#f1xg8svxkyt72e)" height="62.0063" id="StudentView" style="stroke: #A80036; stroke-width: 0.9000000357627869;" width="88.8" x="3.6" y="21.9"/><ellipse cx="25.56" cy="31.5" fill="#ADD1B2" rx="6.6" ry="6.6" style="stroke: #A80036; stroke-width: 0.6000000238418579;"/><path d="M26.76,29.4 Q26.8819,29.1 27.0225,28.95 Q27.1631,28.8 27.3225,28.8 Q27.6038,28.8 27.7819,28.9688 Q27.96,29.1375 27.96,29.5313 L27.96,30.4688 Q27.96,30.8625 27.7913,31.0313 Q27.6225,31.2 27.36,31.2 Q27.1256,31.2 26.9756,31.0969 Q26.8256,30.9938 26.76,30.7219 Q26.7319,30.5344 26.6288,30.4313 Q26.4413,30.2344 26.1038,30.1172 Q25.7663,30 25.4288,30 Q25.0069,30 24.6553,30.1688 Q24.3038,30.3375 24.0319,30.7125 Q23.76,31.0875 23.76,31.6031 L23.76,32.1563 Q23.76,32.775 24.2663,33.1875 Q24.7725,33.6 25.6725,33.6 Q26.2069,33.6 26.5819,33.4781 Q26.7975,33.4125 27.0413,33.1969 Q27.2006,33.075 27.285,33.0375 Q27.3694,33 27.4725,33 Q27.6694,33 27.8147,33.1547 Q27.96,33.3094 27.96,33.525 Q27.96,33.7313 27.7538,33.975 Q27.4538,34.3313 26.9756,34.5281 Q26.3475,34.8 25.5788,34.8 Q24.6788,34.8 23.9569,34.4438 Q23.3756,34.1625 22.9678,33.5531 Q22.56,32.9438 22.56,32.2219 L22.56,31.5656 Q22.56,30.8156 22.9209,30.1594 Q23.2819,29.5031 23.9147,29.1516 Q24.5475,28.8 25.26,28.8 Q25.6913,28.8 26.0663,28.95 Q26.4413,29.1 26.76,29.4 Z "/><text fill="#000000" font-family="sans-serif" font-size="7.2" lengthAdjust="spacingAndGlyphs" textLength="40.8" x="36.84" y="34.4461">StudentView</text><line style="stroke: #A80036; stroke-width: 0.9000000357627869;" x1="4.2" x2="91.8" y1="41.1" y2="41.1"/><line style="stroke: #A80036; stroke-width: 0.9000000357627869;" x1="4.2" x2="91.8" y1="45.9" y2="45.9"/><text fill="#000000" font-family="sans-serif" font-size="6.6" lengthAdjust="spacingAndGlyphs" textLength="72.6" x="7.2" y="55.1514">+printUserRegisteration()</text><text fill="#000000" font-family="sans-serif" font-size="6.6" lengthAdjust="spacingAndGlyphs" textLength="50.4" x="7.2" y="63.4529">+printUserLogin()</text><text fill="#000000" font-family="sans-serif" font-size="6.6" lengthAdjust="spacingAndGlyphs" textLength="81.6" x="7.2" y="71.7545">+printUserResetPassword()</text><text fill="#000000" font-family="sans-serif" font-size="6.6" lengthAdjust="spacingAndGlyphs" textLength="52.8" x="7.2" y="80.0561">+printUserProfile()</text><!--class UserFactory--><rect fill="#FEFECE" filter="url(#f1xg8svxkyt72e)" height="70.3078" id="UserFactory" style="stroke: #A80036; stroke-width: 0.9000000357627869;" width="67.2" x="147" y="153.6"/><ellipse cx="159.78" cy="163.2" fill="#ADD1B2" rx="6.6" ry="6.6" style="stroke: #A80036; stroke-width: 0.6000000238418579;"/><path d="M160.98,161.1 Q161.1019,160.8 161.2425,160.65 Q161.3831,160.5 161.5425,160.5 Q161.8238,160.5 162.0019,160.6688 Q162.18,160.8375 162.18,161.2313 L162.18,162.1688 Q162.18,162.5625 162.0113,162.7313 Q161.8425,162.9 161.58,162.9 Q161.3456,162.9 161.1956,162.7969 Q161.0456,162.6938 160.98,162.4219 Q160.9519,162.2344 160.8488,162.1313 Q160.6613,161.9344 160.3238,161.8172 Q159.9863,161.7 159.6488,161.7 Q159.2269,161.7 158.8753,161.8688 Q158.5238,162.0375 158.2519,162.4125 Q157.98,162.7875 157.98,163.3031 L157.98,163.8563 Q157.98,164.475 158.4863,164.8875 Q158.9925,165.3 159.8925,165.3 Q160.4269,165.3 160.8019,165.1781 Q161.0175,165.1125 161.2613,164.8969 Q161.4206,164.775 161.505,164.7375 Q161.5894,164.7 161.6925,164.7 Q161.8894,164.7 162.0347,164.8547 Q162.18,165.0094 162.18,165.225 Q162.18,165.4313 161.9738,165.675 Q161.6738,166.0313 161.1956,166.2281 Q160.5675,166.5 159.7988,166.5 Q158.8988,166.5 158.1769,166.1438 Q157.5956,165.8625 157.1878,165.2531 Q156.78,164.6438 156.78,163.9219 L156.78,163.2656 Q156.78,162.5156 157.1409,161.8594 Q157.5019,161.2031 158.1347,160.8516 Q158.7675,160.5 159.48,160.5 Q159.9113,160.5 160.2863,160.65 Q160.6613,160.8 160.98,161.1 Z "/><text fill="#000000" font-family="sans-serif" font-size="7.2" lengthAdjust="spacingAndGlyphs" textLength="39.6" x="169.02" y="166.1461">UserFactory</text><line style="stroke: #A80036; stroke-width: 0.9000000357627869;" x1="147.6" x2="213.6" y1="172.8" y2="172.8"/><text fill="#000000" font-family="sans-serif" font-size="6.6" lengthAdjust="spacingAndGlyphs" textLength="15.6" x="150.6" y="182.0514">-user</text><text fill="#000000" font-family="sans-serif" font-size="6.6" lengthAdjust="spacingAndGlyphs" textLength="55.8" x="150.6" y="190.3529">-user_type :  String</text><line style="stroke: #A80036; stroke-width: 0.9000000357627869;" x1="147.6" x2="213.6" y1="194.2031" y2="194.2031"/><text fill="#000000" font-family="sans-serif" font-size="6.6" lengthAdjust="spacingAndGlyphs" textLength="60" x="150.6" y="203.4545">+__construct(String)</text><text fill="#000000" font-family="sans-serif" font-size="6.6" lengthAdjust="spacingAndGlyphs" textLength="31.2" x="150.6" y="211.7561">+getUser()</text><text fill="#000000" font-family="sans-serif" font-size="6.6" lengthAdjust="spacingAndGlyphs" textLength="45.6" x="150.6" y="220.0576">+getUserType()</text><!--link StudentController to Demo_index--><path d="M222.1362,52.8 C234.0258,52.8 246.7686,52.8 257.8836,52.8 " fill="none" id="StudentController-Demo_index" style="stroke: #A80036; stroke-width: 0.6000000238418579;"/><polygon fill="#A80036" points="219.1332,52.8,224.5332,55.2,222.1332,52.8,224.5332,50.4,219.1332,52.8" style="stroke: #A80036; stroke-width: 0.6000000238418579;"/><text fill="#000000" font-family="sans-serif" font-size="7.8" lengthAdjust="spacingAndGlyphs" textLength="16.8" x="230.1" y="48.8971">uses</text><!--link StudentView to StudentController--><path d="M95.5632,52.8 C110.8674,52.8 127.623,52.8 142.1838,52.8 " fill="none" id="StudentView-StudentController" style="stroke: #A80036; stroke-width: 0.6000000238418579;"/><polygon fill="#A80036" points="92.523,52.8,97.923,55.2,95.523,52.8,97.923,50.4,92.523,52.8" style="stroke: #A80036; stroke-width: 0.6000000238418579;"/><text fill="#000000" font-family="sans-serif" font-size="7.8" lengthAdjust="spacingAndGlyphs" textLength="27.6" x="103.5" y="48.8971">updates</text><!--link StudentController to UserFactory--><path d="M180.6,100.5114 C180.6,116.8704 180.6,134.985 180.6,150.4752 " fill="none" id="StudentController-UserFactory" style="stroke: #A80036; stroke-width: 0.6000000238418579;"/><polygon fill="#A80036" points="180.6,153.537,183,148.137,180.6,150.537,178.2,148.137,180.6,153.537" style="stroke: #A80036; stroke-width: 0.6000000238418579;"/><text fill="#000000" font-family="sans-serif" font-size="7.8" lengthAdjust="spacingAndGlyphs" textLength="16.8" x="181.2" y="127.1971">uses</text><!--link UserFactory to rec--><path d="M214.2612,188.7 C224.7975,188.7 235.9895,188.7 244.9073,188.7 C249.3662,188.7 253.2565,188.7 256.2121,188.7 C256.5816,188.7 256.9364,188.7 257.2759,188.7 " fill="none" id="UserFactory-rec" style="stroke: #A80036; stroke-width: 0.6000000238418579;"/><polygon fill="#A80036" points="257.2759,188.7,251.8759,186.3,254.2759,188.7,251.8759,191.1,257.2759,188.7" style="stroke: #A80036; stroke-width: 0.6000000238418579;"/><text fill="#000000" font-family="sans-serif" font-size="7.8" lengthAdjust="spacingAndGlyphs" textLength="25.8" x="225.192" y="184.7971">creates</text><!--link UserInterface to Student--><path d="M444.5076,209.607 C439.845,214.2996 434.874,219.2496 430.2,223.8 C412.38,241.1502 392.5518,259.914 375.003,276.3402 " fill="none" id="UserInterface-Student" style="stroke: #A80036; stroke-width: 0.6000000238418579;"/><polygon fill="#A80036" points="446.769,207.327,441.2622,209.4706,444.6563,209.4569,444.67,212.851,446.769,207.327" style="stroke: #A80036; stroke-width: 0.6000000238418579;"/><text fill="#000000" font-family="sans-serif" font-size="7.8" lengthAdjust="spacingAndGlyphs" textLength="40.2" x="411" y="250.4971">implements</text><!--link UserInterface to EventManager--><path d="M464.4,210.6006 C464.4,226.7688 464.4,249.699 464.4,270.5484 " fill="none" id="UserInterface-EventManager" style="stroke: #A80036; stroke-width: 0.6000000238418579;"/><polygon fill="#A80036" points="464.4,207.4596,462,212.8596,464.4,210.4596,466.8,212.8596,464.4,207.4596" style="stroke: #A80036; stroke-width: 0.6000000238418579;"/><text fill="#000000" font-family="sans-serif" font-size="7.8" lengthAdjust="spacingAndGlyphs" textLength="40.2" x="465" y="250.4971">implements</text><!--link UserInterface to Admin--><path d="M488.2374,209.4072 C511.3296,228.8856 546.9582,258.9384 575.5818,283.083 " fill="none" id="UserInterface-Admin" style="stroke: #A80036; stroke-width: 0.6000000238418579;"/><polygon fill="#A80036" points="485.7642,207.321,488.3459,212.6366,488.0579,209.2547,491.4398,208.9667,485.7642,207.321" style="stroke: #A80036; stroke-width: 0.6000000238418579;"/><text fill="#000000" font-family="sans-serif" font-size="7.8" lengthAdjust="spacingAndGlyphs" textLength="40.2" x="538.8" y="250.4971">implements</text><!--link Student to User--><path d="M359.5284,374.568 C376.6572,400.707 397.7652,432.9168 416.5422,461.5704 " fill="none" id="Student-User" style="stroke: #A80036; stroke-width: 0.6000000238418579;"/><polygon fill="none" points="420.1452,459.4062,423.21,471.7452,413.1198,464.01,420.1452,459.4062" style="stroke: #A80036; stroke-width: 0.6000000238418579;"/><text fill="#000000" font-family="sans-serif" font-size="7.8" lengthAdjust="spacingAndGlyphs" textLength="27.6" x="375" y="401.0971">extends</text><!--link EventManager to User--><path d="M464.4,374.568 C464.4,385.2522 464.4,396.9498 464.4,409.0044 " fill="none" id="EventManager-User" style="stroke: #A80036; stroke-width: 0.6000000238418579;"/><polygon fill="none" points="468.6,409.1538,464.4,421.1538,460.2,409.1538,468.6,409.1538" style="stroke: #A80036; stroke-width: 0.6000000238418579;"/><text fill="#000000" font-family="sans-serif" font-size="7.8" lengthAdjust="spacingAndGlyphs" textLength="27.6" x="465" y="401.0971">extends</text><!--link Admin to User--><path d="M588.7986,361.8828 C574.0728,379.6806 556.6992,401.2266 541.8,421.2 C532.0518,434.268 521.9874,448.4484 512.4714,462.2136 " fill="none" id="Admin-User" style="stroke: #A80036; stroke-width: 0.6000000238418579;"/><polygon fill="none" points="515.9082,464.6286,505.6518,472.1418,508.9848,459.8724,515.9082,464.6286" style="stroke: #A80036; stroke-width: 0.6000000238418579;"/><text fill="#000000" font-family="sans-serif" font-size="7.8" lengthAdjust="spacingAndGlyphs" textLength="27.6" x="563.4" y="401.0971">extends</text><!--link Student to StudentProfile--><path d="M325.8,374.568 C325.8,403.8858 325.8,440.8392 325.8,471.8478 " fill="none" id="Student-StudentProfile" style="stroke: #A80036; stroke-width: 0.6000000238418579;"/><polygon fill="#A80036" points="325.8,475.0212,328.2,469.6212,325.8,472.0212,323.4,469.6212,325.8,475.0212" style="stroke: #A80036; stroke-width: 0.6000000238418579;"/><text fill="#000000" font-family="sans-serif" font-size="7.8" lengthAdjust="spacingAndGlyphs" textLength="16.8" x="326.4" y="401.0971">uses</text><!--link EventManager to ManagementProfile--><path d="M495.9378,374.568 C517.3704,409.5444 545.463,455.3904 566.0844,489.0426 " fill="none" id="EventManager-ManagementProfile" style="stroke: #A80036; stroke-width: 0.6000000238418579;"/><polygon fill="#A80036" points="567.6804,491.6478,566.9056,485.7895,566.1131,489.0898,562.8128,488.2973,567.6804,491.6478" style="stroke: #A80036; stroke-width: 0.6000000238418579;"/><text fill="#000000" font-family="sans-serif" font-size="7.8" lengthAdjust="spacingAndGlyphs" textLength="16.8" x="510.6" y="401.0971">uses</text><!--link Admin to ManagementProfile--><path d="M616.536,361.8924 C611.874,397.6182 604.956,450.6648 600.012,488.5314 " fill="none" id="Admin-ManagementProfile" style="stroke: #A80036; stroke-width: 0.6000000238418579;"/><polygon fill="#A80036" points="599.5998,491.6886,602.6787,486.6447,599.9882,488.7139,597.919,486.0234,599.5998,491.6886" style="stroke: #A80036; stroke-width: 0.6000000238418579;"/><text fill="#000000" font-family="sans-serif" font-size="7.8" lengthAdjust="spacingAndGlyphs" textLength="16.8" x="612" y="401.0971">uses</text><!--
@startuml

skinparam classAttributeIconSize 0

class Demo_index{

}

class StudentController{
{field} - User : User
{field} - UserView : UserView

{method} + setUserModel()
{method} + setUserView()
{method} + login()
{method} + register()
{method} + resetPassword()
{method} + updateProfile()

}


class StudentView{
{method} + printUserRegisteration()
{method} + printUserLogin()
{method} + printUserResetPassword()
{method} + printUserProfile()
}

rectangle "User" as rec{

Interface UserInterface {
  {method} + getProfile()
}

class Student {
{field} - student_profile : StudentProfile
{field} - attending : Event[]
{field} - preview_events : Event[]

{method} + update(SplSubject)
{method} + getCreatedEvents()
{method} + setProfile(StudentProfile)
{method} + setAttending(Event)
{method} + getProfile()
{method} + getAttending()
}

class EventManager {
{field} - event_manager_profile : ManagementProfile
{field} - related_events : Event[]
{field} - preview_events : Event[]

{method} + update(SplSubject)
{method} + getCreatedEvents()
{method} + setProfile(ManagementProfile)
{method} + setRelatedEvents(Event)
{method} + getProfile()
{method} + getRelatedEvents()
}

class Admin {
{field} - event_manager_profile : ManagementProfile
{field} - preview_events : Event[]

{method} + update(SplSubject)
{method} + getCreatedEvents()
{method} + setProfile(ManagementProfile)
{method} + getProfile()
}

class User {
  {field} - id : Integer
  {field} - login_name : String
  {field} - password : String
  {field} - first_name : String
  {field} - last_name : String
  {field} - email : String
  {field} - type : String
  {field} - login_status : String
  {method} + setId(Integer)
  {method} + setLoginName(String)
  {method} + setPassword(String)
  {method} + setFirstName(String)
  {method} + setLastName(String)
  {method} + setEmail(String)
  {method} + setType(String)
  {method} + setLoginStatus(Boolean)
  {method} + getId()
  {method} + getLoginName()
  {method} + getPassword()
  {method} + getFirstName()
  {method} + getLastName()
  {method} + getEmail()
  {method} + getType()
  {method} + getLoginStatus()

}



class StudentProfile {
  {field} - student_id : Integer
  {field} - department : String
  {field} - status : String
  {field} - address : String
  {field} - phone_number : String

  {method} + setStudentId(Integer)
  {method} + setDepartment(String)
  {method} + setStatus(String)
  {method} + setAddress(String)
  {method} + setPhoneNumber(String)
  {method} + preview()
}


class ManagementProfile {
  {field} - position : String
  {field} - address : String
  {field} - phone_number : String

  {method} + setPosition(String)
  {method} + setAddress(String)
  {method} + setPhoneNumber(String)
  {method} + preview()
}


}

class UserFactory {
  {field} - user
  {field} - user_type :  String

  {method} + __construct(String)
  {method} + getUser()
  {method} + getUserType()
}


StudentController <- Demo_index : uses
StudentView <- StudentController : updates
StudentController - -> UserFactory : uses

UserFactory -> rec : creates
UserInterface <- - Student : implements
UserInterface <- - EventManager : implements
UserInterface <- - Admin : implements

Student - -|> User : extends
EventManager - -|> User : extends
Admin - -|> User : extends

Student - -> StudentProfile : uses
EventManager - -> ManagementProfile : uses
Admin - -> ManagementProfile : uses
@enduml

PlantUML version 1.2018.11(Sat Sep 22 19:43:53 EET 2018)
(GPL source distribution)
Java Runtime: OpenJDK Runtime Environment
JVM: OpenJDK 64-Bit Server VM
Java Version: 1.8.0_152-release-1024-b11
Operating System: Windows 10
OS Version: 10.0
Default Encoding: Cp1254
Language: tr
Country: TR
--></g></svg>