<?xml version="1.0" encoding="UTF-8" standalone="no"?><svg xmlns="http://www.w3.org/2000/svg" xmlns:xlink="http://www.w3.org/1999/xlink" contentScriptType="application/ecmascript" contentStyleType="text/css" height="468px" preserveAspectRatio="none" style="width:348px;height:468px;" version="1.1" viewBox="0 0 348 468" width="348px" zoomAndPan="magnify"><defs><filter height="300%" id="f97lb56j5wli2" width="300%" x="-1" y="-1"><feGaussianBlur result="blurOut" stdDeviation="2.0"/><feColorMatrix in="blurOut" result="blurOut2" type="matrix" values="0 0 0 0 0 0 0 0 0 0 0 0 0 0 0 0 0 0 .4 0"/><feOffset dx="4.0" dy="4.0" in="blurOut2" result="blurOut3"/><feBlend in="SourceGraphic" in2="blurOut3" mode="normal"/></filter></defs><g><!--class SplSubject--><rect fill="#FEFECE" filter="url(#f97lb56j5wli2)" height="89.5078" id="SplSubject" style="stroke: #A80036; stroke-width: 1.5;" width="103" x="207" y="8"/><ellipse cx="226.95" cy="24" fill="#B4A7E5" rx="11" ry="11" style="stroke: #A80036; stroke-width: 1.0;"/><path d="M227.95,21 L227.95,27 L229.95,27 L230.4344,27 L230.95,27.625 L230.95,28 L230.95,28.375 L230.4344,29 L229.95,29 L223.95,29 L223.4656,29 L222.95,28.375 L222.95,28 L222.95,27.625 L223.4656,27 L223.95,27 L225.95,27 L225.95,21 L223.95,21 L223.4656,21 L222.95,20.375 L222.95,20 L222.95,19.625 L223.4656,19 L223.95,19 L229.95,19 L230.4344,19 L230.95,19.625 L230.95,20 L230.95,20.375 L230.4344,21 L229.95,21 L227.95,21 Z "/><text fill="#000000" font-family="sans-serif" font-size="12" font-style="italic" lengthAdjust="spacingAndGlyphs" textLength="60" x="242.05" y="28.9102">SplSubject</text><line style="stroke: #A80036; stroke-width: 1.5;" x1="208" x2="309" y1="40" y2="40"/><line style="stroke: #A80036; stroke-width: 1.5;" x1="208" x2="309" y1="48" y2="48"/><text fill="#000000" font-family="sans-serif" font-size="11" lengthAdjust="spacingAndGlyphs" textLength="88" x="213" y="63.4189">+attach(observer)</text><text fill="#000000" font-family="sans-serif" font-size="11" lengthAdjust="spacingAndGlyphs" textLength="91" x="213" y="77.2549">+detach(observer)</text><text fill="#000000" font-family="sans-serif" font-size="11" lengthAdjust="spacingAndGlyphs" textLength="41" x="213" y="91.0908">+notify()</text><!--class SplObserver--><rect fill="#FEFECE" filter="url(#f97lb56j5wli2)" height="61.8359" id="SplObserver" style="stroke: #A80036; stroke-width: 1.5;" width="101" x="14" y="193.5"/><ellipse cx="29" cy="209.5" fill="#B4A7E5" rx="11" ry="11" style="stroke: #A80036; stroke-width: 1.0;"/><path d="M30,206.5 L30,212.5 L32,212.5 L32.4844,212.5 L33,213.125 L33,213.5 L33,213.875 L32.4844,214.5 L32,214.5 L26,214.5 L25.5156,214.5 L25,213.875 L25,213.5 L25,213.125 L25.5156,212.5 L26,212.5 L28,212.5 L28,206.5 L26,206.5 L25.5156,206.5 L25,205.875 L25,205.5 L25,205.125 L25.5156,204.5 L26,204.5 L32,204.5 L32.4844,204.5 L33,205.125 L33,205.5 L33,205.875 L32.4844,206.5 L32,206.5 L30,206.5 Z "/><text fill="#000000" font-family="sans-serif" font-size="12" font-style="italic" lengthAdjust="spacingAndGlyphs" textLength="69" x="43" y="214.4102">SplObserver</text><line style="stroke: #A80036; stroke-width: 1.5;" x1="15" x2="114" y1="225.5" y2="225.5"/><line style="stroke: #A80036; stroke-width: 1.5;" x1="15" x2="114" y1="233.5" y2="233.5"/><text fill="#000000" font-family="sans-serif" font-size="11" lengthAdjust="spacingAndGlyphs" textLength="82" x="20" y="248.9189">+update(subject)</text><!--class Event--><rect fill="#FEFECE" filter="url(#f97lb56j5wli2)" height="131.0156" id="Event" style="stroke: #A80036; stroke-width: 1.5;" width="158" x="179.5" y="159"/><ellipse cx="239.25" cy="175" fill="#ADD1B2" rx="11" ry="11" style="stroke: #A80036; stroke-width: 1.0;"/><path d="M241.25,171.5 Q241.4531,171 241.6875,170.75 Q241.9219,170.5 242.1875,170.5 Q242.6563,170.5 242.9531,170.7813 Q243.25,171.0625 243.25,171.7188 L243.25,173.2813 Q243.25,173.9375 242.9688,174.2188 Q242.6875,174.5 242.25,174.5 Q241.8594,174.5 241.6094,174.3281 Q241.3594,174.1563 241.25,173.7031 Q241.2031,173.3906 241.0313,173.2188 Q240.7188,172.8906 240.1563,172.6953 Q239.5938,172.5 239.0313,172.5 Q238.3281,172.5 237.7422,172.7813 Q237.1563,173.0625 236.7031,173.6875 Q236.25,174.3125 236.25,175.1719 L236.25,176.0938 Q236.25,177.125 237.0938,177.8125 Q237.9375,178.5 239.4375,178.5 Q240.3281,178.5 240.9531,178.2969 Q241.3125,178.1875 241.7188,177.8281 Q241.9844,177.625 242.125,177.5625 Q242.2656,177.5 242.4375,177.5 Q242.7656,177.5 243.0078,177.7578 Q243.25,178.0156 243.25,178.375 Q243.25,178.7188 242.9063,179.125 Q242.4063,179.7188 241.6094,180.0469 Q240.5625,180.5 239.2813,180.5 Q237.7813,180.5 236.5781,179.9063 Q235.6094,179.4375 234.9297,178.4219 Q234.25,177.4063 234.25,176.2031 L234.25,175.1094 Q234.25,173.8594 234.8516,172.7656 Q235.4531,171.6719 236.5078,171.0859 Q237.5625,170.5 238.75,170.5 Q239.4688,170.5 240.0938,170.75 Q240.7188,171 241.25,171.5 Z "/><text fill="#000000" font-family="sans-serif" font-size="12" lengthAdjust="spacingAndGlyphs" textLength="30" x="259.75" y="179.9102">Event</text><line style="stroke: #A80036; stroke-width: 1.5;" x1="180.5" x2="336.5" y1="191" y2="191"/><text fill="#000000" font-family="sans-serif" font-size="11" lengthAdjust="spacingAndGlyphs" textLength="116" x="185.5" y="206.4189">-event_manager : String</text><text fill="#000000" font-family="sans-serif" font-size="11" lengthAdjust="spacingAndGlyphs" textLength="107" x="185.5" y="220.2549">-observers : observer</text><line style="stroke: #A80036; stroke-width: 1.5;" x1="180.5" x2="336.5" y1="226.6719" y2="226.6719"/><text fill="#000000" font-family="sans-serif" font-size="11" lengthAdjust="spacingAndGlyphs" textLength="88" x="185.5" y="242.0908">+attach(observer)</text><text fill="#000000" font-family="sans-serif" font-size="11" lengthAdjust="spacingAndGlyphs" textLength="91" x="185.5" y="255.9268">+detach(observer)</text><text fill="#000000" font-family="sans-serif" font-size="11" lengthAdjust="spacingAndGlyphs" textLength="146" x="185.5" y="269.7627">+changeEventManager(string)</text><text fill="#000000" font-family="sans-serif" font-size="11" lengthAdjust="spacingAndGlyphs" textLength="41" x="185.5" y="283.5986">+notify()</text><!--class EventObserver--><rect fill="#FEFECE" filter="url(#f97lb56j5wli2)" height="89.5078" id="EventObserver" style="stroke: #A80036; stroke-width: 1.5;" width="117" x="6" y="368"/><ellipse cx="23.25" cy="384" fill="#ADD1B2" rx="11" ry="11" style="stroke: #A80036; stroke-width: 1.0;"/><path d="M25.25,380.5 Q25.4531,380 25.6875,379.75 Q25.9219,379.5 26.1875,379.5 Q26.6563,379.5 26.9531,379.7813 Q27.25,380.0625 27.25,380.7188 L27.25,382.2813 Q27.25,382.9375 26.9688,383.2188 Q26.6875,383.5 26.25,383.5 Q25.8594,383.5 25.6094,383.3281 Q25.3594,383.1563 25.25,382.7031 Q25.2031,382.3906 25.0313,382.2188 Q24.7188,381.8906 24.1563,381.6953 Q23.5938,381.5 23.0313,381.5 Q22.3281,381.5 21.7422,381.7813 Q21.1563,382.0625 20.7031,382.6875 Q20.25,383.3125 20.25,384.1719 L20.25,385.0938 Q20.25,386.125 21.0938,386.8125 Q21.9375,387.5 23.4375,387.5 Q24.3281,387.5 24.9531,387.2969 Q25.3125,387.1875 25.7188,386.8281 Q25.9844,386.625 26.125,386.5625 Q26.2656,386.5 26.4375,386.5 Q26.7656,386.5 27.0078,386.7578 Q27.25,387.0156 27.25,387.375 Q27.25,387.7188 26.9063,388.125 Q26.4063,388.7188 25.6094,389.0469 Q24.5625,389.5 23.2813,389.5 Q21.7813,389.5 20.5781,388.9063 Q19.6094,388.4375 18.9297,387.4219 Q18.25,386.4063 18.25,385.2031 L18.25,384.1094 Q18.25,382.8594 18.8516,381.7656 Q19.4531,380.6719 20.5078,380.0859 Q21.5625,379.5 22.75,379.5 Q23.4688,379.5 24.0938,379.75 Q24.7188,380 25.25,380.5 Z "/><text fill="#000000" font-family="sans-serif" font-size="12" lengthAdjust="spacingAndGlyphs" textLength="80" x="37.75" y="388.9102">EventObserver</text><line style="stroke: #A80036; stroke-width: 1.5;" x1="7" x2="122" y1="400" y2="400"/><text fill="#000000" font-family="sans-serif" font-size="11" lengthAdjust="spacingAndGlyphs" textLength="85" x="12" y="415.4189">-changedEvents[]</text><line style="stroke: #A80036; stroke-width: 1.5;" x1="7" x2="122" y1="421.8359" y2="421.8359"/><text fill="#000000" font-family="sans-serif" font-size="11" lengthAdjust="spacingAndGlyphs" textLength="82" x="12" y="437.2549">+update(subject)</text><text fill="#000000" font-family="sans-serif" font-size="11" lengthAdjust="spacingAndGlyphs" textLength="105" x="12" y="451.0908">+getChangedEvents()</text><!--link SplSubject to Event--><path d="M258.5,103.391 C258.5,120.73 258.5,140.475 258.5,158.876 " fill="none" id="SplSubject-Event" style="stroke: #A80036; stroke-width: 1.0; stroke-dasharray: 7.0,7.0;"/><polygon fill="#A80036" points="258.5,98.092,254.5,107.092,258.5,103.092,262.5,107.092,258.5,98.092" style="stroke: #A80036; stroke-width: 1.0;"/><!--link SplObserver to Event--><path d="M120.324,224.5 C138.663,224.5 159.413,224.5 179.154,224.5 " fill="none" id="SplObserver-Event" style="stroke: #A80036; stroke-width: 1.0;"/><polygon fill="#A80036" points="115.218,224.5,124.218,228.5,120.218,224.5,124.218,220.5,115.218,224.5" style="stroke: #A80036; stroke-width: 1.0;"/><text fill="#000000" font-family="sans-serif" font-size="13" lengthAdjust="spacingAndGlyphs" textLength="28" x="133.25" y="217.9951">uses</text><!--link SplObserver to EventObserver--><path d="M64.5,261.003 C64.5,291.326 64.5,335.085 64.5,367.6968 " fill="none" id="SplObserver-EventObserver" style="stroke: #A80036; stroke-width: 1.0;"/><polygon fill="#A80036" points="64.5,255.88,60.5,264.88,64.5,260.88,68.5,264.88,64.5,255.88" style="stroke: #A80036; stroke-width: 1.0;"/><text fill="#000000" font-family="sans-serif" font-size="13" lengthAdjust="spacingAndGlyphs" textLength="67" x="65.5" y="334.4951">implements</text><!--
@startuml
skinparam classAttributeIconSize 0

interface SplSubject{
  {method} + attach(observer)
  {method} + detach(observer)
  {method} + notify()
}

interface SplObserver{
  {method} + update(subject)
}

class Event {
  {field} - event_manager : String
  {field} - observers : observer
  {method} + attach(observer)
  {method} + detach(observer)
  {method} + changeEventManager(string)
  {method} + notify()
}

class EventObserver {
  {field} - changedEvents[]
  {method} + update(subject)
  {method} + getChangedEvents()
}

SplSubject <.. Event
SplObserver <- Event : uses
SplObserver <- - EventObserver : implements

@enduml

PlantUML version 1.2018.11(Sat Sep 22 19:43:53 EET 2018)
(GPL source distribution)
Java Runtime: OpenJDK Runtime Environment
JVM: OpenJDK 64-Bit Server VM
Java Version: 1.8.0_152-release-1024-b11
Operating System: Windows 10
OS Version: 10.0
Default Encoding: Cp1254
Language: tr
Country: TR
--></g></svg>