<?xml version="1.0" encoding="UTF-8" standalone="no"?><svg xmlns="http://www.w3.org/2000/svg" xmlns:xlink="http://www.w3.org/1999/xlink" contentScriptType="application/ecmascript" contentStyleType="text/css" height="163.2px" preserveAspectRatio="none" style="width:117px;height:163px;" version="1.1" viewBox="0 0 117 163" width="117.6px" zoomAndPan="magnify"><defs><filter height="300%" id="f81ltc3fl82wv" width="300%" x="-1" y="-1"><feGaussianBlur result="blurOut" stdDeviation="1.2000000476837158"/><feColorMatrix in="blurOut" result="blurOut2" type="matrix" values="0 0 0 0 0 0 0 0 0 0 0 0 0 0 0 0 0 0 .4 0"/><feOffset dx="2.4000000953674316" dy="2.4000000953674316" in="blurOut2" result="blurOut3"/><feBlend in="SourceGraphic" in2="blurOut3" mode="normal"/></filter></defs><g><!--class EventManager--><rect fill="#FEFECE" filter="url(#f81ltc3fl82wv)" height="53.7047" id="EventManager" style="stroke: #A80036; stroke-width: 0.9000000357627869;" width="66" x="24.3" y="4.8"/><ellipse cx="33.3" cy="14.4" fill="#ADD1B2" rx="6.6" ry="6.6" style="stroke: #A80036; stroke-width: 0.6000000238418579;"/><path d="M34.5,12.3 Q34.6219,12 34.7625,11.85 Q34.9031,11.7 35.0625,11.7 Q35.3438,11.7 35.5219,11.8688 Q35.7,12.0375 35.7,12.4313 L35.7,13.3688 Q35.7,13.7625 35.5313,13.9313 Q35.3625,14.1 35.1,14.1 Q34.8656,14.1 34.7156,13.9969 Q34.5656,13.8938 34.5,13.6219 Q34.4719,13.4344 34.3688,13.3313 Q34.1813,13.1344 33.8438,13.0172 Q33.5063,12.9 33.1688,12.9 Q32.7469,12.9 32.3953,13.0688 Q32.0438,13.2375 31.7719,13.6125 Q31.5,13.9875 31.5,14.5031 L31.5,15.0563 Q31.5,15.675 32.0063,16.0875 Q32.5125,16.5 33.4125,16.5 Q33.9469,16.5 34.3219,16.3781 Q34.5375,16.3125 34.7813,16.0969 Q34.9406,15.975 35.025,15.9375 Q35.1094,15.9 35.2125,15.9 Q35.4094,15.9 35.5547,16.0547 Q35.7,16.2094 35.7,16.425 Q35.7,16.6313 35.4938,16.875 Q35.1938,17.2313 34.7156,17.4281 Q34.0875,17.7 33.3188,17.7 Q32.4188,17.7 31.6969,17.3438 Q31.1156,17.0625 30.7078,16.4531 Q30.3,15.8438 30.3,15.1219 L30.3,14.4656 Q30.3,13.7156 30.6609,13.0594 Q31.0219,12.4031 31.6547,12.0516 Q32.2875,11.7 33,11.7 Q33.4313,11.7 33.8063,11.85 Q34.1813,12 34.5,12.3 Z "/><text fill="#000000" font-family="sans-serif" font-size="7.2" lengthAdjust="spacingAndGlyphs" textLength="46.8" x="41.7" y="17.3461">EventManager</text><line style="stroke: #A80036; stroke-width: 0.9000000357627869;" x1="24.9" x2="89.7" y1="24" y2="24"/><text fill="#000000" font-family="sans-serif" font-size="6.6" lengthAdjust="spacingAndGlyphs" textLength="40.2" x="27.9" y="33.2514">-name : String</text><line style="stroke: #A80036; stroke-width: 0.9000000357627869;" x1="24.9" x2="89.7" y1="37.1016" y2="37.1016"/><text fill="#000000" font-family="sans-serif" font-size="6.6" lengthAdjust="spacingAndGlyphs" textLength="33.6" x="27.9" y="46.3529">+setName()</text><text fill="#000000" font-family="sans-serif" font-size="6.6" lengthAdjust="spacingAndGlyphs" textLength="33.6" x="27.9" y="54.6545">+getName()</text><!--class Event--><rect fill="#FEFECE" filter="url(#f81ltc3fl82wv)" height="62.0063" id="Event" style="stroke: #A80036; stroke-width: 0.9000000357627869;" width="107.4" x="3.6" y="94.8"/><ellipse cx="45.75" cy="104.4" fill="#ADD1B2" rx="6.6" ry="6.6" style="stroke: #A80036; stroke-width: 0.6000000238418579;"/><path d="M46.95,102.3 Q47.0719,102 47.2125,101.85 Q47.3531,101.7 47.5125,101.7 Q47.7938,101.7 47.9719,101.8688 Q48.15,102.0375 48.15,102.4313 L48.15,103.3688 Q48.15,103.7625 47.9813,103.9313 Q47.8125,104.1 47.55,104.1 Q47.3156,104.1 47.1656,103.9969 Q47.0156,103.8938 46.95,103.6219 Q46.9219,103.4344 46.8188,103.3313 Q46.6313,103.1344 46.2938,103.0172 Q45.9563,102.9 45.6188,102.9 Q45.1969,102.9 44.8453,103.0688 Q44.4938,103.2375 44.2219,103.6125 Q43.95,103.9875 43.95,104.5031 L43.95,105.0563 Q43.95,105.675 44.4563,106.0875 Q44.9625,106.5 45.8625,106.5 Q46.3969,106.5 46.7719,106.3781 Q46.9875,106.3125 47.2313,106.0969 Q47.3906,105.975 47.475,105.9375 Q47.5594,105.9 47.6625,105.9 Q47.8594,105.9 48.0047,106.0547 Q48.15,106.2094 48.15,106.425 Q48.15,106.6313 47.9438,106.875 Q47.6438,107.2313 47.1656,107.4281 Q46.5375,107.7 45.7688,107.7 Q44.8688,107.7 44.1469,107.3438 Q43.5656,107.0625 43.1578,106.4531 Q42.75,105.8438 42.75,105.1219 L42.75,104.4656 Q42.75,103.7156 43.1109,103.0594 Q43.4719,102.4031 44.1047,102.0516 Q44.7375,101.7 45.45,101.7 Q45.8813,101.7 46.2563,101.85 Q46.6313,102 46.95,102.3 Z "/><text fill="#000000" font-family="sans-serif" font-size="7.2" lengthAdjust="spacingAndGlyphs" textLength="18" x="58.05" y="107.3461">Event</text><line style="stroke: #A80036; stroke-width: 0.9000000357627869;" x1="4.2" x2="110.4" y1="114" y2="114"/><text fill="#000000" font-family="sans-serif" font-size="6.6" lengthAdjust="spacingAndGlyphs" textLength="95.4" x="7.2" y="123.2514">-event_manager : EventMAnager</text><line style="stroke: #A80036; stroke-width: 0.9000000357627869;" x1="4.2" x2="110.4" y1="127.1016" y2="127.1016"/><text fill="#000000" font-family="sans-serif" font-size="6.6" lengthAdjust="spacingAndGlyphs" textLength="100.2" x="7.2" y="136.3529">+setEventManager(EventManager)</text><text fill="#000000" font-family="sans-serif" font-size="6.6" lengthAdjust="spacingAndGlyphs" textLength="58.8" x="7.2" y="144.6545">+setEventManager()</text><text fill="#000000" font-family="sans-serif" font-size="6.6" lengthAdjust="spacingAndGlyphs" textLength="31.2" x="7.2" y="152.9561">+__clone()</text><!--link EventManager to Event--><path d="M57.3,62.1558 C57.3,72.5838 57.3,84.3024 57.3,94.776 " fill="none" id="EventManager-Event" style="stroke: #A80036; stroke-width: 0.6000000238418579;"/><polygon fill="#A80036" points="57.3,58.9638,54.9,64.3638,57.3,61.9638,59.7,64.3638,57.3,58.9638" style="stroke: #A80036; stroke-width: 0.6000000238418579;"/><!--
@startuml
skinparam classAttributeIconSize 0


class EventManager{
  {field} - name : String
  {method} + setName()
  {method} + getName()
}

class Event {
  {field} - event_manager : EventMAnager
  {method} + setEventManager(EventManager)
  {method} + setEventManager()
  {method} + __clone()
}


EventManager <- - Event

@enduml

PlantUML version 1.2018.11(Sat Sep 22 19:43:53 EET 2018)
(GPL source distribution)
Java Runtime: OpenJDK Runtime Environment
JVM: OpenJDK 64-Bit Server VM
Java Version: 1.8.0_152-release-1024-b11
Operating System: Windows 10
OS Version: 10.0
Default Encoding: Cp1254
Language: tr
Country: TR
--></g></svg>