<?xml version="1.0" encoding="UTF-8" standalone="no"?><svg xmlns="http://www.w3.org/2000/svg" xmlns:xlink="http://www.w3.org/1999/xlink" contentScriptType="application/ecmascript" contentStyleType="text/css" height="717px" preserveAspectRatio="none" style="width:663px;height:717px;" version="1.1" viewBox="0 0 663 717" width="663px" zoomAndPan="magnify"><defs><filter height="300%" id="fvb8x0jt2wu9i" width="300%" x="-1" y="-1"><feGaussianBlur result="blurOut" stdDeviation="2.0"/><feColorMatrix in="blurOut" result="blurOut2" type="matrix" values="0 0 0 0 0 0 0 0 0 0 0 0 0 0 0 0 0 0 .4 0"/><feOffset dx="4.0" dy="4.0" in="blurOut2" result="blurOut3"/><feBlend in="SourceGraphic" in2="blurOut3" mode="normal"/></filter></defs><g><!--class User--><rect fill="#FEFECE" filter="url(#fvb8x0jt2wu9i)" height="158.6875" id="User" style="stroke: #A80036; stroke-width: 1.5;" width="111" x="273.5" y="8"/><ellipse cx="311.9" cy="24" fill="#ADD1B2" rx="11" ry="11" style="stroke: #A80036; stroke-width: 1.0;"/><path d="M313.9,20.5 Q314.1031,20 314.3375,19.75 Q314.5719,19.5 314.8375,19.5 Q315.3063,19.5 315.6031,19.7813 Q315.9,20.0625 315.9,20.7188 L315.9,22.2813 Q315.9,22.9375 315.6188,23.2188 Q315.3375,23.5 314.9,23.5 Q314.5094,23.5 314.2594,23.3281 Q314.0094,23.1563 313.9,22.7031 Q313.8531,22.3906 313.6813,22.2188 Q313.3688,21.8906 312.8063,21.6953 Q312.2438,21.5 311.6813,21.5 Q310.9781,21.5 310.3922,21.7813 Q309.8063,22.0625 309.3531,22.6875 Q308.9,23.3125 308.9,24.1719 L308.9,25.0938 Q308.9,26.125 309.7438,26.8125 Q310.5875,27.5 312.0875,27.5 Q312.9781,27.5 313.6031,27.2969 Q313.9625,27.1875 314.3688,26.8281 Q314.6344,26.625 314.775,26.5625 Q314.9156,26.5 315.0875,26.5 Q315.4156,26.5 315.6578,26.7578 Q315.9,27.0156 315.9,27.375 Q315.9,27.7188 315.5563,28.125 Q315.0563,28.7188 314.2594,29.0469 Q313.2125,29.5 311.9313,29.5 Q310.4313,29.5 309.2281,28.9063 Q308.2594,28.4375 307.5797,27.4219 Q306.9,26.4063 306.9,25.2031 L306.9,24.1094 Q306.9,22.8594 307.5016,21.7656 Q308.1031,20.6719 309.1578,20.0859 Q310.2125,19.5 311.4,19.5 Q312.1188,19.5 312.7438,19.75 Q313.3688,20 313.9,20.5 Z "/><text fill="#000000" font-family="sans-serif" font-size="12" lengthAdjust="spacingAndGlyphs" textLength="27" x="331.1" y="28.9102">User</text><line style="stroke: #A80036; stroke-width: 1.5;" x1="274.5" x2="383.5" y1="40" y2="40"/><text fill="#000000" font-family="sans-serif" font-size="11" lengthAdjust="spacingAndGlyphs" textLength="82" x="279.5" y="55.4189">-user_id : Integer</text><text fill="#000000" font-family="sans-serif" font-size="11" lengthAdjust="spacingAndGlyphs" textLength="95" x="279.5" y="69.2549">-login_name : String</text><text fill="#000000" font-family="sans-serif" font-size="11" lengthAdjust="spacingAndGlyphs" textLength="91" x="279.5" y="83.0908">-password : String</text><text fill="#000000" font-family="sans-serif" font-size="11" lengthAdjust="spacingAndGlyphs" textLength="92" x="279.5" y="96.9268">-first_name : String</text><text fill="#000000" font-family="sans-serif" font-size="11" lengthAdjust="spacingAndGlyphs" textLength="90" x="279.5" y="110.7627">-last_name : String</text><text fill="#000000" font-family="sans-serif" font-size="11" lengthAdjust="spacingAndGlyphs" textLength="65" x="279.5" y="124.5986">-email : String</text><text fill="#000000" font-family="sans-serif" font-size="11" lengthAdjust="spacingAndGlyphs" textLength="99" x="279.5" y="138.4346">-login_status : String</text><line style="stroke: #A80036; stroke-width: 1.5;" x1="274.5" x2="383.5" y1="144.8516" y2="144.8516"/><text fill="#000000" font-family="sans-serif" font-size="11" lengthAdjust="spacingAndGlyphs" textLength="36" x="279.5" y="160.2705">+login()</text><!--class Student--><rect fill="#FEFECE" filter="url(#fvb8x0jt2wu9i)" height="214.0313" id="Student" style="stroke: #A80036; stroke-width: 1.5;" width="192" x="6" y="228"/><ellipse cx="76.75" cy="244" fill="#ADD1B2" rx="11" ry="11" style="stroke: #A80036; stroke-width: 1.0;"/><path d="M78.75,240.5 Q78.9531,240 79.1875,239.75 Q79.4219,239.5 79.6875,239.5 Q80.1563,239.5 80.4531,239.7813 Q80.75,240.0625 80.75,240.7188 L80.75,242.2813 Q80.75,242.9375 80.4688,243.2188 Q80.1875,243.5 79.75,243.5 Q79.3594,243.5 79.1094,243.3281 Q78.8594,243.1563 78.75,242.7031 Q78.7031,242.3906 78.5313,242.2188 Q78.2188,241.8906 77.6563,241.6953 Q77.0938,241.5 76.5313,241.5 Q75.8281,241.5 75.2422,241.7813 Q74.6563,242.0625 74.2031,242.6875 Q73.75,243.3125 73.75,244.1719 L73.75,245.0938 Q73.75,246.125 74.5938,246.8125 Q75.4375,247.5 76.9375,247.5 Q77.8281,247.5 78.4531,247.2969 Q78.8125,247.1875 79.2188,246.8281 Q79.4844,246.625 79.625,246.5625 Q79.7656,246.5 79.9375,246.5 Q80.2656,246.5 80.5078,246.7578 Q80.75,247.0156 80.75,247.375 Q80.75,247.7188 80.4063,248.125 Q79.9063,248.7188 79.1094,249.0469 Q78.0625,249.5 76.7813,249.5 Q75.2813,249.5 74.0781,248.9063 Q73.1094,248.4375 72.4297,247.4219 Q71.75,246.4063 71.75,245.2031 L71.75,244.1094 Q71.75,242.8594 72.3516,241.7656 Q72.9531,240.6719 74.0078,240.0859 Q75.0625,239.5 76.25,239.5 Q76.9688,239.5 77.5938,239.75 Q78.2188,240 78.75,240.5 Z "/><text fill="#000000" font-family="sans-serif" font-size="12" lengthAdjust="spacingAndGlyphs" textLength="42" x="97.25" y="248.9102">Student</text><line style="stroke: #A80036; stroke-width: 1.5;" x1="7" x2="197" y1="260" y2="260"/><text fill="#000000" font-family="sans-serif" font-size="11" lengthAdjust="spacingAndGlyphs" textLength="96" x="12" y="275.4189">-student_id : Integer</text><text fill="#000000" font-family="sans-serif" font-size="11" lengthAdjust="spacingAndGlyphs" textLength="95" x="12" y="289.2549">-department : String</text><text fill="#000000" font-family="sans-serif" font-size="11" lengthAdjust="spacingAndGlyphs" textLength="81" x="12" y="303.0908">-address : String</text><text fill="#000000" font-family="sans-serif" font-size="11" lengthAdjust="spacingAndGlyphs" textLength="113" x="12" y="316.9268">-phone_number : String</text><text fill="#000000" font-family="sans-serif" font-size="11" lengthAdjust="spacingAndGlyphs" textLength="110" x="12" y="330.7627">-about_student : String</text><line style="stroke: #A80036; stroke-width: 1.5;" x1="7" x2="197" y1="337.1797" y2="337.1797"/><text fill="#000000" font-family="sans-serif" font-size="11" lengthAdjust="spacingAndGlyphs" textLength="68" x="12" y="352.5986">+registration()</text><text fill="#000000" font-family="sans-serif" font-size="11" lengthAdjust="spacingAndGlyphs" textLength="95" x="12" y="366.4346">+reset_password()</text><text fill="#000000" font-family="sans-serif" font-size="11" lengthAdjust="spacingAndGlyphs" textLength="149" x="12" y="380.2705">+update_info(user_id : Integer)</text><text fill="#000000" font-family="sans-serif" font-size="11" lengthAdjust="spacingAndGlyphs" textLength="103" x="12" y="394.1064">+show_student_list()</text><text fill="#000000" font-family="sans-serif" font-size="11" lengthAdjust="spacingAndGlyphs" textLength="170" x="12" y="407.9424">+preview_event(event_id : Integer)</text><text fill="#000000" font-family="sans-serif" font-size="11" lengthAdjust="spacingAndGlyphs" textLength="164" x="12" y="421.7783">+search_event(event_id : Integer)</text><text fill="#000000" font-family="sans-serif" font-size="11" lengthAdjust="spacingAndGlyphs" textLength="180" x="12" y="435.6143">+event_interaction(event_id : Integer)</text><!--class Event_manager--><rect fill="#FEFECE" filter="url(#fvb8x0jt2wu9i)" height="158.6875" id="Event_manager" style="stroke: #A80036; stroke-width: 1.5;" width="192" x="233" y="255.5"/><ellipse cx="281.25" cy="271.5" fill="#ADD1B2" rx="11" ry="11" style="stroke: #A80036; stroke-width: 1.0;"/><path d="M283.25,268 Q283.4531,267.5 283.6875,267.25 Q283.9219,267 284.1875,267 Q284.6563,267 284.9531,267.2813 Q285.25,267.5625 285.25,268.2188 L285.25,269.7813 Q285.25,270.4375 284.9688,270.7188 Q284.6875,271 284.25,271 Q283.8594,271 283.6094,270.8281 Q283.3594,270.6563 283.25,270.2031 Q283.2031,269.8906 283.0313,269.7188 Q282.7188,269.3906 282.1563,269.1953 Q281.5938,269 281.0313,269 Q280.3281,269 279.7422,269.2813 Q279.1563,269.5625 278.7031,270.1875 Q278.25,270.8125 278.25,271.6719 L278.25,272.5938 Q278.25,273.625 279.0938,274.3125 Q279.9375,275 281.4375,275 Q282.3281,275 282.9531,274.7969 Q283.3125,274.6875 283.7188,274.3281 Q283.9844,274.125 284.125,274.0625 Q284.2656,274 284.4375,274 Q284.7656,274 285.0078,274.2578 Q285.25,274.5156 285.25,274.875 Q285.25,275.2188 284.9063,275.625 Q284.4063,276.2188 283.6094,276.5469 Q282.5625,277 281.2813,277 Q279.7813,277 278.5781,276.4063 Q277.6094,275.9375 276.9297,274.9219 Q276.25,273.9063 276.25,272.7031 L276.25,271.6094 Q276.25,270.3594 276.8516,269.2656 Q277.4531,268.1719 278.5078,267.5859 Q279.5625,267 280.75,267 Q281.4688,267 282.0938,267.25 Q282.7188,267.5 283.25,268 Z "/><text fill="#000000" font-family="sans-serif" font-size="12" lengthAdjust="spacingAndGlyphs" textLength="87" x="301.75" y="276.4102">Event_manager</text><line style="stroke: #A80036; stroke-width: 1.5;" x1="234" x2="424" y1="287.5" y2="287.5"/><text fill="#000000" font-family="sans-serif" font-size="11" lengthAdjust="spacingAndGlyphs" textLength="113" x="239" y="302.9189">-phone_number : String</text><line style="stroke: #A80036; stroke-width: 1.5;" x1="234" x2="424" y1="309.3359" y2="309.3359"/><text fill="#000000" font-family="sans-serif" font-size="11" lengthAdjust="spacingAndGlyphs" textLength="71" x="239" y="324.7549">+update_info()</text><text fill="#000000" font-family="sans-serif" font-size="11" lengthAdjust="spacingAndGlyphs" textLength="115" x="239" y="338.5908">+preview_student_list()</text><text fill="#000000" font-family="sans-serif" font-size="11" lengthAdjust="spacingAndGlyphs" textLength="73" x="239" y="352.4268">+issue_event()</text><text fill="#000000" font-family="sans-serif" font-size="11" lengthAdjust="spacingAndGlyphs" textLength="163" x="239" y="366.2627">+update_event(event_id : Integer)</text><text fill="#000000" font-family="sans-serif" font-size="11" lengthAdjust="spacingAndGlyphs" textLength="170" x="239" y="380.0986">+preview_event(event_id : Integer)</text><text fill="#000000" font-family="sans-serif" font-size="11" lengthAdjust="spacingAndGlyphs" textLength="164" x="239" y="393.9346">+search_event(event_id : Integer)</text><text fill="#000000" font-family="sans-serif" font-size="11" lengthAdjust="spacingAndGlyphs" textLength="180" x="239" y="407.7705">+event_interaction(event_id : Integer)</text><!--class Admin--><rect fill="#FEFECE" filter="url(#fvb8x0jt2wu9i)" height="117.1797" id="Admin" style="stroke: #A80036; stroke-width: 1.5;" width="192" x="460" y="276.5"/><ellipse cx="534.25" cy="292.5" fill="#ADD1B2" rx="11" ry="11" style="stroke: #A80036; stroke-width: 1.0;"/><path d="M536.25,289 Q536.4531,288.5 536.6875,288.25 Q536.9219,288 537.1875,288 Q537.6563,288 537.9531,288.2813 Q538.25,288.5625 538.25,289.2188 L538.25,290.7813 Q538.25,291.4375 537.9688,291.7188 Q537.6875,292 537.25,292 Q536.8594,292 536.6094,291.8281 Q536.3594,291.6563 536.25,291.2031 Q536.2031,290.8906 536.0313,290.7188 Q535.7188,290.3906 535.1563,290.1953 Q534.5938,290 534.0313,290 Q533.3281,290 532.7422,290.2813 Q532.1563,290.5625 531.7031,291.1875 Q531.25,291.8125 531.25,292.6719 L531.25,293.5938 Q531.25,294.625 532.0938,295.3125 Q532.9375,296 534.4375,296 Q535.3281,296 535.9531,295.7969 Q536.3125,295.6875 536.7188,295.3281 Q536.9844,295.125 537.125,295.0625 Q537.2656,295 537.4375,295 Q537.7656,295 538.0078,295.2578 Q538.25,295.5156 538.25,295.875 Q538.25,296.2188 537.9063,296.625 Q537.4063,297.2188 536.6094,297.5469 Q535.5625,298 534.2813,298 Q532.7813,298 531.5781,297.4063 Q530.6094,296.9375 529.9297,295.9219 Q529.25,294.9063 529.25,293.7031 L529.25,292.6094 Q529.25,291.3594 529.8516,290.2656 Q530.4531,289.1719 531.5078,288.5859 Q532.5625,288 533.75,288 Q534.4688,288 535.0938,288.25 Q535.7188,288.5 536.25,289 Z "/><text fill="#000000" font-family="sans-serif" font-size="12" lengthAdjust="spacingAndGlyphs" textLength="35" x="554.75" y="297.4102">Admin</text><line style="stroke: #A80036; stroke-width: 1.5;" x1="461" x2="651" y1="308.5" y2="308.5"/><line style="stroke: #A80036; stroke-width: 1.5;" x1="461" x2="651" y1="316.5" y2="316.5"/><text fill="#000000" font-family="sans-serif" font-size="11" lengthAdjust="spacingAndGlyphs" textLength="70" x="466" y="331.9189">+verify_user()</text><text fill="#000000" font-family="sans-serif" font-size="11" lengthAdjust="spacingAndGlyphs" textLength="71" x="466" y="345.7549">+update_info()</text><text fill="#000000" font-family="sans-serif" font-size="11" lengthAdjust="spacingAndGlyphs" textLength="170" x="466" y="359.5908">+preview_event(event_id : Integer)</text><text fill="#000000" font-family="sans-serif" font-size="11" lengthAdjust="spacingAndGlyphs" textLength="164" x="466" y="373.4268">+search_event(event_id : Integer)</text><text fill="#000000" font-family="sans-serif" font-size="11" lengthAdjust="spacingAndGlyphs" textLength="180" x="466" y="387.2627">+event_interaction(event_id : Integer)</text><!--class Event--><rect fill="#FEFECE" filter="url(#fvb8x0jt2wu9i)" height="186.3594" id="Event" style="stroke: #A80036; stroke-width: 1.5;" width="99" x="279.5" y="520"/><ellipse cx="311.15" cy="536" fill="#ADD1B2" rx="11" ry="11" style="stroke: #A80036; stroke-width: 1.0;"/><path d="M313.15,532.5 Q313.3531,532 313.5875,531.75 Q313.8219,531.5 314.0875,531.5 Q314.5563,531.5 314.8531,531.7813 Q315.15,532.0625 315.15,532.7188 L315.15,534.2813 Q315.15,534.9375 314.8688,535.2188 Q314.5875,535.5 314.15,535.5 Q313.7594,535.5 313.5094,535.3281 Q313.2594,535.1563 313.15,534.7031 Q313.1031,534.3906 312.9313,534.2188 Q312.6188,533.8906 312.0563,533.6953 Q311.4938,533.5 310.9313,533.5 Q310.2281,533.5 309.6422,533.7813 Q309.0563,534.0625 308.6031,534.6875 Q308.15,535.3125 308.15,536.1719 L308.15,537.0938 Q308.15,538.125 308.9938,538.8125 Q309.8375,539.5 311.3375,539.5 Q312.2281,539.5 312.8531,539.2969 Q313.2125,539.1875 313.6188,538.8281 Q313.8844,538.625 314.025,538.5625 Q314.1656,538.5 314.3375,538.5 Q314.6656,538.5 314.9078,538.7578 Q315.15,539.0156 315.15,539.375 Q315.15,539.7188 314.8063,540.125 Q314.3063,540.7188 313.5094,541.0469 Q312.4625,541.5 311.1813,541.5 Q309.6813,541.5 308.4781,540.9063 Q307.5094,540.4375 306.8297,539.4219 Q306.15,538.4063 306.15,537.2031 L306.15,536.1094 Q306.15,534.8594 306.7516,533.7656 Q307.3531,532.6719 308.4078,532.0859 Q309.4625,531.5 310.65,531.5 Q311.3688,531.5 311.9938,531.75 Q312.6188,532 313.15,532.5 Z "/><text fill="#000000" font-family="sans-serif" font-size="12" lengthAdjust="spacingAndGlyphs" textLength="30" x="328.85" y="540.9102">Event</text><line style="stroke: #A80036; stroke-width: 1.5;" x1="280.5" x2="377.5" y1="552" y2="552"/><text fill="#000000" font-family="sans-serif" font-size="11" lengthAdjust="spacingAndGlyphs" textLength="87" x="285.5" y="567.4189">-event_id : Integer</text><text fill="#000000" font-family="sans-serif" font-size="11" lengthAdjust="spacingAndGlyphs" textLength="56" x="285.5" y="581.2549">-date : Date</text><text fill="#000000" font-family="sans-serif" font-size="11" lengthAdjust="spacingAndGlyphs" textLength="78" x="285.5" y="595.0908">-location : String</text><text fill="#000000" font-family="sans-serif" font-size="11" lengthAdjust="spacingAndGlyphs" textLength="70" x="285.5" y="608.9268">-theme : String</text><text fill="#000000" font-family="sans-serif" font-size="11" lengthAdjust="spacingAndGlyphs" textLength="62" x="285.5" y="622.7627">-fee : Integer</text><text fill="#000000" font-family="sans-serif" font-size="11" lengthAdjust="spacingAndGlyphs" textLength="86" x="285.5" y="636.5986">-participants : List</text><line style="stroke: #A80036; stroke-width: 1.5;" x1="280.5" x2="377.5" y1="643.0156" y2="643.0156"/><text fill="#000000" font-family="sans-serif" font-size="11" lengthAdjust="spacingAndGlyphs" textLength="69" x="285.5" y="658.4346">+showEvent()</text><text fill="#000000" font-family="sans-serif" font-size="11" lengthAdjust="spacingAndGlyphs" textLength="66" x="285.5" y="672.2705">+storeEvent()</text><text fill="#000000" font-family="sans-serif" font-size="11" lengthAdjust="spacingAndGlyphs" textLength="74" x="285.5" y="686.1064">+updateEvent()</text><text fill="#000000" font-family="sans-serif" font-size="11" lengthAdjust="spacingAndGlyphs" textLength="71" x="285.5" y="699.9424">+DeleteEvent()</text><!--link User to Student--><path d="M259.721,163.425 C240.286,184.444 218.8,207.681 198.105,230.062 " fill="none" id="User-Student" style="stroke: #A80036; stroke-width: 1.0;"/><polygon fill="none" points="254.752,158.488,273.47,148.556,265.031,167.993,254.752,158.488" style="stroke: #A80036; stroke-width: 1.0;"/><!--link User to Admin--><path d="M398.472,163.634 C431.967,199.858 471.515,242.63 502.606,276.255 " fill="none" id="User-Admin" style="stroke: #A80036; stroke-width: 1.0;"/><polygon fill="none" points="392.969,167.993,384.53,148.556,403.248,158.488,392.969,167.993" style="stroke: #A80036; stroke-width: 1.0;"/><!--link User to Event_manager--><path d="M329,187.509 C329,210.074 329,233.752 329,255.334 " fill="none" id="User-Event_manager" style="stroke: #A80036; stroke-width: 1.0;"/><polygon fill="none" points="322,187.191,329,167.191,336,187.191,322,187.191" style="stroke: #A80036; stroke-width: 1.0;"/><!--link Event_manager to Event--><path d="M329,428.002 C329,457.44 329,490.032 329,519.505 " fill="none" id="Event_manager-Event" style="stroke: #A80036; stroke-width: 1.0;"/><polygon fill="#A80036" points="329,414.721,325,420.721,329,426.721,333,420.721,329,414.721" style="stroke: #A80036; stroke-width: 1.0;"/><text fill="#000000" font-family="sans-serif" font-size="13" lengthAdjust="spacingAndGlyphs" textLength="38" x="330" y="486.4951">Issues</text><polygon fill="#000000" points="344.5,495.3516,347.5,501.3516,350.5,495.3516,344.5,495.3516" style="stroke: #000000; stroke-width: 1.0;"/><text fill="#000000" font-family="sans-serif" font-size="13" lengthAdjust="spacingAndGlyphs" textLength="7" x="321.6992" y="435.7832">1</text><text fill="#000000" font-family="sans-serif" font-size="13" lengthAdjust="spacingAndGlyphs" textLength="20" x="308.2344" y="509.2291">0..*</text><!--link Student to Event--><path d="M189.439,442.314 C218.605,477.775 250.197,516.186 275.935,547.481 " fill="none" id="Student-Event" style="stroke: #A80036; stroke-width: 1.0; stroke-dasharray: 7.0,7.0;"/><polygon fill="#A80036" points="279.366,551.652,276.7386,542.1601,276.19,547.7902,270.5598,547.2416,279.366,551.652" style="stroke: #A80036; stroke-width: 1.0;"/><text fill="#000000" font-family="sans-serif" font-size="13" lengthAdjust="spacingAndGlyphs" textLength="45" x="224" y="486.4951">«friend»</text><!--link Admin to Event--><path d="M508.69,393.523 C471.659,438.546 420.181,501.137 381.811,547.79 " fill="none" id="Admin-Event" style="stroke: #A80036; stroke-width: 1.0; stroke-dasharray: 7.0,7.0;"/><polygon fill="#A80036" points="378.606,551.686,387.4131,547.2776,381.7828,547.8249,381.2355,542.1946,378.606,551.686" style="stroke: #A80036; stroke-width: 1.0;"/><text fill="#000000" font-family="sans-serif" font-size="13" lengthAdjust="spacingAndGlyphs" textLength="45" x="443" y="486.4951">«friend»</text><!--
@startuml

skinparam classAttributeIconSize 0
class User {
  {field} - user_id : Integer
  {field} - login_name : String
  {field} - password : String
  {field} - first_name : String
  {field} - last_name : String
  {field} - email : String
  {field} - login_status : String
  {method} + login()
}

class Student {
  {field} - student_id : Integer
  {field} - department : String
  {field} - address : String
  {field} - phone_number : String
  {field} - about_student : String
  {method} + registration()
  {method} + reset_password()
  {method} + update_info(user_id : Integer)
  {method} + show_student_list()
  {method} + preview_event(event_id : Integer)
  {method} + search_event(event_id : Integer)
  {method} + event_interaction(event_id : Integer)
}

class Event_manager {
  {field} - phone_number : String
  {method} + update_info()
  {method} + preview_student_list()
  {method} + issue_event()
  {method} + update_event(event_id : Integer)
  {method} + preview_event(event_id : Integer)
  {method} + search_event(event_id : Integer)
  {method} + event_interaction(event_id : Integer)
}

class Admin {
  {method} + verify_user()
  {method} + update_info()
  {method} + preview_event(event_id : Integer)
  {method} + search_event(event_id : Integer)
  {method} + event_interaction(event_id : Integer)
}

class Event {
  {field} - event_id : Integer
  {field} - date : Date
  {field} - location : String
  {field} - theme : String
  {field} - fee : Integer
  {field} - participants : List
  {method} + showEvent()
  {method} + storeEvent()
  {method} + updateEvent()
  {method} + DeleteEvent()
}

User <|- - Student
User <|- - Admin
User <|- - Event_manager

Event_manager "1" *- - "0..*" Event : Issues >
Student  ..>  Event : <<friend>>
Admin  ..>  Event : <<friend>>


@enduml

PlantUML version 1.2018.11(Sat Sep 22 19:43:53 EET 2018)
(GPL source distribution)
Java Runtime: OpenJDK Runtime Environment
JVM: OpenJDK 64-Bit Server VM
Java Version: 1.8.0_152-release-1024-b11
Operating System: Windows 10
OS Version: 10.0
Default Encoding: Cp1254
Language: tr
Country: TR
--></g></svg>