<?xml version="1.0" encoding="UTF-8" standalone="no"?><svg xmlns="http://www.w3.org/2000/svg" xmlns:xlink="http://www.w3.org/1999/xlink" contentScriptType="application/ecmascript" contentStyleType="text/css" height="382px" preserveAspectRatio="none" style="width:335px;height:382px;" version="1.1" viewBox="0 0 335 382" width="335px" zoomAndPan="magnify"><defs><filter height="300%" id="f1l2zqft1xrpok" width="300%" x="-1" y="-1"><feGaussianBlur result="blurOut" stdDeviation="2.0"/><feColorMatrix in="blurOut" result="blurOut2" type="matrix" values="0 0 0 0 0 0 0 0 0 0 0 0 0 0 0 0 0 0 .4 0"/><feOffset dx="4.0" dy="4.0" in="blurOut2" result="blurOut3"/><feBlend in="SourceGraphic" in2="blurOut3" mode="normal"/></filter></defs><g><!--class Ticket--><rect fill="#FEFECE" filter="url(#f1l2zqft1xrpok)" height="144.8516" id="Ticket" style="stroke: #A80036; stroke-width: 1.5;" width="171" x="6" y="8"/><ellipse cx="71.25" cy="24" fill="#ADD1B2" rx="11" ry="11" style="stroke: #A80036; stroke-width: 1.0;"/><path d="M73.25,20.5 Q73.4531,20 73.6875,19.75 Q73.9219,19.5 74.1875,19.5 Q74.6563,19.5 74.9531,19.7813 Q75.25,20.0625 75.25,20.7188 L75.25,22.2813 Q75.25,22.9375 74.9688,23.2188 Q74.6875,23.5 74.25,23.5 Q73.8594,23.5 73.6094,23.3281 Q73.3594,23.1563 73.25,22.7031 Q73.2031,22.3906 73.0313,22.2188 Q72.7188,21.8906 72.1563,21.6953 Q71.5938,21.5 71.0313,21.5 Q70.3281,21.5 69.7422,21.7813 Q69.1563,22.0625 68.7031,22.6875 Q68.25,23.3125 68.25,24.1719 L68.25,25.0938 Q68.25,26.125 69.0938,26.8125 Q69.9375,27.5 71.4375,27.5 Q72.3281,27.5 72.9531,27.2969 Q73.3125,27.1875 73.7188,26.8281 Q73.9844,26.625 74.125,26.5625 Q74.2656,26.5 74.4375,26.5 Q74.7656,26.5 75.0078,26.7578 Q75.25,27.0156 75.25,27.375 Q75.25,27.7188 74.9063,28.125 Q74.4063,28.7188 73.6094,29.0469 Q72.5625,29.5 71.2813,29.5 Q69.7813,29.5 68.5781,28.9063 Q67.6094,28.4375 66.9297,27.4219 Q66.25,26.4063 66.25,25.2031 L66.25,24.1094 Q66.25,22.8594 66.8516,21.7656 Q67.4531,20.6719 68.5078,20.0859 Q69.5625,19.5 70.75,19.5 Q71.4688,19.5 72.0938,19.75 Q72.7188,20 73.25,20.5 Z "/><text fill="#000000" font-family="sans-serif" font-size="12" lengthAdjust="spacingAndGlyphs" textLength="32" x="91.75" y="28.9102">Ticket</text><line style="stroke: #A80036; stroke-width: 1.5;" x1="7" x2="176" y1="40" y2="40"/><text fill="#000000" font-family="sans-serif" font-size="11" lengthAdjust="spacingAndGlyphs" textLength="64" x="12" y="55.4189">-currentState</text><line style="stroke: #A80036; stroke-width: 1.5;" x1="7" x2="176" y1="61.8359" y2="61.8359"/><text fill="#000000" font-family="sans-serif" font-size="11" lengthAdjust="spacingAndGlyphs" textLength="38" x="12" y="77.2549">+open()</text><text fill="#000000" font-family="sans-serif" font-size="11" lengthAdjust="spacingAndGlyphs" textLength="46" x="12" y="91.0908">+assign()</text><text fill="#000000" font-family="sans-serif" font-size="11" lengthAdjust="spacingAndGlyphs" textLength="40" x="12" y="104.9268">+close()</text><text fill="#000000" font-family="sans-serif" font-size="11" lengthAdjust="spacingAndGlyphs" textLength="93" x="12" y="118.7627">+saveToMemento()</text><text fill="#000000" font-family="sans-serif" font-size="11" lengthAdjust="spacingAndGlyphs" textLength="159" x="12" y="132.5986">+restoreFromMemento(memento)</text><text fill="#000000" font-family="sans-serif" font-size="11" lengthAdjust="spacingAndGlyphs" textLength="54" x="12" y="146.4346">+getState()</text><!--class Memento--><rect fill="#FEFECE" filter="url(#f1l2zqft1xrpok)" height="75.6719" id="Memento" style="stroke: #A80036; stroke-width: 1.5;" width="83" x="212" y="42.5"/><ellipse cx="227" cy="58.5" fill="#ADD1B2" rx="11" ry="11" style="stroke: #A80036; stroke-width: 1.0;"/><path d="M229,55 Q229.2031,54.5 229.4375,54.25 Q229.6719,54 229.9375,54 Q230.4063,54 230.7031,54.2813 Q231,54.5625 231,55.2188 L231,56.7813 Q231,57.4375 230.7188,57.7188 Q230.4375,58 230,58 Q229.6094,58 229.3594,57.8281 Q229.1094,57.6563 229,57.2031 Q228.9531,56.8906 228.7813,56.7188 Q228.4688,56.3906 227.9063,56.1953 Q227.3438,56 226.7813,56 Q226.0781,56 225.4922,56.2813 Q224.9063,56.5625 224.4531,57.1875 Q224,57.8125 224,58.6719 L224,59.5938 Q224,60.625 224.8438,61.3125 Q225.6875,62 227.1875,62 Q228.0781,62 228.7031,61.7969 Q229.0625,61.6875 229.4688,61.3281 Q229.7344,61.125 229.875,61.0625 Q230.0156,61 230.1875,61 Q230.5156,61 230.7578,61.2578 Q231,61.5156 231,61.875 Q231,62.2188 230.6563,62.625 Q230.1563,63.2188 229.3594,63.5469 Q228.3125,64 227.0313,64 Q225.5313,64 224.3281,63.4063 Q223.3594,62.9375 222.6797,61.9219 Q222,60.9063 222,59.7031 L222,58.6094 Q222,57.3594 222.6016,56.2656 Q223.2031,55.1719 224.2578,54.5859 Q225.3125,54 226.5,54 Q227.2188,54 227.8438,54.25 Q228.4688,54.5 229,55 Z "/><text fill="#000000" font-family="sans-serif" font-size="12" lengthAdjust="spacingAndGlyphs" textLength="51" x="241" y="63.4102">Memento</text><line style="stroke: #A80036; stroke-width: 1.5;" x1="213" x2="294" y1="74.5" y2="74.5"/><text fill="#000000" font-family="sans-serif" font-size="11" lengthAdjust="spacingAndGlyphs" textLength="32" x="218" y="89.9189">-state)</text><line style="stroke: #A80036; stroke-width: 1.5;" x1="213" x2="294" y1="96.3359" y2="96.3359"/><text fill="#000000" font-family="sans-serif" font-size="11" lengthAdjust="spacingAndGlyphs" textLength="54" x="218" y="111.7549">+getState()</text><!--class State--><rect fill="#FEFECE" filter="url(#f1l2zqft1xrpok)" height="158.6875" id="State" style="stroke: #A80036; stroke-width: 1.5;" width="141" x="183" y="213"/><ellipse cx="235.25" cy="229" fill="#ADD1B2" rx="11" ry="11" style="stroke: #A80036; stroke-width: 1.0;"/><path d="M237.25,225.5 Q237.4531,225 237.6875,224.75 Q237.9219,224.5 238.1875,224.5 Q238.6563,224.5 238.9531,224.7813 Q239.25,225.0625 239.25,225.7188 L239.25,227.2813 Q239.25,227.9375 238.9688,228.2188 Q238.6875,228.5 238.25,228.5 Q237.8594,228.5 237.6094,228.3281 Q237.3594,228.1563 237.25,227.7031 Q237.2031,227.3906 237.0313,227.2188 Q236.7188,226.8906 236.1563,226.6953 Q235.5938,226.5 235.0313,226.5 Q234.3281,226.5 233.7422,226.7813 Q233.1563,227.0625 232.7031,227.6875 Q232.25,228.3125 232.25,229.1719 L232.25,230.0938 Q232.25,231.125 233.0938,231.8125 Q233.9375,232.5 235.4375,232.5 Q236.3281,232.5 236.9531,232.2969 Q237.3125,232.1875 237.7188,231.8281 Q237.9844,231.625 238.125,231.5625 Q238.2656,231.5 238.4375,231.5 Q238.7656,231.5 239.0078,231.7578 Q239.25,232.0156 239.25,232.375 Q239.25,232.7188 238.9063,233.125 Q238.4063,233.7188 237.6094,234.0469 Q236.5625,234.5 235.2813,234.5 Q233.7813,234.5 232.5781,233.9063 Q231.6094,233.4375 230.9297,232.4219 Q230.25,231.4063 230.25,230.2031 L230.25,229.1094 Q230.25,227.8594 230.8516,226.7656 Q231.4531,225.6719 232.5078,225.0859 Q233.5625,224.5 234.75,224.5 Q235.4688,224.5 236.0938,224.75 Q236.7188,225 237.25,225.5 Z "/><text fill="#000000" font-family="sans-serif" font-size="12" lengthAdjust="spacingAndGlyphs" textLength="28" x="255.75" y="233.9102">State</text><line style="stroke: #A80036; stroke-width: 1.5;" x1="184" x2="323" y1="245" y2="245"/><text fill="#000000" font-family="sans-serif" font-size="11" lengthAdjust="spacingAndGlyphs" textLength="57" x="189" y="260.4189">-validStates</text><text fill="#000000" font-family="sans-serif" font-size="11" lengthAdjust="spacingAndGlyphs" textLength="28" x="189" y="274.2549">-state</text><text fill="#000000" font-family="sans-serif" font-size="11" lengthAdjust="spacingAndGlyphs" textLength="90" x="189" y="288.0908">-STATE_CREATED</text><text fill="#000000" font-family="sans-serif" font-size="11" lengthAdjust="spacingAndGlyphs" textLength="83" x="189" y="301.9268">-STATE_OPENED</text><text fill="#000000" font-family="sans-serif" font-size="11" lengthAdjust="spacingAndGlyphs" textLength="95" x="189" y="315.7627">-STATE_ASSIGNED</text><text fill="#000000" font-family="sans-serif" font-size="11" lengthAdjust="spacingAndGlyphs" textLength="84" x="189" y="329.5986">-STATE_CLOSED</text><line style="stroke: #A80036; stroke-width: 1.5;" x1="184" x2="323" y1="336.0156" y2="336.0156"/><text fill="#000000" font-family="sans-serif" font-size="11" lengthAdjust="spacingAndGlyphs" text-decoration="underline" textLength="129" x="189" y="351.4346">+ensurelsValidState(state)</text><line style="stroke: #000000; stroke-width: 1.0;" x1="189" x2="318" y1="353.4346" y2="353.4346"/><text fill="#000000" font-family="sans-serif" font-size="11" lengthAdjust="spacingAndGlyphs" textLength="63" x="189" y="365.2705">+__toString()</text><!--link Ticket to Memento--><path d="M177.246,80.5 C187.054,80.5 196.862,80.5 206.67,80.5 " fill="none" id="Ticket-Memento" style="stroke: #A80036; stroke-width: 1.0;"/><polygon fill="#A80036" points="211.799,80.5,202.799,76.5,206.799,80.5,202.799,84.5,211.799,80.5" style="stroke: #A80036; stroke-width: 1.0;"/><!--link Memento to State--><path d="M253.5,123.87 C253.5,149.319 253.5,182.504 253.5,212.626 " fill="none" id="Memento-State" style="stroke: #A80036; stroke-width: 1.0;"/><polygon fill="#A80036" points="253.5,118.56,249.5,127.56,253.5,123.56,257.5,127.56,253.5,118.56" style="stroke: #A80036; stroke-width: 1.0;"/><!--
@startuml
skinparam classAttributeIconSize 0

class Ticket {
  {field} - currentState
  {method} + open()
  {method} + assign()
  {method} + close()
  {method} + saveToMemento()
  {method} + restoreFromMemento(memento)
  {method} + getState()
}

class Memento {
  {field} - state)
  {method} + getState()
}

class State {
  {field} - validStates
  {field} - state
  {field} - STATE_CREATED
  {field} - STATE_OPENED
  {field} - STATE_ASSIGNED
  {field} - STATE_CLOSED
  {static} + ensurelsValidState(state)
  {method} + __toString()
}


Ticket -> Memento
Memento <- - State
@enduml

PlantUML version 1.2018.11(Sat Sep 22 19:43:53 EET 2018)
(GPL source distribution)
Java Runtime: OpenJDK Runtime Environment
JVM: OpenJDK 64-Bit Server VM
Java Version: 1.8.0_152-release-1024-b11
Operating System: Windows 10
OS Version: 10.0
Default Encoding: Cp1254
Language: tr
Country: TR
--></g></svg>