<?xml version="1.0" encoding="UTF-8" standalone="no"?><svg xmlns="http://www.w3.org/2000/svg" xmlns:xlink="http://www.w3.org/1999/xlink" contentScriptType="application/ecmascript" contentStyleType="text/css" height="611px" preserveAspectRatio="none" style="width:602px;height:611px;" version="1.1" viewBox="0 0 602 611" width="602px" zoomAndPan="magnify"><defs><filter height="300%" id="f6i0o67libx2o" width="300%" x="-1" y="-1"><feGaussianBlur result="blurOut" stdDeviation="2.0"/><feColorMatrix in="blurOut" result="blurOut2" type="matrix" values="0 0 0 0 0 0 0 0 0 0 0 0 0 0 0 0 0 0 .4 0"/><feOffset dx="4.0" dy="4.0" in="blurOut2" result="blurOut3"/><feBlend in="SourceGraphic" in2="blurOut3" mode="normal"/></filter></defs><g><!--class FactoryProducer--><rect fill="#FEFECE" filter="url(#f6i0o67libx2o)" height="61.8359" id="FactoryProducer" style="stroke: #A80036; stroke-width: 1.5;" width="121" x="436.5" y="8"/><ellipse cx="451.5" cy="24" fill="#ADD1B2" rx="11" ry="11" style="stroke: #A80036; stroke-width: 1.0;"/><path d="M453.5,20.5 Q453.7031,20 453.9375,19.75 Q454.1719,19.5 454.4375,19.5 Q454.9063,19.5 455.2031,19.7813 Q455.5,20.0625 455.5,20.7188 L455.5,22.2813 Q455.5,22.9375 455.2188,23.2188 Q454.9375,23.5 454.5,23.5 Q454.1094,23.5 453.8594,23.3281 Q453.6094,23.1563 453.5,22.7031 Q453.4531,22.3906 453.2813,22.2188 Q452.9688,21.8906 452.4063,21.6953 Q451.8438,21.5 451.2813,21.5 Q450.5781,21.5 449.9922,21.7813 Q449.4063,22.0625 448.9531,22.6875 Q448.5,23.3125 448.5,24.1719 L448.5,25.0938 Q448.5,26.125 449.3438,26.8125 Q450.1875,27.5 451.6875,27.5 Q452.5781,27.5 453.2031,27.2969 Q453.5625,27.1875 453.9688,26.8281 Q454.2344,26.625 454.375,26.5625 Q454.5156,26.5 454.6875,26.5 Q455.0156,26.5 455.2578,26.7578 Q455.5,27.0156 455.5,27.375 Q455.5,27.7188 455.1563,28.125 Q454.6563,28.7188 453.8594,29.0469 Q452.8125,29.5 451.5313,29.5 Q450.0313,29.5 448.8281,28.9063 Q447.8594,28.4375 447.1797,27.4219 Q446.5,26.4063 446.5,25.2031 L446.5,24.1094 Q446.5,22.8594 447.1016,21.7656 Q447.7031,20.6719 448.7578,20.0859 Q449.8125,19.5 451,19.5 Q451.7188,19.5 452.3438,19.75 Q452.9688,20 453.5,20.5 Z "/><text fill="#000000" font-family="sans-serif" font-size="12" lengthAdjust="spacingAndGlyphs" textLength="89" x="465.5" y="28.9102">FactoryProducer</text><line style="stroke: #A80036; stroke-width: 1.5;" x1="437.5" x2="556.5" y1="40" y2="40"/><line style="stroke: #A80036; stroke-width: 1.5;" x1="437.5" x2="556.5" y1="48" y2="48"/><text fill="#000000" font-family="sans-serif" font-size="11" lengthAdjust="spacingAndGlyphs" textLength="66" x="442.5" y="63.4189">+getFactory()</text><!--class AbstractEventFactory--><rect fill="#FEFECE" filter="url(#f6i0o67libx2o)" height="61.8359" id="AbstractEventFactory" style="stroke: #A80036; stroke-width: 1.5;" width="148" x="224" y="8"/><ellipse cx="239" cy="24" fill="#A9DCDF" rx="11" ry="11" style="stroke: #A80036; stroke-width: 1.0;"/><path d="M240.75,25.5 L237.4531,25.5 L237.0156,26.5 L237.0156,26.5 L237.4844,26.5 L238,27.125 L238,27.5 L238,27.875 L237.4844,28.5 L237.0156,28.5 L235.125,28.5 L234.5156,28.5 L234,27.875 L234,27.5 L234,27.125 L234.5156,26.5 L235.125,26.5 L237.4375,20.5 L236.5625,20.5 L235.5156,20.5 L235,19.875 L235,19.5 L235,19.125 L235.5156,18.5 L236.5625,18.5 L240.2344,18.5 L242.9219,26.5 L243.4844,26.5 L243.4844,26.5 L244,27.125 L244,27.5 L244,27.875 L243.4844,28.5 L242.9219,28.5 L241.0313,28.5 L240.5156,28.5 L240,27.875 L240,27.5 L240,27.125 L240.5156,26.5 L241.0313,26.5 L241.0313,26.5 L240.75,25.5 Z M240.2031,23.5 L239,19.9219 L237.9688,23.5 L240.2031,23.5 Z "/><text fill="#000000" font-family="sans-serif" font-size="12" font-style="italic" lengthAdjust="spacingAndGlyphs" textLength="116" x="253" y="28.9102">AbstractEventFactory</text><line style="stroke: #A80036; stroke-width: 1.5;" x1="225" x2="371" y1="40" y2="40"/><line style="stroke: #A80036; stroke-width: 1.5;" x1="225" x2="371" y1="48" y2="48"/><text fill="#000000" font-family="sans-serif" font-size="11" lengthAdjust="spacingAndGlyphs" textLength="66" x="230" y="63.4189">+makeEvent()</text><!--class GraduatedFactory--><rect fill="#FEFECE" filter="url(#f6i0o67libx2o)" height="61.8359" id="GraduatedFactory" style="stroke: #A80036; stroke-width: 1.5;" width="129" x="155.5" y="148"/><ellipse cx="170.5" cy="164" fill="#ADD1B2" rx="11" ry="11" style="stroke: #A80036; stroke-width: 1.0;"/><path d="M172.5,160.5 Q172.7031,160 172.9375,159.75 Q173.1719,159.5 173.4375,159.5 Q173.9063,159.5 174.2031,159.7813 Q174.5,160.0625 174.5,160.7188 L174.5,162.2813 Q174.5,162.9375 174.2188,163.2188 Q173.9375,163.5 173.5,163.5 Q173.1094,163.5 172.8594,163.3281 Q172.6094,163.1563 172.5,162.7031 Q172.4531,162.3906 172.2813,162.2188 Q171.9688,161.8906 171.4063,161.6953 Q170.8438,161.5 170.2813,161.5 Q169.5781,161.5 168.9922,161.7813 Q168.4063,162.0625 167.9531,162.6875 Q167.5,163.3125 167.5,164.1719 L167.5,165.0938 Q167.5,166.125 168.3438,166.8125 Q169.1875,167.5 170.6875,167.5 Q171.5781,167.5 172.2031,167.2969 Q172.5625,167.1875 172.9688,166.8281 Q173.2344,166.625 173.375,166.5625 Q173.5156,166.5 173.6875,166.5 Q174.0156,166.5 174.2578,166.7578 Q174.5,167.0156 174.5,167.375 Q174.5,167.7188 174.1563,168.125 Q173.6563,168.7188 172.8594,169.0469 Q171.8125,169.5 170.5313,169.5 Q169.0313,169.5 167.8281,168.9063 Q166.8594,168.4375 166.1797,167.4219 Q165.5,166.4063 165.5,165.2031 L165.5,164.1094 Q165.5,162.8594 166.1016,161.7656 Q166.7031,160.6719 167.7578,160.0859 Q168.8125,159.5 170,159.5 Q170.7188,159.5 171.3438,159.75 Q171.9688,160 172.5,160.5 Z "/><text fill="#000000" font-family="sans-serif" font-size="12" lengthAdjust="spacingAndGlyphs" textLength="97" x="184.5" y="168.9102">GraduatedFactory</text><line style="stroke: #A80036; stroke-width: 1.5;" x1="156.5" x2="283.5" y1="180" y2="180"/><line style="stroke: #A80036; stroke-width: 1.5;" x1="156.5" x2="283.5" y1="188" y2="188"/><text fill="#000000" font-family="sans-serif" font-size="11" lengthAdjust="spacingAndGlyphs" textLength="66" x="161.5" y="203.4189">+makeEvent()</text><!--class NormalFactory--><rect fill="#FEFECE" filter="url(#f6i0o67libx2o)" height="61.8359" id="NormalFactory" style="stroke: #A80036; stroke-width: 1.5;" width="112" x="320" y="148"/><ellipse cx="335" cy="164" fill="#ADD1B2" rx="11" ry="11" style="stroke: #A80036; stroke-width: 1.0;"/><path d="M337,160.5 Q337.2031,160 337.4375,159.75 Q337.6719,159.5 337.9375,159.5 Q338.4063,159.5 338.7031,159.7813 Q339,160.0625 339,160.7188 L339,162.2813 Q339,162.9375 338.7188,163.2188 Q338.4375,163.5 338,163.5 Q337.6094,163.5 337.3594,163.3281 Q337.1094,163.1563 337,162.7031 Q336.9531,162.3906 336.7813,162.2188 Q336.4688,161.8906 335.9063,161.6953 Q335.3438,161.5 334.7813,161.5 Q334.0781,161.5 333.4922,161.7813 Q332.9063,162.0625 332.4531,162.6875 Q332,163.3125 332,164.1719 L332,165.0938 Q332,166.125 332.8438,166.8125 Q333.6875,167.5 335.1875,167.5 Q336.0781,167.5 336.7031,167.2969 Q337.0625,167.1875 337.4688,166.8281 Q337.7344,166.625 337.875,166.5625 Q338.0156,166.5 338.1875,166.5 Q338.5156,166.5 338.7578,166.7578 Q339,167.0156 339,167.375 Q339,167.7188 338.6563,168.125 Q338.1563,168.7188 337.3594,169.0469 Q336.3125,169.5 335.0313,169.5 Q333.5313,169.5 332.3281,168.9063 Q331.3594,168.4375 330.6797,167.4219 Q330,166.4063 330,165.2031 L330,164.1094 Q330,162.8594 330.6016,161.7656 Q331.2031,160.6719 332.2578,160.0859 Q333.3125,159.5 334.5,159.5 Q335.2188,159.5 335.8438,159.75 Q336.4688,160 337,160.5 Z "/><text fill="#000000" font-family="sans-serif" font-size="12" lengthAdjust="spacingAndGlyphs" textLength="80" x="349" y="168.9102">NormalFactory</text><line style="stroke: #A80036; stroke-width: 1.5;" x1="321" x2="431" y1="180" y2="180"/><line style="stroke: #A80036; stroke-width: 1.5;" x1="321" x2="431" y1="188" y2="188"/><text fill="#000000" font-family="sans-serif" font-size="11" lengthAdjust="spacingAndGlyphs" textLength="66" x="326" y="203.4189">+makeEvent()</text><!--class Event--><rect fill="#FEFECE" filter="url(#f6i0o67libx2o)" height="61.8359" id="Event" style="stroke: #A80036; stroke-width: 1.5;" width="86" x="263" y="288"/><ellipse cx="288.35" cy="304" fill="#B4A7E5" rx="11" ry="11" style="stroke: #A80036; stroke-width: 1.0;"/><path d="M289.35,301 L289.35,307 L291.35,307 L291.8344,307 L292.35,307.625 L292.35,308 L292.35,308.375 L291.8344,309 L291.35,309 L285.35,309 L284.8656,309 L284.35,308.375 L284.35,308 L284.35,307.625 L284.8656,307 L285.35,307 L287.35,307 L287.35,301 L285.35,301 L284.8656,301 L284.35,300.375 L284.35,300 L284.35,299.625 L284.8656,299 L285.35,299 L291.35,299 L291.8344,299 L292.35,299.625 L292.35,300 L292.35,300.375 L291.8344,301 L291.35,301 L289.35,301 Z "/><text fill="#000000" font-family="sans-serif" font-size="12" font-style="italic" lengthAdjust="spacingAndGlyphs" textLength="31" x="304.65" y="308.9102">Event</text><line style="stroke: #A80036; stroke-width: 1.5;" x1="264" x2="348" y1="320" y2="320"/><line style="stroke: #A80036; stroke-width: 1.5;" x1="264" x2="348" y1="328" y2="328"/><text fill="#000000" font-family="sans-serif" font-size="11" lengthAdjust="spacingAndGlyphs" textLength="74" x="269" y="343.4189">+getEventInfo()</text><!--class GraduatedEvent--><rect fill="#FEFECE" filter="url(#f6i0o67libx2o)" height="172.5234" id="GraduatedEvent" style="stroke: #A80036; stroke-width: 1.5;" width="120" x="6" y="428"/><ellipse cx="21" cy="444" fill="#ADD1B2" rx="11" ry="11" style="stroke: #A80036; stroke-width: 1.0;"/><path d="M23,440.5 Q23.2031,440 23.4375,439.75 Q23.6719,439.5 23.9375,439.5 Q24.4063,439.5 24.7031,439.7813 Q25,440.0625 25,440.7188 L25,442.2813 Q25,442.9375 24.7188,443.2188 Q24.4375,443.5 24,443.5 Q23.6094,443.5 23.3594,443.3281 Q23.1094,443.1563 23,442.7031 Q22.9531,442.3906 22.7813,442.2188 Q22.4688,441.8906 21.9063,441.6953 Q21.3438,441.5 20.7813,441.5 Q20.0781,441.5 19.4922,441.7813 Q18.9063,442.0625 18.4531,442.6875 Q18,443.3125 18,444.1719 L18,445.0938 Q18,446.125 18.8438,446.8125 Q19.6875,447.5 21.1875,447.5 Q22.0781,447.5 22.7031,447.2969 Q23.0625,447.1875 23.4688,446.8281 Q23.7344,446.625 23.875,446.5625 Q24.0156,446.5 24.1875,446.5 Q24.5156,446.5 24.7578,446.7578 Q25,447.0156 25,447.375 Q25,447.7188 24.6563,448.125 Q24.1563,448.7188 23.3594,449.0469 Q22.3125,449.5 21.0313,449.5 Q19.5313,449.5 18.3281,448.9063 Q17.3594,448.4375 16.6797,447.4219 Q16,446.4063 16,445.2031 L16,444.1094 Q16,442.8594 16.6016,441.7656 Q17.2031,440.6719 18.2578,440.0859 Q19.3125,439.5 20.5,439.5 Q21.2188,439.5 21.8438,439.75 Q22.4688,440 23,440.5 Z "/><text fill="#000000" font-family="sans-serif" font-size="12" lengthAdjust="spacingAndGlyphs" textLength="88" x="35" y="448.9102">GraduatedEvent</text><line style="stroke: #A80036; stroke-width: 1.5;" x1="7" x2="125" y1="460" y2="460"/><text fill="#000000" font-family="sans-serif" font-size="11" lengthAdjust="spacingAndGlyphs" textLength="83" x="12" y="475.4189">-manager : String</text><text fill="#000000" font-family="sans-serif" font-size="11" lengthAdjust="spacingAndGlyphs" textLength="78" x="12" y="489.2549">-location : String</text><text fill="#000000" font-family="sans-serif" font-size="11" lengthAdjust="spacingAndGlyphs" textLength="87" x="12" y="503.0908">-date_time : String</text><text fill="#000000" font-family="sans-serif" font-size="11" lengthAdjust="spacingAndGlyphs" textLength="94" x="12" y="516.9268">-description : String</text><line style="stroke: #A80036; stroke-width: 1.5;" x1="7" x2="125" y1="523.3438" y2="523.3438"/><text fill="#000000" font-family="sans-serif" font-size="11" lengthAdjust="spacingAndGlyphs" textLength="98" x="12" y="538.7627">+getEventManager()</text><text fill="#000000" font-family="sans-serif" font-size="11" lengthAdjust="spacingAndGlyphs" textLength="70" x="12" y="552.5986">+getLocation()</text><text fill="#000000" font-family="sans-serif" font-size="11" lengthAdjust="spacingAndGlyphs" textLength="73" x="12" y="566.4346">+getDateTime()</text><text fill="#000000" font-family="sans-serif" font-size="11" lengthAdjust="spacingAndGlyphs" textLength="83" x="12" y="580.2705">+getDescription()</text><text fill="#000000" font-family="sans-serif" font-size="11" lengthAdjust="spacingAndGlyphs" textLength="74" x="12" y="594.1064">+getEventInfo()</text><!--class GraduatedMeeting--><rect fill="#FEFECE" filter="url(#f6i0o67libx2o)" height="172.5234" id="GraduatedMeeting" style="stroke: #A80036; stroke-width: 1.5;" width="133" x="161.5" y="428"/><ellipse cx="176.5" cy="444" fill="#ADD1B2" rx="11" ry="11" style="stroke: #A80036; stroke-width: 1.0;"/><path d="M178.5,440.5 Q178.7031,440 178.9375,439.75 Q179.1719,439.5 179.4375,439.5 Q179.9063,439.5 180.2031,439.7813 Q180.5,440.0625 180.5,440.7188 L180.5,442.2813 Q180.5,442.9375 180.2188,443.2188 Q179.9375,443.5 179.5,443.5 Q179.1094,443.5 178.8594,443.3281 Q178.6094,443.1563 178.5,442.7031 Q178.4531,442.3906 178.2813,442.2188 Q177.9688,441.8906 177.4063,441.6953 Q176.8438,441.5 176.2813,441.5 Q175.5781,441.5 174.9922,441.7813 Q174.4063,442.0625 173.9531,442.6875 Q173.5,443.3125 173.5,444.1719 L173.5,445.0938 Q173.5,446.125 174.3438,446.8125 Q175.1875,447.5 176.6875,447.5 Q177.5781,447.5 178.2031,447.2969 Q178.5625,447.1875 178.9688,446.8281 Q179.2344,446.625 179.375,446.5625 Q179.5156,446.5 179.6875,446.5 Q180.0156,446.5 180.2578,446.7578 Q180.5,447.0156 180.5,447.375 Q180.5,447.7188 180.1563,448.125 Q179.6563,448.7188 178.8594,449.0469 Q177.8125,449.5 176.5313,449.5 Q175.0313,449.5 173.8281,448.9063 Q172.8594,448.4375 172.1797,447.4219 Q171.5,446.4063 171.5,445.2031 L171.5,444.1094 Q171.5,442.8594 172.1016,441.7656 Q172.7031,440.6719 173.7578,440.0859 Q174.8125,439.5 176,439.5 Q176.7188,439.5 177.3438,439.75 Q177.9688,440 178.5,440.5 Z "/><text fill="#000000" font-family="sans-serif" font-size="12" lengthAdjust="spacingAndGlyphs" textLength="101" x="190.5" y="448.9102">GraduatedMeeting</text><line style="stroke: #A80036; stroke-width: 1.5;" x1="162.5" x2="293.5" y1="460" y2="460"/><text fill="#000000" font-family="sans-serif" font-size="11" lengthAdjust="spacingAndGlyphs" textLength="83" x="167.5" y="475.4189">-manager : String</text><text fill="#000000" font-family="sans-serif" font-size="11" lengthAdjust="spacingAndGlyphs" textLength="78" x="167.5" y="489.2549">-location : String</text><text fill="#000000" font-family="sans-serif" font-size="11" lengthAdjust="spacingAndGlyphs" textLength="87" x="167.5" y="503.0908">-date_time : String</text><text fill="#000000" font-family="sans-serif" font-size="11" lengthAdjust="spacingAndGlyphs" textLength="94" x="167.5" y="516.9268">-description : String</text><line style="stroke: #A80036; stroke-width: 1.5;" x1="162.5" x2="293.5" y1="523.3438" y2="523.3438"/><text fill="#000000" font-family="sans-serif" font-size="11" lengthAdjust="spacingAndGlyphs" textLength="98" x="167.5" y="538.7627">+getEventManager()</text><text fill="#000000" font-family="sans-serif" font-size="11" lengthAdjust="spacingAndGlyphs" textLength="70" x="167.5" y="552.5986">+getLocation()</text><text fill="#000000" font-family="sans-serif" font-size="11" lengthAdjust="spacingAndGlyphs" textLength="73" x="167.5" y="566.4346">+getDateTime()</text><text fill="#000000" font-family="sans-serif" font-size="11" lengthAdjust="spacingAndGlyphs" textLength="83" x="167.5" y="580.2705">+getDescription()</text><text fill="#000000" font-family="sans-serif" font-size="11" lengthAdjust="spacingAndGlyphs" textLength="74" x="167.5" y="594.1064">+getEventInfo()</text><!--class NormalEvent--><rect fill="#FEFECE" filter="url(#f6i0o67libx2o)" height="172.5234" id="NormalEvent" style="stroke: #A80036; stroke-width: 1.5;" width="110" x="330" y="428"/><ellipse cx="348.15" cy="444" fill="#ADD1B2" rx="11" ry="11" style="stroke: #A80036; stroke-width: 1.0;"/><path d="M350.15,440.5 Q350.3531,440 350.5875,439.75 Q350.8219,439.5 351.0875,439.5 Q351.5563,439.5 351.8531,439.7813 Q352.15,440.0625 352.15,440.7188 L352.15,442.2813 Q352.15,442.9375 351.8688,443.2188 Q351.5875,443.5 351.15,443.5 Q350.7594,443.5 350.5094,443.3281 Q350.2594,443.1563 350.15,442.7031 Q350.1031,442.3906 349.9313,442.2188 Q349.6188,441.8906 349.0563,441.6953 Q348.4938,441.5 347.9313,441.5 Q347.2281,441.5 346.6422,441.7813 Q346.0563,442.0625 345.6031,442.6875 Q345.15,443.3125 345.15,444.1719 L345.15,445.0938 Q345.15,446.125 345.9938,446.8125 Q346.8375,447.5 348.3375,447.5 Q349.2281,447.5 349.8531,447.2969 Q350.2125,447.1875 350.6188,446.8281 Q350.8844,446.625 351.025,446.5625 Q351.1656,446.5 351.3375,446.5 Q351.6656,446.5 351.9078,446.7578 Q352.15,447.0156 352.15,447.375 Q352.15,447.7188 351.8063,448.125 Q351.3063,448.7188 350.5094,449.0469 Q349.4625,449.5 348.1813,449.5 Q346.6813,449.5 345.4781,448.9063 Q344.5094,448.4375 343.8297,447.4219 Q343.15,446.4063 343.15,445.2031 L343.15,444.1094 Q343.15,442.8594 343.7516,441.7656 Q344.3531,440.6719 345.4078,440.0859 Q346.4625,439.5 347.65,439.5 Q348.3688,439.5 348.9938,439.75 Q349.6188,440 350.15,440.5 Z "/><text fill="#000000" font-family="sans-serif" font-size="12" lengthAdjust="spacingAndGlyphs" textLength="71" x="362.85" y="448.9102">NormalEvent</text><line style="stroke: #A80036; stroke-width: 1.5;" x1="331" x2="439" y1="460" y2="460"/><text fill="#000000" font-family="sans-serif" font-size="11" lengthAdjust="spacingAndGlyphs" textLength="83" x="336" y="475.4189">-manager : String</text><text fill="#000000" font-family="sans-serif" font-size="11" lengthAdjust="spacingAndGlyphs" textLength="78" x="336" y="489.2549">-location : String</text><text fill="#000000" font-family="sans-serif" font-size="11" lengthAdjust="spacingAndGlyphs" textLength="87" x="336" y="503.0908">-date_time : String</text><text fill="#000000" font-family="sans-serif" font-size="11" lengthAdjust="spacingAndGlyphs" textLength="94" x="336" y="516.9268">-description : String</text><line style="stroke: #A80036; stroke-width: 1.5;" x1="331" x2="439" y1="523.3438" y2="523.3438"/><text fill="#000000" font-family="sans-serif" font-size="11" lengthAdjust="spacingAndGlyphs" textLength="98" x="336" y="538.7627">+getEventManager()</text><text fill="#000000" font-family="sans-serif" font-size="11" lengthAdjust="spacingAndGlyphs" textLength="70" x="336" y="552.5986">+getLocation()</text><text fill="#000000" font-family="sans-serif" font-size="11" lengthAdjust="spacingAndGlyphs" textLength="73" x="336" y="566.4346">+getDateTime()</text><text fill="#000000" font-family="sans-serif" font-size="11" lengthAdjust="spacingAndGlyphs" textLength="83" x="336" y="580.2705">+getDescription()</text><text fill="#000000" font-family="sans-serif" font-size="11" lengthAdjust="spacingAndGlyphs" textLength="74" x="336" y="594.1064">+getEventInfo()</text><!--class NormalMeeting--><rect fill="#FEFECE" filter="url(#f6i0o67libx2o)" height="172.5234" id="NormalMeeting" style="stroke: #A80036; stroke-width: 1.5;" width="116" x="475" y="428"/><ellipse cx="490" cy="444" fill="#ADD1B2" rx="11" ry="11" style="stroke: #A80036; stroke-width: 1.0;"/><path d="M492,440.5 Q492.2031,440 492.4375,439.75 Q492.6719,439.5 492.9375,439.5 Q493.4063,439.5 493.7031,439.7813 Q494,440.0625 494,440.7188 L494,442.2813 Q494,442.9375 493.7188,443.2188 Q493.4375,443.5 493,443.5 Q492.6094,443.5 492.3594,443.3281 Q492.1094,443.1563 492,442.7031 Q491.9531,442.3906 491.7813,442.2188 Q491.4688,441.8906 490.9063,441.6953 Q490.3438,441.5 489.7813,441.5 Q489.0781,441.5 488.4922,441.7813 Q487.9063,442.0625 487.4531,442.6875 Q487,443.3125 487,444.1719 L487,445.0938 Q487,446.125 487.8438,446.8125 Q488.6875,447.5 490.1875,447.5 Q491.0781,447.5 491.7031,447.2969 Q492.0625,447.1875 492.4688,446.8281 Q492.7344,446.625 492.875,446.5625 Q493.0156,446.5 493.1875,446.5 Q493.5156,446.5 493.7578,446.7578 Q494,447.0156 494,447.375 Q494,447.7188 493.6563,448.125 Q493.1563,448.7188 492.3594,449.0469 Q491.3125,449.5 490.0313,449.5 Q488.5313,449.5 487.3281,448.9063 Q486.3594,448.4375 485.6797,447.4219 Q485,446.4063 485,445.2031 L485,444.1094 Q485,442.8594 485.6016,441.7656 Q486.2031,440.6719 487.2578,440.0859 Q488.3125,439.5 489.5,439.5 Q490.2188,439.5 490.8438,439.75 Q491.4688,440 492,440.5 Z "/><text fill="#000000" font-family="sans-serif" font-size="12" lengthAdjust="spacingAndGlyphs" textLength="84" x="504" y="448.9102">NormalMeeting</text><line style="stroke: #A80036; stroke-width: 1.5;" x1="476" x2="590" y1="460" y2="460"/><text fill="#000000" font-family="sans-serif" font-size="11" lengthAdjust="spacingAndGlyphs" textLength="83" x="481" y="475.4189">-manager : String</text><text fill="#000000" font-family="sans-serif" font-size="11" lengthAdjust="spacingAndGlyphs" textLength="78" x="481" y="489.2549">-location : String</text><text fill="#000000" font-family="sans-serif" font-size="11" lengthAdjust="spacingAndGlyphs" textLength="87" x="481" y="503.0908">-date_time : String</text><text fill="#000000" font-family="sans-serif" font-size="11" lengthAdjust="spacingAndGlyphs" textLength="94" x="481" y="516.9268">-description : String</text><line style="stroke: #A80036; stroke-width: 1.5;" x1="476" x2="590" y1="523.3438" y2="523.3438"/><text fill="#000000" font-family="sans-serif" font-size="11" lengthAdjust="spacingAndGlyphs" textLength="98" x="481" y="538.7627">+getEventManager()</text><text fill="#000000" font-family="sans-serif" font-size="11" lengthAdjust="spacingAndGlyphs" textLength="70" x="481" y="552.5986">+getLocation()</text><text fill="#000000" font-family="sans-serif" font-size="11" lengthAdjust="spacingAndGlyphs" textLength="73" x="481" y="566.4346">+getDateTime()</text><text fill="#000000" font-family="sans-serif" font-size="11" lengthAdjust="spacingAndGlyphs" textLength="83" x="481" y="580.2705">+getDescription()</text><text fill="#000000" font-family="sans-serif" font-size="11" lengthAdjust="spacingAndGlyphs" textLength="74" x="481" y="594.1064">+getEventInfo()</text><!--link AbstractEventFactory to FactoryProducer--><path d="M377.101,39 C396.875,39 417.771,39 436.483,39 " fill="none" id="AbstractEventFactory-FactoryProducer" style="stroke: #A80036; stroke-width: 1.0;"/><polygon fill="#A80036" points="372.1,39,381.1,43,377.1,39,381.1,35,372.1,39" style="stroke: #A80036; stroke-width: 1.0;"/><text fill="#000000" font-family="sans-serif" font-size="13" lengthAdjust="spacingAndGlyphs" textLength="28" x="390.25" y="32.4951">uses</text><!--link AbstractEventFactory to GraduatedFactory--><path d="M270.898,87.949 C259.666,107.823 246.976,130.273 237.078,147.786 " fill="none" id="AbstractEventFactory-GraduatedFactory" style="stroke: #A80036; stroke-width: 1.0;"/><polygon fill="none" points="264.947,84.252,280.883,70.285,277.135,91.14,264.947,84.252" style="stroke: #A80036; stroke-width: 1.0;"/><text fill="#000000" font-family="sans-serif" font-size="13" lengthAdjust="spacingAndGlyphs" textLength="46" x="265" y="114.4951">extends</text><!--link GraduatedFactory to Event--><path d="M238.873,210.285 C252.316,231.856 270.41,260.89 284.425,283.379 " fill="none" id="GraduatedFactory-Event" style="stroke: #A80036; stroke-width: 1.0;"/><polygon fill="#A80036" points="287.171,287.786,285.8069,278.0321,284.527,283.5422,279.0169,282.2624,287.171,287.786" style="stroke: #A80036; stroke-width: 1.0;"/><text fill="#000000" font-family="sans-serif" font-size="13" lengthAdjust="spacingAndGlyphs" textLength="43" x="270" y="254.4951">creates</text><!--link AbstractEventFactory to NormalFactory--><path d="M325.102,87.949 C336.334,107.823 349.024,130.273 358.922,147.786 " fill="none" id="AbstractEventFactory-NormalFactory" style="stroke: #A80036; stroke-width: 1.0;"/><polygon fill="none" points="318.865,91.14,315.117,70.285,331.053,84.252,318.865,91.14" style="stroke: #A80036; stroke-width: 1.0;"/><text fill="#000000" font-family="sans-serif" font-size="13" lengthAdjust="spacingAndGlyphs" textLength="46" x="343" y="114.4951">extends</text><!--link NormalFactory to Event--><path d="M360.638,210.285 C349.742,231.766 335.091,260.648 323.704,283.098 " fill="none" id="NormalFactory-Event" style="stroke: #A80036; stroke-width: 1.0;"/><polygon fill="#A80036" points="321.326,287.786,328.9637,281.5678,323.5872,283.3265,321.8285,277.95,321.326,287.786" style="stroke: #A80036; stroke-width: 1.0;"/><text fill="#000000" font-family="sans-serif" font-size="13" lengthAdjust="spacingAndGlyphs" textLength="43" x="347" y="254.4951">creates</text><!--link Event to GraduatedEvent--><path d="M258.138,339.971 C236.049,350.307 210.106,364.097 189,380 C166.599,396.879 144.908,418.158 126.14,438.736 " fill="none" id="Event-GraduatedEvent" style="stroke: #A80036; stroke-width: 1.0;"/><polygon fill="#A80036" points="262.79,337.819,252.9423,337.9681,258.2522,339.9186,256.3017,345.2286,262.79,337.819" style="stroke: #A80036; stroke-width: 1.0;"/><text fill="#000000" font-family="sans-serif" font-size="13" lengthAdjust="spacingAndGlyphs" textLength="67" x="190" y="394.4951">implements</text><!--link Event to GraduatedMeeting--><path d="M285.524,354.758 C281.11,362.902 276.672,371.643 273,380 C266.31,395.227 259.999,411.784 254.337,427.89 " fill="none" id="Event-GraduatedMeeting" style="stroke: #A80036; stroke-width: 1.0;"/><polygon fill="#A80036" points="287.968,350.302,280.1333,356.27,285.5638,354.6861,287.1478,360.1166,287.968,350.302" style="stroke: #A80036; stroke-width: 1.0;"/><text fill="#000000" font-family="sans-serif" font-size="13" lengthAdjust="spacingAndGlyphs" textLength="67" x="274" y="394.4951">implements</text><!--link Event to NormalEvent--><path d="M331.569,354.505 C336.831,362.599 341.984,371.383 346,380 C352.987,394.992 359.027,411.519 364.127,427.686 " fill="none" id="Event-NormalEvent" style="stroke: #A80036; stroke-width: 1.0;"/><polygon fill="#A80036" points="328.641,350.084,330.2766,359.7961,331.4023,354.2524,336.946,355.378,328.641,350.084" style="stroke: #A80036; stroke-width: 1.0;"/><text fill="#000000" font-family="sans-serif" font-size="13" lengthAdjust="spacingAndGlyphs" textLength="67" x="355" y="394.4951">implements</text><!--link Event to NormalMeeting--><path d="M353.958,336.789 C378.596,346.89 408.155,361.414 431,380 C447.743,393.621 463.33,410.523 477.029,427.67 " fill="none" id="Event-NormalMeeting" style="stroke: #A80036; stroke-width: 1.0;"/><polygon fill="#A80036" points="349.1,334.828,355.9482,341.9063,353.7364,336.6997,358.943,334.4879,349.1,334.828" style="stroke: #A80036; stroke-width: 1.0;"/><text fill="#000000" font-family="sans-serif" font-size="13" lengthAdjust="spacingAndGlyphs" textLength="67" x="449" y="394.4951">implements</text><!--
@startuml

skinparam classAttributeIconSize 0
class FactoryProducer {
  {method} + getFactory()
}

Abstract class AbstractEventFactory {
  {method} + makeEvent()
}

class GraduatedFactory {
  {method} + makeEvent()
}

class NormalFactory {
  {method} + makeEvent()
}

Interface Event {
  {method} + getEventInfo()
}

class GraduatedEvent {
  {field} - manager : String
  {field} - location : String
  {field} - date_time : String
  {field} - description : String
  {method} + getEventManager()
  {method} + getLocation()
  {method} + getDateTime()
  {method} + getDescription()
  {method} + getEventInfo()
}

class GraduatedMeeting {
  {field} - manager : String
  {field} - location : String
  {field} - date_time : String
  {field} - description : String
  {method} + getEventManager()
  {method} + getLocation()
  {method} + getDateTime()
  {method} + getDescription()
  {method} + getEventInfo()
}

class NormalEvent {
  {field} - manager : String
  {field} - location : String
  {field} - date_time : String
  {field} - description : String
  {method} + getEventManager()
  {method} + getLocation()
  {method} + getDateTime()
  {method} + getDescription()
  {method} + getEventInfo()
}

class NormalMeeting {
  {field} - manager : String
  {field} - location : String
  {field} - date_time : String
  {field} - description : String
  {method} + getEventManager()
  {method} + getLocation()
  {method} + getDateTime()
  {method} + getDescription()
  {method} + getEventInfo()
}

AbstractEventFactory <- FactoryProducer : uses
AbstractEventFactory <|- - GraduatedFactory : extends
GraduatedFactory - -> Event : creates
AbstractEventFactory <|- - NormalFactory : extends
NormalFactory - -> Event : creates

Event <- - GraduatedEvent : implements
Event <- - GraduatedMeeting : implements
Event <- - NormalEvent : implements
Event <- - NormalMeeting : implements

@enduml

PlantUML version 1.2018.11(Sat Sep 22 19:43:53 EET 2018)
(GPL source distribution)
Java Runtime: OpenJDK Runtime Environment
JVM: OpenJDK 64-Bit Server VM
Java Version: 1.8.0_152-release-1024-b11
Operating System: Windows 10
OS Version: 10.0
Default Encoding: Cp1254
Language: tr
Country: TR
--></g></svg>