<?xml version="1.0" encoding="UTF-8" standalone="no"?><svg xmlns="http://www.w3.org/2000/svg" xmlns:xlink="http://www.w3.org/1999/xlink" contentScriptType="application/ecmascript" contentStyleType="text/css" height="289px" preserveAspectRatio="none" style="width:651px;height:289px;" version="1.1" viewBox="0 0 651 289" width="651px" zoomAndPan="magnify"><defs><filter height="300%" id="fzfs4jpur88qr" width="300%" x="-1" y="-1"><feGaussianBlur result="blurOut" stdDeviation="2.0"/><feColorMatrix in="blurOut" result="blurOut2" type="matrix" values="0 0 0 0 0 0 0 0 0 0 0 0 0 0 0 0 0 0 .4 0"/><feOffset dx="4.0" dy="4.0" in="blurOut2" result="blurOut3"/><feBlend in="SourceGraphic" in2="blurOut3" mode="normal"/></filter></defs><g><!--class EventCommand--><rect fill="#FEFECE" filter="url(#fzfs4jpur88qr)" height="61.8359" id="EventCommand" style="stroke: #A80036; stroke-width: 1.5;" width="122" x="262" y="203"/><ellipse cx="277" cy="219" fill="#B4A7E5" rx="11" ry="11" style="stroke: #A80036; stroke-width: 1.0;"/><path d="M278,216 L278,222 L280,222 L280.4844,222 L281,222.625 L281,223 L281,223.375 L280.4844,224 L280,224 L274,224 L273.5156,224 L273,223.375 L273,223 L273,222.625 L273.5156,222 L274,222 L276,222 L276,216 L274,216 L273.5156,216 L273,215.375 L273,215 L273,214.625 L273.5156,214 L274,214 L280,214 L280.4844,214 L281,214.625 L281,215 L281,215.375 L280.4844,216 L280,216 L278,216 Z "/><text fill="#000000" font-family="sans-serif" font-size="12" font-style="italic" lengthAdjust="spacingAndGlyphs" textLength="90" x="291" y="223.9102">EventCommand</text><line style="stroke: #A80036; stroke-width: 1.5;" x1="263" x2="383" y1="235" y2="235"/><line style="stroke: #A80036; stroke-width: 1.5;" x1="263" x2="383" y1="243" y2="243"/><text fill="#000000" font-family="sans-serif" font-size="11" lengthAdjust="spacingAndGlyphs" textLength="53" x="268" y="258.4189">+execute()</text><!--class EventLocation--><rect fill="#FEFECE" filter="url(#fzfs4jpur88qr)" height="103.3438" id="EventLocation" style="stroke: #A80036; stroke-width: 1.5;" width="109" x="71.5" y="8"/><ellipse cx="86.5" cy="24" fill="#ADD1B2" rx="11" ry="11" style="stroke: #A80036; stroke-width: 1.0;"/><path d="M88.5,20.5 Q88.7031,20 88.9375,19.75 Q89.1719,19.5 89.4375,19.5 Q89.9063,19.5 90.2031,19.7813 Q90.5,20.0625 90.5,20.7188 L90.5,22.2813 Q90.5,22.9375 90.2188,23.2188 Q89.9375,23.5 89.5,23.5 Q89.1094,23.5 88.8594,23.3281 Q88.6094,23.1563 88.5,22.7031 Q88.4531,22.3906 88.2813,22.2188 Q87.9688,21.8906 87.4063,21.6953 Q86.8438,21.5 86.2813,21.5 Q85.5781,21.5 84.9922,21.7813 Q84.4063,22.0625 83.9531,22.6875 Q83.5,23.3125 83.5,24.1719 L83.5,25.0938 Q83.5,26.125 84.3438,26.8125 Q85.1875,27.5 86.6875,27.5 Q87.5781,27.5 88.2031,27.2969 Q88.5625,27.1875 88.9688,26.8281 Q89.2344,26.625 89.375,26.5625 Q89.5156,26.5 89.6875,26.5 Q90.0156,26.5 90.2578,26.7578 Q90.5,27.0156 90.5,27.375 Q90.5,27.7188 90.1563,28.125 Q89.6563,28.7188 88.8594,29.0469 Q87.8125,29.5 86.5313,29.5 Q85.0313,29.5 83.8281,28.9063 Q82.8594,28.4375 82.1797,27.4219 Q81.5,26.4063 81.5,25.2031 L81.5,24.1094 Q81.5,22.8594 82.1016,21.7656 Q82.7031,20.6719 83.7578,20.0859 Q84.8125,19.5 86,19.5 Q86.7188,19.5 87.3438,19.75 Q87.9688,20 88.5,20.5 Z "/><text fill="#000000" font-family="sans-serif" font-size="12" lengthAdjust="spacingAndGlyphs" textLength="77" x="100.5" y="28.9102">EventLocation</text><line style="stroke: #A80036; stroke-width: 1.5;" x1="72.5" x2="179.5" y1="40" y2="40"/><text fill="#000000" font-family="sans-serif" font-size="11" lengthAdjust="spacingAndGlyphs" textLength="81" x="77.5" y="55.4189">-address : String</text><text fill="#000000" font-family="sans-serif" font-size="11" lengthAdjust="spacingAndGlyphs" textLength="85" x="77.5" y="69.2549">-seat_no : Integer</text><line style="stroke: #A80036; stroke-width: 1.5;" x1="72.5" x2="179.5" y1="75.6719" y2="75.6719"/><text fill="#000000" font-family="sans-serif" font-size="11" lengthAdjust="spacingAndGlyphs" textLength="52" x="77.5" y="91.0908">+reserve()</text><text fill="#000000" font-family="sans-serif" font-size="11" lengthAdjust="spacingAndGlyphs" textLength="50" x="77.5" y="104.9268">+confirm()</text><!--class ReserveLocation--><rect fill="#FEFECE" filter="url(#fzfs4jpur88qr)" height="89.5078" id="ReserveLocation" style="stroke: #A80036; stroke-width: 1.5;" width="152" x="6" y="189"/><ellipse cx="33.15" cy="205" fill="#ADD1B2" rx="11" ry="11" style="stroke: #A80036; stroke-width: 1.0;"/><path d="M35.15,201.5 Q35.3531,201 35.5875,200.75 Q35.8219,200.5 36.0875,200.5 Q36.5563,200.5 36.8531,200.7813 Q37.15,201.0625 37.15,201.7188 L37.15,203.2813 Q37.15,203.9375 36.8688,204.2188 Q36.5875,204.5 36.15,204.5 Q35.7594,204.5 35.5094,204.3281 Q35.2594,204.1563 35.15,203.7031 Q35.1031,203.3906 34.9313,203.2188 Q34.6188,202.8906 34.0563,202.6953 Q33.4938,202.5 32.9313,202.5 Q32.2281,202.5 31.6422,202.7813 Q31.0563,203.0625 30.6031,203.6875 Q30.15,204.3125 30.15,205.1719 L30.15,206.0938 Q30.15,207.125 30.9938,207.8125 Q31.8375,208.5 33.3375,208.5 Q34.2281,208.5 34.8531,208.2969 Q35.2125,208.1875 35.6188,207.8281 Q35.8844,207.625 36.025,207.5625 Q36.1656,207.5 36.3375,207.5 Q36.6656,207.5 36.9078,207.7578 Q37.15,208.0156 37.15,208.375 Q37.15,208.7188 36.8063,209.125 Q36.3063,209.7188 35.5094,210.0469 Q34.4625,210.5 33.1813,210.5 Q31.6813,210.5 30.4781,209.9063 Q29.5094,209.4375 28.8297,208.4219 Q28.15,207.4063 28.15,206.2031 L28.15,205.1094 Q28.15,203.8594 28.7516,202.7656 Q29.3531,201.6719 30.4078,201.0859 Q31.4625,200.5 32.65,200.5 Q33.3688,200.5 33.9938,200.75 Q34.6188,201 35.15,201.5 Z "/><text fill="#000000" font-family="sans-serif" font-size="12" lengthAdjust="spacingAndGlyphs" textLength="93" x="49.85" y="209.9102">ReserveLocation</text><line style="stroke: #A80036; stroke-width: 1.5;" x1="7" x2="157" y1="221" y2="221"/><text fill="#000000" font-family="sans-serif" font-size="11" lengthAdjust="spacingAndGlyphs" textLength="74" x="12" y="236.4189">-event_location</text><line style="stroke: #A80036; stroke-width: 1.5;" x1="7" x2="157" y1="242.8359" y2="242.8359"/><text fill="#000000" font-family="sans-serif" font-size="11" lengthAdjust="spacingAndGlyphs" textLength="140" x="12" y="258.2549">+__construct(EventLocation)</text><text fill="#000000" font-family="sans-serif" font-size="11" lengthAdjust="spacingAndGlyphs" textLength="53" x="12" y="272.0908">+execute()</text><!--class ConfirmLocation--><rect fill="#FEFECE" filter="url(#fzfs4jpur88qr)" height="89.5078" id="ConfirmLocation" style="stroke: #A80036; stroke-width: 1.5;" width="152" x="488" y="189"/><ellipse cx="516.05" cy="205" fill="#ADD1B2" rx="11" ry="11" style="stroke: #A80036; stroke-width: 1.0;"/><path d="M518.05,201.5 Q518.2531,201 518.4875,200.75 Q518.7219,200.5 518.9875,200.5 Q519.4563,200.5 519.7531,200.7813 Q520.05,201.0625 520.05,201.7188 L520.05,203.2813 Q520.05,203.9375 519.7688,204.2188 Q519.4875,204.5 519.05,204.5 Q518.6594,204.5 518.4094,204.3281 Q518.1594,204.1563 518.05,203.7031 Q518.0031,203.3906 517.8313,203.2188 Q517.5188,202.8906 516.9563,202.6953 Q516.3938,202.5 515.8313,202.5 Q515.1281,202.5 514.5422,202.7813 Q513.9563,203.0625 513.5031,203.6875 Q513.05,204.3125 513.05,205.1719 L513.05,206.0938 Q513.05,207.125 513.8938,207.8125 Q514.7375,208.5 516.2375,208.5 Q517.1281,208.5 517.7531,208.2969 Q518.1125,208.1875 518.5188,207.8281 Q518.7844,207.625 518.925,207.5625 Q519.0656,207.5 519.2375,207.5 Q519.5656,207.5 519.8078,207.7578 Q520.05,208.0156 520.05,208.375 Q520.05,208.7188 519.7063,209.125 Q519.2063,209.7188 518.4094,210.0469 Q517.3625,210.5 516.0813,210.5 Q514.5813,210.5 513.3781,209.9063 Q512.4094,209.4375 511.7297,208.4219 Q511.05,207.4063 511.05,206.2031 L511.05,205.1094 Q511.05,203.8594 511.6516,202.7656 Q512.2531,201.6719 513.3078,201.0859 Q514.3625,200.5 515.55,200.5 Q516.2688,200.5 516.8938,200.75 Q517.5188,201 518.05,201.5 Z "/><text fill="#000000" font-family="sans-serif" font-size="12" lengthAdjust="spacingAndGlyphs" textLength="91" x="532.95" y="209.9102">ConfirmLocation</text><line style="stroke: #A80036; stroke-width: 1.5;" x1="489" x2="639" y1="221" y2="221"/><text fill="#000000" font-family="sans-serif" font-size="11" lengthAdjust="spacingAndGlyphs" textLength="74" x="494" y="236.4189">-event_location</text><line style="stroke: #A80036; stroke-width: 1.5;" x1="489" x2="639" y1="242.8359" y2="242.8359"/><text fill="#000000" font-family="sans-serif" font-size="11" lengthAdjust="spacingAndGlyphs" textLength="140" x="494" y="258.2549">+__construct(EventLocation)</text><text fill="#000000" font-family="sans-serif" font-size="11" lengthAdjust="spacingAndGlyphs" textLength="53" x="494" y="272.0908">+execute()</text><!--class Invoker--><rect fill="#FEFECE" filter="url(#fzfs4jpur88qr)" height="89.5078" id="Invoker" style="stroke: #A80036; stroke-width: 1.5;" width="156" x="245" y="14.5"/><ellipse cx="299.25" cy="30.5" fill="#ADD1B2" rx="11" ry="11" style="stroke: #A80036; stroke-width: 1.0;"/><path d="M301.25,27 Q301.4531,26.5 301.6875,26.25 Q301.9219,26 302.1875,26 Q302.6563,26 302.9531,26.2813 Q303.25,26.5625 303.25,27.2188 L303.25,28.7813 Q303.25,29.4375 302.9688,29.7188 Q302.6875,30 302.25,30 Q301.8594,30 301.6094,29.8281 Q301.3594,29.6563 301.25,29.2031 Q301.2031,28.8906 301.0313,28.7188 Q300.7188,28.3906 300.1563,28.1953 Q299.5938,28 299.0313,28 Q298.3281,28 297.7422,28.2813 Q297.1563,28.5625 296.7031,29.1875 Q296.25,29.8125 296.25,30.6719 L296.25,31.5938 Q296.25,32.625 297.0938,33.3125 Q297.9375,34 299.4375,34 Q300.3281,34 300.9531,33.7969 Q301.3125,33.6875 301.7188,33.3281 Q301.9844,33.125 302.125,33.0625 Q302.2656,33 302.4375,33 Q302.7656,33 303.0078,33.2578 Q303.25,33.5156 303.25,33.875 Q303.25,34.2188 302.9063,34.625 Q302.4063,35.2188 301.6094,35.5469 Q300.5625,36 299.2813,36 Q297.7813,36 296.5781,35.4063 Q295.6094,34.9375 294.9297,33.9219 Q294.25,32.9063 294.25,31.7031 L294.25,30.6094 Q294.25,29.3594 294.8516,28.2656 Q295.4531,27.1719 296.5078,26.5859 Q297.5625,26 298.75,26 Q299.4688,26 300.0938,26.25 Q300.7188,26.5 301.25,27 Z "/><text fill="#000000" font-family="sans-serif" font-size="12" lengthAdjust="spacingAndGlyphs" textLength="39" x="319.75" y="35.4102">Invoker</text><line style="stroke: #A80036; stroke-width: 1.5;" x1="246" x2="400" y1="46.5" y2="46.5"/><text fill="#000000" font-family="sans-serif" font-size="11" lengthAdjust="spacingAndGlyphs" textLength="133" x="251" y="61.9189">-command : EventCommand</text><line style="stroke: #A80036; stroke-width: 1.5;" x1="246" x2="400" y1="68.3359" y2="68.3359"/><text fill="#000000" font-family="sans-serif" font-size="11" lengthAdjust="spacingAndGlyphs" textLength="144" x="251" y="83.7549">+setCommand(EventLocation)</text><text fill="#000000" font-family="sans-serif" font-size="11" lengthAdjust="spacingAndGlyphs" textLength="30" x="251" y="97.5908">+run()</text><!--link Invoker to EventCommand--><path d="M323,104.923 C323,133.748 323,170.796 323,197.6241 " fill="none" id="Invoker-EventCommand" style="stroke: #A80036; stroke-width: 1.0;"/><polygon fill="#A80036" points="323,202.848,327,193.848,323,197.848,319,193.848,323,202.848" style="stroke: #A80036; stroke-width: 1.0;"/><text fill="#000000" font-family="sans-serif" font-size="13" lengthAdjust="spacingAndGlyphs" textLength="28" x="324" y="155.4951">uses</text><!--link EventLocation to Invoker--><path d="M180.614,59.5 C198.879,59.5 219.675,59.5 239.624,59.5 " fill="none" id="EventLocation-Invoker" style="stroke: #A80036; stroke-width: 1.0;"/><polygon fill="#A80036" points="244.675,59.5,235.675,55.5,239.675,59.5,235.675,63.5,244.675,59.5" style="stroke: #A80036; stroke-width: 1.0;"/><text fill="#000000" font-family="sans-serif" font-size="13" lengthAdjust="spacingAndGlyphs" textLength="28" x="198.75" y="52.9951">uses</text><!--link ReserveLocation to EventCommand--><path d="M158.254,234 C189.801,234 226.047,234 256.494,234 " fill="none" id="ReserveLocation-EventCommand" style="stroke: #A80036; stroke-width: 1.0;"/><polygon fill="#A80036" points="261.718,234,252.718,230,256.718,234,252.718,238,261.718,234" style="stroke: #A80036; stroke-width: 1.0;"/><text fill="#000000" font-family="sans-serif" font-size="13" lengthAdjust="spacingAndGlyphs" textLength="67" x="176.5" y="227.4951">implements</text><!--link EventCommand to ConfirmLocation--><path d="M389.359,234 C419.863,234 456.211,234 487.828,234 " fill="none" id="EventCommand-ConfirmLocation" style="stroke: #A80036; stroke-width: 1.0;"/><polygon fill="#A80036" points="384.126,234,393.126,238,389.126,234,393.126,230,384.126,234" style="stroke: #A80036; stroke-width: 1.0;"/><text fill="#000000" font-family="sans-serif" font-size="13" lengthAdjust="spacingAndGlyphs" textLength="67" x="402.5" y="227.4951">implements</text><!--
@startuml
skinparam classAttributeIconSize 0

interface EventCommand{
  {method} + execute()
}

class EventLocation {
  {field} - address : String
  {field} - seat_no : Integer
  {method} + reserve()
  {method} + confirm()
}

class ReserveLocation {
  {field} - event_location
  {method} + __construct(EventLocation)
  {method} + execute()
}

class ConfirmLocation {
  {field} - event_location
  {method} + __construct(EventLocation)
  {method} + execute()
}

class Invoker {
  {field} - command : EventCommand
  {method} + setCommand(EventLocation)
  {method} + run()
}

Invoker - -> EventCommand : uses
EventLocation -> Invoker : uses
ReserveLocation -> EventCommand : implements
EventCommand <- ConfirmLocation : implements


@enduml

PlantUML version 1.2018.11(Sat Sep 22 19:43:53 EET 2018)
(GPL source distribution)
Java Runtime: OpenJDK Runtime Environment
JVM: OpenJDK 64-Bit Server VM
Java Version: 1.8.0_152-release-1024-b11
Operating System: Windows 10
OS Version: 10.0
Default Encoding: Cp1254
Language: tr
Country: TR
--></g></svg>