<?xml version="1.0" encoding="UTF-8" standalone="no"?><svg xmlns="http://www.w3.org/2000/svg" xmlns:xlink="http://www.w3.org/1999/xlink" contentScriptType="application/ecmascript" contentStyleType="text/css" height="672.8px" preserveAspectRatio="none" style="width:372px;height:672px;" version="1.1" viewBox="0 0 372 672" width="372px" zoomAndPan="magnify"><defs><filter height="300%" id="f11chzfy5tfy0o" width="300%" x="-1" y="-1"><feGaussianBlur result="blurOut" stdDeviation="1.600000023841858"/><feColorMatrix in="blurOut" result="blurOut2" type="matrix" values="0 0 0 0 0 0 0 0 0 0 0 0 0 0 0 0 0 0 .4 0"/><feOffset dx="3.200000047683716" dy="3.200000047683716" in="blurOut2" result="blurOut3"/><feBlend in="SourceGraphic" in2="blurOut3" mode="normal"/></filter></defs><g><!--cluster Alumni_website--><rect fill="#FFFFFF" filter="url(#f11chzfy5tfy0o)" height="644.8" style="stroke: #000000; stroke-width: 1.2000000178813934;" width="176.8" x="17.6" y="19.2"/><text fill="#000000" font-family="sans-serif" font-size="11.2" font-weight="bold" lengthAdjust="spacingAndGlyphs" textLength="88" x="62" y="32.4266">Alumni_website</text><ellipse cx="106.0617" cy="252.7614" fill="#FEFECE" filter="url(#f11chzfy5tfy0o)" rx="24.4617" ry="12.3614" style="stroke: #A80036; stroke-width: 1.2000000178813934;"/><text fill="#000000" font-family="sans-serif" font-size="11.2" lengthAdjust="spacingAndGlyphs" textLength="31.2" x="90.4617" y="257.0051">Log In</text><ellipse cx="106.1921" cy="60.7614" fill="#FEFECE" filter="url(#f11chzfy5tfy0o)" rx="45.3921" ry="12.3614" style="stroke: #A80036; stroke-width: 1.2000000178813934;"/><text fill="#000000" font-family="sans-serif" font-size="11.2" lengthAdjust="spacingAndGlyphs" textLength="60.8" x="75.7921" y="65.0051">Registration</text><ellipse cx="106.0666" cy="374.3614" fill="#FEFECE" filter="url(#f11chzfy5tfy0o)" rx="40.8666" ry="12.3614" style="stroke: #A80036; stroke-width: 1.2000000178813934;"/><text fill="#000000" font-family="sans-serif" font-size="11.2" lengthAdjust="spacingAndGlyphs" textLength="54.4" x="78.8666" y="378.6051">Alumni List</text><ellipse cx="106.1049" cy="561.621" fill="#FEFECE" filter="url(#f11chzfy5tfy0o)" rx="54.5049" ry="12.821" style="stroke: #A80036; stroke-width: 1.2000000178813934;"/><text fill="#000000" font-family="sans-serif" font-size="11.2" lengthAdjust="spacingAndGlyphs" textLength="76.8" x="67.7049" y="565.8647">Preview Events</text><ellipse cx="105.9959" cy="184.7192" fill="#FEFECE" filter="url(#f11chzfy5tfy0o)" rx="55.9959" ry="13.1192" style="stroke: #A80036; stroke-width: 1.2000000178813934;"/><text fill="#000000" font-family="sans-serif" font-size="11.2" lengthAdjust="spacingAndGlyphs" textLength="80.8" x="65.5959" y="188.9629">Verify Password</text><ellipse cx="105.8981" cy="320.7796" fill="#FEFECE" filter="url(#f11chzfy5tfy0o)" rx="56.2981" ry="13.1796" style="stroke: #A80036; stroke-width: 1.2000000178813934;"/><text fill="#000000" font-family="sans-serif" font-size="11.2" lengthAdjust="spacingAndGlyphs" textLength="81.6" x="65.0981" y="325.0234">Reset Password</text><ellipse cx="106.1713" cy="129.7143" fill="#FEFECE" filter="url(#f11chzfy5tfy0o)" rx="60.9713" ry="14.1143" style="stroke: #A80036; stroke-width: 1.2000000178813934;"/><text fill="#000000" font-family="sans-serif" font-size="11.2" lengthAdjust="spacingAndGlyphs" textLength="93.6" x="59.3713" y="133.958">Verify Membership</text><ellipse cx="106.0784" cy="441.5614" fill="#FEFECE" filter="url(#f11chzfy5tfy0o)" rx="34.0784" ry="12.3614" style="stroke: #A80036; stroke-width: 1.2000000178813934;"/><text fill="#000000" font-family="sans-serif" font-size="11.2" lengthAdjust="spacingAndGlyphs" textLength="44.8" x="83.6784" y="445.8051">Brief Info</text><ellipse cx="105.8504" cy="633.4101" fill="#FEFECE" filter="url(#f11chzfy5tfy0o)" rx="75.4504" ry="17.0101" style="stroke: #A80036; stroke-width: 1.2000000178813934;"/><text fill="#000000" font-family="sans-serif" font-size="11.2" lengthAdjust="spacingAndGlyphs" textLength="128" x="41.8504" y="637.6538">Like/Comment On Events</text><ellipse cx="106.1372" cy="494.5875" fill="#FEFECE" filter="url(#f11chzfy5tfy0o)" rx="53.3372" ry="12.5874" style="stroke: #A80036; stroke-width: 1.2000000178813934;"/><text fill="#000000" font-family="sans-serif" font-size="11.2" lengthAdjust="spacingAndGlyphs" textLength="73.6" x="69.3372" y="498.8312">Search Events</text><!--entity Admin--><ellipse cx="346.8" cy="280.4" fill="#FEFECE" filter="url(#f11chzfy5tfy0o)" rx="6.4" ry="6.4" style="stroke: #A80036; stroke-width: 1.600000023841858;"/><path d="M346.8,286.8 L346.8,308.4 M336.4,293.2 L357.2,293.2 M346.8,308.4 L336.4,320.4 M346.8,308.4 L357.2,320.4 " fill="none" filter="url(#f11chzfy5tfy0o)" style="stroke: #A80036; stroke-width: 1.600000023841858;"/><text fill="#000000" font-family="sans-serif" font-size="11.2" lengthAdjust="spacingAndGlyphs" textLength="31.2" x="331.2" y="337.6266">Admin</text><!--link Verify Membership to Registration--><path d="M106,111.112 C106,99.1808 106,83.9744 106,73.4176 " fill="none" id="Verify Membership-Registration" style="stroke: #A80036; stroke-width: 0.800000011920929; stroke-dasharray: 7.0,7.0;"/><polygon fill="#A80036" points="106,115.3448,109.2,108.1448,106,111.3448,102.8,108.1448,106,115.3448" style="stroke: #A80036; stroke-width: 0.800000011920929;"/><text fill="#000000" font-family="sans-serif" font-size="10.4" lengthAdjust="spacingAndGlyphs" textLength="44" x="74.4" y="98.7961">«include»</text><!--link Log In to Verify Password--><path d="M106,240.328 C106,229.6736 106,214.228 106,202.3304 " fill="none" id="Log In-Verify Password" style="stroke: #A80036; stroke-width: 0.800000011920929; stroke-dasharray: 7.0,7.0;"/><polygon fill="#A80036" points="106,198.1232,102.8,205.3232,106,202.1232,109.2,205.3232,106,198.1232" style="stroke: #A80036; stroke-width: 0.800000011920929;"/><text fill="#000000" font-family="sans-serif" font-size="10.4" lengthAdjust="spacingAndGlyphs" textLength="44" x="74.4" y="223.5961">«include»</text><!--link Reset Password to Log In--><path d="M106,307.3656 C106,296.472 106,281.0672 106,269.4024 " fill="none" id="Reset Password-Log In" style="stroke: #A80036; stroke-width: 0.800000011920929; stroke-dasharray: 7.0,7.0;"/><polygon fill="#A80036" points="106,265.2896,102.8,272.4896,106,269.2896,109.2,272.4896,106,265.2896" style="stroke: #A80036; stroke-width: 0.800000011920929;"/><text fill="#000000" font-family="sans-serif" font-size="10.4" lengthAdjust="spacingAndGlyphs" textLength="42.4" x="75.2" y="290.7961">«extend»</text><!--link Brief Info to Alumni List--><path d="M106,428.96 C106,418.26 106,402.8376 106,391.1176 " fill="none" id="Brief Info-Alumni List" style="stroke: #A80036; stroke-width: 0.800000011920929; stroke-dasharray: 7.0,7.0;"/><polygon fill="#A80036" points="106,386.9832,102.8,394.1832,106,390.9832,109.2,394.1832,106,386.9832" style="stroke: #A80036; stroke-width: 0.800000011920929;"/><text fill="#000000" font-family="sans-serif" font-size="10.4" lengthAdjust="spacingAndGlyphs" textLength="42.4" x="75.2" y="412.3961">«extend»</text><!--link Like/Comment On Events to Preview Events--><path d="M106,616.1708 C106,604.7544 106,589.9064 106,578.5816 " fill="none" id="Like/Comment On Events-Preview Events" style="stroke: #A80036; stroke-width: 0.800000011920929; stroke-dasharray: 7.0,7.0;"/><polygon fill="#A80036" points="106,574.5816,102.8,581.7816,106,578.5816,109.2,581.7816,106,574.5816" style="stroke: #A80036; stroke-width: 0.800000011920929;"/><text fill="#000000" font-family="sans-serif" font-size="10.4" lengthAdjust="spacingAndGlyphs" textLength="42.4" x="75.2" y="599.7961">«extend»</text><!--link Preview Events to Search Events--><path d="M106,544.496 C106,532.76 106,517.4528 106,506.8624 " fill="none" id="Preview Events-Search Events" style="stroke: #A80036; stroke-width: 0.800000011920929; stroke-dasharray: 7.0,7.0;"/><polygon fill="#A80036" points="106,548.6432,109.2,541.4432,106,544.6432,102.8,541.4432,106,548.6432" style="stroke: #A80036; stroke-width: 0.800000011920929;"/><text fill="#000000" font-family="sans-serif" font-size="10.4" lengthAdjust="spacingAndGlyphs" textLength="42.4" x="75.2" y="532.1961">«extend»</text><!--link Log In to Admin--><path d="M128.6616,257.6984 C176.6392,268.4496 290.1304,293.8808 331.0032,303.0392 " fill="none" id="Log In-Admin" style="stroke: #A80036; stroke-width: 0.800000011920929;"/><!--link Alumni List to Admin--><path d="M136.4464,366.1168 C154.9552,360.9344 179.2744,354.1064 200.8,348 C248.4792,334.4744 304.9,318.2456 331.1664,310.6776 " fill="none" id="Alumni List-Admin" style="stroke: #A80036; stroke-width: 0.800000011920929;"/><!--link Preview Events to Admin--><path d="M141.5544,551.7936 C160.5064,545.2192 183.548,535.112 200.8,520.8 C262.56,469.5664 308.7872,385.5424 331.116,339.3648 " fill="none" id="Preview Events-Admin" style="stroke: #A80036; stroke-width: 0.800000011920929;"/><!--link Verify Membership to Admin--><path d="M153.22,138.4384 C169.0456,142.7184 186.372,148.8816 200.8,157.6 C257.3328,191.7624 307.2384,253.12 331.104,285.3352 " fill="none" id="Verify Membership-Admin" style="stroke: #A80036; stroke-width: 0.800000011920929;"/><!--
@startuml
left to right direction
skinparam packageStyle rectangle

actor Admin

rectangle Alumni_website {

(Log In)
(Registration)
(Alumni List)
(Preview Events)

(Verify Password)
(Reset Password)
(Verify Membership)
(Brief Info)
(Like/Comment On Events)
(Search Events)


(Verify Membership) <. (Registration) : <<include>>
(Log In) .> (Verify Password) : <<include>>

(Reset Password) .> (Log In) : <<extend>>
(Brief Info) .> (Alumni List) : <<extend>>
(Like/Comment On Events) .> (Preview Events) : <<extend>>
(Preview Events) <. (Search Events) : <<extend>>


(Log In) - - Admin
(Alumni List) - - Admin
(Preview Events) - - Admin
(Verify Membership) - - - - Admin

}
@enduml

PlantUML version 1.2018.11(Sat Sep 22 19:43:53 EET 2018)
(GPL source distribution)
Java Runtime: OpenJDK Runtime Environment
JVM: OpenJDK 64-Bit Server VM
Java Version: 1.8.0_152-release-1024-b11
Operating System: Windows 10
OS Version: 10.0
Default Encoding: Cp1254
Language: tr
Country: TR
--></g></svg>