<?xml version="1.0" encoding="UTF-8" standalone="no"?><svg xmlns="http://www.w3.org/2000/svg" xmlns:xlink="http://www.w3.org/1999/xlink" contentScriptType="application/ecmascript" contentStyleType="text/css" height="674.4px" preserveAspectRatio="none" style="width:308px;height:674px;" version="1.1" viewBox="0 0 308 674" width="308px" zoomAndPan="magnify"><defs><filter height="300%" id="fdhh1l5jmtkeq" width="300%" x="-1" y="-1"><feGaussianBlur result="blurOut" stdDeviation="1.600000023841858"/><feColorMatrix in="blurOut" result="blurOut2" type="matrix" values="0 0 0 0 0 0 0 0 0 0 0 0 0 0 0 0 0 0 .4 0"/><feOffset dx="3.200000047683716" dy="3.200000047683716" in="blurOut2" result="blurOut3"/><feBlend in="SourceGraphic" in2="blurOut3" mode="normal"/></filter></defs><g><!--cluster Alumni_website--><rect fill="#FFFFFF" filter="url(#fdhh1l5jmtkeq)" height="646.4" style="stroke: #000000; stroke-width: 1.2000000178813934;" width="176.8" x="122.4" y="19.2"/><text fill="#000000" font-family="sans-serif" font-size="11.2" font-weight="bold" lengthAdjust="spacingAndGlyphs" textLength="88" x="166.8" y="32.4266">Alumni_website</text><ellipse cx="210.8617" cy="129.5614" fill="#FEFECE" filter="url(#fdhh1l5jmtkeq)" rx="24.4617" ry="12.3614" style="stroke: #A80036; stroke-width: 1.2000000178813934;"/><text fill="#000000" font-family="sans-serif" font-size="11.2" lengthAdjust="spacingAndGlyphs" textLength="31.2" x="195.2617" y="133.8051">Log In</text><ellipse cx="210.8666" cy="251.1614" fill="#FEFECE" filter="url(#fdhh1l5jmtkeq)" rx="40.8666" ry="12.3614" style="stroke: #A80036; stroke-width: 1.2000000178813934;"/><text fill="#000000" font-family="sans-serif" font-size="11.2" lengthAdjust="spacingAndGlyphs" textLength="54.4" x="183.6666" y="255.4051">Alumni List</text><ellipse cx="210.9713" cy="372.9143" fill="#FEFECE" filter="url(#fdhh1l5jmtkeq)" rx="60.9713" ry="14.1143" style="stroke: #A80036; stroke-width: 1.2000000178813934;"/><text fill="#000000" font-family="sans-serif" font-size="11.2" lengthAdjust="spacingAndGlyphs" textLength="93.6" x="164.1713" y="377.158">Scheduling Events</text><ellipse cx="210.9049" cy="563.221" fill="#FEFECE" filter="url(#fdhh1l5jmtkeq)" rx="54.5049" ry="12.821" style="stroke: #A80036; stroke-width: 1.2000000178813934;"/><text fill="#000000" font-family="sans-serif" font-size="11.2" lengthAdjust="spacingAndGlyphs" textLength="76.8" x="172.5049" y="567.4647">Preview Events</text><ellipse cx="210.7959" cy="61.5192" fill="#FEFECE" filter="url(#fdhh1l5jmtkeq)" rx="55.9959" ry="13.1192" style="stroke: #A80036; stroke-width: 1.2000000178813934;"/><text fill="#000000" font-family="sans-serif" font-size="11.2" lengthAdjust="spacingAndGlyphs" textLength="80.8" x="170.3959" y="65.7629">Verify Password</text><ellipse cx="210.6981" cy="197.5796" fill="#FEFECE" filter="url(#fdhh1l5jmtkeq)" rx="56.2981" ry="13.1796" style="stroke: #A80036; stroke-width: 1.2000000178813934;"/><text fill="#000000" font-family="sans-serif" font-size="11.2" lengthAdjust="spacingAndGlyphs" textLength="81.6" x="169.8981" y="201.8234">Reset Password</text><ellipse cx="210.8784" cy="318.3614" fill="#FEFECE" filter="url(#fdhh1l5jmtkeq)" rx="34.0784" ry="12.3614" style="stroke: #A80036; stroke-width: 1.2000000178813934;"/><text fill="#000000" font-family="sans-serif" font-size="11.2" lengthAdjust="spacingAndGlyphs" textLength="44.8" x="188.4784" y="322.6051">Brief Info</text><ellipse cx="210.6015" cy="442.4403" fill="#FEFECE" filter="url(#fdhh1l5jmtkeq)" rx="56.6015" ry="13.2403" style="stroke: #A80036; stroke-width: 1.2000000178813934;"/><text fill="#000000" font-family="sans-serif" font-size="11.2" lengthAdjust="spacingAndGlyphs" textLength="82.4" x="169.4015" y="446.6841">Updating Events</text><ellipse cx="210.6504" cy="635.0101" fill="#FEFECE" filter="url(#fdhh1l5jmtkeq)" rx="75.4504" ry="17.0101" style="stroke: #A80036; stroke-width: 1.2000000178813934;"/><text fill="#000000" font-family="sans-serif" font-size="11.2" lengthAdjust="spacingAndGlyphs" textLength="128" x="146.6504" y="639.2538">Like/Comment On Events</text><ellipse cx="210.9372" cy="496.1875" fill="#FEFECE" filter="url(#fdhh1l5jmtkeq)" rx="53.3372" ry="12.5874" style="stroke: #A80036; stroke-width: 1.2000000178813934;"/><text fill="#000000" font-family="sans-serif" font-size="11.2" lengthAdjust="spacingAndGlyphs" textLength="73.6" x="174.1372" y="500.4312">Search Events</text><!--entity Event_Manager--><ellipse cx="44.8" cy="286" fill="#FEFECE" filter="url(#fdhh1l5jmtkeq)" rx="6.4" ry="6.4" style="stroke: #A80036; stroke-width: 1.600000023841858;"/><path d="M44.8,292.4 L44.8,314 M34.4,298.8 L55.2,298.8 M44.8,314 L34.4,326 M44.8,314 L55.2,326 " fill="none" filter="url(#fdhh1l5jmtkeq)" style="stroke: #A80036; stroke-width: 1.600000023841858;"/><text fill="#000000" font-family="sans-serif" font-size="11.2" lengthAdjust="spacingAndGlyphs" textLength="80" x="4.8" y="343.2266">Event_Manager</text><!--link Log In to Verify Password--><path d="M210.8,117.128 C210.8,106.4736 210.8,91.028 210.8,79.1304 " fill="none" id="Log In-Verify Password" style="stroke: #A80036; stroke-width: 0.800000011920929; stroke-dasharray: 7.0,7.0;"/><polygon fill="#A80036" points="210.8,74.9232,207.6,82.1232,210.8,78.9232,214,82.1232,210.8,74.9232" style="stroke: #A80036; stroke-width: 0.800000011920929;"/><text fill="#000000" font-family="sans-serif" font-size="10.4" lengthAdjust="spacingAndGlyphs" textLength="44" x="179.2" y="100.3961">«include»</text><!--link Reset Password to Log In--><path d="M210.8,184.1656 C210.8,173.272 210.8,157.8672 210.8,146.2024 " fill="none" id="Reset Password-Log In" style="stroke: #A80036; stroke-width: 0.800000011920929; stroke-dasharray: 7.0,7.0;"/><polygon fill="#A80036" points="210.8,142.0896,207.6,149.2896,210.8,146.0896,214,149.2896,210.8,142.0896" style="stroke: #A80036; stroke-width: 0.800000011920929;"/><text fill="#000000" font-family="sans-serif" font-size="10.4" lengthAdjust="spacingAndGlyphs" textLength="42.4" x="180" y="167.5961">«extend»</text><!--link Brief Info to Alumni List--><path d="M210.8,305.76 C210.8,295.06 210.8,279.6376 210.8,267.9176 " fill="none" id="Brief Info-Alumni List" style="stroke: #A80036; stroke-width: 0.800000011920929; stroke-dasharray: 7.0,7.0;"/><polygon fill="#A80036" points="210.8,263.7832,207.6,270.9832,210.8,267.7832,214,270.9832,210.8,263.7832" style="stroke: #A80036; stroke-width: 0.800000011920929;"/><text fill="#000000" font-family="sans-serif" font-size="10.4" lengthAdjust="spacingAndGlyphs" textLength="42.4" x="180" y="289.1961">«extend»</text><!--link Updating Events to Scheduling Events--><path d="M210.8,428.9808 C210.8,418.2152 210.8,402.9928 210.8,391.108 " fill="none" id="Updating Events-Scheduling Events" style="stroke: #A80036; stroke-width: 0.800000011920929; stroke-dasharray: 7.0,7.0;"/><polygon fill="#A80036" points="210.8,386.8952,207.6,394.0952,210.8,390.8952,214,394.0952,210.8,386.8952" style="stroke: #A80036; stroke-width: 0.800000011920929;"/><text fill="#000000" font-family="sans-serif" font-size="10.4" lengthAdjust="spacingAndGlyphs" textLength="42.4" x="180" y="412.3961">«extend»</text><!--link Like/Comment On Events to Preview Events--><path d="M210.8,617.7708 C210.8,606.3544 210.8,591.5064 210.8,580.1816 " fill="none" id="Like/Comment On Events-Preview Events" style="stroke: #A80036; stroke-width: 0.800000011920929; stroke-dasharray: 7.0,7.0;"/><polygon fill="#A80036" points="210.8,576.1816,207.6,583.3816,210.8,580.1816,214,583.3816,210.8,576.1816" style="stroke: #A80036; stroke-width: 0.800000011920929;"/><text fill="#000000" font-family="sans-serif" font-size="10.4" lengthAdjust="spacingAndGlyphs" textLength="42.4" x="180" y="601.3961">«extend»</text><!--link Preview Events to Search Events--><path d="M210.8,546.096 C210.8,534.36 210.8,519.0528 210.8,508.4624 " fill="none" id="Preview Events-Search Events" style="stroke: #A80036; stroke-width: 0.800000011920929; stroke-dasharray: 7.0,7.0;"/><polygon fill="#A80036" points="210.8,550.2432,214,543.0432,210.8,546.2432,207.6,543.0432,210.8,550.2432" style="stroke: #A80036; stroke-width: 0.800000011920929;"/><text fill="#000000" font-family="sans-serif" font-size="10.4" lengthAdjust="spacingAndGlyphs" textLength="42.4" x="180" y="533.7961">«extend»</text><!--link Event_Manager to Log In--><path d="M55.1169,277.8624 C65.4687,246.3152 84.8408,199.9832 116,170.4 C136.3848,151.0464 167.4136,140.0408 188.1824,134.4512 " fill="none" id="Event_Manager-Log In" style="stroke: #A80036; stroke-width: 0.800000011920929;"/><!--link Event_Manager to Alumni List--><path d="M84.9776,297.4368 C115.7552,286.0544 157.6456,270.5624 184.2592,260.72 " fill="none" id="Event_Manager-Alumni List" style="stroke: #A80036; stroke-width: 0.800000011920929;"/><!--link Event_Manager to Preview Events--><path d="M48.5054,346.16 C54.0899,391.724 70.1839,472.4336 116,522.4 C130.548,538.2664 152.344,548.2488 171.2856,554.3648 " fill="none" id="Event_Manager-Preview Events" style="stroke: #A80036; stroke-width: 0.800000011920929;"/><!--link Event_Manager to Scheduling Events--><path d="M85.0016,331.5936 C94.992,336.2176 105.7888,340.9248 116,344.8 C133.512,351.4464 153.3296,357.5512 170.2392,362.352 " fill="none" id="Event_Manager-Scheduling Events" style="stroke: #A80036; stroke-width: 0.800000011920929;"/><!--
@startuml
left to right direction
skinparam packageStyle rectangle

actor Event_Manager

rectangle Alumni_website {

(Log In)
(Alumni List)
(Scheduling Events)
(Preview Events)

(Verify Password)
(Reset Password)
(Brief Info)
(Updating Events)
(Like/Comment On Events)
(Search Events)



(Log In) .> (Verify Password) : <<include>>

(Reset Password) .> (Log In) : <<extend>>
(Brief Info) .> (Alumni List) : <<extend>>
(Updating Events) .> (Scheduling Events) : <<extend>>
(Like/Comment On Events) .> (Preview Events) : <<extend>>
(Preview Events) <. (Search Events) : <<extend>>


Event_Manager - - (Log In)
Event_Manager - - (Alumni List)
Event_Manager - - (Preview Events)
Event_Manager - - (Scheduling Events)

}
@enduml

PlantUML version 1.2018.11(Sat Sep 22 19:43:53 EET 2018)
(GPL source distribution)
Java Runtime: OpenJDK Runtime Environment
JVM: OpenJDK 64-Bit Server VM
Java Version: 1.8.0_152-release-1024-b11
Operating System: Windows 10
OS Version: 10.0
Default Encoding: Cp1254
Language: tr
Country: TR
--></g></svg>