<?xml version="1.0" encoding="UTF-8" standalone="no"?><svg xmlns="http://www.w3.org/2000/svg" xmlns:xlink="http://www.w3.org/1999/xlink" contentScriptType="application/ecmascript" contentStyleType="text/css" height="797.6px" preserveAspectRatio="none" style="width:654px;height:797px;" version="1.1" viewBox="0 0 654 797" width="654.4px" zoomAndPan="magnify"><defs><filter height="300%" id="f146v4mzh58x42" width="300%" x="-1" y="-1"><feGaussianBlur result="blurOut" stdDeviation="1.600000023841858"/><feColorMatrix in="blurOut" result="blurOut2" type="matrix" values="0 0 0 0 0 0 0 0 0 0 0 0 0 0 0 0 0 0 .4 0"/><feOffset dx="3.200000047683716" dy="3.200000047683716" in="blurOut2" result="blurOut3"/><feBlend in="SourceGraphic" in2="blurOut3" mode="normal"/></filter></defs><g><!--cluster Alumni_website--><rect fill="#FFFFFF" filter="url(#f146v4mzh58x42)" height="769.6" style="stroke: #000000; stroke-width: 1.2000000178813934;" width="176.8" x="300" y="19.2"/><text fill="#000000" font-family="sans-serif" font-size="11.2" font-weight="bold" lengthAdjust="spacingAndGlyphs" textLength="88" x="344.4" y="32.4266">Alumni_website</text><ellipse cx="388.4617" cy="252.7614" fill="#FEFECE" filter="url(#f146v4mzh58x42)" rx="24.4617" ry="12.3614" style="stroke: #A80036; stroke-width: 1.2000000178813934;"/><text fill="#000000" font-family="sans-serif" font-size="11.2" lengthAdjust="spacingAndGlyphs" textLength="31.2" x="372.8617" y="257.0051">Log In</text><ellipse cx="388.5921" cy="60.7614" fill="#FEFECE" filter="url(#f146v4mzh58x42)" rx="45.3921" ry="12.3614" style="stroke: #A80036; stroke-width: 1.2000000178813934;"/><text fill="#000000" font-family="sans-serif" font-size="11.2" lengthAdjust="spacingAndGlyphs" textLength="60.8" x="358.1921" y="65.0051">Registration</text><ellipse cx="388.4666" cy="374.3614" fill="#FEFECE" filter="url(#f146v4mzh58x42)" rx="40.8666" ry="12.3614" style="stroke: #A80036; stroke-width: 1.2000000178813934;"/><text fill="#000000" font-family="sans-serif" font-size="11.2" lengthAdjust="spacingAndGlyphs" textLength="54.4" x="361.2666" y="378.6051">Alumni List</text><ellipse cx="388.5713" cy="692.9143" fill="#FEFECE" filter="url(#f146v4mzh58x42)" rx="60.9713" ry="14.1143" style="stroke: #A80036; stroke-width: 1.2000000178813934;"/><text fill="#000000" font-family="sans-serif" font-size="11.2" lengthAdjust="spacingAndGlyphs" textLength="93.6" x="341.7713" y="697.158">Scheduling Events</text><ellipse cx="388.5049" cy="561.621" fill="#FEFECE" filter="url(#f146v4mzh58x42)" rx="54.5049" ry="12.821" style="stroke: #A80036; stroke-width: 1.2000000178813934;"/><text fill="#000000" font-family="sans-serif" font-size="11.2" lengthAdjust="spacingAndGlyphs" textLength="76.8" x="350.1049" y="565.8647">Preview Events</text><ellipse cx="388.3959" cy="184.7192" fill="#FEFECE" filter="url(#f146v4mzh58x42)" rx="55.9959" ry="13.1192" style="stroke: #A80036; stroke-width: 1.2000000178813934;"/><text fill="#000000" font-family="sans-serif" font-size="11.2" lengthAdjust="spacingAndGlyphs" textLength="80.8" x="347.9959" y="188.9629">Verify Password</text><ellipse cx="388.2981" cy="320.7796" fill="#FEFECE" filter="url(#f146v4mzh58x42)" rx="56.2981" ry="13.1796" style="stroke: #A80036; stroke-width: 1.2000000178813934;"/><text fill="#000000" font-family="sans-serif" font-size="11.2" lengthAdjust="spacingAndGlyphs" textLength="81.6" x="347.4981" y="325.0234">Reset Password</text><ellipse cx="388.5713" cy="129.7143" fill="#FEFECE" filter="url(#f146v4mzh58x42)" rx="60.9713" ry="14.1143" style="stroke: #A80036; stroke-width: 1.2000000178813934;"/><text fill="#000000" font-family="sans-serif" font-size="11.2" lengthAdjust="spacingAndGlyphs" textLength="93.6" x="341.7713" y="133.958">Verify Membership</text><ellipse cx="388.4784" cy="441.5614" fill="#FEFECE" filter="url(#f146v4mzh58x42)" rx="34.0784" ry="12.3614" style="stroke: #A80036; stroke-width: 1.2000000178813934;"/><text fill="#000000" font-family="sans-serif" font-size="11.2" lengthAdjust="spacingAndGlyphs" textLength="44.8" x="366.0784" y="445.8051">Brief Info</text><ellipse cx="388.2015" cy="762.4403" fill="#FEFECE" filter="url(#f146v4mzh58x42)" rx="56.6015" ry="13.2403" style="stroke: #A80036; stroke-width: 1.2000000178813934;"/><text fill="#000000" font-family="sans-serif" font-size="11.2" lengthAdjust="spacingAndGlyphs" textLength="82.4" x="347.0015" y="766.6841">Updating Events</text><ellipse cx="388.2504" cy="633.4101" fill="#FEFECE" filter="url(#f146v4mzh58x42)" rx="75.4504" ry="17.0101" style="stroke: #A80036; stroke-width: 1.2000000178813934;"/><text fill="#000000" font-family="sans-serif" font-size="11.2" lengthAdjust="spacingAndGlyphs" textLength="128" x="324.2504" y="637.6538">Like/Comment On Events</text><ellipse cx="388.5372" cy="494.5875" fill="#FEFECE" filter="url(#f146v4mzh58x42)" rx="53.3372" ry="12.5874" style="stroke: #A80036; stroke-width: 1.2000000178813934;"/><text fill="#000000" font-family="sans-serif" font-size="11.2" lengthAdjust="spacingAndGlyphs" textLength="73.6" x="351.7372" y="498.8312">Search Events</text><!--entity Admin--><ellipse cx="629.2" cy="280.4" fill="#FEFECE" filter="url(#f146v4mzh58x42)" rx="6.4" ry="6.4" style="stroke: #A80036; stroke-width: 1.600000023841858;"/><path d="M629.2,286.8 L629.2,308.4 M618.8,293.2 L639.6,293.2 M629.2,308.4 L618.8,320.4 M629.2,308.4 L639.6,320.4 " fill="none" filter="url(#f146v4mzh58x42)" style="stroke: #A80036; stroke-width: 1.600000023841858;"/><text fill="#000000" font-family="sans-serif" font-size="11.2" lengthAdjust="spacingAndGlyphs" textLength="31.2" x="613.6" y="337.6266">Admin</text><!--entity Alumni_Student--><ellipse cx="173.2" cy="321.2" fill="#FEFECE" filter="url(#f146v4mzh58x42)" rx="6.4" ry="6.4" style="stroke: #A80036; stroke-width: 1.600000023841858;"/><path d="M173.2,327.6 L173.2,349.2 M162.8,334 L183.6,334 M173.2,349.2 L162.8,361.2 M173.2,349.2 L183.6,361.2 " fill="none" filter="url(#f146v4mzh58x42)" style="stroke: #A80036; stroke-width: 1.600000023841858;"/><text fill="#000000" font-family="sans-serif" font-size="11.2" lengthAdjust="spacingAndGlyphs" textLength="79.2" x="133.6" y="378.4266">Alumni_Student</text><!--entity Event_Manager--><ellipse cx="44.8" cy="498.8" fill="#FEFECE" filter="url(#f146v4mzh58x42)" rx="6.4" ry="6.4" style="stroke: #A80036; stroke-width: 1.600000023841858;"/><path d="M44.8,505.2 L44.8,526.8 M34.4,511.6 L55.2,511.6 M44.8,526.8 L34.4,538.8 M44.8,526.8 L55.2,538.8 " fill="none" filter="url(#f146v4mzh58x42)" style="stroke: #A80036; stroke-width: 1.600000023841858;"/><text fill="#000000" font-family="sans-serif" font-size="11.2" lengthAdjust="spacingAndGlyphs" textLength="80" x="4.8" y="556.0266">Event_Manager</text><!--link Verify Membership to Registration--><path d="M388.4,111.112 C388.4,99.1808 388.4,83.9744 388.4,73.4176 " fill="none" id="Verify Membership-Registration" style="stroke: #A80036; stroke-width: 0.800000011920929; stroke-dasharray: 7.0,7.0;"/><polygon fill="#A80036" points="388.4,115.3448,391.6,108.1448,388.4,111.3448,385.2,108.1448,388.4,115.3448" style="stroke: #A80036; stroke-width: 0.800000011920929;"/><text fill="#000000" font-family="sans-serif" font-size="10.4" lengthAdjust="spacingAndGlyphs" textLength="44" x="356.8" y="98.7961">«include»</text><!--link Log In to Verify Password--><path d="M388.4,240.328 C388.4,229.6736 388.4,214.228 388.4,202.3304 " fill="none" id="Log In-Verify Password" style="stroke: #A80036; stroke-width: 0.800000011920929; stroke-dasharray: 7.0,7.0;"/><polygon fill="#A80036" points="388.4,198.1232,385.2,205.3232,388.4,202.1232,391.6,205.3232,388.4,198.1232" style="stroke: #A80036; stroke-width: 0.800000011920929;"/><text fill="#000000" font-family="sans-serif" font-size="10.4" lengthAdjust="spacingAndGlyphs" textLength="44" x="356.8" y="223.5961">«include»</text><!--link Reset Password to Log In--><path d="M388.4,307.3656 C388.4,296.472 388.4,281.0672 388.4,269.4024 " fill="none" id="Reset Password-Log In" style="stroke: #A80036; stroke-width: 0.800000011920929; stroke-dasharray: 7.0,7.0;"/><polygon fill="#A80036" points="388.4,265.2896,385.2,272.4896,388.4,269.2896,391.6,272.4896,388.4,265.2896" style="stroke: #A80036; stroke-width: 0.800000011920929;"/><text fill="#000000" font-family="sans-serif" font-size="10.4" lengthAdjust="spacingAndGlyphs" textLength="42.4" x="357.6" y="290.7961">«extend»</text><!--link Brief Info to Alumni List--><path d="M388.4,428.96 C388.4,418.26 388.4,402.8376 388.4,391.1176 " fill="none" id="Brief Info-Alumni List" style="stroke: #A80036; stroke-width: 0.800000011920929; stroke-dasharray: 7.0,7.0;"/><polygon fill="#A80036" points="388.4,386.9832,385.2,394.1832,388.4,390.9832,391.6,394.1832,388.4,386.9832" style="stroke: #A80036; stroke-width: 0.800000011920929;"/><text fill="#000000" font-family="sans-serif" font-size="10.4" lengthAdjust="spacingAndGlyphs" textLength="42.4" x="357.6" y="412.3961">«extend»</text><!--link Updating Events to Scheduling Events--><path d="M388.4,748.9804 C388.4,738.215 388.4,722.9925 388.4,711.108 " fill="none" id="Updating Events-Scheduling Events" style="stroke: #A80036; stroke-width: 0.800000011920929; stroke-dasharray: 7.0,7.0;"/><polygon fill="#A80036" points="388.4,706.8952,385.2,714.0952,388.4,710.8952,391.6,714.0952,388.4,706.8952" style="stroke: #A80036; stroke-width: 0.800000011920929;"/><text fill="#000000" font-family="sans-serif" font-size="10.4" lengthAdjust="spacingAndGlyphs" textLength="42.4" x="357.6" y="732.3961">«extend»</text><!--link Like/Comment On Events to Preview Events--><path d="M388.4,616.1712 C388.4,604.7544 388.4,589.9064 388.4,578.5816 " fill="none" id="Like/Comment On Events-Preview Events" style="stroke: #A80036; stroke-width: 0.800000011920929; stroke-dasharray: 7.0,7.0;"/><polygon fill="#A80036" points="388.4,574.5816,385.2,581.7816,388.4,578.5816,391.6,581.7816,388.4,574.5816" style="stroke: #A80036; stroke-width: 0.800000011920929;"/><text fill="#000000" font-family="sans-serif" font-size="10.4" lengthAdjust="spacingAndGlyphs" textLength="42.4" x="357.6" y="599.7961">«extend»</text><!--link Preview Events to Search Events--><path d="M388.4,544.496 C388.4,532.76 388.4,517.4528 388.4,506.8624 " fill="none" id="Preview Events-Search Events" style="stroke: #A80036; stroke-width: 0.800000011920929; stroke-dasharray: 7.0,7.0;"/><polygon fill="#A80036" points="388.4,548.6432,391.6,541.4432,388.4,544.6432,385.2,541.4432,388.4,548.6432" style="stroke: #A80036; stroke-width: 0.800000011920929;"/><text fill="#000000" font-family="sans-serif" font-size="10.4" lengthAdjust="spacingAndGlyphs" textLength="42.4" x="357.6" y="532.1961">«extend»</text><!--link Log In to Admin--><path d="M411.0616,257.6984 C459.0392,268.4496 572.5304,293.8808 613.4032,303.0392 " fill="none" id="Log In-Admin" style="stroke: #A80036; stroke-width: 0.800000011920929;"/><!--link Alumni List to Admin--><path d="M418.8464,366.1168 C437.3552,360.9344 461.6744,354.1064 483.2,348 C530.8792,334.4744 587.3,318.2456 613.5664,310.6776 " fill="none" id="Alumni List-Admin" style="stroke: #A80036; stroke-width: 0.800000011920929;"/><!--link Preview Events to Admin--><path d="M423.9544,551.7936 C442.9064,545.2192 465.948,535.112 483.2,520.8 C544.96,469.5664 591.1872,385.5424 613.516,339.3648 " fill="none" id="Preview Events-Admin" style="stroke: #A80036; stroke-width: 0.800000011920929;"/><!--link Verify Membership to Admin--><path d="M435.62,138.4384 C451.4456,142.7184 468.772,148.8816 483.2,157.6 C539.7328,191.7624 589.6384,253.12 613.504,285.3352 " fill="none" id="Verify Membership-Admin" style="stroke: #A80036; stroke-width: 0.800000011920929;"/><!--link Alumni_Student to Log In--><path d="M213,329.5816 C236.3512,319.068 266.64,305.4912 293.6,293.6 C319.8064,282.0408 350.2296,268.8832 369.2,260.7104 " fill="none" id="Alumni_Student-Log In" style="stroke: #A80036; stroke-width: 0.800000011920929;"/><!--link Alumni_Student to Registration--><path d="M192.672,313.1272 C205.6648,289.0872 223.1752,256.0192 237.6,226.4 C264.2184,171.7424 250.348,144.324 293.6,101.6 C310.1168,85.2848 334.2216,75.0008 353.8856,68.8392 " fill="none" id="Alumni_Student-Registration" style="stroke: #A80036; stroke-width: 0.800000011920929;"/><!--link Alumni_Student to Alumni List--><path d="M212.9288,352.1576 C252.0368,357.1376 311.876,364.7576 350.3696,369.6592 " fill="none" id="Alumni_Student-Alumni List" style="stroke: #A80036; stroke-width: 0.800000011920929;"/><!--link Alumni_Student to Preview Events--><path d="M190.2024,381.476 C209.888,419.9216 246.4032,481.9648 293.6,520.8 C310.9776,535.0992 334.1344,545.2296 353.1144,551.8192 " fill="none" id="Alumni_Student-Preview Events" style="stroke: #A80036; stroke-width: 0.800000011920929;"/><!--link Event_Manager to Log In--><path d="M52.6358,490.4808 C63.593,443.4968 88.3312,358.2592 133.6,299.2 C168.2528,253.9904 182.6824,240.9768 236.8,223.2 C284.2,207.6296 342.816,230.6008 370.9704,244.1144 " fill="none" id="Event_Manager-Log In" style="stroke: #A80036; stroke-width: 0.800000011920929;"/><!--link Event_Manager to Alumni List--><path d="M85.116,517.84 C125.404,509.5784 188.7512,493.3072 237.6,465.6 C266.7256,449.08 265.4304,433.3024 293.6,415.2 C314.7032,401.6392 341.0752,390.6392 360.5112,383.4936 " fill="none" id="Event_Manager-Alumni List" style="stroke: #A80036; stroke-width: 0.800000011920929;"/><!--link Event_Manager to Preview Events--><path d="M84.832,529.0216 C147.5568,535.7704 270.2992,548.9784 338.6648,556.3344 " fill="none" id="Event_Manager-Preview Events" style="stroke: #A80036; stroke-width: 0.800000011920929;"/><!--link Event_Manager to Scheduling Events--><path d="M84.9896,550.7264 C132.7544,581.2824 216.4664,632.0328 293.6,664.8 C310.3696,671.924 329.5424,677.984 346.18,682.6256 " fill="none" id="Event_Manager-Scheduling Events" style="stroke: #A80036; stroke-width: 0.800000011920929;"/><!--
@startuml
left to right direction
skinparam packageStyle rectangle

actor Admin
actor Alumni_Student
actor Event_Manager



rectangle Alumni_website {

(Log In)
(Registration)
(Alumni List)
(Scheduling Events)
(Preview Events)

(Verify Password)
(Reset Password)
(Verify Membership)
(Brief Info)
(Updating Events)
(Like/Comment On Events)
(Search Events)



(Verify Membership) <. (Registration) : <<include>>
(Log In) .> (Verify Password) : <<include>>

(Reset Password) .> (Log In) : <<extend>>
(Brief Info) .> (Alumni List) : <<extend>>
(Updating Events) .> (Scheduling Events) : <<extend>>
(Like/Comment On Events) .> (Preview Events) : <<extend>>
(Preview Events) <. (Search Events) : <<extend>>







(Log In) - - Admin
(Alumni List) - - Admin
(Preview Events) - - Admin
(Verify Membership) - - - - Admin

Alumni_Student - - - (Log In)
Alumni_Student - - - (Registration)
Alumni_Student - - - (Alumni List)
Alumni_Student - - - (Preview Events)

Event_Manager - - - - (Log In)
Event_Manager - - - - (Alumni List)
Event_Manager - - - - (Preview Events)
Event_Manager - - - - (Scheduling Events)


}
@enduml

PlantUML version 1.2018.11(Sat Sep 22 19:43:53 EET 2018)
(GPL source distribution)
Java Runtime: OpenJDK Runtime Environment
JVM: OpenJDK 64-Bit Server VM
Java Version: 1.8.0_152-release-1024-b11
Operating System: Windows 10
OS Version: 10.0
Default Encoding: Cp1254
Language: tr
Country: TR
--></g></svg>