<?xml version="1.0" encoding="UTF-8" standalone="no"?><svg xmlns="http://www.w3.org/2000/svg" xmlns:xlink="http://www.w3.org/1999/xlink" contentScriptType="application/ecmascript" contentStyleType="text/css" height="340.8px" preserveAspectRatio="none" style="width:321px;height:340px;" version="1.1" viewBox="0 0 321 340" width="321px" zoomAndPan="magnify"><defs><filter height="300%" id="f1wk94pmd35zb6" width="300%" x="-1" y="-1"><feGaussianBlur result="blurOut" stdDeviation="1.2000000476837158"/><feColorMatrix in="blurOut" result="blurOut2" type="matrix" values="0 0 0 0 0 0 0 0 0 0 0 0 0 0 0 0 0 0 .4 0"/><feOffset dx="2.4000000953674316" dy="2.4000000953674316" in="blurOut2" result="blurOut3"/><feBlend in="SourceGraphic" in2="blurOut3" mode="normal"/></filter></defs><g><!--class Demo_index--><rect fill="#FEFECE" filter="url(#f1wk94pmd35zb6)" height="28.8" id="Demo_index" style="stroke: #A80036; stroke-width: 0.9000000357627869;" width="61.2" x="253.2" y="29.7"/><ellipse cx="262.2" cy="39.3" fill="#ADD1B2" rx="6.6" ry="6.6" style="stroke: #A80036; stroke-width: 0.6000000238418579;"/><path d="M263.4,37.2 Q263.5219,36.9 263.6625,36.75 Q263.8031,36.6 263.9625,36.6 Q264.2438,36.6 264.4219,36.7688 Q264.6,36.9375 264.6,37.3313 L264.6,38.2688 Q264.6,38.6625 264.4313,38.8313 Q264.2625,39 264,39 Q263.7656,39 263.6156,38.8969 Q263.4656,38.7938 263.4,38.5219 Q263.3719,38.3344 263.2688,38.2313 Q263.0813,38.0344 262.7438,37.9172 Q262.4063,37.8 262.0688,37.8 Q261.6469,37.8 261.2953,37.9688 Q260.9438,38.1375 260.6719,38.5125 Q260.4,38.8875 260.4,39.4031 L260.4,39.9563 Q260.4,40.575 260.9063,40.9875 Q261.4125,41.4 262.3125,41.4 Q262.8469,41.4 263.2219,41.2781 Q263.4375,41.2125 263.6813,40.9969 Q263.8406,40.875 263.925,40.8375 Q264.0094,40.8 264.1125,40.8 Q264.3094,40.8 264.4547,40.9547 Q264.6,41.1094 264.6,41.325 Q264.6,41.5313 264.3938,41.775 Q264.0938,42.1313 263.6156,42.3281 Q262.9875,42.6 262.2188,42.6 Q261.3188,42.6 260.5969,42.2438 Q260.0156,41.9625 259.6078,41.3531 Q259.2,40.7438 259.2,40.0219 L259.2,39.3656 Q259.2,38.6156 259.5609,37.9594 Q259.9219,37.3031 260.5547,36.9516 Q261.1875,36.6 261.9,36.6 Q262.3313,36.6 262.7063,36.75 Q263.0813,36.9 263.4,37.2 Z "/><text fill="#000000" font-family="sans-serif" font-size="7.2" lengthAdjust="spacingAndGlyphs" textLength="42" x="270.6" y="42.2461">Demo_index</text><line style="stroke: #A80036; stroke-width: 0.9000000357627869;" x1="253.8" x2="313.8" y1="48.9" y2="48.9"/><line style="stroke: #A80036; stroke-width: 0.9000000357627869;" x1="253.8" x2="313.8" y1="53.7" y2="53.7"/><!--class BusServiceController--><rect fill="#FEFECE" filter="url(#f1wk94pmd35zb6)" height="78.6094" id="BusServiceController" style="stroke: #A80036; stroke-width: 0.9000000357627869;" width="88.8" x="125.4" y="4.8"/><ellipse cx="134.4" cy="14.4" fill="#ADD1B2" rx="6.6" ry="6.6" style="stroke: #A80036; stroke-width: 0.6000000238418579;"/><path d="M135.6,12.3 Q135.7219,12 135.8625,11.85 Q136.0031,11.7 136.1625,11.7 Q136.4438,11.7 136.6219,11.8688 Q136.8,12.0375 136.8,12.4313 L136.8,13.3688 Q136.8,13.7625 136.6313,13.9313 Q136.4625,14.1 136.2,14.1 Q135.9656,14.1 135.8156,13.9969 Q135.6656,13.8938 135.6,13.6219 Q135.5719,13.4344 135.4688,13.3313 Q135.2813,13.1344 134.9438,13.0172 Q134.6063,12.9 134.2688,12.9 Q133.8469,12.9 133.4953,13.0688 Q133.1438,13.2375 132.8719,13.6125 Q132.6,13.9875 132.6,14.5031 L132.6,15.0563 Q132.6,15.675 133.1063,16.0875 Q133.6125,16.5 134.5125,16.5 Q135.0469,16.5 135.4219,16.3781 Q135.6375,16.3125 135.8813,16.0969 Q136.0406,15.975 136.125,15.9375 Q136.2094,15.9 136.3125,15.9 Q136.5094,15.9 136.6547,16.0547 Q136.8,16.2094 136.8,16.425 Q136.8,16.6313 136.5938,16.875 Q136.2938,17.2313 135.8156,17.4281 Q135.1875,17.7 134.4188,17.7 Q133.5188,17.7 132.7969,17.3438 Q132.2156,17.0625 131.8078,16.4531 Q131.4,15.8438 131.4,15.1219 L131.4,14.4656 Q131.4,13.7156 131.7609,13.0594 Q132.1219,12.4031 132.7547,12.0516 Q133.3875,11.7 134.1,11.7 Q134.5313,11.7 134.9063,11.85 Q135.2813,12 135.6,12.3 Z "/><text fill="#000000" font-family="sans-serif" font-size="7.2" lengthAdjust="spacingAndGlyphs" textLength="69.6" x="142.8" y="17.3461">BusServiceController</text><line style="stroke: #A80036; stroke-width: 0.9000000357627869;" x1="126" x2="213.6" y1="24" y2="24"/><text fill="#000000" font-family="sans-serif" font-size="6.6" lengthAdjust="spacingAndGlyphs" textLength="65.4" x="129" y="33.2514">-pool : BusServicePool</text><text fill="#000000" font-family="sans-serif" font-size="6.6" lengthAdjust="spacingAndGlyphs" textLength="71.4" x="129" y="41.5529">-view : BusServiceView</text><line style="stroke: #A80036; stroke-width: 0.9000000357627869;" x1="126" x2="213.6" y1="45.4031" y2="45.4031"/><text fill="#000000" font-family="sans-serif" font-size="6.6" lengthAdjust="spacingAndGlyphs" textLength="34.2" x="129" y="54.6545">+setModel()</text><text fill="#000000" font-family="sans-serif" font-size="6.6" lengthAdjust="spacingAndGlyphs" textLength="33" x="129" y="62.9561">+setView()</text><text fill="#000000" font-family="sans-serif" font-size="6.6" lengthAdjust="spacingAndGlyphs" textLength="52.2" x="129" y="71.2576">+CallBusService()</text><text fill="#000000" font-family="sans-serif" font-size="6.6" lengthAdjust="spacingAndGlyphs" textLength="31.8" x="129" y="79.5592">+Release()</text><!--class BusServiceView--><rect fill="#FEFECE" filter="url(#f1wk94pmd35zb6)" height="37.1016" id="BusServiceView" style="stroke: #A80036; stroke-width: 0.9000000357627869;" width="72" x="3.6" y="25.5"/><ellipse cx="12.6" cy="35.1" fill="#ADD1B2" rx="6.6" ry="6.6" style="stroke: #A80036; stroke-width: 0.6000000238418579;"/><path d="M13.8,33 Q13.9219,32.7 14.0625,32.55 Q14.2031,32.4 14.3625,32.4 Q14.6438,32.4 14.8219,32.5688 Q15,32.7375 15,33.1313 L15,34.0688 Q15,34.4625 14.8313,34.6313 Q14.6625,34.8 14.4,34.8 Q14.1656,34.8 14.0156,34.6969 Q13.8656,34.5938 13.8,34.3219 Q13.7719,34.1344 13.6688,34.0313 Q13.4813,33.8344 13.1438,33.7172 Q12.8063,33.6 12.4688,33.6 Q12.0469,33.6 11.6953,33.7688 Q11.3438,33.9375 11.0719,34.3125 Q10.8,34.6875 10.8,35.2031 L10.8,35.7563 Q10.8,36.375 11.3063,36.7875 Q11.8125,37.2 12.7125,37.2 Q13.2469,37.2 13.6219,37.0781 Q13.8375,37.0125 14.0813,36.7969 Q14.2406,36.675 14.325,36.6375 Q14.4094,36.6 14.5125,36.6 Q14.7094,36.6 14.8547,36.7547 Q15,36.9094 15,37.125 Q15,37.3313 14.7938,37.575 Q14.4938,37.9313 14.0156,38.1281 Q13.3875,38.4 12.6188,38.4 Q11.7188,38.4 10.9969,38.0438 Q10.4156,37.7625 10.0078,37.1531 Q9.6,36.5438 9.6,35.8219 L9.6,35.1656 Q9.6,34.4156 9.9609,33.7594 Q10.3219,33.1031 10.9547,32.7516 Q11.5875,32.4 12.3,32.4 Q12.7313,32.4 13.1063,32.55 Q13.4813,32.7 13.8,33 Z "/><text fill="#000000" font-family="sans-serif" font-size="7.2" lengthAdjust="spacingAndGlyphs" textLength="52.8" x="21" y="38.0461">BusServiceView</text><line style="stroke: #A80036; stroke-width: 0.9000000357627869;" x1="4.2" x2="75" y1="44.7" y2="44.7"/><line style="stroke: #A80036; stroke-width: 0.9000000357627869;" x1="4.2" x2="75" y1="49.5" y2="49.5"/><text fill="#000000" font-family="sans-serif" font-size="6.6" lengthAdjust="spacingAndGlyphs" textLength="21" x="7.2" y="58.7514">+print()</text><!--class BusServicePool--><rect fill="#FEFECE" filter="url(#f1wk94pmd35zb6)" height="95.2125" id="BusServicePool" style="stroke: #A80036; stroke-width: 0.9000000357627869;" width="96" x="121.8" y="130.2"/><ellipse cx="141.87" cy="139.8" fill="#ADD1B2" rx="6.6" ry="6.6" style="stroke: #A80036; stroke-width: 0.6000000238418579;"/><path d="M143.07,137.7 Q143.1919,137.4 143.3325,137.25 Q143.4731,137.1 143.6325,137.1 Q143.9138,137.1 144.0919,137.2688 Q144.27,137.4375 144.27,137.8313 L144.27,138.7688 Q144.27,139.1625 144.1013,139.3313 Q143.9325,139.5 143.67,139.5 Q143.4356,139.5 143.2856,139.3969 Q143.1356,139.2938 143.07,139.0219 Q143.0419,138.8344 142.9388,138.7313 Q142.7513,138.5344 142.4138,138.4172 Q142.0763,138.3 141.7388,138.3 Q141.3169,138.3 140.9653,138.4688 Q140.6138,138.6375 140.3419,139.0125 Q140.07,139.3875 140.07,139.9031 L140.07,140.4563 Q140.07,141.075 140.5763,141.4875 Q141.0825,141.9 141.9825,141.9 Q142.5169,141.9 142.8919,141.7781 Q143.1075,141.7125 143.3513,141.4969 Q143.5106,141.375 143.595,141.3375 Q143.6794,141.3 143.7825,141.3 Q143.9794,141.3 144.1247,141.4547 Q144.27,141.6094 144.27,141.825 Q144.27,142.0313 144.0638,142.275 Q143.7638,142.6313 143.2856,142.8281 Q142.6575,143.1 141.8888,143.1 Q140.9888,143.1 140.2669,142.7438 Q139.6856,142.4625 139.2778,141.8531 Q138.87,141.2438 138.87,140.5219 L138.87,139.8656 Q138.87,139.1156 139.2309,138.4594 Q139.5919,137.8031 140.2247,137.4516 Q140.8575,137.1 141.57,137.1 Q142.0013,137.1 142.3763,137.25 Q142.7513,137.4 143.07,137.7 Z "/><text fill="#000000" font-family="sans-serif" font-size="7.2" lengthAdjust="spacingAndGlyphs" textLength="52.2" x="152.73" y="142.7461">BusServicePool</text><line style="stroke: #A80036; stroke-width: 0.9000000357627869;" x1="122.4" x2="217.2" y1="149.4" y2="149.4"/><text fill="#000000" font-family="sans-serif" font-size="6.6" lengthAdjust="spacingAndGlyphs" textLength="88.8" x="125.4" y="158.6514">-out_of_service : BusService[]</text><text fill="#000000" font-family="sans-serif" font-size="6.6" lengthAdjust="spacingAndGlyphs" textLength="70.2" x="125.4" y="166.9529">-available : BusService[]</text><text fill="#000000" font-family="sans-serif" font-size="6.6" lengthAdjust="spacingAndGlyphs" textLength="69.6" x="125.4" y="175.2545">-plate_no : BusService[]</text><line style="stroke: #A80036; stroke-width: 0.9000000357627869;" x1="122.4" x2="217.2" y1="179.1047" y2="179.1047"/><text fill="#000000" font-family="sans-serif" font-size="6.6" lengthAdjust="spacingAndGlyphs" textLength="43.2" x="125.4" y="188.3561">+__construct()</text><text fill="#000000" font-family="sans-serif" font-size="6.6" lengthAdjust="spacingAndGlyphs" textLength="29.4" x="125.4" y="196.6576">+getfree()</text><text fill="#000000" font-family="sans-serif" font-size="6.6" lengthAdjust="spacingAndGlyphs" textLength="25.8" x="125.4" y="204.9592">+getfull()</text><text fill="#000000" font-family="sans-serif" font-size="6.6" lengthAdjust="spacingAndGlyphs" textLength="51" x="125.4" y="213.2608">+getBusService()</text><text fill="#000000" font-family="sans-serif" font-size="6.6" lengthAdjust="spacingAndGlyphs" textLength="30" x="125.4" y="221.5623">+release()</text><!--class BusService--><rect fill="#FEFECE" filter="url(#f1wk94pmd35zb6)" height="62.0063" id="BusService" style="stroke: #A80036; stroke-width: 0.9000000357627869;" width="56.4" x="141.6" y="272.4"/><ellipse cx="150.6" cy="282" fill="#ADD1B2" rx="6.6" ry="6.6" style="stroke: #A80036; stroke-width: 0.6000000238418579;"/><path d="M151.8,279.9 Q151.9219,279.6 152.0625,279.45 Q152.2031,279.3 152.3625,279.3 Q152.6438,279.3 152.8219,279.4688 Q153,279.6375 153,280.0313 L153,280.9688 Q153,281.3625 152.8313,281.5313 Q152.6625,281.7 152.4,281.7 Q152.1656,281.7 152.0156,281.5969 Q151.8656,281.4938 151.8,281.2219 Q151.7719,281.0344 151.6688,280.9313 Q151.4813,280.7344 151.1438,280.6172 Q150.8063,280.5 150.4688,280.5 Q150.0469,280.5 149.6953,280.6688 Q149.3438,280.8375 149.0719,281.2125 Q148.8,281.5875 148.8,282.1031 L148.8,282.6563 Q148.8,283.275 149.3063,283.6875 Q149.8125,284.1 150.7125,284.1 Q151.2469,284.1 151.6219,283.9781 Q151.8375,283.9125 152.0813,283.6969 Q152.2406,283.575 152.325,283.5375 Q152.4094,283.5 152.5125,283.5 Q152.7094,283.5 152.8547,283.6547 Q153,283.8094 153,284.025 Q153,284.2313 152.7938,284.475 Q152.4938,284.8313 152.0156,285.0281 Q151.3875,285.3 150.6188,285.3 Q149.7188,285.3 148.9969,284.9438 Q148.4156,284.6625 148.0078,284.0531 Q147.6,283.4438 147.6,282.7219 L147.6,282.0656 Q147.6,281.3156 147.9609,280.6594 Q148.3219,280.0031 148.9547,279.6516 Q149.5875,279.3 150.3,279.3 Q150.7313,279.3 151.1063,279.45 Q151.4813,279.6 151.8,279.9 Z "/><text fill="#000000" font-family="sans-serif" font-size="7.2" lengthAdjust="spacingAndGlyphs" textLength="37.2" x="159" y="284.9461">BusService</text><line style="stroke: #A80036; stroke-width: 0.9000000357627869;" x1="142.2" x2="197.4" y1="291.6" y2="291.6"/><text fill="#000000" font-family="sans-serif" font-size="6.6" lengthAdjust="spacingAndGlyphs" textLength="32.4" x="145.2" y="300.8514">-id : Integer</text><text fill="#000000" font-family="sans-serif" font-size="6.6" lengthAdjust="spacingAndGlyphs" textLength="49.2" x="145.2" y="309.1529">-plate_no : String</text><line style="stroke: #A80036; stroke-width: 0.9000000357627869;" x1="142.2" x2="197.4" y1="313.0031" y2="313.0031"/><text fill="#000000" font-family="sans-serif" font-size="6.6" lengthAdjust="spacingAndGlyphs" textLength="22.2" x="145.2" y="322.2545">+getId()</text><text fill="#000000" font-family="sans-serif" font-size="6.6" lengthAdjust="spacingAndGlyphs" textLength="39" x="145.2" y="330.5561">+getPlateNo()</text><!--link BusServiceController to Demo_index--><path d="M217.2648,44.1 C229.3692,44.1 242.064,44.1 253.0812,44.1 " fill="none" id="BusServiceController-Demo_index" style="stroke: #A80036; stroke-width: 0.6000000238418579;"/><polygon fill="#A80036" points="214.2018,44.1,219.6018,46.5,217.2018,44.1,219.6018,41.7,214.2018,44.1" style="stroke: #A80036; stroke-width: 0.6000000238418579;"/><text fill="#000000" font-family="sans-serif" font-size="7.8" lengthAdjust="spacingAndGlyphs" textLength="16.8" x="225.3" y="40.1971">uses</text><!--link BusServiceView to BusServiceController--><path d="M78.7878,44.1 C93.4374,44.1 110.1792,44.1 125.2758,44.1 " fill="none" id="BusServiceView-BusServiceController" style="stroke: #A80036; stroke-width: 0.6000000238418579;"/><polygon fill="#A80036" points="75.6948,44.1,81.0948,46.5,78.6948,44.1,81.0948,41.7,75.6948,44.1" style="stroke: #A80036; stroke-width: 0.6000000238418579;"/><text fill="#000000" font-family="sans-serif" font-size="7.8" lengthAdjust="spacingAndGlyphs" textLength="27.6" x="86.7" y="40.1971">updates</text><!--link BusServiceController to BusServicePool--><path d="M169.8,83.4096 C169.8,97.041 169.8,112.5654 169.8,127.0116 " fill="none" id="BusServiceController-BusServicePool" style="stroke: #A80036; stroke-width: 0.6000000238418579;"/><polygon fill="#A80036" points="169.8,130.077,172.2,124.677,169.8,127.077,167.4,124.677,169.8,130.077" style="stroke: #A80036; stroke-width: 0.6000000238418579;"/><text fill="#000000" font-family="sans-serif" font-size="7.8" lengthAdjust="spacingAndGlyphs" textLength="69" x="170.4" y="110.0971">asks for BusService</text><!--link BusServicePool to BusService--><path d="M169.8,225.6318 C169.8,240.1776 169.8,255.8892 169.8,269.3076 " fill="none" id="BusServicePool-BusService" style="stroke: #A80036; stroke-width: 0.6000000238418579;"/><polygon fill="#A80036" points="169.8,272.3112,172.2,266.9112,169.8,269.3112,167.4,266.9112,169.8,272.3112" style="stroke: #A80036; stroke-width: 0.6000000238418579;"/><text fill="#000000" font-family="sans-serif" font-size="7.8" lengthAdjust="spacingAndGlyphs" textLength="16.8" x="170.4" y="252.2971">uses</text><!--
@startuml

skinparam classAttributeIconSize 0

class Demo_index{

}

class BusServiceController{
{field} - pool : BusServicePool
{field} - view : BusServiceView

{method} + setModel()
{method} + setView()
{method} + CallBusService()
{method} + Release()

}

class BusServiceView{
{method} + print()
}

class BusServicePool{
{field} - out_of_service : BusService[]
{field} - available : BusService[]
{field} - plate_no : BusService[]
{method} + __construct()
{method} + getfree()
{method} + getfull()
{method} + getBusService()
{method} + release()
}

class BusService{
{field} - id : Integer
{field} - plate_no : String
{method} + getId()
{method} + getPlateNo()
}


BusServiceController <- Demo_index : uses
BusServiceView <- BusServiceController : updates
BusServiceController - -> BusServicePool : asks for BusService
BusServicePool - -> BusService : uses
@enduml

PlantUML version 1.2018.11(Sat Sep 22 19:43:53 EET 2018)
(GPL source distribution)
Java Runtime: OpenJDK Runtime Environment
JVM: OpenJDK 64-Bit Server VM
Java Version: 1.8.0_152-release-1024-b11
Operating System: Windows 10
OS Version: 10.0
Default Encoding: Cp1254
Language: tr
Country: TR
--></g></svg>